<?xml version="1.0" encoding="utf-8"?>
<!-- Generator: Adobe Illustrator 18.1.1, SVG Export Plug-In . SVG Version: 6.00 Build 0)  -->
<svg version="1.1" xmlns="http://www.w3.org/2000/svg" xmlns:xlink="http://www.w3.org/1999/xlink" x="0px" y="0px"
	 viewBox="0 0 2000 2000" enable-background="new 0 0 2000 2000" xml:space="preserve">
<g id="Layer_2" display="none">
	<rect x="1" y="1" display="inline" width="2000" height="2000"/>
</g>
<style type="text/css">
.st15{
	fill:none;
	stroke:#2AABE2;
	stroke-width:8;
	stroke-dasharray:8000;
	stroke-dashoffset:000;
	stroke-miterlimit:1;
	-webkit-animation: animation 1s alternate infinite;
	-moz-animation: animation 1s alternate infinite;
	-o-animation: animation 1s alternate infinite;
	animation: animation 1s alternate infinite;
}

@-webkit-keyframes animation{
	0%{
		stroke-dasharray:3000;
	}
	to{
		stroke-dashoffset:8000;
		}
}
@keyframes animation{
	0%{
		stroke-dasharray:8000;
	}
	to{
		stroke-dashoffset:8000;
		}
}


</style>
<g class="st15">
	<g>
		<path fill="none" d="M1294.9,1106.4c-3.5-3.3-7.4-5.4-12.4-5.5c-4-0.1-7.9-1.1-11.8-1.5c-7.8-0.6-15.4-2.4-23.3-2.4
			c-8.5,0-16.9-0.3-25.4,0.9c-10.5,1.4-21.1,2.4-31.4,5.2c-5.9,1.6-11.8,3.5-17,7c-8.3,5.6-11.5,13.4-9.3,22.9
			c3.7,16,11.8,29.3,26.4,37.8c13.6,8,27.5,15.7,41.1,23.7c6.4,3.8,13.3,6.8,19.1,11.5c0,0,0.1,0,0.1,0l-0.1,0.1c0,0,0,0-0.1,0
			c-1.8,0.2-3.5-0.4-5.2-0.9c-8.9-2.7-17.9-5.2-26.7-8.1c-20.3-6.7-41.6-10.9-60.5-21.7c-2.1-1.2-4.4-1.7-6.9-0.6
			c1.6,2.3,4.6,2.2,6.3,5.3c-2.3-0.7-3.8-1.2-5.4-1.6c-5.9-1.7-11.6-4.3-17.7-5.2c-8.8-1.2-17.2-3.6-25.3-7.2
			c-3.8-1.7-7.2-4.1-11.2-5.3c-7.3-2.2-14.5-4.8-21.9-6.8c-8.8-2.4-17.7-4.5-26.6-6.6c-4.2-1-4.9-0.3-4.9,4.2
			c0,6.8-0.9,13.6-1.8,20.3c-1,7.3-3.5,14.2-5,21.3c-0.3,0.4-0.8,0.7-0.9,1.1c-4.4,11.9-10.3,22.9-17.9,33.1c-1,1.4-2.2,2.7-2.4,4.7
			c6.9,0,13.6,0,20.2,0c2.5,0,5,0.1,7.5,0.1c114,0,228,0,341.9,0c1.2,0,2.3,0.1,3.5,0c2.5-0.3,4.5,0.6,6.2,2.5
			c3.5,4,7.2,7.9,10.8,11.7c14,14.8,27.9,29.5,41.9,44.2c1.1,1.1,1.9,2.7,3.8,3c0.8-1.4,0.4-2.7,0.1-3.9c-1.5-6.8-3-13.6-4.5-20.4
			c-7.9-35.5-20-69.3-37.7-101.1c-14.4-26-32.1-49.3-54.7-68.8c-12.1-10.3-25.1-19.1-39-26.7c-2-1.1-4-2.2-6.9-2.3
			c6.6,20.6,7.7,41.4,8,62.4c-4-4.2-7.6-8.5-11.1-12.8C1303.2,1115.1,1299.3,1110.5,1294.9,1106.4z"/>
		<path fill="none" d="M928.1,1083.5c-23.9-21.1-51.8-30.8-83.7-28.1c-17.4,1.4-34,6.2-50.1,12.9c-28.7,12-54.3,29-78.5,48.2
			c-35.8,28.5-67.7,61.1-97.4,95.8c-5.3,6.2-10.4,12.5-16.3,19.5c129.6,0,258.1,0,386.7,0c-0.6-7-1.1-13.6-1.7-20.3
			c-2.3-23.7-7.9-46.5-17.2-68.4C960.2,1120.2,946.8,1100,928.1,1083.5z"/>
		<path fill="none" d="M1378.6,846.3c0.1-0.4,0.2-0.8,0.3-1.2c-0.5-0.1-0.7,0.3-0.7,0.7C1378.2,845.9,1378.5,846.1,1378.6,846.3z"/>
		<path fill="none" d="M1438.9,644c-1.4,0.4-1.7,1.4-2.2,2.2c-4,6.4-8.7,12.2-13.9,17.6c-3.1,3.2-6,6.6-9.1,9.9
			c-4.7,4.9-9.5,9.7-14.2,14.6c-1.2,1.3-1.6,2.8-1.6,4.5c-0.1,19.4-1.4,38.8-2.2,58.1c-1.1,1.6-0.6,3.3-0.6,5c0,1-0.1,2-0.1,3.1
			c-0.3,0.6-0.4,1.3-0.2,2c0.1,0.9-0.4,1.8,0.7,2.6c1-1.4,2.3-2.6,2.5-4.5c0,0,0,0,0,0l0-0.1c0,0,0,0,0,0c1.3-0.6,1.8-1.7,2-3
			c0,0,0,0,0,0l0,0c0,0,0,0,0,0c1.3-0.6,1.9-1.6,2-3c0,0,0,0,0,0l0,0c0,0,0,0,0,0c0.9-0.3,1.2-1,1.7-1.7c5-7.9,9.5-16,13.5-24.4
			c9.5-20,15.9-40.9,19.4-62.7C1437.7,657.5,1438.7,650.8,1438.9,644z"/>
		<path fill="none" d="M1404.4,765.5c0.8-0.8,1.7-1.6,2.6-2.3c-1.7,8.7-4.7,16.9-7.3,25.3c-3.7,11.9-8.4,23.4-13.1,35
			c-0.7,1.6-1,3.6-2.9,4.4c0.9-3.9,1.9-7.7,2.8-11.5c-0.9,3.8-1.9,7.7-2.8,11.5c-1.8,5.6-4,11-4.6,16.9c1.6-0.5,2-2,2.8-3.1
			c17.7-26.2,31.6-54.2,41.6-84.2c1.7-5,3.5-9.9,4.1-15.3c-6.5,7.4-13.6,14.1-20.6,20.9C1406.1,764,1405.3,764.8,1404.4,765.5z"/>
		<path fill="none" d="M580,1192.1c3-1.7,4.6-4.8,6.7-7.3c11.9-14.1,24.6-27.5,37.4-40.7c5.3-4.7,10.5-9.6,15.3-14.8
			c1.3-1,2.7-2,3.9-3.1c9.1-8.4,18.5-16.2,28-24.1c5.2-4.3,11-8,15.8-12.9c4.5-2.5,8.6-5.5,12.3-9c5.2-2.8,10-6.3,14.7-10
			c3.4-2.4,6.7-4.7,10.1-7.1c0.8-0.1,1.7,0.1,2.1-0.9c0.6-0.4,1.2-0.7,1.8-1.1c1.8-0.1,3-1.3,4.4-2.1c13.9-8.5,27.9-16.7,42.6-23.6
			c2-1,4.5-1.2,6-3.2c0,0,0,0,0,0l0,0c0,0,0,0,0,0c1.2,0.1,2.2-0.1,3.1-1c1.7-0.5,3.5-0.9,5.2-1.6c11.2-4.5,22.8-7.3,34.7-8.7
			c13.4-1.6,26.8-2.1,40.2-0.1c1,0.2,2.2,0.6,3.2-0.1c-0.1-1.2-1-1.5-1.6-2c-8.8-6.2-17.8-12.2-27.5-17.1c-3.4-1.7-6.6-3.9-10.4-4.7
			c-8.9-4.6-18.2-7.8-27.9-10.2c-1.6-1-3.4-1.3-5.1-1.8c-7.8-2.4-15.6-4.5-23.3-7.2c-10.8-3.8-20.7-9-28.4-17.7c-1.7-2-3.5-4-5.2-6
			c-4.6-8.2-8.2-16.7-9.5-26.1c-0.5-3.6-0.5-7.2-0.4-10.8c0-1.7-0.1-3.2-1.3-4.6c-1.6-1.8-3.1-3.8-4.6-5.7
			c-2.7-3.9-5.5-7.9-8.2-11.8c-2.5-4-4.9-8.1-7.4-12.1c-2.2-3.6-3.7-7.7-6.5-10.9c-0.2-0.8-0.3-1.7-0.7-2.4
			c-4.4-8.6-8.1-17.5-11.5-26.6c-1.4-4.8-3-9.5-4.4-14.3c-1.5-5.2-2.2-10.7-4.4-15.8c0-1.1,0.2-2.4-1.1-3c0,0,0,0,0,0l-0.1,0
			c0,0,0,0,0.1,0c0.4-4.5-1.3-8.7-2.1-13c0.2-0.8-0.1-1.4-0.7-1.9c-0.9-7.4-2.8-14.6-4.7-21.8c-1.6-6-3-12.2-6.4-17.6
			c-1.8-6.5-6.2-10.5-12.2-13.2c-4.9-2.2-9.7-4.9-14.8-6.8c-1.6-0.8-3.2-1.6-4.9-2.3c-15-6.2-30.6-10.8-46.3-15
			c-9.5-3.4-19.1-6.5-28.9-8.8c-7.5-3-15.2-5.3-23.1-7.3c-4.4-1.5-8.9-3.1-13.9-4.9c5.2-2,10.3-1.6,14.9-3.2c1.7-0.2,3.4,0,5-0.7
			c1.4,0.2,2.7-0.3,3.9-0.7c0.7,0,1.3,0.1,2,0c14.5-2.3,29.1-4.6,43.6-7.2c4.8-0.9,9.9-0.7,14.5-2.7c9-0.7,17.9-2.8,26.9-3.2
			c5.8,0,5.8,0,3.6-5.2c-6.7-15.3-11.3-31.2-15.5-47.3c-2.8-10.9-0.1-9.5-13.1-13.3c-5-2.3-10-4.6-15-7c-5.2-3.5-10.5-6.9-15.7-10.4
			c-2.3-1.9-4.7-3.9-7-5.8c-5-4.7-9.9-9.4-14.9-14.1c-0.2-0.6-0.5-0.9-1.1-0.9l0,0c-0.1-1.2-1-2-1.8-2.9
			c-4.6-5.2-8.7-10.8-12.8-16.4c-3.4-4.6-6.4-9.6-10.5-13.7c-4.7-8-9.4-15.9-14.1-23.9c-0.9-1.8-2.3-0.9-3.5-0.5
			c-0.9,0.1-1.8,0.2-2.7,0.3c-5.4-0.1-10.7,0.6-16,1.5c-3.6,0.3-7.3,0.6-10.9,0.9c-4.2-0.5-8.2,0.6-12.3,1
			c-8.2,0.7-16.5,0.7-24.7,2.1c-2.7-0.3-5.3,0.6-7.9,0.8c-10.7,0.8-21.3,1.6-32,2.5c-9,0.3-18.1,0.7-27.1,1
			c-6-0.1-12.1-0.4-18.1,0.3c-5.4-0.5-5.6-0.4-5.3,4.6c0.3,5.6,0.7,11.3,1.1,16.9c1.2,16.6,2.3,33.2,4.3,49.7
			c-0.2,5,0.8,9.9,1.4,14.8c0.4,3.4-0.3,7,1.5,10.2c0.1,2,0,4,0.2,6c2.6,23.3,5.5,46.6,8.8,69.8c0.9,6.1,1.2,12.2,3.1,18.2
			c-0.7,2.9,0.5,5.6,0.9,8.3c1.4,9.6,2.6,19.3,4.6,28.8c1.5,11.8,3.3,23.5,5.6,35.1c0.9,8,2.4,15.9,4,23.7
			c1.3,10.5,3.5,20.8,5.6,31.1c0.6,4.8,1.2,9.6,2.8,14.2c2.4,15.8,5.9,31.3,9.4,46.9c3.6,18.4,8,36.6,12.5,54.7
			c2.7,10.8,5.1,21.6,8.4,32.2c1.9,9.6,4.9,18.8,7.6,28.2c2.7,9.6,4.9,19.4,8.5,28.7c0.7,4.9,2.5,9.6,4,14.3
			c2.9,9.3,5.4,18.7,9,27.8c2.8,9.5,5.7,19,9.5,28.1c0.4,2.8,1.3,5.4,2.6,7.9c1.4,4.1,2.5,8.2,4.1,12.2c2.4,6,3.8,12.3,7.1,17.9
			c2.4,7.4,5.8,14.5,8.7,21.7c0.4,1.1,0.8,2.2,1.9,2.8c0.7,4.5,2.8,8.5,5,12.4c1.9,5.6,4.2,11.1,7.3,16.1c1.8,6.5,5.3,12.3,8,18.5
			c0.7,1.8,2.3,1.6,3.8,1.3c5.3,0.3,10.6,0.4,15.9-0.1c6,0.6,12,0.1,18,0.3c1.7,0,2.8-0.6,3.7-2c2.1-3.4,5-6.3,6.8-9.8
			c7-9,14.1-17.9,21.1-26.9C579.7,1193,579.8,1192.5,580,1192.1z"/>
		<path fill="none" d="M572,1361c-0.1-0.1-0.6-0.1-0.6,0c-0.1,0.5,0.1,0.9,0.6,1C572.5,1361.7,572.2,1361.3,572,1361z"/>
		<path fill="none" d="M659.4,1447c-2.9,0.3-4.9-0.7-6.9-3c-3.3-3.9-7.1-7.5-10.7-11.2c-22.4-23.2-44.9-46.4-67.4-69.5
			c-0.6-0.6-1.1-2.2-2.5-1.3c0,0,0,0,0,0c0.1,1.4,1,2.4,1.6,3.6c15.7,28.4,32.5,56.1,50.1,83.3c4.5,6.9,9.1,13.8,13.9,21.1
			c8.8-7.6,17.3-14.9,26-22.3C662,1446.6,660.6,1446.9,659.4,1447z"/>
		<path fill="none" d="M982.6,1136.3c0.1,0,0.1-0.2,0.2-0.3c-0.1-0.1-0.1-0.3-0.2-0.3c-0.1,0-0.3,0.1-0.3,0.2
			C982.2,1136.2,982.3,1136.4,982.6,1136.3z"/>
		<path fill="none" d="M669.7,411.8c0.5,0.4,1.1,0.6,2,1c-1.2-12.5-6.4-22.8-14.5-31.8c-9.2-10.1-19.5-19-30.8-26.8
			c-1.3-0.9-2.5-2.1-4.3-2.2c-1.6,15.2,4.7,29.1,17.1,37.3C649.8,396.4,660.4,403.2,669.7,411.8z"/>
		<path fill="none" d="M544.6,517.2c16.8,28.1,39.6,50.4,66.9,68.3c2,1.3,4.1,2.1,6.4,2.6c14.7,3.7,24.1,12.8,27.7,27.7
			c0.8,3.4,1.4,6.8,2.3,10.2c4.3,17.4,9.7,34.3,18.8,49.8c3.1,5.2,6.7,9.9,11.4,13.8c6,4.9,12.6,5.7,19.7,3.2c3-1.1,5.7-2.7,8.5-4.3
			c6.2-3.5,12-7.7,18.6-10.6c0.2,0.2,0.4,0.5,0.6,0.7c-6.2,8.7-12.4,17.4-19.5,25.5c-0.8,0.6-1.6,1.1-2.4,1.7
			c-6.5,4.8-13.6,7.5-21.8,7.4c-6.2-0.1-12.2-1.4-18.2-2.6c-5.5-1.1-11-2.2-16.7-2.1c1.2,0.9,2.4,1.6,3.7,2.2
			c5.2,2.5,10.5,5.1,15.7,7.6c9.3,4.4,16.3,11.3,21.3,20.4c4.2,7.7,7,15.8,9.3,24.2c3.7,13.2,6.3,26.6,9.1,39.9
			c6.2,29.7,17.7,57.1,35.3,81.9c0.7,1,1.2,2.2,2.8,2.8c0.9-4.3,2-8.3,2-12.5c0.6-2.2,1.3-4.4,1.7-6.6c1.7-8.7,3.1-17.4,4.9-26
			c4.1-19.8,4.8-39.6,1.5-59.6c-0.6-3.9-1.3-7.9-1.9-11.8c-0.1-0.6,0-1.4,0.8-1.6c0.9-0.3,1.2,0.4,1.5,0.9c0.2,0.4,0.4,0.9,0.5,1.4
			c6.4,16.2,10.3,33.1,10.5,50.6c0.2,18.9-3,37.5-5.2,56.1c-1.3,11.4-2.9,22.8-4.2,34.2c-1.2,11.1,1.1,21.2,9.5,29.3
			c4.1,4,9,6.8,14.1,9.4c28.5,14.3,58.3,25.3,89.3,32.9c18.4,4.5,37,8.3,54.9,14.8c5.8,2.1,11.5,4.3,17.2,6.6
			c0.7,0.3,1.7,0.6,1.3,1.7c-0.4,1-1.4,0.8-2.2,0.6c-3.8-0.7-7.5-1.6-11.3-2.3c-9.3-1.7-18.6-3.9-28.1-4.5c-2.9-1.1-5.9-1.1-9.1-0.8
			c1.3,1.7,2.8,2.9,4.3,4.1c23.2,18.5,40.1,41.6,50.5,69.3c1.7,4.6,4.3,7.7,8.4,10.5c32.4,22.2,53.6,52.2,62.1,90.7
			c1.1,5.1,1.9,10.4,2.9,15.6c1.1-0.5,1.3-1.4,1.5-2.2c6.1-16.5,7.9-33.6,5.9-51.1c-0.3-2.8-0.8-5.6-1.2-8.4c-0.2-1.5,0.4-2.2,1.9-2
			c2.3,0.3,4.6,0.6,6.9,0.8c11.7,2.2,23.5,4.3,35.4,7.4c-1.5-12.2-2.9-23.8-4.4-35.5c1.9,0.3,2.2,1.8,3,2.8
			c5.4,7.6,10.7,15.2,16.2,22.8c9.4,13,21.6,22.5,36.8,28c1.2,0.4,2.3,1.4,3.7,0.5c0.2-8.8,2.1-19.1,4.6-24
			c7.2,6.7,13,14.7,21.8,20.8c-1.4-4.6-2.7-8.5-3.6-12.5c-3.2-14.1-0.8-26.8,10.1-37.1c4-3.8,8.7-6.7,13.8-8.9
			c11.2-5,23.1-7.2,35.2-9c4.9-0.7,9.9-0.7,15.6-2.3c-4.6-2.3-8.2-4.2-12.4-6.3c2.4-0.9,4.1-1,5.9-1.1c7-0.5,13.9-0.9,20.9-1.6
			c16.5-1.6,32.1,1.2,47.1,8.2c4.1,2,8,4.4,12.7,7c-2.3-9.8-4.8-18.7-9-27.1c-2.4-5.5-4.8-10.9-7.1-16.4c-0.4-1-1.6-2-0.7-3.2
			c1.2-1.5,0.3-2.8-0.2-4.2c-3.1-10.1-4.7-20.4-4.9-30.9c-0.2-18.6,3.6-36.3,12.4-52.8c0.5-1,2-2,0.8-3.4c-1.1,0.1-1.8,0.8-2.6,1.4
			c-7.7,5.7-15.5,11.5-23.2,17.3c-10.5,7.8-21,15.7-31.6,23.5c-1.5,1.1-2.8,3.1-5.2,1.8c0.5-1.9,2.2-2.9,3.4-4.2
			c21.4-21.7,44.4-41.6,67.1-62c11-9.9,22-19.8,32.7-30c11.8-11.3,20.3-25.1,26.7-40c12.9-30,20.4-61.5,24.1-93.9
			c1.9-17,3.8-34,5.6-51.1c1.9-18.9,3.6-37.7,5.5-56.6c1.1-11.2,2.4-22.5,3.7-33.7c0.1-1-0.3-2.5,1.6-2.5c1,1.1,0.9,2.4,0.9,3.7
			c0.2,9.1,0.5,18.3,0.6,27.4c0.1,10,0.1,20,0.2,30c-0.2,1-0.5,2.1,0.4,3.1c1.3-1.2,2.3-2.4,2.5-4.1c0,0,0,0,0,0l0,0c0,0,0,0,0,0
			c0.9-0.3,1.2-1,1.1-1.9c0,0,0,0-0.1,0l0.1-0.1c0,0,0,0,0,0.1c1.2-0.6,1.8-1.7,1.9-3.1c0,0,0,0,0,0l0-0.1c0,0,0,0,0,0
			c1-0.3,1.2-1,1.1-1.9c0,0,0,0-0.1,0l0.1-0.1c0,0,0,0,0,0.1c0.6-0.1,0.8-0.6,0.8-1.2c0,0,0,0,0,0l0,0c0,0,0,0,0,0
			c3.5-3.8,5.6-8.5,8.4-12.8c19.1-29.8,29.4-62.3,31.2-97.6c0.2-4.2,0-8.3,0-12.5c-0.3-0.1-0.7-0.1-1-0.2
			c-4.3,11.6-10.4,22.2-16.9,32.6c-6.8,8.8-14,17.4-22,25.1c-3.6,3.5-7.1,7.3-11.9,11c1.4-5.9,3.5-10.4,4.3-15.4
			c1.1-0.9,1.2-2.4,1.6-3.6c13.6-41.3,17.8-83.5,12.6-126.7c-3.5-29.2-11.4-57.1-23.4-83.8c-0.5-1.2-0.5-3-2.5-3.4
			c-1,17.3-4.3,33.9-9.2,50.2c-6.9,22.5-18.5,42.8-29.8,63.2c0.5-7.4,2.4-14.4,3-21.7c3.1-13.2,4.5-26.5,5.3-40
			c0.9-17.2,0-34.2-2.4-51.3c-5.1-35.6-17.1-68.7-35.7-99.4c-0.6-1-1-2.3-2.3-2.9c-0.4,1.1,0.1,2,0.3,3c4.7,17.6,7.7,35.4,8.5,53.6
			c0.4,9.5,0,19,0,28.5c-1.9,17-4.1,33.9-6.7,51.1c-1.7-1.1-1.2-2.4-1.4-3.4c-1.1-6.2-1.2-12.5-3-18.6c0.5-3.2-0.6-6.3-1-9.4
			c-2.7-22.6-8.4-44.4-17-65.5c-12.3-29.9-29.9-56.4-52.7-79.3c-3-3-5.7-6.4-10-8.8c-0.3,9.8-4.2,17.6-10.3,25.3
			c-8.6-12.8-18-24.3-29.5-34c-11.7-9.8-24.5-17.6-38.6-23.6c-12.5-5.4-35.9-10.8-43.1-9.9c0.2,1.1,1.3,1.5,2,2.1
			c32,24.3,54.9,55.4,68.3,93.3c1.2,3.4,1.8,7.1,3.7,10.2c0.5,4.3,2.4,8.3,3.5,12.4c1.2,4.4,3.3,8.6,3.8,13.4
			c-1.9-0.1-2.3-1.6-3-2.6c-4.4-6.4-8.7-13-13.2-19.4c-6.6-9.6-12.9-19.4-20.5-28.2c-0.2-0.8-0.6-1.6-1.5-1.9c0,0,0,0,0,0l0,0
			c0,0,0,0,0,0c-0.2-1.1-0.7-1.9-1.8-2.1c0,0,0,0,0,0l0,0c0,0,0,0,0,0c0.1-1.5-1.2-2.3-1.9-3.3c-9.4-12.1-19.2-23.8-29.1-35.5
			c-15.6-18.5-32.1-36-51.1-51.1c-36.7-29.1-78.2-48.3-123.4-59.8c-5.2-1.3-10.5-2.9-16.1-3.2c0.5,1.8,2,2.1,3,2.8
			c6.3,4.1,12.4,8.4,18.2,13.1c6.9,5.5,13,11.9,19.1,18.1c4.8,6,9.7,11.9,14.1,18.1c12.7,17.8,20.6,37.9,28,58.3
			c0.2,0.4,0,0.9,0,1.7c-2-0.5-3.1-2-4.3-3.2c-5.2-4.9-10.4-9.8-15.7-14.7c-44.4-41.1-94.8-73.1-150.5-96.6
			c-1.3-0.5-2.5-1.6-4.1-1.1c-3.8,13.2-0.3,29.7,9.2,40.2c4.6,5.1,9.8,9.5,15.2,13.6c9.7,7.5,19.8,14.7,28.7,23.2
			c19.8,18.9,31.6,42.2,37.5,68.6c2.9,13,4.5,26.2,6.8,39.3c0.3,1.5,0.8,3.2-0.2,4.7c0,0,0,0.1,0.1,0.1l-0.1,0c0,0,0-0.1,0-0.1
			c-5-10.3-9.9-20.6-15-30.8c-19.5-39.2-48.8-69-86.8-90.5c-22.2-12.5-46.2-19.8-71.7-20.7c-23.6-0.9-46.3,3.8-67.9,13.6
			c-1.1,0.5-2.4,0.8-3.1,2c0.9,1.1,2.2,1,3.3,1.2c9,1.9,17.7,4.7,26,8.6c12.9,5.9,22.9,15.2,31.5,26.3c7,9.1,15.8,16.1,25.8,21.8
			c9.8,5.5,20.5,8.6,31.3,11.3c6.7,1.7,13.4,3.5,20.2,5.2c0,0.2-0.1,0.5-0.1,0.7c-4.7,0.5-9.4,1.1-14.1,1.6
			c-4.5,0.3-8.9,0.4-13.4,0.9c-9.7,1-19.2,0.6-28.8-1c-23.9-4-44.2-15-61.2-32.1c-0.7-0.7-1.1-2.1-2.8-1.7c0.1,2.8,0.7,5.6,1.4,8.3
			c7.6,37.3,23.5,70.8,46.7,101c-2,1.5-3.6,2.7-5.2,3.9c-3.5,2.5-3.5,2.5-6.1-0.9c-0.4-0.5-0.8-1.1-1.2-1.6
			c-20.2-25.9-47.1-37.8-79.6-37.2c-13.4,0.3-26.4,3-39.2,6.9c-9.1,2.8-17.8,6.5-26,11.3c0.4,0.4,0.6,0.7,0.9,0.9
			c0.4,0.3,0.9,0.5,1.3,0.6c27.8,9.6,51.3,25.8,71.9,46.6c20.9,21.1,29.7,46.1,25.2,75.5c-2.3,14.7-7.9,28-15.6,40.9
			c-1.9-1.4-2.5-3.4-3.3-5.1c-10.5-21.8-25.5-39.6-45.7-53.1c-18.5-12.5-29.8-30.1-35.3-51.5c-0.3-1.1-0.2-2.4-1.3-3.1
			c-0.2,0.2-0.6,0.4-0.7,0.6c-8.5,17.8-12.7,36-6.1,55.5c6.1,18,17.8,31.6,33.8,41.2c8.6,5.2,16.1,11.2,21.9,19.3
			c12.8,18.1,19.8,38.3,21.2,60.5c0.5,7.6,0.7,15.1,1,23.2c-1.8-0.9-2.1-2.3-2.7-3.4c-3.6-6.6-6.7-13.4-10.8-19.7
			c-6.3-9.5-15.3-14.6-26.7-15.2c-4.7-0.3-9.3-0.1-13.9,0.6c-9.3,1.4-18.5,2.1-27.9,1.5c-14.3-1-27.7-5.4-40.6-11.5
			c-1.2-0.6-2.3-1.9-4-1.3c0.1,0.4,0.1,0.8,0.2,1C543.1,514.6,543.8,515.9,544.6,517.2z M1364.3,625.2c-20.1,25.6-45.8,43.8-75.2,57
			c-3.7,1.7-5.4,3.8-6.4,7.8c-3.4,15.2-9.2,29.5-18.8,42.2c0.9-13.4,2.4-26.8,2.2-40.9c-19.7,5.7-39.2,9.7-59.4,8.5
			c5.3-3.4,11.4-4.6,16.7-7.7c13-4.5,25.6-10,38.3-15.4c16.9-7.2,33.5-15.4,49.8-23.7c0.3-0.1,0.4-0.5,0.7-0.7
			c11.9-5.7,23.2-12.4,34.6-18.8c1.1-0.6,2-1.6,3.1-2.4c3.9-0.6,6.7-3.4,10.1-4.8c1.4-0.6,2.5-2.4,4.4-0.9L1364.3,625.2z
			 M1139.3,621.8c27.8-10.7,55.9-20.6,83.5-31.7c0.5-0.2,0.9-0.4,1.4-0.5c2.8-0.6,3.4-2.1,2.9-5c-4.2-27.1,2.7-51.4,18.8-73.3
			c0.5-0.7,0.8-1.9,2.5-1.8c-3.3,23.3-3.9,46.6-1.5,70.8c43-17.5,84-37.6,125.5-56.4c-6.4,6.6-13.6,12.2-20.9,17.6
			c-2,1.5-4.2,2.7-5.9,4.6c-8.4,5.4-16.7,10.8-25.1,16c-18.1,11.1-37.1,20.6-56.6,28.9c-1.4,0.6-2.7,1.3-4,1.9
			c-11.5,4.2-22.9,8.9-34.6,12.6c-6.8,2.1-13.6,4.2-20.4,6.3c-13,3-26,6.1-39.2,8.5c-9.7,1.2-19.4,2.8-29.2,3.4
			C1136.9,622,1138.3,622.2,1139.3,621.8z M1112.5,688.7c3.4-2.4,5.8-2.3,9.2-0.3c25.9,15.6,46.9,36.1,62.6,61.9
			c2.1,3.4,2.3,3.7-0.5,6.2c-6.2,5.6-9,12.5-9.9,20.8c-1.4,12.2-5.9,23.5-13,33.7c-1.6,2.3-3.2,4.8-5.3,6.6
			c-2.9,2.5-3.9,5.6-4.2,9.1c-0.4,3.6-0.9,7.2-1.5,11.8c-3.6-2.4-6.6-4.2-9.4-6.2c-1.6-1.1-3-1.4-5-0.6c-20.6,8.3-41.1,6.6-61.3-1.3
			c-19.3-7.5-34.9-19.9-47.2-36.4c-1.8-2.4-3.7-3.6-6.5-3.6c-1.5,0-3-0.2-4.5-0.3c-1.3-0.1-2.6-0.2-3.8-0.3
			c-0.3-1.8,0.9-2.6,1.7-3.7C1041.2,748.2,1074.1,715.7,1112.5,688.7z M896.7,613.2c52.8,12.2,106.4,17.7,160.4,19.3
			c0,0.3,0,0.7,0,1c-5.1,0.9-10.2,1.9-15.3,2.8c-16.3,2-32.6,3.6-49.1,3.7c0.3,1.7,1.5,2.1,2.3,2.8c9.3,8.2,16,18.2,20.1,29.9
			c2.4,6.8,3.4,13.9,4.3,21c-0.1,3.2-0.2,6.3-0.2,9.5c0,2.1-0.7,3.7-2.2,5.3c-12.4,13.4-26.4,24.8-42,34.4c-2.9,1.8-5.6,2.2-8.9,1.5
			c-26.7-5.7-53.4-11.1-79.7-18.5c-26.4-7.4-51.3-18.5-74.6-33c-1.8-1.1-3.6-2.4-5.4-3.6c-0.2-0.2-0.3-0.6-0.5-0.9
			c1.2-0.9,2.1,0,3,0.4c5.5,2.3,11.1,4.6,16.6,6.8c1.1,0.4,2.4,1.6,3.3-0.4c0.4-0.5,0.9-1,1.2-1.6c8.4-13.7,18.6-26,30.5-36.8
			c11.8-10.7,24.9-19.4,39.9-25.3c-1.2-1-2.5-1.3-3.8-1.5c-27.2-6-53.6-14.6-79.1-25.8c-9.3-4.1-18.2-8.8-27.4-13.1
			c-8.8-5.3-17.9-10.3-26.5-15.9c-6-3.9-11.9-8-17.6-12.3c-0.9-0.7-1.9-1.2-2.7-3C793.3,582.3,843.9,601,896.7,613.2z"/>
		<path fill="none" d="M1174.9,177.7C1174.8,177.7,1174.8,177.7,1174.9,177.7c-0.1,0-0.1,0.1-0.2,0.1
			C1174.7,177.8,1174.8,177.8,1174.9,177.7z"/>
		<path fill="none" d="M1174.5,178c-0.1,0.1-0.3,0.2-0.4,0.2c0,0,0,0.1,0,0.1C1174.2,178.2,1174.3,178.1,1174.5,178z"/>
		<path fill="none" d="M1174.9,177.7C1174.8,177.7,1174.8,177.7,1174.9,177.7C1174.8,177.7,1174.8,177.7,1174.9,177.7
			C1174.8,177.7,1174.9,177.7,1174.9,177.7z"/>
		<path fill="none" d="M848.3,1739.9c6,0,12,0.1,18,0c8.9-0.2,7.4,1.7,7.7-8.1c0.1-2.8-1.1-3.3-3.5-3.3c-11.3,0.1-22.6,0-33.9,0.1
			c-3.4,0-3.4,0.1-3.5,3.7c0,7.2,0,14.3,0,21.5c0,7.3,0.1,14.6,0,22c0,2.3,0.6,3.3,3.1,3.3c11.6-0.1,23.3-0.1,34.9,0
			c2.1,0,3-0.7,2.9-2.9c-0.2-10.3,1.2-8.2-7.9-8.4c-6-0.1-12-0.1-18,0c-2.4,0-3.4-0.8-3.2-3.2c0.1-0.7,0.1-1.3,0-2
			c-0.2-2.1,0.6-3.1,2.8-3c2.7,0.1,5.3,0.1,8,0c9.8-0.2,8,1.8,8.3-8.4c0.1-2.3-0.7-3.3-3.1-3.2c-4,0.2-8,0.1-12,0
			c-4.4,0-4.4-0.1-4.3-4.5C844.7,1740,844.7,1739.9,848.3,1739.9z"/>
		<polygon fill="none" points="1252.6,212.2 1252.3,212.3 1252.5,212.5 		"/>
		<path fill="none" d="M564.8,446.1c9.2,17.4,22.8,29.2,42.5,33.4c13.1,2.8,25.7,7.1,36.1,16c0,0,0,0,0,0c0.2-0.2,0.5-0.4,0.7-0.7
			c-4.9-10.5-12.1-19.1-22-25.2c-6.8-4.2-13.8-8.1-20.8-11.9c-9.3-5-14.9-12.5-17.3-22.7c-0.5-1.9-0.9-3.9-1.3-5.9
			c-0.4-2.3-1.5-3.3-4-3.4c-5.7-0.3-11.2-1.6-16.5-3.6c-2.4-0.9-4.8-1.9-7.2-2.8c-0.6,0.9-0.3,1.6-0.1,2.2
			C557.6,430.1,560.7,438.3,564.8,446.1z"/>
		<path fill="none" d="M1136.6,808.3c0.5-28.5-5-63.3-23.5-101.7c2.4,0.5,3.4,2.5,4.7,4.2c15.3,20,23.3,42.8,25.3,67.8
			c0.3,3.7,0.5,7.3,0.8,11c1.5-1.2,2.3-2.4,3-3.7c6.8-11.6,15.1-21.9,25-31c3-2.7,3.4-2,0.7-6c-13.7-20.5-31.1-37.2-52-50.4
			c-3.3-2.1-3.3-2-6.8,0.7c-0.8,0.5-1.7,1-2.5,1.6c-15.7,11.3-30.4,23.8-44.2,37.3c-13.1,12.8-25.4,26.3-36.6,40.8
			c-0.6,0.8-1.9,1.6-1.1,3C1067.1,782.6,1102.6,792,1136.6,808.3z"/>
		<path fill="none" d="M867.2,666c-4.3,4.3-8.3,8.9-11.9,14.8c5.7,0.7,10.6,1.1,15.6,0.6c17.9-1.8,30.5-11.1,39-26.6
			c1.2-2.2,2.2-4.5,2.7-6.9c1.1-5.3-0.8-7.3-6-6.3c-2.8,0.5-5.5,1.5-8,2.7C886.9,649.7,876.3,656.9,867.2,666z"/>
		<path fill="none" d="M1034.6,795.7c4.2,3,8.3,6.1,12.7,8.8c16.7,10.6,34.7,17.6,54.6,18.8c6.7,0.4,13.3,0.2,20.9-1.8
			c-29.2-16.3-59.3-26-92.4-30C1031.9,793.9,1033.2,794.8,1034.6,795.7z"/>
		<path fill="none" d="M1036,1844c-0.9,0.2-1.9,0-2.8,0c-0.1,0.3-0.2,0.7-0.2,1c4.5,2.7,9,5.6,14.2,6.9
			C1046.2,1845.2,1042.2,1842.9,1036,1844z"/>
		<path fill="none" d="M911.7,1748.9c-3.5,0.1-7,0-10.5,0c-7.6,0-7.8,0.3-7,7.7c0.2,1.7,0.8,2.3,2.5,2.3c2.5,0,5,0,7.5,0
			c0,0,0,0,0,0c1,0,2,0,3,0c7.6,0,7.6-0.1,7-7.8C914,1749.4,913.4,1748.9,911.7,1748.9z"/>
		<path fill="none" d="M1461.1,1359.3c-16.8-16.4-33.4-33.1-50-49.7c-2.5-2.5-4.6-5.9-7.6-7.1c-3.2-1.3-7.2-0.4-10.9-0.5
			c-1.2,0-2.3-0.1-3.5-0.1c-1.8,0-3.7,0.1-5.5,0.1c-91.3,0-182.6,0-273.9,0c-121.8,0-243.6,0.4-365.3-0.3
			c-41.1-0.2-82.2-0.1-123.4-0.6c-1.8,0-3.5,0-5.8,0c1.9,3.4,4.7,4.7,7,6.4c24,18.2,48,36.2,72.1,54.3c11.3,8.5,22.6,16.9,33.9,25.4
			c1.8,1.3,4.2,2.2,4.8,4.7c-1.4,0.3-2.7,0.4-4,0.4c1.3,0,2.6-0.1,4-0.4c4.1,0.8,6.8,4.1,10,6.3c1.8,1.3,3.6,2.1,5.9,2.1
			c20.6-0.1,41.2-0.1,61.8-0.1c9.9,0,19.8,0,29.6,0c0.6,2-0.7,2.6-1.4,3.3c-4.7,4.8-9.4,9.4-14.1,14.2
			c-38.4,39.1-77.2,77.7-115.6,116.8c-20.2,20.5-40.6,40.9-60.8,61.4c-2.9,2.9-2.9,3,0,5.9c23.3,23.3,46.6,46.7,70.1,69.8
			c5.1,5,10.4,9.8,15.5,14.9c0.9,0.9,2,1.8,2.1,3.3c-0.7,0.1-1.4,0.2-2.1,0.2c0.7,0,1.4-0.1,2.1-0.2c2.3,0.6,3.6,2.4,5,4
			c2.7,3.4,6.1,4.3,10.4,4.3c138.4-0.1,276.9-0.1,415.3-0.1c1.3,0,2.7-0.1,4,0c2.3,0.2,4-0.6,5.7-2.3c6.8-6.9,13.7-13.6,20.6-20.4
			c20.1-19.9,40.3-39.8,60.4-59.7c5.1-5,10.1-10.2,15.2-15.2c1.6-1.6,2.1-2.8,0.4-4.6c-0.9-0.9-1.7-2.1-2.5-3.1
			c-14.9-18.1-29.8-36.3-44.7-54.4c-16.4-19.9-32.8-39.8-49.1-59.8c-1.8-2.2-3.6-3.1-6.3-2.9c-4,0.2-8,0-12,0
			c-2.2,0-4.3,0.1-6.5,0.1c-53.8,0-107.7,0-161.5,0c-1.9,0-3.9-0.3-6.1,0.5c0.9,3.3,3.1,5.6,4.9,8c7.2,9.6,14.6,19,21.8,28.5
			c6.2,8,12.4,16.1,18.6,24.1c0.8,1.1,1.7,2,1.6,3.5c-0.8,0.1-1.6,0.2-2.3,0.3c0.8-0.1,1.6-0.1,2.3-0.3c2.4,0.5,3.3,2.7,4.5,4.4
			c1.9,3,4.2,4,7.8,3.9c12.4-0.2,24.9-0.1,37.4-0.1c3.6,0,7.3-0.4,10.9,0.3c4.8-0.1,9.7-0.1,14.5-0.2c2.1-0.1,3.3,0.9,4.3,2.7
			c6.5,12.2,13.1,24.3,19.7,36.4c1.3,2.5,2.8,4.9,4.1,7.4c1.3,2.5,0.8,3.3-1.9,3.5c-1,0.1-2,0-3,0c-92.9,0-185.9,0-278.8,0.1
			c-5.7,0-9.7-2.4-12.5-7.1c1-0.4,2-0.5,3-0.5c-1,0-2,0.1-3,0.5c-1.3-0.3-2.6-0.5-3.7-1.3c-6.2-4.7-12.5-9.4-19.1-14.3
			c1.7-1.9,3.2-3.7,4.8-5.4c8.7-9.2,17.4-18.4,26-27.6c23.1-24.7,46.1-49.3,69.2-74c19.9-21.2,39.9-42.4,59.7-63.7
			c2.5-2.6,4.8-3.9,8.5-3.9c57.8,0.1,115.6,0.1,173.3,0.1c1.7,0,3.3,0.1,5,0.2c4,0,8,0,12-0.2c2.3-0.1,3.8,0.8,5.1,2.5
			c9.6,11.5,19.1,23,28.7,34.4c8.4,9.9,16.9,19.7,25.2,29.6c7.3,8.6,14.5,17.3,21.8,25.9c6.6,7.9,13.3,15.8,19.9,23.6
			c8.3,9.9,16.6,19.9,25,29.8c7.7,9.1,15.4,18.3,23.2,27.4c6,7.1,12,14.2,18.1,21.2c1.1,1.3,1,2.3-0.1,3.4
			c-6.4,6.1-12.3,12.6-19,18.4c-4.5,3.9-8.7,8.3-12.9,12.5c-5.3,5.3-10.5,10.8-16,15.8c-12.5,11.5-24.3,23.7-36.5,35.5
			c-3,2.9-6.3,5.4-9.4,8c-1.8,0-3.5,0-5.3,0c1.8,0,3.5,0,5.3,0c-0.8,3.6-5.1,4.4-6.4,8.1c13.2,0,26.1,0,38.9,0c31,0,62,0,93,0
			c2.7,0,4.6-0.6,6.5-2.7c5.3-6,10.9-11.7,16.4-17.5c23.3-24.7,46.6-49.4,70-74.1c2.6-2.7,2.6-2.7,0.3-5.6
			c-23.1-28.2-46.2-56.4-69.3-84.7c-29.4-36-58.9-71.9-88.3-107.9c-1-1.2-2.4-2.2-2.7-4.5c65.9,0,131.4,0,198,0
			c-1.8-1.9-2.9-3.1-4-4.2C1486.4,1384.4,1473.9,1371.7,1461.1,1359.3z"/>
		<path fill="none" d="M1067.7,1728.5c-11.5,0.1-22.9,0.1-34.4,0c-2.7,0-3.4,1-3.3,3.5c0.1,7.1,0.1,14.3,0.1,21.5s0,14.3,0,21.5
			c0,3.9,0.1,4,3.7,4c11.1,0,22.3,0,33.4,0c3.6,0,3.7-0.1,3.7-3.5c0-14.5,0-28.9,0.1-43.4C1071,1729.6,1070.4,1728.5,1067.7,1728.5z
			 M1059.2,1764.8h-17.6v-22.1h17.6V1764.8z"/>
		<path fill="none" d="M1460.8,1450.3c1.4,4.5,3,8.8,5.5,13c3.1-4,5.8-7.7,8.6-12.4C1469.6,1451.2,1465.5,1449.6,1460.8,1450.3z"/>
		<path fill="none" d="M1163.1,1728.5c-5.7,0.1-11.3,0-17,0c-4.3,0-8.7-0.1-13,0c-9,0.2-7.6-1.6-7.7,8c0,0.3,0,0.7,0,1
			c-0.1,1.7,0.8,2.3,2.5,2.3c2.5,0,5,0,7.5,0c5.3,0,4.9-0.5,4.9,4.7c0,9-0.1,18,0,27c0.1,8.4-1.4,7.2,7.4,7.3c3.8,0,3.9-0.1,3.9-3.8
			c0-9.5,0-19,0-28.5c0-6.7,0-6.7,6.5-6.7c8.3,0,8.2,0,8-8.2C1166.1,1729.3,1165.5,1728.4,1163.1,1728.5z"/>
		<path fill="none" d="M1188.6,1739.9c5.8,0,11.7,0,17.5,0c8.3,0,8.2,0,7.8-8.5c-0.1-2.2-0.8-2.9-2.9-2.9c-11.7,0.1-23.3,0.1-35,0
			c-2.4,0-3.2,0.8-3.1,3.2c0.1,8.2,0.1,16.3,0,24.5c-0.1,2.7,1,3.4,3.5,3.4c7.2-0.1,14.3-0.1,21.5,0c4.4,0,4.4,0.1,4.3,4.5
			c-0.1,3.5-0.1,3.6-3.7,3.7c-6,0.1-12-0.1-18,0c-8.7,0.2-7.4-1.8-7.6,8.2c-0.1,2.5,1,3.1,3.3,3.1c5.7-0.1,11.3,0,17,0
			c5.8,0,11.7-0.1,17.5,0c2.3,0,3.4-0.6,3.2-3.1c-0.2-2.8,0-5.7,0-8.5c0-5.5-0.1-11,0-16.5c0-2.1-0.5-3.2-2.8-3
			c-1.2,0.1-2.3,0-3.5,0c-6.7,0-13.3-0.1-20,0c-2.1,0-3.2-0.6-3-2.8c0-0.3,0-0.7,0-1C1184.6,1740,1184.6,1739.9,1188.6,1739.9z"/>
		<path fill="none" d="M1114.5,1768.1c-2.5-2.5-5-5.1-7.5-7.6c2.9-0.9,5.4-0.9,7.8-0.9c3.7-0.1,3.8-0.1,3.8-4c0-7.8,0-15.7,0-23.5
			c0-3.4-0.1-3.5-3.7-3.5c-11,0-22,0-33,0c-4,0-4.1,0.1-4.1,4.1c0,12.8-0.1,25.7,0,38.5c0.1,9.1-1.8,7.5,7.9,7.8
			c2.8,0.1,3.4-1.1,3.3-3.5c-0.1-4.3,0-8.6,0-14.1c5.1,4.2,9,8,12.4,12.2c3.3,4.2,7,6.4,12.4,5.5c1.5-0.3,3.9,0.9,4.5-1
			c0.7-2.3,1.1-4.9-0.9-7C1116.3,1770,1115.4,1769,1114.5,1768.1z M1104.4,1748H1089v-6.7h15.3V1748z"/>
		<path fill="none" d="M1514.2,1336.7c-7.6-28-17.2-55.2-29.3-81.6c-13.8-30.2-30.6-58.7-51.6-84.5c-0.9-1.2-1.5-2.6-3.3-2.6
			c0,0,0,0,0,0c0,0,0,0,0,0c-0.1,1.2,0.8,2.2,1.3,3.2c8,16.1,14.9,32.7,20.7,49.7c4.1,12,7,24.3,11,36.3
			c7.4,22.3,14.1,44.7,19.9,67.4c0.6,2.4,1.7,4.2,3.4,5.9c5.9,6.1,11.5,12.5,17.4,18.5c6.1,6.3,11.8,13.1,18.3,19c0,0,0,0,0,0
			c-0.1-1-0.2-2-0.4-2.9C1519.1,1355.6,1516.8,1346.1,1514.2,1336.7z"/>
		<path fill="none" d="M972,1747.9c-7,0.2-14,0.1-21,0c-5.1,0-4.9,0-4.9-4.9c0-2.4,0.7-3.2,3.1-3.2c6.2,0.1,12.3,0.1,18.5,0
			c8.8-0.2,7.6,1.9,7.8-7.9c0.1-2.6-0.8-3.5-3.4-3.4c-5.7,0.2-11.3,0-17,0c-5.5,0-11,0-16.5,0c-3.8,0-3.9,0.1-3.9,3.8
			c0,7.5,0,15,0,22.5c0,4.7,0,4.7,4.5,4.7c7.2,0,14.3,0,21.5,0c3.2,0,3.2,0.2,3.2,4.1c0,3.8-0.1,4-3.3,4c-6.2,0.1-12.3-0.1-18.5,0
			c-8.7,0.2-7.2-1.7-7.4,7.8c-0.1,2.5,0.5,3.6,3.3,3.5c11.3-0.1,22.6-0.1,34,0c2.5,0,3.6-0.6,3.6-3.3c-0.1-8.2-0.1-16.3,0-24.5
			C975.6,1748.5,974.6,1747.8,972,1747.9z"/>
		<path fill="none" d="M1425,1447c-2.2-0.1-4.3-0.3-7.3-0.5c5.9,7.5,11.2,14.3,16.5,21.1c0.3-0.2,0.7-0.4,1-0.6
			c-2.3-6.5-5.1-12.7-8.2-18.9C1426.6,1447.4,1425.9,1447.1,1425,1447z"/>
		<path fill="none" d="M1430,1168c0.2-1-0.2-1.6-1.1-2C1428.9,1166.8,1429.1,1167.6,1430,1168C1430,1168,1430,1168,1430,1168
			C1430,1168,1430,1168,1430,1168z"/>
		<path fill="none" d="M1722,614.4c-0.3-11.3-0.6-22.6-0.9-34c-0.2-10.2-0.7-20.3-1.5-30.4c-0.2-3.1-0.4-6.2-0.5-9.3
			c-0.2-3.3-0.3-6.6-0.6-9.8c-0.2-2.6-1.5-3.5-3.6-3.6c-3.9-0.2-7.9-0.3-11.8-0.4c-8.3-0.8-16.6-1.8-25-1.9
			c-9.8-1.7-19.8-1.9-29.6-3c-8.9-1-17.8-1.9-26.7-2.7c-8.2-0.8-16.5-1.5-24.7-2.2c-1.2-1.1-2.8-0.9-4.2-1.1
			c-23.4-2.6-46.8-6.2-70.1-9.4c-15.3-2.1-30.5-4.8-45.8-7.2c-1.8-0.4-3.5-0.8-5.3-1.1c-3.5-0.5-3.9-0.1-3.4,3.2
			c1.2,7.2,2.6,14.3,3.9,21.5c0.9,10.3,1.6,20.7,2,31c0,2-0.1,4-0.1,6c-0.2,0.6-0.5,1.3-0.5,1.9c0,10.5-1.8,20.8-3.2,31.2
			c-1.2,5.6-3.5,11.1-2.4,17c0,4.3,0,8.5,0,12.8c4.1-4.6,7.2-9.3,9.6-14.6c3.1-2.7,3.8-7.1,7.5-10.1c-0.4,3.3-1.5,6-1.1,8.8
			c-0.6,0.6-0.7,1.4-0.9,2.2c-2,10.7-4,21.4-5.9,32.1c-1.1,6.5-3,12.9-3.3,19.5c-1.7,5.3-2.7,10.6-3,16.1c-0.7,0.6-0.7,1.5-0.8,2.3
			c-1.5,8.2-3.1,16.3-4.6,24.5c-2,10.8-4.1,21.5-6.1,32.3c-0.9,3.2-1.7,6.4-2.6,9.7c-3.5,11.1-7,22.2-10.5,33.3
			c-2.3,4.9-4.5,9.9-6,15.1c-0.1,0.2-0.2,0.4-0.3,0.7c-0.6,0.2-0.8,0.7-0.7,1.3c-0.6,1.7-2.3,2.9-2.2,4.9c-1.6,3.1-3.2,6.1-4.7,9.2
			c-4.6,9.8-10.3,19.2-15.3,28.8c-4.4,6.5-8.8,13-12.5,20c-1.2,0.7-1.9,1.9-2.6,2.9c-5.9,8.6-12.3,17-18.8,25.2
			c-3.1,3.9-6.9,7.2-9.1,11.7c-6.9,6.2-12.7,13.4-19.2,20c-9.2,8.5-18.5,16.9-27,26.1c-3,2.6-5.4,5.6-6.9,9.2l0,0.3l0.3,0.1
			c-1,0.4-1.6,1.2-2,2.1c-6.8,13.7-10.6,28.1-10.8,43.4c0,3.7-0.3,7.5-0.1,11.2c0.2,3.4,0.3,6.8,2,9.9c0.6,4.3,1.4,8.3,6.1,10.5
			c30.5,14.1,59.1,31.3,84.6,53.3c1.2,1,2.3,2.5,4.3,2.2c0.5,0.4,1,0.9,1.6,1.2c14.2,6.9,27.9,14.7,41.3,23c3.9,2.8,7.8,5.6,12,8
			c0.5,0.5,0.9,1,1.4,1.3c18.4,12.7,34.6,28,49.8,44.3c2.6,2.8,4.6,6.1,7.8,8.4c6.3,8.4,12.5,16.9,18.8,25.3
			c3.1,4.8,6.2,9.7,9.4,14.5c4.6,8.1,9.1,16.2,13.7,24.3c4.7,10.1,9.5,20.2,14.5,31c2-5,4.8-8.7,6-13.2c5.3-8.7,9-18.2,13.2-27.4
			c3.1-6.8,6.6-13.4,8.7-20.7c2.6-4,4.1-8.5,5.7-13c2.2-4.1,4.2-8.4,5.3-13c0.4-0.7,0.8-1.4,1.1-2.2c18.4-44.8,34.4-90.5,48.1-137
			c0.5-1.6,0.7-3.2,0.8-4.9l-0.1,0c0.5-0.2,0.9-0.4,0.9-1c0.4-1.4,1.2-2.7,1-4.2c2.4-5.8,4-11.8,5.1-17.9c0.3-0.9,0.7-1.8,1-2.8
			c4.3-16,8.4-32,11.9-48.2c3.5-13.5,6.5-27.2,9.1-40.9c1.4-7.3,3.3-14.6,3.9-22.1c1.2-3.6,1.7-7.3,2-11c1-2.3,1.2-4.8,1.6-7.2
			c1.1-7.6,3-15.1,3.5-22.8c0.7-4.7,2.6-9.2,2.2-14c0.2-0.6,0.6-1.2,0.6-1.8c1.3-10.1,2.6-20.2,3.9-30.2c0.9-7.3,2.2-14.5,2.2-21.9
			c1.7-9.3,2.5-18.6,2.9-28c1.6-13.3,2.5-26.6,3.2-39.9c0.9-7,1.1-14,1.2-21c0.7-1.3,0.8-2.6,0.4-4c0-1.7,0-3.4,0.1-5.2
			c0.3-8.3,0.6-16.6,0.9-24.9c0.3-5.7,0.6-11.4,0.3-17.1c0-10.4,0.4-20.7-0.2-31.1C1722.2,618.1,1722,616.3,1722,614.4z"/>
		<path fill="none" d="M1061.3,1847.4c1.3-0.8,2.9-1.4,3.9-3.2c-4,0-7.6,0-11.6,0C1056,1850.8,1056.1,1850.8,1061.3,1847.4z"/>
		<path fill="none" d="M1019.5,1728.6c-11.2,0-22.3,0-33.5,0c-3.7,0-3.7,0.1-3.7,4c0,7,0,14,0,21c0,5.8-0.1,11.7,0,17.5
			c0.2,9.1-1.9,7.7,8.4,7.9c2.6,0.1,3-1.2,3-3.4c-0.1-4.2-0.1-8.3,0-12.5c0-3.5,0.1-3.5,3.7-3.6c7.3-0.1,14.7,0,22,0
			c3.7,0,3.8-0.1,3.8-3.9c0-7.8,0-15.7,0-23.5C1023.1,1728.6,1023,1728.6,1019.5,1728.6z M1013,1751h-17.2v-11.1h17.2V1751z"/>
		<path fill="none" d="M1402.1,677.2C1402.2,677.1,1402.2,677.1,1402.1,677.2C1402.2,677.1,1402.2,677.1,1402.1,677.2
			L1402.1,677.2z"/>
		<path fill="none" d="M1401,679.1C1401,679,1401,679,1401,679.1C1401,679,1401.1,679,1401,679.1L1401,679.1z"/>
		<path fill="none" d="M1404,674.1C1404.1,674.1,1404.1,674.1,1404,674.1C1404.1,674,1404.1,674,1404,674.1L1404,674.1z"/>
		<path fill="" d="M1400,756.1C1400,756.1,1400.1,756.1,1400,756.1C1400.1,756,1400.1,756,1400,756.1L1400,756.1z"/>
		<path fill="none" d="M1153.9,270.1C1153.9,270.1,1153.9,270.1,1153.9,270.1C1153.9,270.1,1153.9,270.1,1153.9,270.1
			L1153.9,270.1z"/>
		<path fill="none" d="M1405.1,672.2C1405.2,672.2,1405.2,672.2,1405.1,672.2C1405.2,672.1,1405.2,672.1,1405.1,672.2
			L1405.1,672.2z"/>
		<path fill="none" d="M1152.1,267.9C1152.1,267.9,1152.1,267.9,1152.1,267.9C1152.1,267.9,1152.1,267.9,1152.1,267.9
			L1152.1,267.9z"/>
		<path fill="none" d="M935.8,301.3c0,0,0-0.1-0.1-0.1c0,0,0,0.1,0,0.1L935.8,301.3z"/>
		<path fill="none" d="M1398.1,759.1C1398.1,759.1,1398.1,759.1,1398.1,759.1C1398.1,759.1,1398.1,759,1398.1,759.1L1398.1,759.1
			z"/>
		<path fill="none" d="M1406,671C1406,671,1406,671,1406,671C1406,671,1406,671,1406,671L1406,671z"/>
		<path fill="none" d="M1779.2,544.4c-1.4-23.1-3.5-46.1-5.5-69.1c-0.4-4.9-0.5-4.8-5.7-5.2c-17.3-1-34.5-2-51.8-3.1
			c-26.9-1.8-53.7-4.2-80.5-7c-23.3-2.4-46.6-5.1-69.9-8.3c-19.6-2.7-39.2-5.6-58.8-8.7c-15.5-2.4-30.8-5.2-46.3-7.8
			c-2-0.3-2.8-0.9-2.9-3.1c-0.2-6.3-0.5-12.6-1-18.9c-0.2-3.4,0.1-7-1.5-10.5c-1,4.4-1,8.8-2.9,13.9c-2.5-13.4-4.8-25.6-7.1-37.9
			c-1.7,0.7-1.3,1.8-1.4,2.7c-2.3,15.8-4.6,31.6-7,47.4c-0.1,1,0.4,2.6-1.4,2.7c-1.5,0-2.3-1.1-2.6-2.5c-0.3-1.3-0.7-2.6-1-3.9
			c-6.4-24.4-15.4-47.8-27.6-69.9c-15.2-27.4-30.8-54.5-46.2-81.7c-0.9-1.5-1.4-3.3-3.6-4.9c0.3,8.5,0.5,16.4,0.8,24.9
			c-2.1-1.4-2.5-3-3.2-4.4c-8.7-17.1-19-33.2-31-48.3c-10.5-13.2-21.9-25.5-33-38.1c-28.7-32.6-57.5-65.1-86.2-97.7
			c-0.5,0.5-0.9,1-1.4,1.4c0.6,1.2,1.1,2.4,1.7,3.6c16,32.2,32,64.4,48,96.6c0.7,1.4,1.8,2.7,1.8,4.4c-1,0.4-1.4-0.1-1.9-0.6
			c-16.2-13.9-33.3-26.6-50-39.8c-16.7-13.2-33.6-26.2-50.5-39.3c-0.3,0.3-0.5,0.5-0.8,0.8c0.3,0.8,0.5,1.6,0.9,2.3
			c7.5,13.3,15,26.6,22.5,39.9c0.7,1.2,1.1,2.8,2.6,3.4c0,0,0,0,0,0c0,0,0,0,0,0c0,0,0,0,0,0c-0.1,0-0.1,0.1-0.2,0.1
			c0.1,0,0.1-0.1,0.2-0.1c0,0,0,0,0,0c-0.3,0.1-0.6,0.2-0.8,0.4c0,0,0,0.1,0,0.2c0.1-0.1,0.3-0.1,0.4-0.2c-0.1,0.1-0.3,0.2-0.4,0.3
			c0,0,0-0.1,0-0.1c-1.4,0.6-2.5-0.6-3.7-1.2c-23.1-10.5-47.4-15.3-72.6-15.7c-2.5,0-4.4-0.6-6.3-2.3c-20.1-16.7-42-30.4-65.5-41.9
			c-38.7-18.9-79.3-30.8-122.2-35C880.5,80,857,78.7,833.7,77c-2.9-0.2-5.6-0.7-8.2-1.8c-2.1-0.9-4.4-2.8-6.4,0.4
			c-0.2,0.4-1.6,0.2-2.4,0.1c-2-0.2-4-0.4-6-0.6c-29-2.1-58.1-4.2-87.1-6.2c-4.5-0.3-9.1-0.5-13.8-0.8c0.7,1.4,1.7,1.5,2.6,1.8
			c5.1,1.6,10.1,3.3,15.2,4.9c26.9,8.7,53.8,17.4,80.7,26.1c2,0.7,3.1,1.5,2.5,3.9c-2.6,10.7-2.6,21.4-0.8,32.2
			c0.1,0.7,0.2,1.3-0.6,1.9c-1.6-0.5-3.4-1-5.1-1.4c-18.4-5.1-37.2-7.2-56.3-6.3c-17.2,0.9-34,4.2-50.3,9.9
			c-4.2,1.4-4.2,1.4-6.6-2.4c-6.1-9.7-12.2-19.4-18.4-29.1c-0.5-0.9-0.7-2.4-2.4-2.1c1.1,13.2,2.1,26.5,3.4,39.7
			c0.2,2.6-0.1,4.2-2.6,5.6c-22.2,12.5-43.6,26.4-65.4,39.5c-0.9,0.5-2.4,0.7-2,2.5c22.8,2,45.7,4.1,68.5,6.1
			c5.9,0.5,5.9,0.4,6.6,6.2c1.7,15.8,5,31.2,9.4,46.4c1.1,3.6,2.2,7.3,3.5,11.4c-23-3.9-45.3-1.6-67.8,4.2c0-4.1,0-7.4,0-10.8
			c-2.6,3.2-4.7,6.6-6.5,10.1c-1.2,2.4-3,3.7-5.5,4.5c-10,3.3-19.5,7.6-28.5,13.1c-17.1,10.4-33.1,22.3-49.7,33.5
			c-0.4,0.3-0.6,0.7-0.2,1.5c15.4,4.1,31,8.3,47.1,12.6c-10.3,17.7-16.3,36.2-18.7,56.4c-22.2-19.2-43.8-37.8-65.6-56.7
			c-0.6,2.5,0.5,3.9,1,5.4c8.5,24,17.2,47.9,25.7,71.9c5.5,15.4,12.1,30.2,21.3,43.9c0.6,0.9,1.8,1.7,1.1,3.1
			c-8.4,1-16.8,2-25.2,3.2c-3,0.4-5.4-0.3-7.9-2c-10-6.9-20.2-13.5-30.3-20.3c-1.1-0.8-2.2-1.8-4.2-2.2c3.5,8.3,6.8,16.2,10.2,24.3
			c-1.3,0.4-2.3,0.8-3.2,0.9c-22.6,4.1-45.4,6.8-68.4,7.1c-18.2,0.2-36.3,0.4-54.5,0.5c-18.1,0.1-36.3-0.1-54.4-0.9
			c-1.1,0-2.9-0.3-3.3,0.3c-1.9,2.5-4.2,2-6.7,1.8c-3.8-0.3-3.9-0.2-3.8,3.6c0.4,13,0.9,25.9,1.4,38.9c0.9,0.6,1,1.3,0.1,2
			c0.1,5.3,0.1,10.7,0.2,16c1.8,0.4,1.7,1.9,1.6,3.2c-0.6,7,0.7,13.9,1.3,20.8c0.8,9.5,1.1,19.1,2.5,28.7c0.8,5.4,0.4,10.9,1.1,16.4
			c1.1,8.7,1.5,17.5,2.9,26.1c0.1,0.5,0.2,1,0.1,1.5c-0.6,8.5,0.9,16.9,1.2,25.4c0.3,6.4,0.4,12.9,1.6,19.3c0.3,1.8,0.2,3.6,0.2,5.5
			c0.1,6.1,1,12.2,1.8,18.3c0.5,3.9,0.7,7.9,1.1,11.9c1.3,12,2.7,24,3.9,36c1.4,13.5,3.5,26.9,5.3,40.3c1.8,13.8,4.2,27.4,6.6,41.1
			c2.3,12.9,4.6,25.7,7.1,38.5c0.2,1.2,0.5,2.3-0.7,3.2c0.1,0.7,0.2,1.3,0.3,2c1.8,2.2,2.4,5,1.8,8c0.1,0.7,0.2,1.3,0.3,2
			c1.8,0.6,1.9,1.7,0.7,3c0.1,0.7,0.2,1.3,0.4,2c1.7,0.7,1.8,1.7,0.7,3c0.1,0.7,0.3,1.3,0.4,2c1.2,0.4,1.7,1,0.5,2
			c0.1,0.7,0.2,1.3,0.3,2c1.8,0.6,1.9,1.7,0.7,3c-0.1,0.7,0,1.4,0.4,2c1.3,0.4,1.7,1,0.5,2.1c-0.1,1.1,0.1,2,0.7,2.9
			c1.1,0.5,1.6,1.1,0.4,2c-0.1,0.7,0,1.4,0.4,2c1.2,0.4,1.7,1,0.5,2c0.1,0.7,0.2,1.3,0.3,2c1.3,0.4,1.8,1,0.6,2
			c0,2.4,0.9,4.7,1.5,6.9c1.2,0.4,1.7,1,0.5,2c0.4,2,0.9,4,1.3,6c1.3,0.4,1.8,0.9,0.6,2c2.6,12.8,5.9,25.4,9.6,37.9
			c1.1,0.4,1.7,1,0.5,2c0,0.3,0,0.7,0.1,1c9,33.4,18.8,66.6,29.7,99.5c10.3,31.1,21.6,61.9,33.4,92.4c14,36.5,28,73,44.1,108.6
			c18.4,40.8,38.1,80.9,59.9,120c21.1,38,43.9,75,68.2,111c2.8,4.2,2.8,4.2-0.8,7.4c-20.1,17.3-40.1,34.5-60.2,51.8
			c-1.1,0.9-2.4,1.6-3,3.2c0.6,0.9,1.1,1.7,1.6,2.6c29.3,42.9,58.6,85.7,87.9,128.6c22.1,32.3,44.1,64.6,66.2,96.9
			c1.9,2.8,4.2,4.8,7.5,6.2c34.7,14.5,69.3,29.1,103.9,43.8c2.4,1,4.8,1.2,7.3,1.2c33,0,66,0,99-0.1c3.2,0,5.6,0.9,8.1,2.9
			c37,30.3,75.5,58.6,114.7,86.1c2.3,1.6,3.7,1.3,5.7-0.2c3.6-2.7,7-5.6,10.9-7.9c41.6-24.1,82.1-50.1,121.2-78.3
			c2.5-1.8,5.1-2.6,8.2-2.6c34.5,0.1,69,0,103.5,0.1c3.1,0,5.8-0.7,8.5-2.2c33.2-18,66.4-35.9,99.6-53.9c2.5-1.4,4.6-3.1,6.4-5.4
			c12.4-15.7,24.9-31.3,37.3-46.9c35.7-44.8,71.4-89.6,107.2-134.4c2.9-3.7,3-3-0.1-7c-15.2-19.4-30.3-38.9-45.5-58.3
			c-2.5-3.2-2.5-3.2,0-6.6c16.9-22.5,33.2-45.4,48.6-69c1.9-2.9,3.9-3.9,7.3-3.6c18.4,1.7,36.8,3.2,55.2,4.8
			c3.4,0.3,6.8,0.5,10.7,0.7c-0.7-2-1.8-3-2.8-4c-12.4-13.2-24.9-26.4-37.3-39.6c-3.8-4-3.7-4.1-1-8.6c24.9-41,47.7-83.1,68.5-126.3
			c32-66.5,58.5-135.2,79.9-205.8c15.1-49.7,27.6-100.1,37.4-151.1c7.7-40.1,13.9-80.3,18.4-120.9c2.9-26.5,5.2-53,6.9-79.5
			c1.5-23.8,2.4-47.5,2.7-71.3C1782.2,618.2,1781.5,581.3,1779.2,544.4z M1252.6,212.2l-0.1,0.3l-0.2-0.2L1252.6,212.2z
			 M555.2,419.4c2.3,0.9,4.8,1.8,7.2,2.8c5.3,2.1,10.8,3.3,16.5,3.6c2.5,0.1,3.6,1.2,4,3.4c0.4,2,0.8,3.9,1.3,5.9
			c2.4,10.1,8,17.7,17.3,22.7c7,3.8,14,7.7,20.8,11.9c9.9,6.1,17.1,14.7,22,25.2c0.6,0.3,1,0.9,0.5,1.4c-0.1,0.1-0.1,0.1-0.2,0.1
			c-0.4,0.2-0.7-0.5-1.1-0.8c0,0,0,0,0,0c0,0,0,0,0,0c-10.5-8.9-23-13.2-36.1-16c-19.7-4.2-33.2-15.9-42.5-33.4
			c-4.1-7.8-7.2-16.1-9.8-24.5C554.9,421,554.6,420.3,555.2,419.4z M546.1,513.5c12.9,6.1,26.3,10.5,40.6,11.5
			c9.3,0.6,18.6-0.1,27.9-1.5c4.6-0.7,9.3-0.8,13.9-0.6c11.4,0.6,20.4,5.6,26.7,15.2c4.1,6.3,7.2,13.1,10.8,19.7
			c0.6,1.1,0.9,2.4,2.7,3.4c-0.4-8-0.6-15.6-1-23.2c-1.3-22.1-8.4-42.3-21.2-60.5c-5.7-8.1-13.3-14.2-21.9-19.3
			c-16-9.6-27.7-23.2-33.8-41.2c-6.6-19.5-2.5-37.7,6.1-55.5c0.1-0.3,0.5-0.4,0.7-0.6c1.2,0.7,1.1,2,1.3,3.1
			c5.6,21.4,16.8,39.1,35.3,51.5c20.2,13.6,35.2,31.4,45.7,53.1c0.8,1.7,1.4,3.7,3.3,5.1c7.7-12.9,13.3-26.2,15.6-40.9
			c4.5-29.5-4.3-54.5-25.2-75.5c-20.6-20.8-44-37-71.9-46.6c-0.5-0.2-0.9-0.4-1.3-0.6c-0.3-0.2-0.4-0.5-0.9-0.9
			c8.3-4.8,16.9-8.6,26-11.3c12.8-3.9,25.9-6.6,39.2-6.9c32.5-0.6,59.4,11.3,79.6,37.2c0.4,0.5,0.8,1.1,1.2,1.6
			c2.6,3.4,2.6,3.4,6.1,0.9c1.6-1.2,3.2-2.4,5.2-3.9c-23.2-30.2-39.1-63.7-46.7-101c-0.8-2.7-1.4-5.5-1.4-8.3c1.7-0.5,2.1,1,2.8,1.7
			c17.1,17.1,37.3,28.2,61.2,32.1c9.6,1.6,19.1,2,28.8,1c4.4-0.5,8.9-0.6,13.4-0.9c4.7-0.5,9.4-1.1,14.1-1.6c0-0.2,0.1-0.5,0.1-0.7
			c-6.7-1.7-13.4-3.5-20.2-5.2c-10.8-2.7-21.5-5.8-31.3-11.3c-10-5.6-18.8-12.7-25.8-21.8c-8.6-11.1-18.6-20.4-31.5-26.3
			c-8.3-3.8-17-6.7-26-8.6c-1.1-0.2-2.3-0.2-3.3-1.2c0.7-1.2,2-1.5,3.1-2c21.6-9.8,44.3-14.5,67.9-13.6c25.5,0.9,49.5,8.2,71.7,20.7
			c38,21.4,67.3,51.2,86.8,90.5c5.1,10.2,10,20.6,15,30.8c1-1.5,0.4-3.2,0.2-4.7c-2.4-13.1-3.9-26.3-6.8-39.3
			c-5.9-26.5-17.7-49.7-37.5-68.6c-8.9-8.5-19-15.7-28.7-23.2c-5.4-4.2-10.6-8.5-15.2-13.6c-9.6-10.5-13-27-9.2-40.2
			c1.6-0.5,2.8,0.6,4.1,1.1c55.7,23.5,106.1,55.5,150.5,96.6c5.3,4.9,10.4,9.8,15.7,14.7c1.3,1.2,2.3,2.7,4.3,3.2
			c0-0.7,0.1-1.2,0-1.7c-7.4-20.4-15.3-40.5-28-58.3c-4.4-6.3-9.3-12.1-14.1-18.1c-6.2-6.2-12.3-12.6-19.1-18.1
			c-5.8-4.7-11.9-9.1-18.2-13.1c-1.1-0.7-2.5-1-3-2.8c5.6,0.3,10.9,1.9,16.1,3.2c45.2,11.5,86.7,30.8,123.4,59.8
			c19,15,35.5,32.6,51.1,51.1c9.9,11.7,19.7,23.4,29.1,35.5c0.8,1,2,1.8,1.9,3.3c1.1,0.2,1.7,1.1,1.8,2.1c0.9,0.3,1.3,1.1,1.5,1.9
			c7.6,8.8,13.9,18.7,20.5,28.2c4.4,6.4,8.8,13,13.2,19.4c0.7,1,1.1,2.5,3,2.6c-0.5-4.7-2.6-8.9-3.8-13.4c-1.1-4.2-2.9-8.1-3.5-12.4
			c-2-3.1-2.5-6.8-3.7-10.2c-13.5-37.9-36.3-69-68.3-93.3c-0.8-0.6-1.8-0.9-2-2.1c7.1-0.9,30.5,4.6,43.1,9.9
			c14.1,6,26.9,13.8,38.6,23.6c11.5,9.7,20.9,21.2,29.5,34c6.1-7.7,10-15.5,10.3-25.3c4.3,2.4,7,5.8,10,8.8
			c22.8,23,40.4,49.4,52.7,79.3c8.7,21,14.3,42.9,17,65.5c0.4,3.1,1.4,6.2,1,9.4c1.8,6.1,1.9,12.4,3,18.6c0.2,1-0.3,2.3,1.4,3.4
			c2.5-17.2,4.8-34.2,6.7-51.1c0-9.5,0.4-19,0-28.5c-0.8-18.2-3.8-36.1-8.5-53.6c-0.3-1-0.8-1.9-0.3-3c1.3,0.5,1.7,1.8,2.3,2.9
			c18.6,30.7,30.6,63.8,35.7,99.4c2.4,17,3.3,34.1,2.4,51.3c-0.7,13.4-2.2,26.8-5.3,40c-0.6,7.3-2.5,14.3-3,21.7
			c11.3-20.4,22.9-40.7,29.8-63.2c4.9-16.3,8.2-32.9,9.2-50.2c2,0.5,2,2.3,2.5,3.4c12,26.8,20,54.7,23.4,83.8
			c5.1,43.2,1,85.4-12.6,126.7c-0.4,1.2-0.5,2.7-1.6,3.6c-0.8,4.9-2.9,9.5-4.3,15.4c4.9-3.7,8.3-7.4,11.9-11
			c8-7.8,15.1-16.4,22-25.1c6.5-10.4,12.6-21,16.9-32.6c0.3,0.1,0.7,0.1,1,0.2c0,4.2,0.2,8.3,0,12.5c-1.8,35.3-12.1,67.8-31.2,97.6
			c-2.7,4.3-4.9,9-8.4,12.8c0,0.6-0.2,1.1-0.8,1.2c0.1,0.9-0.2,1.6-1.1,1.9c-0.1,1.4-0.6,2.4-1.9,3.1c0.1,0.9-0.2,1.6-1.1,1.9
			c-0.2,1.7-1.2,2.9-2.5,4.1c-0.8-1-0.6-2.1-0.4-3.1c-0.1-10,0-20-0.2-30c-0.1-9.1-0.4-18.3-0.6-27.4c0-1.3,0.1-2.6-0.9-3.7
			c-1.9,0-1.5,1.6-1.6,2.5c-1.3,11.2-2.6,22.5-3.7,33.7c-1.9,18.9-3.6,37.7-5.5,56.6c-1.7,17-3.6,34.1-5.6,51.1
			c-3.6,32.4-11.1,63.9-24.1,93.9c-6.4,14.9-14.9,28.7-26.7,40c-10.7,10.2-21.7,20.1-32.7,30c-22.7,20.3-45.7,40.2-67.1,62
			c-1.3,1.3-2.9,2.3-3.4,4.2c2.4,1.3,3.7-0.8,5.2-1.8c10.6-7.8,21.1-15.7,31.6-23.5c7.7-5.8,15.5-11.5,23.2-17.3
			c0.8-0.6,1.5-1.4,2.6-1.4c1.2,1.5-0.3,2.5-0.8,3.4c-8.8,16.5-12.6,34.2-12.4,52.8c0.1,10.5,1.8,20.8,4.9,30.9
			c0.4,1.4,1.4,2.7,0.2,4.2c-0.9,1.2,0.2,2.2,0.7,3.2c2.3,5.5,4.7,11,7.1,16.4c4.2,8.4,6.7,17.2,9,27.1c-4.7-2.6-8.6-5-12.7-7
			c-15-7.1-30.6-9.8-47.1-8.2c-7,0.7-13.9,1.1-20.9,1.6c-1.8,0.1-3.6,0.3-5.9,1.1c4.2,2.1,7.9,4,12.4,6.3
			c-5.6,1.5-10.7,1.6-15.6,2.3c-12,1.8-24,4-35.2,9c-5.1,2.3-9.7,5.1-13.8,8.9c-10.8,10.3-13.3,23-10.1,37.1c0.9,4,2.3,7.9,3.6,12.5
			c-8.7-6.1-14.5-14.2-21.8-20.8c-2.5,4.9-4.4,15.2-4.6,24c-1.4,0.9-2.5-0.1-3.7-0.5c-15.2-5.5-27.3-15-36.8-28
			c-5.5-7.6-10.8-15.2-16.2-22.8c-0.7-1-1.1-2.5-3-2.8c1.4,11.7,2.9,23.3,4.4,35.5c-11.9-3.1-23.7-5.2-35.4-7.4
			c-2.3-0.3-4.6-0.6-6.9-0.8c-1.5-0.2-2.1,0.6-1.9,2c0.4,2.8,0.9,5.6,1.2,8.4c2,17.5,0.3,34.5-5.9,51.1c-0.3,0.7-0.4,1.6-1.5,2.2
			c-1-5.3-1.7-10.5-2.9-15.6c-8.5-38.6-29.7-68.5-62.1-90.7c-4-2.8-6.6-5.9-8.4-10.5c-10.4-27.7-27.3-50.8-50.5-69.3
			c-1.5-1.2-3-2.5-4.3-4.1c3.2-0.3,6.2-0.4,9.1,0.8c9.5,0.6,18.7,2.8,28.1,4.5c3.8,0.7,7.5,1.5,11.3,2.3c0.8,0.2,1.8,0.4,2.2-0.6
			c0.4-1.1-0.6-1.5-1.3-1.7c-5.7-2.2-11.5-4.5-17.2-6.6c-17.9-6.5-36.5-10.3-54.9-14.8c-31-7.5-60.8-18.5-89.3-32.9
			c-5.1-2.6-10-5.4-14.1-9.4c-8.4-8.1-10.7-18.2-9.5-29.3c1.2-11.4,2.8-22.8,4.2-34.2c2.2-18.7,5.4-37.3,5.2-56.1
			c-0.2-17.5-4.1-34.3-10.5-50.6c-0.2-0.5-0.3-1-0.5-1.4c-0.3-0.6-0.6-1.2-1.5-0.9c-0.8,0.3-0.9,1-0.8,1.6c0.6,3.9,1.2,7.9,1.9,11.8
			c3.2,20,2.5,39.8-1.5,59.6c-1.8,8.6-3.2,17.3-4.9,26c-0.4,2.2-1.1,4.4-1.7,6.6c0.1,4.2-1.1,8.2-2,12.5c-1.6-0.6-2.1-1.8-2.8-2.8
			c-17.6-24.8-29.1-52.2-35.3-81.9c-2.8-13.4-5.4-26.8-9.1-39.9c-2.3-8.3-5.1-16.5-9.3-24.2c-4.9-9.1-11.9-15.9-21.3-20.4
			c-5.3-2.5-10.5-5-15.7-7.6c-1.3-0.6-2.6-1.3-3.7-2.2c5.7-0.1,11.2,1,16.7,2.1c6,1.2,12,2.5,18.2,2.6c8.2,0.1,15.3-2.6,21.8-7.4
			c0.8-0.6,1.6-1.2,2.4-1.7c7.1-8,13.3-16.7,19.5-25.5c-0.2-0.2-0.4-0.5-0.6-0.7c-6.6,2.9-12.4,7.1-18.6,10.6
			c-2.8,1.6-5.5,3.2-8.5,4.3c-7.1,2.5-13.7,1.7-19.7-3.2c-4.7-3.9-8.3-8.6-11.4-13.8c-9.1-15.5-14.6-32.4-18.8-49.8
			c-0.8-3.4-1.4-6.8-2.3-10.2c-3.6-14.9-13-24-27.7-27.7c-2.3-0.6-4.4-1.3-6.4-2.6c-27.3-17.9-50.1-40.2-66.9-68.3
			c-0.8-1.3-1.5-2.6-2.2-3.9c-0.1-0.3-0.1-0.6-0.2-1C543.8,511.6,544.9,513,546.1,513.5z M622.1,352.1c1.8,0.1,3,1.3,4.3,2.2
			c11.3,7.7,21.6,16.6,30.8,26.8c8.1,8.9,13.3,19.3,14.5,31.8c-0.8-0.4-1.5-0.6-2-1c-9.3-8.6-20-15.4-30.5-22.4
			C626.9,381.2,620.6,367.3,622.1,352.1z M1417.2,726.9c-4,8.4-8.6,16.5-13.5,24.4c-0.4,0.7-0.8,1.5-1.7,1.7c0,1.4-0.7,2.4-2,3
			c-0.2,1.3-0.7,2.4-2,3c-0.2,1.9-1.4,3.1-2.5,4.5c-1.1-0.7-0.6-1.7-0.7-2.6c-0.2-0.7-0.1-1.3,0.2-2c0-1,0.1-2,0.1-3.1
			c-0.1-1.7-0.5-3.5,0.6-5c0.8-19.4,2.1-38.7,2.2-58.1c0-1.8,0.3-3.3,1.6-4.5c4.7-4.9,9.5-9.7,14.2-14.6c3-3.3,5.9-6.7,9.1-9.9
			c5.3-5.4,9.9-11.2,13.9-17.6c0.5-0.8,0.8-1.8,2.2-2.2c-0.2,6.9-1.2,13.6-2.3,20.2C1433.2,686,1426.8,706.9,1417.2,726.9z
			 M1427.6,742.3c-0.6,5.4-2.4,10.4-4.1,15.3c-10,30-23.9,58-41.6,84.2c-0.8,1.2-1.3,2.7-2.8,3.1c0.6-5.9,2.8-11.4,4.6-16.9
			c0.9-3.9,1.9-7.7,2.8-11.5c0.6-2.4,1.2-4.9,1.7-7.3c0.5-2.1,1-4.2,1.4-6.3c1.6-7.6,2.9-15.3,3.5-23.1c0.2-3,1.2-5.3,3.6-7.3
			c2.7-2.2,5.2-4.6,7.7-6.9c0.8-0.8,1.7-1.6,2.6-2.3C1414,756.4,1421,749.6,1427.6,742.3z M1378.9,845c-0.1,0.4-0.2,0.8-0.3,1.2
			c-0.2-0.2-0.4-0.3-0.4-0.5C1378.2,845.3,1378.4,844.9,1378.9,845z M1310,1070.2c2.9,0.2,4.9,1.2,6.9,2.3c13.9,7.6,27,16.4,39,26.7
			c22.6,19.4,40.3,42.8,54.7,68.8c17.7,31.8,29.8,65.6,37.7,101.1c1.5,6.8,3,13.6,4.5,20.4c0.3,1.3,0.7,2.6-0.1,3.9
			c-1.9-0.2-2.7-1.8-3.8-3c-14-14.7-28-29.5-41.9-44.2c-3.7-3.9-7.3-7.8-10.8-11.7c-1.7-1.9-3.6-2.8-6.2-2.5c-1.2,0.1-2.3,0-3.5,0
			c-114,0-228,0-341.9,0c-2.5,0-5-0.1-7.5-0.1c-6.6,0-13.3,0-20.2,0c0.2-2,1.4-3.4,2.4-4.7c7.6-10.2,13.5-21.2,17.9-33.1
			c0.2-0.4,0.6-0.8,0.9-1.1c1.6-7.1,4-14.1,5-21.3c1-6.7,1.8-13.5,1.8-20.3c0-4.5,0.7-5.2,4.9-4.2c8.9,2.1,17.8,4.1,26.6,6.6
			c7.4,2,14.6,4.6,21.9,6.8c4.1,1.2,7.4,3.7,11.2,5.3c8.1,3.6,16.5,6,25.3,7.2c6.1,0.8,11.8,3.4,17.7,5.2c1.5,0.5,3.1,0.9,5.4,1.6
			c-1.7-3-4.7-3-6.3-5.3c2.5-1.1,4.8-0.6,6.9,0.6c18.9,10.8,40.1,15,60.5,21.7c8.8,2.9,17.8,5.4,26.7,8.1c1.7,0.5,3.4,1.2,5.2,0.9
			c-5.9-4.7-12.7-7.7-19.1-11.5c-13.6-8-27.4-15.7-41.1-23.7c-14.6-8.5-22.6-21.8-26.4-37.8c-2.2-9.5,1-17.3,9.3-22.9
			c5.2-3.5,11-5.4,17-7c10.3-2.8,20.9-3.8,31.4-5.2c8.5-1.1,16.9-0.8,25.4-0.9c7.8,0,15.5,1.7,23.3,2.4c4,0.3,7.9,1.4,11.8,1.5
			c5,0.1,8.9,2.2,12.4,5.5c4.3,4.1,8.2,8.7,12,13.4c3.5,4.4,7.1,8.7,11.1,12.8C1317.7,1111.6,1316.5,1090.8,1310,1070.2z
			 M987.2,1211.6c0.6,6.6,1.1,13.2,1.7,20.3c-128.7,0-257.1,0-386.7,0c5.9-7,11-13.3,16.3-19.5c29.7-34.7,61.6-67.3,97.4-95.8
			c24.2-19.2,49.8-36.2,78.5-48.2c16.1-6.7,32.7-11.5,50.1-12.9c31.9-2.7,59.8,7,83.7,28.1c18.6,16.5,32.1,36.7,41.8,59.6
			C979.3,1165.1,984.9,1187.9,987.2,1211.6z M982.2,1135.8c0-0.1,0.2-0.2,0.3-0.2c0.1,0,0.2,0.2,0.2,0.3c-0.1,0.1-0.1,0.3-0.2,0.3
			C982.3,1136.4,982.2,1136.2,982.2,1135.8z M551.5,1230.1c-0.9,1.4-2,2.1-3.7,2c-6-0.2-12,0.3-18-0.3c-5.3,0.5-10.6,0.4-15.9,0.1
			c-1.5,0.3-3.1,0.5-3.8-1.3c-2.6-6.2-6.1-12-8-18.5c-3.1-5.1-5.4-10.5-7.3-16.1c-2.2-3.9-4.3-7.9-5-12.4c-1.1-0.6-1.5-1.7-1.9-2.8
			c-2.9-7.2-6.3-14.3-8.7-21.7c-3.2-5.6-4.7-12-7.1-17.9c-1.6-4-2.8-8.1-4.1-12.2c-1.3-2.5-2.1-5.1-2.6-7.9
			c-3.8-9.2-6.7-18.6-9.5-28.1c-3.6-9.1-6.1-18.5-9-27.8c-1.5-4.7-3.3-9.3-4-14.3c-3.6-9.4-5.8-19.1-8.5-28.7
			c-2.7-9.4-5.7-18.6-7.6-28.2c-3.3-10.6-5.7-21.4-8.4-32.2c-4.5-18.2-8.8-36.4-12.5-54.7c-3.5-15.6-7-31.1-9.4-46.9
			c-1.6-4.6-2.3-9.4-2.8-14.2c-2.2-10.3-4.4-20.6-5.6-31.1c-1.6-7.9-3.1-15.7-4-23.7c-2.4-11.6-4.2-23.3-5.6-35.1
			c-2-9.5-3.2-19.2-4.6-28.8c-0.4-2.8-1.5-5.5-0.9-8.3c-1.9-5.9-2.2-12.1-3.1-18.2c-3.4-23.2-6.3-46.5-8.8-69.8c-0.2-2-0.1-4-0.2-6
			c-1.8-3.2-1-6.8-1.5-10.2c-0.6-4.9-1.6-9.8-1.4-14.8c-2-16.5-3.1-33.1-4.3-49.7c-0.4-5.6-0.8-11.3-1.1-16.9
			c-0.3-5.1-0.1-5.2,5.3-4.6c6-0.7,12.1-0.4,18.1-0.3c9-0.3,18.1-0.7,27.1-1c10.7-0.8,21.3-1.6,32-2.5c2.6-0.2,5.2-1.1,7.9-0.8
			c8.2-1.4,16.4-1.4,24.7-2.1c4.1-0.3,8.1-1.5,12.3-1c3.6-0.3,7.3-0.6,10.9-0.9c5.3-0.9,10.6-1.6,16-1.5c0.9-0.1,1.8-0.2,2.7-0.3
			c1.3-0.5,2.6-1.3,3.5,0.5c4.7,8,9.4,15.9,14.1,23.9c4.1,4.1,7.1,9.1,10.5,13.7c4.1,5.6,8.2,11.2,12.8,16.4
			c0.8,0.9,1.6,1.6,1.8,2.9l0,0c0.6,0,1,0.4,1.1,0.9c5,4.7,9.9,9.4,14.9,14.1c2.3,1.9,4.7,3.9,7,5.8c5.2,3.5,10.5,6.9,15.7,10.4
			c5,2.3,10,4.6,15,7c12.9,3.8,10.2,2.4,13.1,13.3c4.2,16.1,8.8,32,15.5,47.3c2.2,5.2,2.2,5.2-3.6,5.2c-9.1,0.4-17.9,2.5-26.9,3.2
			c-4.6,2-9.7,1.9-14.5,2.7c-14.5,2.6-29,4.8-43.6,7.2c-0.6,0.1-1.3,0-2,0c-1.3,0.4-2.5,0.9-3.9,0.7c-1.6,0.7-3.3,0.5-5,0.7
			c-4.6,1.6-9.7,1.2-14.9,3.2c5,1.8,9.5,3.3,13.9,4.9c7.8,2,15.6,4.2,23.1,7.3c9.8,2.3,19.4,5.4,28.9,8.8c15.7,4.3,31.2,8.8,46.3,15
			c1.7,0.7,3.3,1.5,4.9,2.3c5.1,1.8,9.9,4.5,14.8,6.8c6,2.7,10.4,6.7,12.2,13.2c3.4,5.4,4.8,11.6,6.4,17.6
			c1.9,7.2,3.8,14.4,4.7,21.8c0.6,0.5,0.8,1.1,0.7,1.9c0.8,4.3,2.5,8.5,2.1,13c1.3,0.7,1,1.9,1.1,3c2.2,5,2.9,10.5,4.4,15.8
			c1.4,4.8,2.9,9.5,4.4,14.3c3.4,9,7.1,18,11.5,26.6c0.4,0.7,0.5,1.6,0.7,2.4c2.8,3.2,4.3,7.3,6.5,10.9c2.5,4,4.9,8.1,7.4,12.1
			c2.7,3.9,5.5,7.9,8.2,11.8c1.5,1.9,3,3.8,4.6,5.7c1.2,1.4,1.3,2.9,1.3,4.6c0,3.6-0.1,7.2,0.4,10.8c1.4,9.4,4.9,17.9,9.5,26.1
			c1.7,2,3.4,4,5.2,6c7.7,8.8,17.7,14,28.4,17.7c7.7,2.7,15.5,4.8,23.3,7.2c1.7,0.5,3.6,0.8,5.1,1.8c9.7,2.4,19,5.6,27.9,10.2
			c3.8,0.9,7,3,10.4,4.7c9.6,4.9,18.6,10.9,27.5,17.1c0.6,0.5,1.5,0.8,1.6,2c-1,0.7-2.2,0.2-3.2,0.1c-13.4-2-26.8-1.5-40.2,0.1
			c-11.9,1.4-23.5,4.2-34.7,8.7c-1.7,0.7-3.5,1.1-5.2,1.6c-0.8,1-1.9,1.1-3.1,1c-1.5,2-4,2.2-6,3.2c-14.8,6.9-28.8,15.1-42.6,23.6
			c-1.4,0.9-2.7,2-4.4,2.1c-0.6,0.4-1.2,0.7-1.8,1.1c-0.4,1-1.3,0.9-2.1,0.9c-3.4,2.4-6.7,4.7-10.1,7.1c-4.7,3.7-9.5,7.1-14.7,10
			c-3.7,3.6-7.8,6.6-12.3,9c-4.8,4.8-10.6,8.5-15.8,12.9c-9.5,7.8-19,15.7-28,24.1c-1.2,1.1-2.6,2.1-3.9,3.1
			c-4.8,5.2-9.9,10.1-15.3,14.8c-12.8,13.3-25.4,26.7-37.4,40.7c-2.1,2.5-3.7,5.5-6.7,7.3c-0.2,0.5-0.3,1-0.6,1.4
			c-7,9-14.1,17.9-21.1,26.9C556.5,1223.9,553.7,1226.8,551.5,1230.1z M571.3,1361c0,0,0.5-0.1,0.6,0c0.3,0.3,0.5,0.7,0,1
			C571.5,1361.8,571.3,1361.5,571.3,1361z M623.8,1448.9c-17.6-27.2-34.4-54.9-50.1-83.3c-0.6-1.1-1.5-2.2-1.6-3.6c0,0,0,0,0,0
			c1.5-0.9,1.9,0.7,2.5,1.3c22.5,23.1,44.9,46.3,67.4,69.5c3.6,3.7,7.3,7.3,10.7,11.2c1.9,2.3,4,3.3,6.9,3c1.2-0.1,2.6-0.4,4.3,0.7
			c-8.7,7.4-17.1,14.7-26,22.3C632.9,1462.7,628.3,1455.9,623.8,1448.9z M848.9,1747.9c4,0,8,0.1,12,0c2.4-0.1,3.2,0.9,3.1,3.2
			c-0.3,10.2,1.5,8.2-8.3,8.4c-2.7,0.1-5.3,0.1-8,0c-2.2-0.1-3,0.9-2.8,3c0.1,0.7,0.1,1.3,0,2c-0.2,2.4,0.8,3.2,3.2,3.2
			c6-0.1,12-0.1,18,0c9.1,0.2,7.7-2,7.9,8.4c0,2.2-0.8,2.9-2.9,2.9c-11.6-0.1-23.3-0.1-34.9,0c-2.5,0-3.1-1-3.1-3.3
			c0.1-7.3,0-14.6,0-22c0-7.2,0-14.3,0-21.5c0-3.6,0.1-3.7,3.5-3.7c11.3-0.1,22.6,0,33.9-0.1c2.4,0,3.6,0.5,3.5,3.3
			c-0.3,9.8,1.2,7.9-7.7,8.1c-6,0.1-12,0-18,0c-3.6,0-3.6,0.1-3.6,3.6C844.5,1747.9,844.5,1747.9,848.9,1747.9z M907.2,1759
			c-1,0-2,0-3,0c0,0,0,0,0,0c-2.5,0-5,0-7.5,0c-1.6,0-2.3-0.6-2.5-2.3c-0.8-7.5-0.6-7.7,7-7.7c3.5,0,7,0,10.5,0
			c1.6,0,2.3,0.5,2.4,2.3C914.8,1758.9,914.8,1759,907.2,1759z M975.6,1775.7c0,2.7-1,3.3-3.6,3.3c-11.3-0.1-22.6-0.1-34,0
			c-2.8,0-3.4-1.1-3.3-3.5c0.3-9.5-1.2-7.6,7.4-7.8c6.2-0.1,12.3,0,18.5,0c3.2,0,3.3-0.2,3.3-4c0-3.9,0-4-3.2-4.1
			c-7.2-0.1-14.3,0-21.5,0c-4.5,0-4.5,0-4.5-4.7c0-7.5,0-15,0-22.5c0-3.7,0.1-3.8,3.9-3.8c5.5,0,11,0,16.5,0c5.7,0,11.3,0.1,17,0
			c2.6-0.1,3.5,0.8,3.4,3.4c-0.2,9.9,1,7.8-7.8,7.9c-6.2,0.1-12.3,0.1-18.5,0c-2.4,0-3.1,0.8-3.1,3.2c0,4.9-0.1,4.9,4.9,4.9
			c7,0,14,0.1,21,0c2.5-0.1,3.6,0.6,3.5,3.3C975.4,1759.4,975.5,1767.5,975.6,1775.7z M1023.1,1755.6c0,3.8-0.1,3.9-3.8,3.9
			c-7.3,0-14.7,0-22,0c-3.6,0-3.6,0.1-3.7,3.6c-0.1,4.2-0.1,8.3,0,12.5c0,2.2-0.4,3.4-3,3.4c-10.3-0.2-8.2,1.2-8.4-7.9
			c-0.1-5.8,0-11.7,0-17.5c0-7,0-14,0-21c0-3.9,0.1-4,3.7-4c11.2,0,22.3,0,33.5,0c3.5,0,3.6,0.1,3.6,3.6
			C1023.1,1740,1023.1,1747.8,1023.1,1755.6z M1032.9,1845.1c0.1-0.3,0.2-0.7,0.2-1c0.9,0,1.9,0.1,2.8,0c6.2-1.1,10.2,1.1,11.1,8
			C1041.9,1850.7,1037.5,1847.8,1032.9,1845.1z M1061.3,1847.4c-5.2,3.4-5.2,3.4-7.8-3.2c4,0,7.6,0,11.6,0
			C1064.2,1846.1,1062.5,1846.6,1061.3,1847.4z M1070.9,1775.5c0,3.4-0.1,3.5-3.7,3.5c-11.1,0-22.3,0-33.4,0c-3.7,0-3.7-0.1-3.7-4
			c0-7.2,0-14.3,0-21.5s0.1-14.3-0.1-21.5c-0.1-2.5,0.6-3.6,3.3-3.5c11.5,0.1,22.9,0.1,34.4,0c2.7,0,3.3,1.1,3.3,3.6
			C1070.9,1746.5,1070.9,1761,1070.9,1775.5z M1118.2,1778c-0.6,1.9-2.9,0.7-4.5,1c-5.3,1-9-1.3-12.4-5.5c-3.4-4.2-7.3-8-12.4-12.2
			c0,5.5-0.1,9.8,0,14.1c0.1,2.4-0.5,3.6-3.3,3.5c-9.7-0.3-7.8,1.3-7.9-7.8c-0.1-12.8,0-25.7,0-38.5c0-4.1,0.1-4.1,4.1-4.1
			c11,0,22,0,33,0c3.6,0,3.7,0.1,3.7,3.5c0.1,7.8,0,15.7,0,23.5c0,3.9-0.1,3.9-3.8,4c-2.4,0-4.9,0-7.8,0.9c2.5,2.5,5,5.1,7.5,7.6
			c0.9,0.9,1.9,1.9,2.8,2.8C1119.4,1773,1118.9,1775.7,1118.2,1778z M1158.1,1739.9c-6.5,0-6.5,0-6.5,6.7c0,9.5,0,19,0,28.5
			c0,3.8-0.1,3.9-3.9,3.8c-8.8-0.1-7.4,1.1-7.4-7.3c-0.1-9,0-18,0-27c0-5.3,0.3-4.7-4.9-4.7c-2.5,0-5,0-7.5,0
			c-1.6,0-2.5-0.6-2.5-2.3c0-0.3,0-0.7,0-1c0.1-9.7-1.2-7.9,7.7-8c4.3-0.1,8.7,0,13,0c5.7,0,11.3,0.1,17,0c2.4-0.1,3.1,0.8,3.1,3.2
			C1166.4,1739.9,1166.5,1739.9,1158.1,1739.9z M1184.7,1744.2c0,0.3,0,0.7,0,1c-0.2,2.2,0.9,2.8,3,2.8c6.7-0.1,13.3,0,20,0
			c1.2,0,2.3,0.1,3.5,0c2.3-0.2,2.8,0.9,2.8,3c-0.1,5.5,0,11,0,16.5c0,2.8-0.1,5.7,0,8.5c0.1,2.5-0.9,3.1-3.2,3.1
			c-5.8-0.1-11.7,0-17.5,0c-5.7,0-11.3-0.1-17,0c-2.3,0-3.3-0.6-3.3-3.1c0.2-10-1.2-8,7.6-8.2c6-0.1,12,0,18,0
			c3.6,0,3.6-0.1,3.7-3.7c0.1-4.4,0.1-4.4-4.3-4.5c-7.2,0-14.3-0.1-21.5,0c-2.5,0-3.5-0.7-3.5-3.4c0.2-8.2,0.1-16.3,0-24.5
			c0-2.4,0.7-3.2,3.1-3.2c11.7,0.1,23.3,0.1,35,0c2.1,0,2.8,0.8,2.9,2.9c0.4,8.5,0.4,8.5-7.8,8.5c-5.8,0-11.7,0-17.5,0
			C1184.6,1739.9,1184.6,1740,1184.7,1744.2z M1305.1,1401.2c0.3,2.4,1.8,3.4,2.7,4.5c29.4,36,58.8,71.9,88.3,107.9
			c23.1,28.2,46.2,56.4,69.3,84.7c2.3,2.8,2.3,2.9-0.3,5.6c-23.3,24.7-46.6,49.4-70,74.1c-5.5,5.8-11.1,11.5-16.4,17.5
			c-1.9,2.1-3.8,2.7-6.5,2.7c-31-0.1-62,0-93,0c-12.8,0-25.6,0-38.9,0c1.3-3.6,5.7-4.5,6.4-8.1c-1.8,0-3.5,0-5.3,0
			c1.8,0,3.5,0,5.3,0c3.2-2.7,6.5-5.2,9.4-8c12.2-11.8,23.9-24.1,36.5-35.5c5.5-5,10.7-10.5,16-15.8c4.3-4.2,8.4-8.5,12.9-12.5
			c6.6-5.8,12.6-12.3,19-18.4c1.2-1.1,1.3-2.1,0.1-3.4c-6.1-7-12.1-14.1-18.1-21.2c-7.7-9.1-15.5-18.2-23.2-27.4
			c-8.3-9.9-16.7-19.8-25-29.8c-6.6-7.9-13.3-15.8-19.9-23.6c-7.3-8.6-14.5-17.3-21.8-25.9c-8.4-9.9-16.9-19.7-25.2-29.6
			c-9.6-11.4-19.2-22.9-28.7-34.4c-1.4-1.6-2.9-2.6-5.1-2.5c-4,0.2-8,0.1-12,0.2c-1.7-0.1-3.3-0.2-5-0.2c-57.8,0-115.6,0-173.3-0.1
			c-3.7,0-6,1.2-8.5,3.9c-19.8,21.3-39.8,42.5-59.7,63.7c-23.1,24.6-46.1,49.3-69.2,74c-8.6,9.2-17.4,18.4-26,27.6
			c-1.6,1.7-3,3.4-4.8,5.4c6.6,4.9,12.8,9.6,19.1,14.3c1.1,0.8,2.4,1,3.7,1.3c1-0.4,2-0.5,3-0.5c-1,0-2,0.1-3,0.5
			c2.8,4.7,6.8,7.1,12.5,7.1c92.9-0.1,185.9-0.1,278.8-0.1c1,0,2,0.1,3,0c2.7-0.2,3.1-0.9,1.9-3.5c-1.3-2.5-2.8-4.9-4.1-7.4
			c-6.6-12.1-13.2-24.3-19.7-36.4c-1-1.8-2.1-2.8-4.3-2.7c-4.8,0.2-9.7,0.2-14.5,0.2c-3.6-0.7-7.3-0.3-10.9-0.3
			c-12.5-0.1-24.9-0.2-37.4,0.1c-3.6,0.1-5.9-1-7.8-3.9c-1.1-1.7-2-3.9-4.5-4.4c-0.8,0.1-1.6,0.2-2.3,0.3c0.8-0.1,1.6-0.1,2.3-0.3
			c0.2-1.5-0.8-2.5-1.6-3.5c-6.2-8-12.4-16.1-18.6-24.1c-7.3-9.5-14.6-18.9-21.8-28.5c-1.8-2.4-4-4.7-4.9-8c2.1-0.9,4.2-0.5,6.1-0.5
			c53.8,0,107.7,0,161.5,0c2.2,0,4.3-0.1,6.5-0.1c4,0,8,0.2,12,0c2.7-0.1,4.5,0.7,6.3,2.9c16.3,20,32.7,39.9,49.1,59.8
			c14.9,18.1,29.8,36.3,44.7,54.4c0.8,1,1.6,2.1,2.5,3.1c1.7,1.7,1.2,3-0.4,4.6c-5.1,5-10.1,10.1-15.2,15.2
			c-20.1,19.9-40.2,39.8-60.4,59.7c-6.9,6.8-13.8,13.5-20.6,20.4c-1.7,1.7-3.4,2.5-5.7,2.3c-1.3-0.1-2.7,0-4,0
			c-138.4,0-276.9,0-415.3,0.1c-4.3,0-7.6-0.9-10.4-4.3c-1.3-1.6-2.7-3.5-5-4c-0.7,0.1-1.4,0.2-2.1,0.2c0.7,0,1.4-0.1,2.1-0.2
			c-0.1-1.5-1.2-2.3-2.1-3.3c-5.1-5-10.4-9.8-15.5-14.9c-23.5-23.1-46.8-46.5-70.1-69.8c-2.9-2.9-2.9-3,0-5.9
			c20.2-20.5,40.6-40.9,60.8-61.4c38.4-39.1,77.3-77.7,115.6-116.8c4.7-4.8,9.4-9.4,14.1-14.2c0.7-0.8,2-1.4,1.4-3.3
			c-9.8,0-19.7,0-29.6,0c-20.6,0-41.2,0-61.8,0.1c-2.3,0-4.1-0.8-5.9-2.1c-3.2-2.3-5.8-5.5-10-6.3c-1.4,0.3-2.7,0.4-4,0.4
			c1.3,0,2.6-0.1,4-0.4c-0.7-2.5-3-3.4-4.8-4.7c-11.2-8.5-22.6-16.9-33.9-25.4c-24-18.1-48.1-36.1-72.1-54.3c-2.3-1.7-5.1-3-7-6.4
			c2.3,0,4.1,0,5.8,0c41.1,0.5,82.2,0.3,123.4,0.6c121.8,0.7,243.6,0.3,365.3,0.3c91.3,0,182.6,0,273.9,0c1.8,0,3.7,0,5.5-0.1
			c1.2,0,2.3,0.1,3.5,0.1c3.7,0.1,7.7-0.8,10.9,0.5c3,1.2,5.1,4.6,7.6,7.1c16.7,16.6,33.2,33.3,50,49.7c12.8,12.4,25.3,25.2,38,37.7
			c1.1,1.1,2.2,2.3,4,4.2C1436.5,1401.2,1371,1401.2,1305.1,1401.2z M1474.9,1451c-2.8,4.7-5.5,8.4-8.6,12.4
			c-2.5-4.2-4.1-8.4-5.5-13C1465.5,1449.6,1469.6,1451.2,1474.9,1451z M1435.2,1467.1c-0.3,0.2-0.7,0.4-1,0.6
			c-5.3-6.8-10.6-13.6-16.5-21.1c3,0.2,5.1,0.3,7.3,0.5c0.9,0.1,1.6,0.4,2,1.2C1430.1,1454.3,1432.9,1460.6,1435.2,1467.1z
			 M1522,1368c-6.5-5.9-12.2-12.7-18.3-19c-5.9-6.1-11.6-12.4-17.4-18.5c-1.7-1.7-2.8-3.6-3.4-5.9c-5.7-22.7-12.5-45.2-19.9-67.4
			c-4-12-6.9-24.3-11-36.3c-5.8-17-12.7-33.6-20.7-49.7c-0.5-1-1.3-1.9-1.3-3.2c-0.9-0.4-1.1-1.2-1.1-2c0.9,0.4,1.3,1,1.1,2
			c1.8,0,2.4,1.4,3.3,2.6c21,25.9,37.8,54.3,51.6,84.5c12.1,26.3,21.7,53.6,29.3,81.6c2.6,9.5,4.9,19,7.3,28.5
			C1521.8,1366.1,1521.8,1367.1,1522,1368C1522,1368,1522,1368,1522,1368z M1721.9,651c0.3,5.7,0,11.4-0.3,17.1
			c-0.3,8.3-0.6,16.6-0.9,24.9c0,1.7,0,3.4-0.1,5.2c0.5,1.4,0.4,2.7-0.4,4c0,7-0.3,14-1.2,21c-0.7,13.3-1.6,26.7-3.2,39.9
			c-0.4,9.4-1.2,18.7-2.9,28c0,7.4-1.3,14.6-2.2,21.9c-1.3,10.1-2.6,20.2-3.9,30.2c-0.1,0.6-0.4,1.2-0.6,1.8c0.4,4.8-1.5,9.3-2.2,14
			c-0.4,7.7-2.4,15.2-3.5,22.8c-0.4,2.4-0.5,4.9-1.6,7.2c-0.2,3.7-0.7,7.4-2,11c-0.6,7.5-2.5,14.7-3.9,22.1
			c-2.6,13.7-5.6,27.4-9.1,40.9c-3.6,16.2-7.6,32.2-11.9,48.2c-0.3,0.9-0.7,1.9-1,2.8c-1.2,6.1-2.7,12.1-5.1,17.9
			c0.2,1.5-0.6,2.8-1,4.2c0,0.6-0.4,0.8-0.9,1l0.1,0c0,1.7-0.3,3.3-0.8,4.9c-13.6,46.5-29.7,92.2-48.1,137c-0.3,0.8-0.7,1.5-1.1,2.2
			c-1.2,4.6-3.1,8.8-5.3,13c-1.6,4.4-3.1,8.9-5.7,13c-2,7.2-5.5,13.9-8.7,20.7c-4.2,9.2-7.9,18.7-13.2,27.4c-1.2,4.5-4,8.2-6,13.2
			c-5.1-10.8-9.8-20.9-14.5-31c-4.6-8.1-9.1-16.2-13.7-24.3c-3.1-4.8-6.2-9.7-9.4-14.5c-6.3-8.4-12.5-16.9-18.8-25.3
			c-3.2-2.3-5.2-5.6-7.8-8.4c-15.3-16.3-31.4-31.6-49.8-44.3c-0.5-0.4-1-0.9-1.4-1.3c-4.2-2.4-8.1-5.2-12-8
			c-13.5-8.2-27.1-16-41.3-23c-0.6-0.3-1-0.8-1.6-1.2c-2,0.3-3-1.2-4.3-2.2c-25.5-22-54.1-39.1-84.6-53.3c-4.7-2.2-5.5-6.2-6.1-10.5
			c-1.7-3.1-1.8-6.5-2-9.9c-0.2-3.7,0-7.5,0.1-11.2c0.2-15.3,4-29.7,10.8-43.4c0.4-0.9,1-1.7,2-2.1l-0.3-0.1l0-0.3
			c1.6-3.6,4-6.6,6.9-9.2c8.5-9.2,17.8-17.6,27-26.1c6.5-6.6,12.3-13.8,19.2-20c2.3-4.5,6.1-7.8,9.1-11.7
			c6.5-8.2,12.9-16.5,18.8-25.2c0.7-1.1,1.4-2.3,2.6-2.9c3.7-7,8.1-13.5,12.5-20c5.1-9.6,10.7-18.9,15.3-28.8
			c1.5-3.1,3.1-6.1,4.7-9.2c-0.2-2,1.6-3.2,2.2-4.9c-0.1-0.6,0.1-1,0.7-1.3c0.1-0.2,0.1-0.5,0.3-0.7c1.5-5.2,3.7-10.2,6-15.1
			c3.5-11.1,7-22.2,10.5-33.3c0.9-3.2,1.7-6.4,2.6-9.7c2-10.8,4.1-21.5,6.1-32.3c1.5-8.2,3.1-16.3,4.6-24.5c0.2-0.8,0.2-1.7,0.8-2.3
			c0.3-5.5,1.3-10.9,3-16.1c0.3-6.6,2.1-13,3.3-19.5c1.9-10.7,3.9-21.4,5.9-32.1c0.1-0.8,0.2-1.6,0.9-2.2c-0.4-2.8,0.7-5.5,1.1-8.8
			c-3.6,3-4.4,7.4-7.5,10.1c-2.3,5.3-5.5,10.1-9.6,14.6c0-4.3,0-8.5,0-12.8c-1.1-5.9,1.2-11.4,2.4-17c1.4-10.4,3.2-20.7,3.2-31.2
			c0-0.6,0.4-1.3,0.5-1.9c0-2,0.1-4,0.1-6c-0.3-10.4-1.1-20.7-2-31c-1.3-7.2-2.6-14.3-3.9-21.5c-0.6-3.3-0.1-3.8,3.4-3.2
			c1.8,0.3,3.5,0.7,5.3,1.1c15.2,2.4,30.5,5.1,45.8,7.2c23.4,3.2,46.7,6.8,70.1,9.4c1.5,0.2,3,0,4.2,1.1c8.2,0.7,16.5,1.4,24.7,2.2
			c8.9,0.9,17.8,1.7,26.7,2.7c9.9,1.1,19.8,1.3,29.6,3c8.4,0.2,16.7,1.1,25,1.9c3.9,0.1,7.9,0.2,11.8,0.4c2.2,0.1,3.4,1,3.6,3.6
			c0.3,3.3,0.5,6.5,0.6,9.8c0.1,3.1,0.4,6.2,0.5,9.3c0.8,10.1,1.3,20.3,1.5,30.4c0.2,11.3,0.6,22.6,0.9,34c0,1.8,0.2,3.7-0.4,5.5
			C1722.2,630.3,1721.8,640.6,1721.9,651z"/>
		<path fill="none" d="M781.1,1032.2C781.1,1032.2,781.1,1032.2,781.1,1032.2C781.1,1032.2,781.1,1032.2,781.1,1032.2
			L781.1,1032.2z"/>
		<path fill="none" d="M1251,1206c0,0-0.1,0-0.1,0C1250.9,1206,1250.9,1206,1251,1206L1251,1206z"/>
		<path fill="none" d="M678.1,810C678.1,810,678.1,810,678.1,810C678.1,809.9,678.1,809.9,678.1,810L678.1,810z"/>
		<path fill="none" d="M1402,753C1402,753,1402,753,1402,753C1402,753,1402,753,1402,753L1402,753z"/>
		<path fill="none" d="M1430,1168C1430,1168,1430,1168,1430,1168C1430,1168,1430,1168,1430,1168C1430,1168,1430,1168,1430,1168
			C1430,1168,1430,1168,1430,1168z"/>
		<path fill="none" d="M1386.6,823.5c4.6-11.6,9.4-23.1,13.1-35c2.6-8.4,5.6-16.7,7.3-25.3c-0.9,0.8-1.7,1.6-2.6,2.3
			c-2.5,2.4-5.1,4.7-7.7,6.9c-2.4,2-3.4,4.2-3.6,7.3c-0.6,7.8-1.8,15.5-3.5,23.1c-0.4,2.1-0.9,4.2-1.4,6.3c-0.6,2.4-1.1,4.9-1.7,7.3
			c-0.9,3.8-1.9,7.7-2.8,11.5C1385.6,827.1,1386,825.2,1386.6,823.5z"/>
		<path fill="none" d="M643.4,495.5c0.3,0.3,0.6,1,1.1,0.8c0.1,0,0.1-0.1,0.2-0.1c0.5-0.4,0.1-1.1-0.5-1.4
			C643.9,495.1,643.7,495.3,643.4,495.5C643.4,495.5,643.4,495.5,643.4,495.5z"/>
		<path fill="none" d="M746,562.9c5.7,4.3,11.6,8.4,17.6,12.3c8.6,5.7,17.7,10.6,26.5,15.9c9.2,4.2,18.1,9,27.4,13.1
			c25.5,11.2,51.9,19.8,79.1,25.8c1.3,0.3,2.6,0.5,3.8,1.5c-15,5.9-28.1,14.5-39.9,25.3c-11.9,10.8-22,23.1-30.5,36.8
			c-0.3,0.6-0.8,1.1-1.2,1.6c-0.9,2-2.2,0.8-3.3,0.4c-5.6-2.2-11.1-4.6-16.6-6.8c-1-0.4-1.9-1.3-3-0.4c0.2,0.4,0.3,0.8,0.5,0.9
			c1.8,1.2,3.5,2.5,5.4,3.6c23.3,14.6,48.2,25.6,74.6,33c26.3,7.4,53,12.8,79.7,18.5c3.4,0.7,6,0.3,8.9-1.5
			c15.6-9.6,29.5-21,42-34.4c1.5-1.6,2.1-3.3,2.2-5.3c0.1-3.2,0.2-6.3,0.2-9.5c-0.8-7.1-1.9-14.2-4.3-21
			c-4.1-11.7-10.8-21.7-20.1-29.9c-0.8-0.7-2-1.2-2.3-2.8c16.5-0.2,32.8-1.7,49.1-3.7c5.1-0.9,10.2-1.9,15.3-2.8c0-0.3,0-0.7,0-1
			c-54.1-1.6-107.7-7.1-160.4-19.3c-52.8-12.2-103.4-30.9-153.3-53.3C744.2,561.7,745.2,562.2,746,562.9z M912.6,647.9
			c-0.5,2.5-1.5,4.7-2.7,6.9c-8.4,15.6-21.1,24.8-39,26.6c-5,0.5-9.9,0.1-15.6-0.6c3.6-5.9,7.6-10.5,11.9-14.8
			c9.1-9.1,19.7-16.3,31.3-21.8c2.6-1.2,5.2-2.2,8-2.7C911.7,640.6,913.6,642.6,912.6,647.9z"/>
		<path fill="none" d="M1012.1,789.8c1.3,0.1,2.6,0.2,3.8,0.3c1.5,0.1,3,0.3,4.5,0.3c2.8,0.1,4.7,1.3,6.5,3.6
			c12.3,16.5,27.9,28.9,47.2,36.4c20.2,7.9,40.7,9.6,61.3,1.3c2-0.8,3.4-0.5,5,0.6c2.8,2,5.8,3.8,9.4,6.2c0.6-4.5,1.1-8.1,1.5-11.8
			c0.4-3.6,1.3-6.6,4.2-9.1c2.1-1.8,3.6-4.3,5.3-6.6c7.1-10.1,11.6-21.5,13-33.7c1-8.4,3.7-15.2,9.9-20.8c2.8-2.5,2.6-2.8,0.5-6.2
			c-15.7-25.8-36.7-46.3-62.6-61.9c-3.4-2-5.8-2.1-9.2,0.3c-38.4,27-71.3,59.4-98.8,97.4C1013,787.1,1011.8,788,1012.1,789.8z
			 M1101.8,823.4c-19.9-1.2-37.9-8.3-54.6-18.8c-4.3-2.8-8.5-5.9-12.7-8.8c-1.3-0.9-2.7-1.8-4.2-4.2c33.1,4,63.2,13.8,92.4,30
			C1115.2,823.6,1108.5,823.8,1101.8,823.4z M1030.6,778.8c11.2-14.5,23.5-28.1,36.6-40.8c13.9-13.5,28.6-25.9,44.2-37.3
			c0.8-0.6,1.7-1,2.5-1.6c3.5-2.7,3.5-2.8,6.8-0.7c20.8,13.2,38.3,29.9,52,50.4c2.6,4,2.2,3.3-0.7,6c-9.9,9-18.3,19.4-25,31
			c-0.7,1.3-1.5,2.5-3,3.7c-0.3-3.7-0.5-7.3-0.8-11c-1.9-25-9.9-47.8-25.3-67.8c-1.3-1.7-2.4-3.7-4.7-4.2
			c18.4,38.4,24,73.3,23.5,101.7c-34-16.3-69.5-25.7-107.1-26.5C1028.7,780.4,1029.9,779.7,1030.6,778.8z"/>
		<path fill="none" d="M1205,611.9c6.8-2.1,13.6-4.2,20.4-6.3c11.7-3.7,23.1-8.4,34.6-12.6c1.3-0.6,2.6-1.4,4-1.9
			c19.5-8.4,38.5-17.8,56.6-28.9c8.5-5.2,16.7-10.7,25.1-16c1.6-1.9,3.9-3.1,5.9-4.6c7.3-5.5,14.5-11,20.9-17.6
			c-41.5,18.9-82.5,38.9-125.5,56.4c-2.4-24.3-1.8-47.6,1.5-70.8c-1.7,0-1.9,1.1-2.5,1.8c-16.2,21.9-23,46.2-18.8,73.3
			c0.5,2.9-0.1,4.4-2.9,5c-0.5,0.1-0.9,0.3-1.4,0.5c-27.6,11.1-55.7,21-83.5,31.7c-1,0.4-2.4,0.2-2.6,1.9c9.8-0.6,19.5-2.2,29.2-3.4
			C1179,618,1192,614.8,1205,611.9z"/>
		<path fill="none" d="M1360.1,626.1c-3.4,1.5-6.2,4.3-10.1,4.8c-1,0.8-1.9,1.8-3.1,2.4c-11.4,6.4-22.7,13.1-34.6,18.8
			c-0.2,0.2-0.4,0.6-0.7,0.7c-16.4,8.4-32.9,16.5-49.8,23.7c-12.7,5.4-25.2,11-38.3,15.4c-5.3,3.1-11.5,4.3-16.7,7.7
			c20.2,1.2,39.7-2.8,59.4-8.5c0.2,14.2-1.3,27.5-2.2,40.9c9.5-12.7,15.4-27,18.8-42.2c0.9-4.1,2.6-6.1,6.4-7.8
			c29.5-13.2,55.2-31.4,75.2-57l0.1,0C1362.6,623.8,1361.4,625.6,1360.1,626.1z"/>
		<rect x="1041.7" y="1742.7" fill="none" width="17.6" height="22.1"/>
		<rect x="1089" y="1741.3" fill="none" width="15.3" height="6.7"/>
		<rect x="995.8" y="1739.9" fill="none" width="17.2" height="11.1"/>
	</g>
</g>
</svg>
