<?xml version="1.0" encoding="utf-8"?>
<!-- Generator: Adobe Illustrator 18.1.1, SVG Export Plug-In . SVG Version: 6.00 Build 0)  -->
<svg version="1.1" id="Layer_1" xmlns="http://www.w3.org/2000/svg" xmlns:xlink="http://www.w3.org/1999/xlink" x="0px" y="0px"
	 viewBox="0 0 2000 2000" enable-background="new 0 0 2000 2000" xml:space="preserve">
<g>
	<g id="XMLID_5_">
		<g>
		</g>
		<g>
		</g>
	</g>
	<path fill="#2AACE3" d="M1773.1,470.2c-106-5.2-210.9-16.8-314.8-35.7c-1.3-10.7-0.8-20.9-2.6-30.8c-1.6,3.6-1,7.7-3.2,11.9
		c-2.8-12.7-4.4-24.6-7.1-36.2c-0.3,0-0.7,0-1,0.1c-2.5,17.2-5.1,34.4-7.8,52.7c-1.6-1.4-2.8-2-3.3-2.9c-0.7-1.5-0.9-3.2-1.4-4.8
		c-6.2-23.3-14.5-45.8-26.1-66.8c-15.8-28.8-32.2-57.2-48.4-85.7c-0.5-0.9-1.2-1.7-2.4-3.4V294c-1.2-2.1-2-3.4-2.6-4.6
		c-10.9-21.3-24-41.1-39.8-59.1c-36.8-41.9-73.8-83.7-110.7-125.6c-0.8-0.9-1.7-1.6-2.6-2.4c-0.2,0.2-0.4,0.4-0.6,0.5
		c17.9,36.1,35.8,72.3,53.8,108.4c-9.1-6.5-17.6-13.3-26.1-20.1c-8.6-6.8-17.3-13.5-26-20.3c-8.8-6.9-17.6-13.8-26.4-20.6
		c-8.5-6.6-16.9-13.4-25.8-19.5c8.3,15.7,16.9,31.1,25.4,46.5c0,0.1,0,0.3-0.1,0.4c-0.1,0.1-0.3,0.2-0.4,0.4c-0.4-0.1-1-0.1-1.4-0.3
		c-23.7-11.2-48.9-16.1-75-16.5c-2.2,0-3.8-0.8-5.4-2.1c-24.3-20.1-51.2-36-80-48.6c-33.8-14.8-69-24.5-105.7-28.1
		c-23.7-2.4-47.5-3.6-71.2-5.4c-2.9-0.2-5.8-1-8.7-1.7c-2.4-0.6-4.7-2.8-7,0.3c-0.3,0.4-1.6,0.1-2.4,0c-5.8-0.4-11.6-0.9-17.4-1.3
		c-27.9-2-55.8-4-83.7-6c-1.6-0.1-3.3,0-4.9,0c0,0.3,0,0.5-0.1,0.8c33.5,10.9,67,21.7,100.8,32.7c-3,12.4-3,24.6-1.1,37.2
		c-39.6-11.8-78.2-10.6-116.6,3.4c-2-3.2-3.9-6.2-5.8-9.1c-1.9-3-3.7-5.9-5.6-8.9c-1.9-3-3.6-6-5.6-8.9c-1.9-2.7-3-6-6.2-8.4
		c1,12.1,1.3,23.6,3,34.9c1.1,7-1.3,10-7.1,13.4c-20.6,11.9-40.8,24.6-61.1,37c-0.5,0.3-1,0.8-2.3,2c25.6,2.3,50.3,4.6,75,6.9
		c1.1,7.7,2,14.8,3.3,21.9c1.3,7,2.9,14,4.6,21c1.7,6.8,3.8,13.5,5.8,20.7c-23.2-3.7-45.2-1.5-67.5,4.3v-10.2
		c-0.3-0.1-0.6-0.2-1-0.3c-1.9,3.2-3.9,6.4-5.6,9.7c-1.2,2.4-2.9,3.8-5.5,4.6c-10.5,3.5-20.6,7.9-29.8,13.9
		c-14.9,9.8-29.6,19.9-44.3,29.8c-1.6,1.1-3.1,2.3-5.4,3.9c16.5,4.4,32.1,8.6,48.2,12.9c-10.3,17.7-16.3,36.1-18.7,56.5
		c-22.3-19.2-43.8-37.8-65.3-56.3c-0.3,1.8,0,3.2,0.5,4.6c7.8,21.8,15.7,43.5,23.4,65.4c6.2,17.6,13,34.9,23.6,50.5
		c0.6,0.9,1,1.8,1.6,2.9c-0.9,0.3-1.3,0.6-1.8,0.7c-8.4,1.1-16.9,2.1-25.3,3.2c-2.4,0.3-4.1-0.7-6-1.9
		c-10.2-6.9-20.5-13.7-30.8-20.5c-1-0.7-2.2-1.2-4.3-2.4c3.7,8.8,7,16.6,10.4,24.6c-2,0.5-3.6,0.9-5.2,1.3c-25.8,5-51.8,6.7-78,7
		c-20.3,0.3-40.7,0.2-61,0.2c-10.5,0-21-0.4-31.5-0.5c-3.7,0-7.5-1.7-10.8,1.6c-0.7,0.7-2.6,0.1-3.9,0.1h-4.1c0,2.8-0.1,5.1,0,7.4
		c0.3,9.7,0.8,19.3,1.1,29c0.7,22.5,1,45,2.1,67.4c1.3,26.6,2.7,53.2,5.2,79.7c3.2,33.7,7,67.3,11.4,100.8
		c4.5,34.7,10.8,69.1,17.6,103.4c14,70.3,31.8,139.6,54.4,207.7c23.2,69.7,49.1,138.4,78.9,205.5c18.3,41.3,38.4,81.6,60.4,121
		c20.7,37.3,43,73.6,66.9,109c1.2,1.8,2.3,3.5,3.5,5.5c-22.5,19.4-44.8,38.5-67,57.6c0.8,1.3,1.3,2.3,2,3.3
		c14.9,21.7,29.8,43.4,44.6,65.1c36.5,53.4,72.9,106.7,109.3,160.1c2,2.9,4.3,4.8,7.5,6.2c34.1,14.3,68.1,28.6,102.1,43
		c3.3,1.4,6.5,2.1,10.1,2.1c32.5-0.1,65,0,97.5-0.1c3.6,0,6.3,1,9,3.3c37,30.3,75.6,58.6,114.7,86c0.7,0.5,1.4,0.8,2.1,1.1
		c5.5-3.7,10.7-7.7,16.3-10.9c40.4-23.6,79.8-48.9,117.8-76.3c3.2-2.3,6.3-3.2,10.1-3.2c34.2,0.1,68.3,0.1,102.5,0
		c2.4,0,5.1-0.4,7.1-1.6c33.9-18.2,67.7-36.5,101.5-54.8c2.1-1.1,4.1-2.9,5.6-4.7c12.5-15.6,25-31.2,37.4-46.9
		c35.6-44.7,71.3-89.4,106.9-134c1-1.3,1.9-2.6,3.1-4.2c-17-21.8-33.8-43.4-50.5-64.8c0.5-0.8,0.6-1.1,0.8-1.4
		c16.9-24,33.9-47.9,50.7-71.9c1.7-2.4,3.3-3.2,6.2-2.9c19.7,1.8,39.4,3.4,59.2,5.1c2.3,0.2,4.5,0.2,6.8,0.3c0.2-0.3,0.3-0.6,0.5-1
		c-14.5-15.5-29-30.9-43.8-46.7c86.6-141.3,146.9-293,181.9-454.7C1781.9,798,1790.6,635,1773.1,470.2z M1446.7,778.7
		c3.5-11,6.9-22.1,10.5-33.4c3.4,0.8,5.8,3,7.7,5.3c6.9,7.8,12.4,16.5,13.6,27.2c1.3,12.4-1.3,23.8-9.5,33.6
		c-5.6,6.7-16,8.7-23.7,4.7c-5.5-2.9-10.6-10.8-6.9-18.1c3.3-6.5,10.1-9.1,16.7-5.8c1.3,0.7,2.5,1.5,4.8,2.9
		C1457.9,786.8,1452.8,782.5,1446.7,778.7z M1395.3,761.9c0-1.9-0.1-3.3,0-4.7c0.9-21.4,2-42.9,2.8-64.3c0.1-2.8,1.4-4.6,3.2-6.5
		c8.7-9,17.4-17.9,25.9-27c3.6-3.8,6.6-8.2,10-12.4C1441.3,669.3,1415.8,739.3,1395.3,761.9z M1426.9,744.4
		c-10.2,35.1-25.5,67.4-46.5,97c1-4.2,1.8-8.5,3-12.6c4.7-16.5,8.4-33.2,10.1-50.3c0.2-1.8,1.1-3.9,2.4-5.2
		C1406,763.7,1416.3,754.3,1426.9,744.4z M568.1,424.3c4.2,1.1,8.5,1.7,13.3,2.6c0.6,2.4,1.5,5.2,2.2,8.1
		c2.3,10.2,7.9,17.8,17.1,22.8c6.9,3.7,13.6,7.7,20.4,11.6c9.3,5.4,15.9,13.5,21.3,22.7c0.1,0.2,0,0.6,0,1c-0.5-0.1-1,0-1.3-0.3
		c-9.1-7.2-19.8-10.7-30.8-13.3c-4.7-1.1-9.3-2.5-13.8-4.2c-11.3-4.3-19.8-12.1-26.4-22c-6.6-9.9-11.1-20.7-14.4-32.9
		C560.1,421.8,564.1,423.3,568.1,424.3z M546.1,513.4c11.3,5.5,23.1,9.4,35.6,11c10.7,1.4,21.3,0.4,31.9-0.7
		c6.4-0.7,13-1.1,19.4-0.3c11,1.5,18.8,8,24.1,17.6c3,5.5,6,11.2,8.9,16.7c0.5,1,1.2,2,2.2,3.7c0.4-1.4,0.7-2,0.7-2.7
		c-0.8-13.6-0.5-27.3-3.8-40.7c-4.5-17.9-11.8-34.3-24.4-48c-4.4-4.8-9.8-8.4-15.4-11.8c-19.3-11.9-32.6-28.3-36.7-51.1
		c-2.2-11.9-0.2-23.6,3.9-34.9c1.3-3.7,3-7.4,4.9-12c0.8,2,1.3,2.9,1.5,3.9c5.8,21.6,17.3,39.2,36,51.7
		c19.6,13.1,34.2,30.5,44.5,51.7c0.9,1.8,1.9,3.5,2.9,5.3c0.1,0.2,0.5,0.3,1.3,0.7c1.3-2.2,2.5-4.4,3.8-6.7
		c9.2-17.1,14.1-35.2,12.8-54.7c-1.4-21.1-10.4-38.6-24.9-53.7c-20.9-21.7-45.1-38.4-73.7-48.2c-0.5-0.2-0.9-0.4-1.8-0.8
		c1.3-0.8,2.3-1.6,3.4-2.1c22.2-11.4,45.8-17.3,70.8-16.1c29.1,1.4,52.7,13.9,70.6,37c1.2,1.6,2.5,3.1,4,5c3-2.2,5.8-4.3,8.8-6.5
		c-24.8-32.4-41.2-68.1-47.3-108.5c2,1.9,4.1,3.8,6.2,5.7c24.9,22.4,54.1,31.9,87.4,28.6c8.1-0.8,16.2-1.7,24.3-2.5
		c0.6-0.1,1.1-0.2,1.8-1.1c-3.6-1-7.2-2-10.9-3c-10.9-2.9-22-5-32.5-9.6c-13.4-5.8-24.8-14.2-34-25.5c-5.5-6.7-11-13.4-18.1-18.6
		c-11.4-8.3-24.3-13.1-37.8-16.3c-1.6-0.4-3.2-0.8-5-1.2c0.5-0.6,0.8-1.1,1.2-1.3c23.9-11.1,49-16.1,75.2-14.1
		c26.9,2,51.7,11,74.5,25.3c33.9,21.3,60.5,49.4,78.3,85.5c4.4,9,8.7,18,13,27c0.6,1.3,1.4,2.6,2.8,3.7c0-0.8,0.1-1.7,0-2.5
		c-2.7-15.2-4.8-30.6-8.3-45.7c-7-30.7-23.4-55.6-48.3-74.9c-8.9-6.9-18.1-13.7-26.6-21.1c-13.4-11.6-18.6-26.4-15.1-44
		c0.1-0.5,0.3-0.9,0.7-1.8c66.1,27.1,123.8,66.5,174.4,116.7c-14.2-46.6-38.8-85.5-81-111.7c0.2-0.3,0.3-0.6,0.5-0.9
		c9.4,2.4,18.9,4.5,28.2,7.3c34.2,10.3,66.2,25.2,95.5,45.8c23.9,16.8,44.4,37.2,63,59.6c14.6,17.5,29.1,35.2,43,53.3
		c9.4,12.3,17.7,25.4,26.5,38.2c1.1,1.6,2.3,3.1,3.4,4.7c0.3-0.2,0.6-0.3,0.9-0.5c-1.3-4.2-2.6-8.5-4-12.7
		c-3.4-10.8-6.2-21.8-10.3-32.3c-13.4-34.1-34.9-62.3-63.8-84.8c-1-0.8-2-1.6-3.6-2.9c23.3,2.2,44.1,9.2,63.2,21.1
		c19.1,11.8,34.5,27.6,47,47.1c6.7-7.2,10.1-15,11.4-25c3.5,3.2,6.4,5.5,9,8.2c16.3,16.7,30.2,35,41.3,55.6
		c13.2,24.6,22.1,50.6,26.5,78.1c2.2,13.5,4.1,27,6.2,40.5c0.1,0.6,0.3,1.2,0.8,2.8c0.6-1.7,1.1-2.5,1.2-3.3
		c2.4-18.7,4.9-37.3,6.9-56c0.7-6.9,0.2-14-0.2-21c-0.4-7.3-0.8-14.6-2-21.9c-1.6-10.2-3.9-20.2-5.9-30.3c-0.1-0.4-0.1-0.9,0.6-1.6
		c3.5,6.4,7.2,12.7,10.4,19.2c11.8,23.9,19.9,49,24.2,75.3c3.5,21.3,4.2,42.8,2.4,64.2c-1.3,16.2-4.5,32.3-6.8,48.4
		c-0.2,1.6-0.5,3.2-0.7,4.8c0.4,0.3,0.8,0.5,1.2,0.8c0.3-0.6,0.5-1.3,0.8-1.8c6.5-12.9,13.5-25.7,19.5-38.8
		c7.8-17,13.7-34.6,16.4-53.2c0.7-4.8,1.2-9.6,1.8-14.4c0.1-1,0.4-1.9,1-2.9c11.4,23.7,18.7,48.6,22.8,74.4
		c4.1,26.1,4.5,52.3,1.6,78.6c-2.9,26.1-10.6,51-17.7,76.2c11.2-8.5,20.1-18.9,29-29.5c8.9-10.7,15.5-22.7,21.2-35.3
		c1.7,49.1-17.6,90.7-45.8,130.6c-0.2-2.7-0.3-4.3-0.3-5.9c-0.2-17.2-0.3-34.3-0.6-51.5c0-2-0.5-4-0.8-6c-0.5,0-0.9,0-1.4,0
		c-0.4,1.7-0.8,3.3-1,5c-1.2,10.4-2.3,20.8-3.4,31.3c-1.9,18.7-3.6,37.5-5.5,56.2c-1.8,17.2-3.8,34.4-5.6,51.6
		c-3.2,29.6-10.1,58.4-20.7,86.2c-8.6,22.7-22.2,41.8-40.5,57.9c-23.8,20.9-47.1,42.3-70.5,63.5c-6.9,6.3-13.4,13-20,19.5
		c-0.9,0.9-1.6,2-2.4,3c2.4,2,3.7,0.2,5-0.8c6.7-4.9,13.4-9.9,20.1-14.9c11.4-8.5,22.7-16.9,34.1-25.4c0.9-0.6,1.8-1.3,3.4-2.4
		c-2.3,5.2-4.4,9.5-6.1,14c-8.9,23.3-9.8,47-3,71c0.5,1.9,1.5,3.6,0.5,5.8c-0.3,0.7,0.2,1.9,0.6,2.8c2.6,5.6,5.2,11.2,7.8,16.7
		c3.9,8.3,6.7,16.9,8.8,26.6c-3.4-1.9-6.1-3.4-8.9-4.9c-16.1-8.5-33.2-11.5-51.2-10c-7.6,0.6-15.3,1.2-22.9,1.8
		c-0.9,0.1-1.8,0.3-3,1.3c3.7,2,7.3,3.9,11.8,6.3c-8.5,1.2-16,2.1-23.5,3.4c-9.4,1.5-18.6,3.8-27.3,7.9c-1.7,0.8-3.3,1.6-4.9,2.5
		c-16.6,9.7-23.2,25-18.7,43.7c0.9,3.7,2.2,7.3,3.5,11.7c-8.7-5.9-14.3-13.9-21.4-20.5c-2.6,4.4-4.8,15.8-4.8,24.6
		c-1.8-0.6-3.4-1-5-1.7c-14.8-5.7-26.5-15.2-35.6-28c-5-7-10-14.1-15-21.2c-0.9-1.3-2-2.5-4-3.5c1.3,11.4,2.7,22.7,4.1,34.7
		c-14.9-2.9-29.2-5.8-44.2-8.7c0,2.3-0.1,4.1,0,5.8c0.5,7.6,1.6,15.3,1.6,22.9c-0.1,11.7-2.5,23.1-7,34.7c-1.4-6.8-2.3-13-3.9-19
		c-9.4-36.4-30-64.9-60.9-86.1c-4.2-2.9-6.8-6.1-8.7-10.9c-10.3-27.2-26.9-50-49.6-68.3c-1.3-1-2.6-2.1-3.9-3.1
		c-0.1-0.1-0.2-0.3-0.5-0.9c4.9-0.4,9.6,0.2,14.2,1c10.7,1.8,21.3,3.9,31.9,5.8c1.1,0.2,2.3,0,3.5,0c0.1-0.4,0.2-0.9,0.3-1.3
		c-2-1-3.9-2-5.9-2.8c-17.5-6.9-35.5-12.3-53.9-16.3c-35.8-7.8-70.1-19.5-102.9-36c-1.9-1-3.8-2-5.7-3.1
		c-14.1-7.9-20-19.9-18.2-35.8c1.9-16.5,4.3-33,6-49.6c1.4-13.4,3-26.8,3.2-40.3c0.3-17.5-3.9-34.3-10.3-50.6
		c-0.3-0.8-0.7-1.5-1.1-2.2c-0.1-0.2-0.6-0.3-0.9-0.5c-2,0.9-1.1,2.5-0.8,3.8c2.9,15.3,4.5,30.7,3.1,46.2c-1,11.1-3.1,22.1-5,33
		c-1.9,10.5-4.2,20.9-6.3,31.3c-0.2,0.8-0.4,1.5-0.9,2.9c-1.5-2-2.7-3.6-3.8-5.2c-16.6-24.3-27.3-50.9-33.3-79.6
		c-3.4-16.4-6.5-33-12-48.9c-2.4-7.1-5.5-13.9-9.9-20.1c-3.8-5.4-8.5-9.8-14.4-12.9c-6.4-3.3-12.8-6.4-19.2-9.6
		c-0.7-0.3-1.4-0.7-1.9-1.7c8,1.5,15.9,3.2,23.9,4.5c9.6,1.6,19,1.2,27.4-4.3c2.3-1.5,4.7-3.3,6.4-5.4c6.8-8.4,13.5-16.9,19.5-26.1
		c-1,0.4-2,0.7-2.9,1.2c-5.6,3.3-11.2,6.6-16.8,9.9c-1.6,0.9-3.1,1.9-4.8,2.7c-10.9,5.6-19.5,3.9-27.7-5.2c-7.3-8.2-12.1-17.9-16-28
		c-4.7-11.9-8.6-24.1-11.1-36.8c-0.4-2.1-1-4.2-1.5-6.3c-3.6-13.8-12.6-22.4-26.2-26.2c-3.6-1-6.8-2.4-9.9-4.4
		c-26.2-17.6-48.2-39.3-64.5-66.6c-0.8-1.4-1.6-2.9-2.9-5.2C543.9,512.6,545,512.9,546.1,513.4z M621.7,351.1c2,1.3,3.5,2.1,4.9,3.1
		c11.1,7.7,21.3,16.5,30.4,26.5c7.7,8.4,12.8,18.2,14.4,29.6c0.1,0.6,0,1.3,0,2.2c-0.8-0.4-1.5-0.6-1.9-1
		c-8.8-8-18.4-14.8-28.6-20.9C626.3,381.7,621.7,368.2,621.7,351.1z M1313.5,1020.8c19.3-0.7,37.9,1.6,54.8,11.8
		c19.2,11.6,31.5,28.3,36.3,50.3c0.1,0.7,0.3,1.3,0.3,2c0,0.3-0.2,0.6-0.6,1.5c-1.7-1.1-3.3-2-4.8-3.2
		c-18.9-15.9-39.3-29.6-61.2-41.1c-6.6-3.5-13.3-6.9-20-10.2c-6.1-3-6.1-3-8-10.3C1311.7,1021.2,1312.6,1020.8,1313.5,1020.8z
		 M1309,998.7c-1.8-8.2,4.5-32.9,11.1-42.9C1322.3,968.5,1316.6,990,1309,998.7z M607.1,1225.9c28.1-34.2,58.3-66.3,91.7-95.3
		c23-19.9,47.3-37.9,74.2-52.2c19.2-10.2,39.2-18.2,60.8-21.7c38-6.2,70.8,4.1,98.5,30.7c17,16.3,29.1,35.8,38.2,57.4
		c11.7,27.7,16.6,56.7,17.9,86.8H602.7C604.5,1229.2,605.8,1227.5,607.1,1225.9z M600.2,1122.6c-10.1-4.9-20.6-5.1-31.2-2.2
		c-11.7,3.2-21.5,9.6-29.2,19.1c-0.8,1-1.8,1.8-3.4,2.2c0.3-1,0.6-2.1,1.1-3c4.6-9.4,10.8-17.7,18.9-24.2
		c13.2-10.6,28.3-13.5,44.7-10c14.4,3.1,29,12.6,37.9,24.7c-5.1,4.9-10,9.6-15.2,14.6c-1.1-1.4-2.1-2.4-3-3.6
		C615.4,1132.6,608.6,1126.6,600.2,1122.6z M678.7,811c-0.3,0.3-0.3,0.5-0.4,0.5c-0.2,0-0.4,0-0.5-0.2c-2.8-3.2-5.6-6.5-9.2-10.8
		c1.4-0.9,2.8-1.9,4.2-2.8c0.7-0.4,1.3-0.9,2.5-1.8C676.6,801.3,677.7,806.3,678.7,811z M630.6,677.9c-0.1,0.5-0.3,1-0.4,1.4
		c-1.1,0.1-2.2,0.3-3.3,0.4c-4.5,0.5-8.9,0.8-13.3,1.6c-5.1,0.9-9.6,1-14.8-1.5c-9.4-4.7-19.7-4.6-29.7-1.7
		c-8.2,2.4-15.8,6.2-22.3,11.9c-1.9,1.6-3.7,3.4-6.6,2.7c5.5-13.5,22.3-29.3,41-31.4C600.4,659.3,616.6,665.2,630.6,677.9z
		 M457.9,561.9c8.8-10.1,13.3-22.2,15.9-35.1c0.2-1.1,0.3-2.4,0.9-3.4c0.5-0.9,1.6-1.9,2.5-2c4.4-0.5,8.9-0.7,14-1.1
		c-0.7,10.6-4.6,19.8-9.6,29c1.2,0.5,2.1,1.1,2.9,1.2c12.8,0.7,24.5,4.5,35.3,11.4c0.4,0.3,0.9,0.3,2,0.6c-0.4-1.3-0.5-2.4-1-3.4
		c-3-6.1-7.5-11-12.8-15.2c-2.5-2-3.3-4.1-2.7-7.3c0.7-3.9,0.7-8,0.8-11.9c0.1-3.7-0.1-3.8-3.9-5c2.2-0.4,4.5-0.8,6.8-1.2
		c2.4-0.4,4,0.3,5.3,2.6c3.6,6.4,7.5,12.6,11.1,19c1,1.9,1.7,4,2.1,6.1c2.3,12.5,9.6,21.6,20.4,27.6c8.1,4.5,13.5,11.8,20.7,17.4
		c-2.8,3.3-5.2,6.3-7.7,9.3c0.2,0.3,0.4,0.6,0.7,0.9c1-0.2,2.1-0.4,3-0.8c1.7-0.7,3.4-1.4,5-2.3c3.3-1.8,6-1.7,9,0.9
		c3.7,3.1,7.9,5.4,12.5,8.4c-6.1,2.5-12.1,4.5-17.5,7.3c-5.7,3-11.3,6.4-16.5,10.3c-4.9,3.8-9.2,8.5-14.3,13.3
		c0.6-5.4,3.5-9.1,6-12.8c2.5-3.7,5.5-7,8.6-10.9c-9.8-18-23.9-31.6-42.6-40.4c-18.4-8.7-37.9-10.8-58-9.1c-0.1-0.4-0.2-0.9-0.2-1.3
		C457.1,563.3,457.4,562.5,457.9,561.9z M358.6,596.9h-0.2v-1.8h0.2V596.9z M372.3,713.8c-1.7-12.7-3.5-25.4-5.1-38.1
		c-2-15.3-3.8-30.7-5.8-46c-0.4-3.1,0.4-5.4,2.6-7.6c6.5-6.6,13.9-12,22.2-16c1.2-0.6,2.3-1.2,3.5-1.7c-7.6-1.1-14.3-3.1-20-8
		c-6-5.1-8-11.6-6.2-19.9c-4.1,1.8-5.1,4.6-6.1,7.6c-1-14.3-2-28.5-3.1-42.8c-0.2-3-0.6-6-0.7-8.9c-0.1-1.4,0-2.8,1.8-3
		c2.1-0.2,2.5,1.3,2.5,2.9c0,10,0,20,0.1,30c0,1.9,0.2,3.9,0.3,5.8c7.6,0.3,18.4-5,28.5-13.6c8.3-7.2,13.7-16.2,16.5-26.9
		c10.7-0.8,21.1-1.7,32.3-2.5c-0.3,2.9-0.4,5.3-0.9,7.6c-3.6,17.7-13.1,31.8-26.6,43.5c-2.9,2.5-5.9,4.8-9.3,7.7
		c2.1,0.7,3.6-0.2,5-0.6c11.1-3.2,22.3-5.3,34-4.9c19.6,0.5,38,5.1,53.8,17.3c18.5,14.3,28.8,33.2,30.2,56.8
		c1.4,24.4-6.5,45.5-22.2,63.9c-0.3,0.4-0.8,0.6-1.9,1.3c0.4-1.6,0.5-2.6,0.9-3.5c8.3-21.1,10.2-42.5,0.7-63.7
		c-11.7-26.2-31.9-40.8-61-42c-16.3-0.7-31.5,3.1-44.9,12.5c-13.3,9.3-21.2,22-21.9,38.5c-0.5,10.4,2.1,19.9,10.5,26.9
		c7,5.8,15,6.5,23,3.2c8.3-3.4,12.4-10.5,13.9-20.3c-1.7,1.2-2.6,1.8-3.5,2.4c-5.6,4.4-12.5,4.9-17.6,1.5c-5.4-3.6-8-11.2-6-17.7
		c2.4-8,10.4-14.4,19.2-15.4c13.9-1.5,24.2,5.2,29,18.4c5.4,14.5,1.3,38.7-14.7,52.3c-8.9,7.6-18.9,12.8-30.8,12.5
		c-5.7-0.1-11.4-2-17.1-3.1C373.9,719.3,372.7,716.9,372.3,713.8z M396.3,857.6c-0.7-3.8-1.4-7.5-2.2-11.9c11,0.3,20.9,3,30.6,6.9
		c9.7,3.8,18.7,9,27.2,15c-3.8-8.2-8-16.3-11.4-24.6c-3.4-8.5-5.2-17.5-5.7-26.8c-0.4-9.1,0-18.2,2.3-27.2c-6,4.7-9.8,11-12.2,17.8
		c-2.3,6.7-3.5,13.7-5.3,21.1c-1.7-0.9-3.1-1.6-4.5-2.4c-6.8-4-13.7-7.7-21.5-9.1c-3.9-0.7-5.6-2.8-6.1-6.6
		c-0.7-5.9-1.8-11.8-2.8-18.1c5.2-0.6,9.8-1,14.4-1.7c13-2,25.2-6.1,36-13.9c4.7-3.5,7.7-7.7,8.6-13.9c2.7-18.3,11.2-33.7,25.4-45.7
		c0.6-0.5,1.2-0.9,2.3-0.9c-1.4,2.4-2.7,4.8-4.1,7.2c-8.4,13.9-13.3,29.1-15.7,45c-2.8,18.5-3.3,37.3-0.5,55.8
		c4.3,28.4,15.6,53.8,36.2,74.2c31.3,30.9,76.4,29.9,106.6,5.8c4.1-3.3,7.9-7.2,11.8-10.8c0.8-0.8,1.6-1.5,3.3-3.1
		c-0.2,3.2-0.3,5.2-0.5,7.3c-0.8,12.2,1.9,23.5,9.1,33.5c13,18.3,39,17,51.4,5.4c7.9-7.4,10.4-16.4,8.6-26.8
		c-0.8-4.9-3.5-9-7.3-12.3c-8.3-7.2-17.8-7.8-28.2-4.9c1.3,0.5,2.6,1,3.9,1.6c5.4,2.3,8.7,6.3,8.9,12.2c0.2,5.2-2.1,9.5-6.9,11.8
		c-5.3,2.5-10.4,2-15-1.8c-4.3-3.5-6.5-8.4-7.9-13.6c-2.8-10.2-2.5-20.5-0.7-30.7c0.9-4.9,2.2-9.8,3.3-14.6c0.3-1.3,0.5-2.5,1-4.9
		c-1.8,1.4-2.8,2-3.7,2.8c-4.2,3.8-8.2,7.9-12.7,11.3c-18,13.6-38,18.8-60.2,13.6c-10.3-2.4-19.1-7.9-26.5-15.3
		c-18.4-18.5-27.9-40.7-27.6-66.9c0.2-12.7,2.8-24.9,9.1-36c7.5-13.1,18.4-21.8,33.7-24c17.9-2.6,31.9,4.6,42.9,18.1
		c10.8,13.2,13,28.1,7.6,44.2c-1.7,5-4.4,9.4-8.2,13c-5.9,5.8-12.9,7.4-20.7,4.7c-6.1-2.1-9.8-7.4-9.9-13.7
		c-0.2-9.5,8.6-15.3,17.3-11.3c1.5,0.7,2.9,1.6,5,2.7c-0.4-1.7-0.5-2.8-0.9-3.8c-5.6-12.6-20.7-17.5-33.5-10.9
		c-6.3,3.3-10.7,8.3-13.5,14.8c-5.8,13.9-4.2,36.8,12.4,50c6.4,5.1,13.8,7.8,22.1,8.2c14.6,0.7,27-4.5,38.3-13.3
		c15.5-12,24.1-28.5,31-46.3c6.7-17.4,7.3-35.4,5.5-53.6c-0.1-0.8-0.1-1.7,0-2.5c0-0.3,0.3-0.6,0.6-1.1c0.7,0.2,1.5,0.2,2.2,0.5
		c5.5,2.7,11.1,5.3,16.5,8.2c5.6,3,8.5,7.8,8.6,14.2c0.3,20.1-5.6,38.1-18.2,53.7c-1.9,2.4-4.2,4.5-6.6,7c2.9,2.2,5.4,4,7.9,5.9
		c4.6,3.4,8.4,7.6,11.2,12.6c6.5,11.6,3.6,22.7-7.8,29.5c-0.5,0.3-1,0.7-1.7,1.2c6,1.7,15.4-0.7,23.6-5.5
		c7.6-4.5,11.6-11.5,14.7-20.5c1.7,4.2,3,7.4,4.4,10.6c1.9,4.4,3.8,8.9,6,13.2c1.4,2.8,1.4,5.2,0,8c-5.7,11.2-8.9,23-8.5,35.6
		c0.3,8.2,2.2,16.1,6.6,23.6c1.3-4.5,2.3-9.1,3.9-13.5c1.6-4.5,3.5-9,5.6-13.3c2.2-4.3,4.9-8.3,7.8-13.2c3.3,4.6,6,8.4,8.7,12.3
		c1.4,1.9-0.1,3.5-1,5c-3.9,6.7-6.4,13.8-8.2,21.4c-2.9,12.6-1.7,24.8,2.6,36.8c2.2,6.1,2.1,11.8-1.6,17.2
		c-4.7,6.6-14.1,5.9-17.8-1.2c-2.2-4.2-1.3-9.7,2.4-13.4c1.1-1.2,2.4-2.1,4.5-3.9c-2.3-0.2-3.7-0.4-5.1-0.3
		c-11.1,0.7-18.9,8.1-20.4,19.1c-1.4,10.2,1.1,19.1,9.8,25.1c11.7,8.1,31,6.1,39.5-8.2c5.3-8.9,5.9-18.6,5.2-28.5
		c-0.1-1.1-0.1-2.2,0.5-3.6c0.6,0.8,1.5,1.6,1.9,2.5c3.4,6.8,5.4,14,4.8,21.7c-0.3,3.6,1.2,5.4,4,7.2c10,6.2,21,9.5,32.7,9.7
		c8.1,0.1,16.4-0.2,24.3-1.5c10.7-1.8,20.3-6.5,28.7-14.2c9.4,4.1,18.2,9.3,27.2,15c-2.6,3.8-4.9,7-9.8,6.8
		c-13.6-0.4-26.9,1.5-40.3,4.8c-0.2-0.9-0.5-1.6-0.5-2.4c-0.1-0.8,0.1-1.6-0.8-2.8c-1.1,1.3-2.3,2.5-3.1,4c-1.2,2.2-3,3.5-5.3,4.2
		c-6.9,2.1-13.7,4.3-20.6,6.2c-18.2,5-34,14.2-47.8,27c-4,3.7-8.3,7.1-13.7,9.7c-0.7-1.4-1.5-2.7-2-4c-9-20.3-22.7-36.5-41.9-47.6
		c-7.9-4.6-16.6-7.7-25-11.4c-1.2-0.5-2.4-1-4-1.7c0.9-1.7,1.6-3.1,2.4-4.5c5.7-11,2.2-24.8-8.1-31.3c-2.7-1.7-5.5-3-9.4-2.8
		c0.5,1,0.7,1.8,1.1,2.3c7,9.3,3.6,21.2-7.3,25.2c-3.3,1.2-6.7,2.3-10.1,2.7c-10.7,1.2-21.3,1.4-31.3-3.5c-4.3-2.1-8-4.9-10-9.3
		c-2.3-4.9-2.1-9.8,1.2-14.2c3.5-4.6,8.4-6.7,14-6.1c9.9,1,14.7,8,12.6,18c-0.2,0.8-0.1,1.5-0.2,3.3c5.4-3.4,8.6-7.3,10-12.7
		c2.3-9-1.2-16.4-6.7-23c-6.2-7.4-14.7-11-24.1-11.8c-13.6-1.2-25.7,3-35.8,12.2c-9.6,8.7-14.1,19.7-12.8,32.7
		c1.8,19.5,12.8,32,30.9,38.4c5.6,2,11.5,3.1,17.3,4.7c1.4,0.4,2.8,0.8,4.9,1.3c-7.1,5.1-14.3,9-18.7,17.2c1.8-0.4,2.9-0.4,3.8-0.9
		c11.8-5.8,24.2-9.5,37.3-10.5c20.9-1.7,40.8,1.9,59,12.8c13.2,7.9,24.6,17.7,34,29.8c1.2,1.6,2.3,3.2,3.8,5.4
		c-3.8,2.8-7.3,5.4-11.4,8.4c-1.5-1.9-2.7-3.5-4-5.2c-12.1-15.5-27.1-27.2-46.3-32.5c-27.2-7.5-52.5-2.6-75.6,13.3
		c-5.6,3.8-10.2,9-15.3,13.5c-0.8,0.7-1.6,1.5-2.8,2c2.3-8.9,8.1-15.6,14.2-22.7c-22.8-38.7-57.7-52.6-101.4-49.6
		c0.5-1.2,0.7-2,1.2-2.5c11.2-13,16-28.5,17.7-45.3c2.2-22.2-3.4-42.3-15.5-60.7c-11.9-18.2-28.9-29.6-49.6-35.7
		c-3.5-1-7-2-10.6-2.9C397.7,860,396.6,859.3,396.3,857.6z M428.1,993c-3-4.1-20.4-75.3-21.1-86.2c1.2,0.6,2.2,1,3.1,1.6
		c15.4,10,23.8,24.4,25.7,42.4c1.4,13.1-0.6,25.9-5.6,38.2C429.7,990.3,428.9,991.6,428.1,993z M497.5,1159.7
		c2.1-7.4,4.4-13.7,5.7-20.2c3.6-17.4,2.5-34.6-5.8-50.6c-10.6-20.4-26.7-33.8-49.9-37.5c-3.3-0.5-4.9-1.7-5.8-5
		c-1.8-7.3-4-14.4-6-21.6c-0.3-0.9-0.4-1.9-0.6-3.3c1.5-0.3,2.7-0.7,3.9-0.6c32.2,0.6,57.7,13.5,73.8,42.1
		c7.2,12.8,9.6,26.8,8.6,41.5c-0.7,10.6-2.7,20.8-7.1,30.4c-3.8,8.2-8.6,15.8-14.4,22.7C499.4,1158.2,498.7,1158.6,497.5,1159.7z
		 M555.2,1219.6c-9-0.8-16.7,2.3-22.9,8.9c-2.1,2.3-4.2,3.4-7.3,3.2c-3.6-0.2-7.3-0.1-11-0.1c-1.9,0-3.1-0.8-3.9-2.5
		c-2.1-4.7-4.3-9.4-6.3-14.1c-0.5-1.1-0.6-2.7-0.2-3.8c7.6-20.9,26.9-35.2,50-32.2c8.8,1.2,16.4,5.4,23.3,10.9
		c0.6,0.5,1.2,1.2,1.7,1.8c0.2,0.2,0.2,0.6,0.4,1.2c-0.5,0.8-1.1,1.8-1.8,2.7c-5.7,7.2-11.3,14.4-16.9,21.6
		C558.8,1219.1,557.5,1219.9,555.2,1219.6z M571.8,1361.7c4.4,4.1,8.4,7.5,12,11.2c7.9,8.1,15.7,16.3,23.5,24.4
		c14.8,15.3,29.7,30.5,44.4,45.9c2.5,2.6,4.9,4.3,8.6,3.8c0.6-0.1,1.3,0.1,3.2,0.3c-9,7.8-17.2,14.8-25.8,22.2
		C614.1,1434.5,592.3,1398.9,571.8,1361.7z M873.4,1777.7c-4.2,1.2-35.5,1.2-40,0.1v-49h39.8v10.5h-28.5v8.7h18.6v11.1h-18.3v8.4
		c9.2,0.5,18.5-0.1,28.3,0.4V1777.7z M913.8,1758.3c-6.2,0.5-12.4,0.3-18.9,0.1v-9.2h18.9V1758.3z M974.9,1747.8v30.6
		c-13.2,0.3-26.2,0.1-39.6,0.2v-10.8c9.7-0.1,19-0.2,28.6-0.3v-8.3c-9.5-0.5-18.9,0.1-28.6-0.3v-30.2h38.9c1.2,3.6,1.2,4.4,0.5,10.3
		c-9.2,1-18.7-0.1-28.4,0.7v8.2H974.9z M993.5,1778.1h-10.6v-49.7c13.3-0.2,26.3-0.1,39.7-0.1v30.6h-29.1V1778.1z M1028.9,1867
		c-10.3-6.8-20.2-14.4-30.2-21.9c0.1-0.4,0.3-0.7,0.4-1.1c5.8,0,11.6-0.1,17.3,0c1.1,0,2.3,0.5,3.2,1.1c6.3,5.3,13.2,9.4,20.6,13
		c0.3,0.1,0.4,0.5,0.9,1.2C1037.1,1861.9,1033.3,1864.3,1028.9,1867z M1046.7,1852.1c-4.5-2.2-9-4.5-13.4-6.7
		c0.1-0.4,0.2-0.8,0.3-1.2h10.1c1.2,2.3,2.4,4.7,3.7,7.1C1047.2,1851.5,1047,1851.8,1046.7,1852.1z M1056.9,1849.7
		c-1.2-1.7-2.2-3.2-3.9-5.6h10.9c0.1,0.3,0.2,0.7,0.3,1C1062,1846.5,1059.7,1847.9,1056.9,1849.7z M1070.2,1777.8
		c-4.4,1.1-35.6,1-39.7-0.1v-49h39.4C1070.9,1732.4,1071.2,1772.5,1070.2,1777.8z M1109.7,1763.4c1.9,1.9,3.6,3.9,5.7,5.6
		c3,2.5,3.4,5.4,2.2,9.5c-3,0-6.2,0.3-9.2-0.1c-1.6-0.2-3.2-1.6-4.4-2.8c-3.8-3.7-7.4-7.6-11.2-11.4c-0.9-0.9-1.9-1.7-2.9-2.5
		c-0.4,0.1-0.7,0.3-1.1,0.4v16.2h-10.4v-48.9c3.4-1.1,31.8-1.5,39-0.5c1.1,3.5,1.4,23.5,0.3,30.1h-11.9
		C1107.7,1761.1,1108.7,1762.3,1109.7,1763.4z M1166,1739.4h-14.3c-0.8,13.1,0,25.7-0.5,38.7h-10.6v-38.6h-14.1
		c-1.2-3.9-1.1-7.2-0.2-10.8h39.4c0.1,1.7,0.3,3.3,0.3,4.8C1166,1735.1,1166,1736.7,1166,1739.4z M1213.5,1777.7
		c-4.5,1.1-35.8,1.1-40,0v-9.9c9.6-0.1,19-0.2,28.7-0.3v-8.4h-28.7v-29.9c3.9-1.1,35.2-1.2,40-0.1v9.8c-9.3,1.2-18.8-0.1-28.7,0.8
		v8.3h28.7V1777.7z M1304.3,1401.1c55,67.2,109.1,133.3,163.4,199.7c-4.2,4.5-8.1,8.8-12.1,13c-18.8,19.9-37.5,39.7-56.3,59.5
		c-7,7.4-14,14.7-20.9,22.2c-1.6,1.8-3.3,2.5-5.6,2.5c-9.3-0.1-18.7,0-28,0h-105c2.7-2.9,4.7-5.1,7.3-7.9h-29.3
		c11.7-12.2,23.3-22.8,34.4-33.8c11.1-11,22.4-21.9,33.7-32.8c11.3-11,22.7-22,34.3-33.2c-1.1-1.4-1.9-2.6-2.8-3.7
		c-50.9-60.4-101.8-120.8-152.6-181.2c-2.1-2.5-4.3-3.6-7.6-3.6c-58.2,0.1-116.3,0.1-174.5,0c-2.9,0-4.9,0.8-7,2.9
		c-26.6,28.5-53.3,56.9-80,85.3c-25.4,27.1-50.8,54.2-76.2,81.3c-1.3,1.4-2.5,3-4.1,4.9c3.9,3,7.8,5.5,11.1,8.6
		c5.7,5.3,12.2,6.8,20,6.8c86.8-0.3,173.6-0.2,260.5-0.2h6.9c-0.8-2-1.3-3.2-1.9-4.3c-6.2-11.6-12.6-23.1-18.7-34.8
		c-1.4-2.7-3.1-3.7-6.2-3.7c-14.5,0.2-29,0-43.5,0.1c-3.5,0-6.2-0.6-7.9-3.8c-2-3.7-5-5.2-9.1-4.4c-7.4,1.3-12-1.9-16.5-7.9
		c-15.1-20.5-30.8-40.6-46.3-60.8c-0.7-0.9-1.4-1.9-2.2-3.1c1.9-1.3,4-0.8,5.8-0.8c55.8,0,111.7,0,167.5,0c4.5,0,9,0.1,13.5,0
		c2.4-0.1,4.3,0.4,5.5,2.6c2.5,4.5,6.5,6,11.3,5.2c6.4-1.1,10.5,1.7,14.6,6.7c30.2,37.2,60.8,74.2,91.2,111.3
		c1.1,1.4,2.2,2.8,3.5,4.4c-1.4,1.5-2.5,2.7-3.6,3.8c-27.7,27.5-55.3,54.9-83,82.4c-3.9,3.9-8,7.6-11.8,11.5
		c-1.5,1.5-3.1,2.4-5.3,2.2c-1.2-0.1-2.3,0-3.5,0c-138.6,0-277.3,0-416,0.1c-4.4,0-7.8-0.9-10.4-4.4c-2.3-3.1-5.3-4.4-9.1-3.8
		c-6.4,1.1-10.7-1.7-15.1-6.2c-22.8-23.1-45.9-46-69-68.9c-6.8-6.8-13.8-13.5-20.7-20.3c-1.1-1.2-2.2-2.4-3.4-3.7
		c1.1-1.2,1.9-2.2,2.9-3.2c9.7-9.8,19.4-19.7,29.1-29.5c18.3-18.4,36.7-36.8,55-55.3c20.9-21,41.8-42.1,62.6-63.2
		c11.7-11.8,23.4-23.8,35-35.7c0.9-0.9,1.6-1.9,3-3.5c-2.3-0.1-3.9-0.3-5.5-0.3c-18.5,0-37-0.1-55.5,0.1c-3.2,0-5.9-0.5-8.2-2.7
		c-0.6-0.6-1.4-0.9-2-1.5c-3.3-3.3-7.2-4.5-11.8-4c-2.9,0.3-5.4-0.4-7.8-2.3c-41.6-31.4-83.3-62.7-125-94c-0.5-0.4-1-0.8-2.1-1.9
		c1.8-0.2,3-0.5,4.1-0.5c45.5,0,91-0.1,136.5,0c42.3,0.1,84.6,0.4,127,0.5c74.7,0.1,149.3,0,224,0c97,0,194,0.2,291,0.2
		c3.5,0,6.5,0.4,8.7,3.5c2.6,3.4,6,5.2,10.4,4.4c6.2-1.2,10.4,1.7,14.7,6.1c16.9,17.3,34.2,34.2,51.3,51.2
		c12.7,12.6,25.3,25.1,38,37.6c1.1,1.1,2.2,2.4,4,4.4H1304.3z M1474.3,1451.1c-2.4,4.3-4.9,7.8-8.2,11.9c-1.9-4.6-3.4-8.4-5.4-13.1
		C1465.4,1450.3,1469.4,1450.7,1474.3,1451.1z M1546.2,1336.2c-6.1,10.1-11.8,20.5-17.7,30.7c-0.8,1.4-1.8,2.8-2.9,4.7
		c-5.4-5.8-10.5-11.3-15.6-16.8c-7.6-8.2-15.2-16.4-22.9-24.4c-2-2.1-3.2-4.5-3.9-7.3c-5.6-22.3-12.2-44.2-19.5-66
		c-4.2-12.4-7.3-25.2-11.5-37.7c-12.7-38.3-31.6-73.3-57.3-104.5c-22.7-27.5-50.2-49-83-63.3c-2.9-1.3-5.1-2.7-5.7-6.1
		c-0.3-1.9-1.3-3.8-2.2-5.5c-0.9-1.8-1.9-3.4-3.5-6.1c3.4,1.4,6,2.4,8.5,3.5c38.4,17,72.8,40.2,103.6,68.8
		c14.9,13.8,29.5,28,42.8,43.4c20.9,24.2,37.8,51.1,52.5,79.4c15.9,30.7,28.7,62.6,39.8,95.3
		C1549,1328.6,1548.7,1332.1,1546.2,1336.2z M1548.3,1208.6c-0.1,1.1-0.4,2.1-0.8,4.1c-1.4-1.9-2.2-3-3-4.1
		c-7.2-10.2-14.3-20.5-21.5-30.6c-2-2.8-3.5-5.5-4.3-8.8c-3.7-14.3-10.1-27.2-20.9-37.5c-9.2-8.8-20.1-13.6-33-12.8
		c-3.2,0.2-5.8-0.3-8.4-2.3c-2.7-2.1-5.7-3.9-9.5-6.5c9.9-5.2,19.3-7.5,29.3-6.9c15.6,0.9,28.8,7.5,40.2,18.1
		c16.2,15.2,24.8,34.3,29.4,55.6C1548.1,1187.3,1549.1,1197.9,1548.3,1208.6z M1683.8,963.4c-7.4-0.4-13.6-2.2-18.1-7.7
		c-8.1-9.8-9.1-21.2-4.3-32.4c6.1-14.3,18.4-20.9,33.2-23.1c0.4-0.1,0.9,0.2,2.3,0.5C1692.6,921.6,1688.2,942.2,1683.8,963.4z
		 M1721.2,667.7c-4.4-3.7-4.5-10.7,0-17.5V667.7z M1718.4,622c-6.6,5-12,11-15.6,18.6c-4.8,10.1-6.2,20.7-3.2,31.6
		c2.5,8.8,7.9,15.1,16.5,18c4.3,1.5,4.1,2.4,4,5.7c-0.4,8.8-0.8,17.6-1.3,26.6c-1.2,0.2-2,0.5-2.7,0.4c-18.1-2.6-31.6-11.9-38.2-29
		c-10.4-26.6-5.9-51.1,13.4-72.3c6.1-6.7,13.7-11.6,21.8-15.6c1.1-0.6,2.3-1.2,3.4-2.2c-7.5-0.7-14.4-2.4-20.2-7.5
		c-5.8-5.2-7.9-11.7-6.2-19.7c-9.6,5.8-11.5,21-4.9,35.9c-0.4,0.4-0.7,1.1-1.2,1.4c-8,4.7-14.3,11.4-20.5,18.2
		c-11.2,12.1-18.2,26.5-22.5,42.4c-4.8,18-3.6,36-0.4,54c0.3,1.9,0.6,3.8,1,6.1c-18.5-1-34,3.7-46.3,19c1.8-0.2,2.7-0.1,3.5-0.3
		c10.3-3.4,20.6-3.2,31-0.4c12.7,3.4,23.8,9.4,33,18.8c10,10.2,22.1,16.5,36.2,18.7c2.8,0.4,5.6,0.4,8.5,0.6
		c1.6,0.1,3.2,0.3,5.2,0.5c-0.7,6.8-1.4,13-2.1,19.3c-0.2,2.2-1.8,2.6-3.6,2.4c-3.5-0.3-7-0.5-10.4-1.1c-8.5-1.5-16.9-0.3-25.3,0.8
		c-3,0.4-4.8,1.6-5.9,4.5c-2.4,6-5.9,11.2-10.7,15.5c-0.7,0.6-1.5,1.2-3,1.3c0.5-1.3,0.9-2.6,1.4-3.8c6.8-15.8,6.8-31.3-1.5-46.7
		c-6.2-11.6-16.3-18-28.8-20.2c-5.9-1-12.4-0.6-18.3,0.5c-19.5,3.5-36.3,27-22.5,51.1c2.2,3.8,5.2,6.6,9.8,8.9
		c-0.3-1.4-0.6-2.3-0.8-3.3c-0.8-3.9-2-7.8-2.2-11.7c-0.3-7,4.7-13.5,11.2-15.5c8.8-2.7,17.4,3.1,19,12.7c1.1,6.5,0.1,12.6-2.7,18.5
		c-3.6,7.8-8.3,14.8-14,21.2c-9.7,11-18.6,22.7-23.8,36.7c-6.1,16.2-6.9,32.5-0.5,48.8c0.4,0.9,0.8,1.8,1.6,3.3
		c0.6-1.1,1.2-1.7,1.3-2.4c5.5-28,22-48.4,44.6-64.6c15.3-11,32.5-17.5,51.1-20.3c8.7-1.3,17.5-2,26.3-3c0.8-0.1,1.6,0.2,3,0.5
		c-0.6,4.6-1.2,8.9-1.9,13.6c-1.8,0.2-3.2,0.5-4.7,0.5c-28.2,0.9-53.3,10.2-74.8,28.3c-14,11.8-23,27-27.3,44.9
		c-3.2,13-1.8,25.7,2.8,38.3c1.9,5.3,1.6,10.5-1.4,15.4c-2.8,4.7-8.4,6.6-12.9,4.6c-5.5-2.5-8.3-8.2-5.9-13.6
		c1.3-2.9,3.7-5.3,5.8-8.3c-0.5-0.2-1.3-0.7-2.1-0.7c-7.7-0.2-18.1,4.4-21,15.3c-2.8,10.2-1.2,19.1,6.4,26.7
		c8.5,8.5,24.1,9.3,34.7,2c5.8-4,9-9.8,11-16.2c2-6.6,2.8-13.4,1.6-20.3c-0.2-1,0-2.1,0-4.4c1.3,1.9,2.1,2.7,2.6,3.6
		c3.3,6.5,5.1,13.4,4.5,20.7c-0.4,3.9,1.2,6.1,4.4,8c10.1,6.1,21.1,9,32.7,9.6c3.3,0.2,6.6,0.3,10.5,0.5c-1.6,5.8-2.8,10.9-4.5,15.9
		c-0.4,1.2-2.3,2.3-3.7,2.8c-3.9,1.4-8,2.3-11.9,3.7c-18.5,6.8-34,18.1-47.1,32.7c-1,1.1-1.6,2.5-2.4,3.8c-0.5-0.2-1.1-0.4-1.6-0.6
		c-1-2-2.2-3.8-3.1-5.9c-8-18.5-20.3-33.5-36.9-45c-9.4-6.5-20-10.7-30.6-14.6c-1.1-0.4-2.1-0.9-3.6-1.5c6.3-10,7.6-20.1,0.5-30
		c-3.6-5-8.4-8.3-15.6-8.8c0.9,1.6,1.5,2.6,2.1,3.6c5.9,9.2,2,20.6-8.5,24.4c-10.8,3.9-21.9,3.9-33,1.8c-6-1.1-11.4-3.8-15.6-8.4
		c-4.1-4.5-5.1-11.3-2.5-16.3c2.7-5,10-8.7,15.7-7.8c7.1,1.1,11.7,5.1,12.6,11.6c0.4,2.7-0.3,5.5-0.5,8.8c0.9-0.3,1.9-0.4,2.5-0.9
		c7.4-5.6,10.1-16.3,6.3-24.8c-6.3-14-17.7-20.4-32.5-21c-14.5-0.6-26.9,4.9-36.5,15.6c-8.5,9.5-11,21-8.9,33.6
		c3,17.4,13.7,28.1,29.7,33.9c7,2.5,14.3,4.2,22.1,6.5c-6.3,5.2-13.9,8.9-17.7,16.3c0.2,0.3,0.4,0.6,0.7,1c1.8-0.8,3.6-1.5,5.3-2.3
		c14.6-6.8,29.9-10.1,46-9.9c26.6,0.5,49,10.8,68.5,28.6c17,15.5,27.8,34.7,34.6,56.4c0.9,3,1.4,6.2,2.2,9.2
		c0.3,1.4,0.8,2.8,1.2,4.2c0.4,0.1,0.8,0.1,1.2,0.2c6.1-39.6,25.9-70.6,57.8-94c0.4,0.2,0.7,0.3,1,0.5c-0.4,1.6-0.8,3.1-1.2,4.7
		c-9.4,32.1-20,63.9-31.8,95.2c-5,13.3-10.3,26.4-15.3,39.6c-1.2,3.1-3,5.3-6,6.9c-6.7,3.5-10.6,7.2-13.3,12
		c3.9,0.9,7.3-2.2,11.4-1.3c-0.8,4.2-2.6,7.9-4.6,11.4c-0.7,1.2-2.8,1.6-4.3,2.3c-11.4,5.1-18.8,13.5-21.4,25.8
		c-1.3,6.2-0.7,12.3,1.8,18.1c1.2,2.7,1.3,5-0.3,7.5c-1.4,2.2-2.4,4.7-4,7.6c-0.9-1.8-1.7-3.1-2.3-4.4c-3.4-7.2-6.6-14.6-10.3-21.7
		c-1.7-3.3-1.2-5.3,1.1-7.9c13.2-15.2,21.8-32.7,25.4-52.4c4.8-26,3.8-51.5-8-75.7c-11-22.6-27-40.5-50.5-50.4
		c-24.9-10.4-49.5-8.4-73.5,3.4c-9.6,4.7-18.2,11.1-25.4,19.2c-0.9,1-1.8,1.9-2.8,2.9c-0.2,0.2-0.6,0.2-1.4,0.4
		c0.3-1.3,0.3-2.4,0.8-3.2c3.4-5.3,6.7-10.7,10.5-15.7c3-4,3.4-3.8,0.9-7.7c-10.9-17.7-25.7-30.7-45.1-38.7
		c-16.1-6.6-32.8-8.4-50-7.4c-1.3,0.1-2.6,0-4.3,0c0.4-0.9,0.5-1.5,0.9-2c13.3-15.2,17.9-33.5,18.6-53.1c0.4-9.9-1.5-19.6-4.4-29
		c-1-3.4-0.4-5.5,2.1-7.9c5.2-5.1,10.1-10.6,15.5-16.3c17.7,15.7,38.1,23.7,61.8,21.7c23.5-2,42.2-13.1,58.2-31.4
		c0,1.9,0.1,2.9,0,3.9c-1.1,12.6,0.7,24.6,7.8,35.4c12.9,19.6,37.3,18.6,50.2,9c6.5-4.8,10.3-11.2,11.4-19.2
		c1.9-14.2-7.8-26.6-22-28.3c-5.9-0.7-10.1-0.3-13.9,1.5c1.6,0.7,3.1,1,4.2,1.8c2.2,1.5,4.6,2.9,6.1,4.9c3.8,5.1,3.1,12.5-1,16.6
		c-4.6,4.5-12.1,5.1-17.5,1.2c-3.9-2.8-6.3-6.8-7.9-11.3c-3.3-9.5-3.6-19.3-2.2-29.1c0.9-6.4,2.5-12.7,3.8-19.1
		c0.3-1.4,0.6-2.8,0-4.6c-1,1-2.1,1.9-3.1,2.9c-10.2,10-21.2,18.8-35.2,22.9c-12.5,3.6-25.2,5.1-37.9,1.3
		c-12.4-3.8-22.8-10.8-31.3-21.1c4-6.4,8-12.6,12.2-19.2c1.3,1.1,2.4,1.8,3.3,2.7c10.7,11,23.9,13.1,38.3,10.6
		c8.3-1.5,15.8-5.2,22.7-10.1c11.1-8.1,19.8-18.2,25.9-30.5c5-10,9.7-20.1,12-31.1c2.5-11.6,3.5-23.4,2.1-35.3
		c-0.7-5.9-1-12-2.5-17.8c-3.8-15.1-10.5-28.8-22.5-39.3c-6.3-5.6-13.5-9.8-22-11c-1-0.1-1.9-0.5-3.4-1c0.9-4.9,1.8-9.7,2.7-14.5
		c5.1-1.3,9.5,0,13.8,1.1c15.7,4,27.9,13.2,37.8,25.7c12.3,15.4,18.8,33.3,21.8,52.5c2.3,14.3,2.7,28.6-1.3,42.6
		c-3.6,12.7-9.5,24.1-19,33.5c-0.6,0.6-1.2,1.2-1.7,1.8c-0.2,0.2-0.3,0.6-0.5,1.3c2.2,1.7,4.8,3.3,6.9,5.3
		c3.6,3.4,7.2,6.9,10.3,10.8c4.2,5.2,5,11.5,4.3,18c-0.6,5.1-3.7,8.8-7.8,11.8c-1.4,1-2.9,2-4.3,3c0.1,0.4,0.2,0.7,0.3,1.1
		c3-0.3,6.1-0.5,9.1-1c14.6-2.6,25.8-12.8,28.1-26.3c1.7-10.2-1.5-19.5-6.9-28c-2.9-4.6-6.6-8.7-10.2-13.4c2.3-2.6,4.7-5.4,7.3-8.2
		c18-19.9,27.4-43.3,29.7-70c1.8-20.5-0.6-40.3-9.3-59c-9.6-20.6-23.5-37.5-43.7-48.6c-14.6-8-30.1-11.4-46.7-9.8
		c-1.7,0.2-3.3,0.2-5,0.2c-0.6,0-1.3-0.2-2.3-0.4c0.3-2.5,0.5-4.9,0.8-7.7c-2.6,0.3-3.2,2.3-3.8,3.7c-2.4,5.6-7,7.6-13,8.4
		c-1.1-5.8,0.7-11.2,2.3-16.5c0.3-0.9,2.4-1.5,3.8-1.8c11.7-2.7,23.4-2.7,35.3-1.3c22.6,2.7,41.3,13.4,57.6,28.7
		c18.3,17.2,29.5,38.4,35.1,62.7c0.5,2.1,1.1,4.1,1.9,7c3-10.7,5.3-20.4,8.5-29.9c3.2-9.7,8-18.7,13.7-27.2
		c5.6-8.3,11.7-16.2,19.2-23c7.5-6.8,15.4-13.2,23.3-19.9c-1.2-1-2.8-0.1-4.3,0.3c-17.5,4.1-33.3,11.6-47,23.4
		c-4.9,4.2-9.5,8.8-14.2,13.3c-1.2,1.1-2.3,2.3-4.1,4c-1.4-3.1-2.6-5.6-3.7-8.2c-8.1-17.7-20.1-32.1-36.1-43.2
		c-9.3-6.4-19.7-10.5-30.1-14.5c-1.2-0.5-2.4-1-4.1-1.6c0.9-1.7,1.6-3.1,2.4-4.5c6.5-12.6,1.2-28.1-11.5-33.2
		c-1.7-0.7-3.6-0.9-6.6-1.5c1.2,1.8,1.6,2.5,2,3.1c6.3,8.8,3.8,19.8-6.1,24.3c-9.8,4.4-20.2,5.3-31.2,3.1c-0.7-10.3-1.4-20.5-2-30.7
		c6.9,0.4,9.7,6.6,8,18.4c1-0.4,2-0.5,2.6-1c7.7-5.7,10.1-16.4,6.1-25.2c-2.9-6.2-6.9-11.3-13.6-15.8c2,0.2,3,0.3,4,0.3
		c1.2,0.1,2.3,0.2,3.5,0.4c13,2.1,26,4.3,39,6.2c18.6,2.7,37.3,5.1,55.9,7.7c5.3,0.7,10.6,1.4,15.9,1.9c2,0.2,2.9,1.1,3.4,2.9
		c1,3.5,2.4,6.9,3.3,10.5c1.4,5.8,1,11.3-3.3,15.9c-3.6,3.9-7.9,4.7-12.2,2.3c-4.6-2.6-7.2-7.4-5.4-12.2c1.3-3.4,4-6.3,6.1-9.6
		c-0.5-0.1-1.5-0.5-2.5-0.5c-9.7,0-17.8,6-20.6,15.2c-1.8,6.1-2.1,12.1,0.4,18.1c2.8,6.8,7.3,12,14.6,14c16.6,4.6,30.6-1.7,36.2-17
		c2.6-7.2,3.5-14.5,2.6-22.1c-0.1-1.1-0.2-2.2,0.4-3.7c0.7,0.8,1.5,1.4,2,2.3c3.3,6.7,5.2,13.7,4.6,21.2c-0.3,3.5,1,5.4,3.9,7.3
		c9.2,5.9,19.4,8.8,30.1,9.8c11.9,1.2,23.6,0.4,35.1-3.4c8.5-2.8,16-7.5,22.4-13.7c1-1,2.2-1.9,4.1-3.4c0.3,2.5,0.7,4.2,0.8,5.9
		c0.5,15.1,1,30.3,1.5,45.4c0.2,4.6,0.2,9.3,0.5,14C1721.8,618.2,1720.8,620.2,1718.4,622z"/>
	<path fill="none" d="M1288.4,949.2c-2.3,5.2-4.4,9.5-6.1,14c-8.9,23.3-9.7,47-3,71c0.5,1.9,1.5,3.6,0.5,5.8
		c-0.3,0.7,0.2,1.9,0.6,2.8c2.6,5.6,5.2,11.2,7.8,16.7c3.9,8.3,6.7,16.9,8.8,26.6c-3.4-1.9-6.1-3.4-8.9-4.9
		c-16.1-8.5-33.2-11.5-51.2-10c-7.6,0.6-15.3,1.2-22.9,1.8c-0.9,0.1-1.8,0.2-3,1.3c3.7,2,7.3,3.9,11.8,6.3c-8.5,1.2-16,2.1-23.5,3.4
		c-9.4,1.5-18.6,3.8-27.2,7.8c-1.7,0.8-3.3,1.6-4.9,2.5c-16.6,9.7-23.2,25-18.7,43.7c0.9,3.7,2.2,7.3,3.5,11.7
		c-8.7-5.9-14.3-13.9-21.4-20.5c-2.6,4.4-4.8,15.8-4.8,24.6c-1.8-0.6-3.4-1-5-1.7c-14.7-5.7-26.5-15.2-35.6-28c-5-7-10-14.1-15-21.2
		c-0.9-1.3-2-2.5-4-3.5c1.3,11.4,2.7,22.7,4.1,34.7c-14.9-2.9-29.2-5.7-44.2-8.7c0,2.3-0.1,4.1,0,5.8c0.5,7.6,1.6,15.2,1.6,22.9
		c-0.1,11.7-2.5,23.1-7,34.7c-1.4-6.8-2.3-13-3.9-19c-9.4-36.4-30-64.9-60.9-86.1c-4.2-2.9-6.9-6.1-8.7-10.9
		c-10.3-27.2-26.9-50-49.6-68.3c-1.3-1-2.6-2.1-3.9-3.1c-0.1-0.1-0.2-0.3-0.5-0.9c5-0.4,9.6,0.2,14.2,1c10.7,1.8,21.3,3.9,31.9,5.8
		c1.1,0.2,2.3,0,3.5,0c0.1-0.4,0.2-0.8,0.3-1.3c-2-1-3.9-2-5.9-2.8c-17.5-6.9-35.5-12.3-53.9-16.3c-35.8-7.8-70.1-19.5-102.9-36
		c-1.9-1-3.8-2-5.7-3.1c-14.1-7.9-20-19.9-18.2-35.8c1.9-16.5,4.3-33,6-49.6c1.4-13.4,3-26.8,3.2-40.3c0.3-17.5-3.9-34.3-10.3-50.6
		c-0.3-0.8-0.7-1.5-1.1-2.2c-0.1-0.2-0.6-0.3-0.9-0.5c-2,0.9-1.1,2.5-0.8,3.8c2.8,15.3,4.5,30.7,3.1,46.2c-1,11.1-3.1,22.1-5,33.1
		c-1.9,10.5-4.2,20.9-6.3,31.3c-0.2,0.8-0.4,1.5-0.9,2.9c-1.5-2-2.7-3.6-3.8-5.2c-16.6-24.3-27.3-50.9-33.3-79.6
		c-3.4-16.4-6.5-33-12-48.9c-2.4-7.1-5.5-13.9-9.9-20.1c-3.8-5.4-8.5-9.8-14.4-12.9c-6.4-3.3-12.8-6.4-19.2-9.6
		c-0.7-0.4-1.4-0.7-1.9-1.7c8,1.5,15.9,3.2,23.9,4.5c9.6,1.6,19,1.2,27.4-4.3c2.3-1.5,4.7-3.3,6.4-5.4c6.8-8.4,13.5-16.9,19.5-26.1
		c-1,0.4-2,0.7-2.9,1.2c-5.6,3.3-11.2,6.6-16.8,9.9c-1.6,0.9-3.1,1.9-4.8,2.7c-10.9,5.6-19.5,3.9-27.7-5.2
		c-7.3-8.2-12.1-17.9-16.1-28c-4.7-11.9-8.6-24.1-11.1-36.8c-0.4-2.1-1-4.2-1.5-6.3c-3.6-13.9-12.6-22.4-26.2-26.2
		c-3.6-1-6.8-2.4-9.9-4.4c-26.2-17.6-48.2-39.3-64.5-66.6c-0.9-1.4-1.6-2.9-2.9-5.2c1.9,0.7,3.1,1,4.2,1.5
		c11.3,5.5,23.1,9.4,35.6,11.1c10.7,1.4,21.2,0.4,31.9-0.7c6.4-0.7,13-1.1,19.4-0.2c11,1.5,18.8,8,24.1,17.6c3,5.5,6,11.2,8.9,16.7
		c0.5,1,1.2,2,2.2,3.7c0.4-1.4,0.7-2,0.7-2.7c-0.8-13.6-0.4-27.3-3.8-40.7c-4.5-17.9-11.8-34.3-24.4-48c-4.4-4.8-9.8-8.4-15.4-11.8
		c-19.3-11.9-32.6-28.3-36.7-51.1c-2.2-11.9-0.2-23.6,3.9-34.9c1.3-3.7,3-7.3,4.9-12c0.8,2,1.3,2.9,1.5,3.9
		c5.7,21.6,17.3,39.2,36,51.7c19.6,13.1,34.2,30.5,44.4,51.6c0.9,1.8,1.9,3.5,2.9,5.3c0.1,0.2,0.6,0.3,1.3,0.7
		c1.2-2.2,2.5-4.4,3.8-6.7c9.2-17.1,14.1-35.2,12.8-54.7c-1.4-21.1-10.4-38.6-24.9-53.7c-20.9-21.7-45.1-38.4-73.7-48.2
		c-0.5-0.2-0.9-0.4-1.8-0.8c1.3-0.8,2.3-1.6,3.4-2.1c22.2-11.4,45.8-17.3,70.8-16.1c29.1,1.4,52.7,13.9,70.6,37c1.2,1.6,2.5,3.1,4,5
		c3-2.2,5.8-4.3,8.8-6.5c-24.8-32.4-41.2-68.1-47.3-108.5c2.1,1.9,4.1,3.8,6.2,5.7c24.9,22.4,54.1,31.9,87.4,28.6
		c8.1-0.8,16.2-1.7,24.3-2.5c0.6-0.1,1.2-0.2,1.8-1.1c-3.6-1-7.2-2-10.9-3c-10.9-2.9-22-5.1-32.5-9.6c-13.4-5.8-24.8-14.2-34-25.5
		c-5.5-6.7-11-13.4-18.1-18.6c-11.4-8.3-24.2-13.1-37.8-16.3c-1.6-0.4-3.2-0.8-5-1.2c0.5-0.6,0.8-1.1,1.2-1.3
		c23.9-11.1,49-16.1,75.2-14.1c26.9,2,51.7,11,74.5,25.2c34,21.3,60.5,49.4,78.2,85.5c4.4,9,8.7,18,13,27c0.6,1.3,1.4,2.6,2.8,3.7
		c0-0.8,0.1-1.7,0-2.5c-2.7-15.2-4.8-30.6-8.3-45.7c-7-30.7-23.4-55.6-48.3-74.9c-8.9-6.9-18.1-13.7-26.6-21.1
		c-13.4-11.6-18.6-26.4-15.1-44c0.1-0.5,0.3-0.9,0.7-1.8c66.1,27.1,123.9,66.5,174.4,116.7c-14.2-46.6-38.8-85.5-81-111.7
		c0.2-0.3,0.3-0.6,0.5-0.9c9.4,2.4,18.9,4.5,28.2,7.3c34.2,10.3,66.2,25.2,95.5,45.8c23.9,16.8,44.4,37.2,63,59.6
		c14.6,17.5,29.1,35.2,43,53.3c9.4,12.3,17.7,25.4,26.5,38.2c1.1,1.6,2.3,3.1,3.4,4.7c0.3-0.2,0.6-0.3,1-0.5
		c-1.3-4.2-2.6-8.5-4-12.7c-3.4-10.8-6.2-21.8-10.3-32.3c-13.4-34.1-34.9-62.3-63.8-84.8c-1-0.8-2-1.6-3.6-2.9
		c23.3,2.2,44.1,9.2,63.2,21.1c19.1,11.8,34.5,27.6,47,47.1c6.7-7.2,10.1-15,11.4-25c3.5,3.2,6.4,5.5,9,8.2
		c16.3,16.7,30.2,35,41.3,55.6c13.2,24.6,22.1,50.6,26.5,78.1c2.2,13.5,4.1,27,6.2,40.5c0.1,0.6,0.3,1.2,0.8,2.8
		c0.6-1.7,1.1-2.5,1.2-3.3c2.4-18.7,4.9-37.3,6.9-56c0.7-6.9,0.2-14-0.2-20.9c-0.4-7.3-0.8-14.7-2-21.9c-1.6-10.2-3.9-20.2-6-30.3
		c-0.1-0.4-0.1-0.9,0.6-1.6c3.5,6.4,7.1,12.7,10.4,19.2c11.8,23.9,19.9,49,24.2,75.3c3.5,21.3,4.2,42.8,2.4,64.2
		c-1.3,16.2-4.4,32.3-6.8,48.4c-0.2,1.6-0.5,3.2-0.7,4.8c0.4,0.3,0.8,0.5,1.2,0.8c0.3-0.6,0.5-1.3,0.8-1.8
		c6.5-12.9,13.5-25.7,19.6-38.8c7.8-17,13.7-34.6,16.4-53.2c0.7-4.8,1.2-9.6,1.8-14.4c0.1-1,0.4-1.9,1-2.9
		c11.4,23.7,18.7,48.6,22.8,74.4c4.1,26.1,4.4,52.3,1.5,78.6c-2.9,26.1-10.6,51-17.7,76.2c11.2-8.5,20.1-18.9,29-29.5
		c8.9-10.7,15.5-22.7,21.2-35.3c1.7,49.1-17.6,90.7-45.8,130.6c-0.2-2.7-0.3-4.3-0.3-5.9c-0.2-17.2-0.3-34.3-0.6-51.5
		c0-2-0.5-4-0.8-6c-0.5,0-0.9,0-1.4,0c-0.4,1.7-0.9,3.3-1,5c-1.2,10.4-2.3,20.8-3.4,31.3c-1.9,18.7-3.6,37.5-5.5,56.2
		c-1.8,17.2-3.8,34.4-5.6,51.6c-3.2,29.6-10.1,58.4-20.7,86.2c-8.6,22.7-22.2,41.8-40.5,57.9c-23.8,20.9-47.1,42.2-70.5,63.5
		c-6.9,6.3-13.4,13-20,19.6c-0.9,0.9-1.6,2-2.4,3.1c2.4,2,3.7,0.2,5-0.8c6.7-4.9,13.4-9.9,20.1-14.9c11.4-8.5,22.7-16.9,34.1-25.3
		C1285.8,950.9,1286.7,950.3,1288.4,949.2z M1057.5,632.7c-54.3-2.1-108-7.6-160.9-19.9c-52.8-12.2-103.4-30.9-153-52.6
		c15.1,12.2,31.3,22.4,48.4,31.3c17,8.8,34.5,16.6,52.5,23.1c18,6.6,36.6,11.5,55.3,16.3c-31.4,13.6-53.8,36.7-71.6,65.2
		c-8-3.3-15.8-6.4-23.6-9.6c-0.2,0.3-0.4,0.7-0.6,1c1.3,0.9,2.5,1.8,3.8,2.7c23.2,15.3,48.4,26.7,75,34.6
		c27.1,8,54.9,13.4,82.6,19.3c4,0.9,7,0.2,10.3-1.9c15.1-9.4,28.7-20.5,40.8-33.5c1.7-1.8,2.6-3.7,2.7-6.2
		c0.6-23.5-6.5-43.9-24.3-60c-0.8-0.7-1.5-1.5-2.6-2.7C1014.7,639,1036.4,637.7,1057.5,632.7z M1011.3,789.7
		c2.6,0.2,4.3,0.4,5.9,0.4c4.7-0.2,7.9,1.5,10.8,5.4c13.5,17.6,30.8,30.2,52.1,37c18.5,6,36.9,6.7,55.2-0.9c2.3-0.9,3.8-0.2,5.5,0.9
		c2.8,1.8,5.7,3.6,9.1,5.7c0.8-5.5,1.3-10.1,2.1-14.7c0.2-1.4,0.8-3,1.7-3.9c13.3-14,19.5-31.1,21.4-50c0.3-2.6,1.1-4.8,2.9-6.7
		c2.8-3.1,5.5-6.2,8.2-9.3c-0.2-0.7-0.3-1.2-0.5-1.6c-16.2-27.4-38.2-48.9-65.6-65.1c-3-1.8-4.9-0.6-7.1,1
		c-38.6,26.9-71.7,59.5-99.3,97.6C1012.9,786.7,1012.4,787.9,1011.3,789.7z M1247.2,579.8c-2.5-24.3-1.7-47.6,0.8-70.8
		c-18.7,23.2-25.6,49.5-20.7,79c-10.3,4-20.3,8-30.4,11.8c-10.2,3.9-20.6,7.7-30.8,11.6c-9.9,3.8-20,6.9-29.5,11.7
		c89.3-5.4,189.9-55.6,235.8-99.7C1331.2,542.3,1290.3,562.1,1247.2,579.8z M1263.9,732c0.4-0.2,0.8-0.2,1-0.4
		c0.8-1.1,1.5-2.2,2.3-3.3c7.7-12.1,12.9-25.2,15.9-39.1c0.8-3.7,2.6-5.6,5.9-7.1c25-11,47.2-26,65.9-45.9c3.4-3.7,6.6-7.6,9.8-11.5
		c-0.3-0.3-0.6-0.7-0.9-1c-2.3,1.2-4.6,2.4-6.8,3.7c-31.6,18.5-64,35.6-97.7,49.9c-15.3,6.5-30.8,12.5-46.2,18.8
		c-2.1,0.9-4.7,1.2-6.5,3.8c2,0.1,3.5,0.3,5,0.3c18.4-0.2,36.3-3.6,54-8.9c0.2,0.8,0.5,1.3,0.5,1.8
		C1265.3,706,1264.6,718.9,1263.9,732z"/>
	<path fill="#FFFFFF" d="M1304.3,1401.1c55,67.2,109.1,133.3,163.4,199.7c-4.2,4.5-8.1,8.8-12.1,13c-18.8,19.9-37.5,39.7-56.3,59.5
		c-7,7.4-14,14.7-20.9,22.2c-1.6,1.8-3.3,2.5-5.6,2.5c-9.3-0.1-18.7,0-28,0h-105c2.7-2.9,4.7-5.1,7.3-7.9h-29.3
		c11.7-12.2,23.3-22.8,34.4-33.8c11.1-11,22.4-21.9,33.7-32.8c11.3-11,22.7-22,34.3-33.2c-1.1-1.4-1.9-2.6-2.8-3.7
		c-50.9-60.4-101.8-120.8-152.6-181.2c-2.1-2.5-4.3-3.6-7.6-3.6c-58.2,0.1-116.3,0.1-174.5,0c-2.9,0-4.9,0.8-7,2.9
		c-26.6,28.5-53.3,56.9-80,85.3c-25.4,27.1-50.8,54.2-76.2,81.3c-1.3,1.4-2.5,3-4.1,4.9c3.9,3,7.8,5.5,11.1,8.6
		c5.7,5.3,12.2,6.8,20,6.8c86.8-0.3,173.6-0.2,260.5-0.2h6.9c-0.8-2-1.3-3.2-1.9-4.3c-6.2-11.6-12.6-23.1-18.7-34.8
		c-1.4-2.7-3.1-3.7-6.2-3.7c-14.5,0.2-29,0-43.5,0.1c-3.5,0-6.2-0.6-7.9-3.8c-2-3.7-5-5.2-9.1-4.4c-7.4,1.3-12-1.9-16.5-7.9
		c-15.1-20.5-30.8-40.6-46.3-60.8c-0.7-0.9-1.4-1.9-2.2-3.1c1.9-1.3,4-0.8,5.8-0.8c55.8,0,111.7,0,167.5,0c4.5,0,9,0.1,13.5,0
		c2.4-0.1,4.3,0.4,5.5,2.6c2.5,4.5,6.5,6,11.3,5.2c6.4-1.1,10.5,1.7,14.6,6.7c30.2,37.2,60.8,74.2,91.2,111.3
		c1.1,1.4,2.2,2.8,3.5,4.4c-1.4,1.5-2.5,2.7-3.6,3.8c-27.7,27.5-55.3,54.9-83,82.4c-3.9,3.9-8,7.6-11.8,11.5
		c-1.5,1.5-3.1,2.4-5.3,2.2c-1.2-0.1-2.3,0-3.5,0c-138.6,0-277.3,0-416,0.1c-4.4,0-7.8-0.9-10.4-4.4c-2.3-3.1-5.3-4.4-9.1-3.8
		c-6.4,1.1-10.7-1.7-15.1-6.2c-22.8-23.1-45.9-46-69-68.9c-6.8-6.8-13.8-13.5-20.7-20.3c-1.1-1.2-2.2-2.4-3.4-3.7
		c1.1-1.2,1.9-2.2,2.9-3.2c9.7-9.8,19.4-19.7,29.1-29.5c18.3-18.4,36.7-36.8,55-55.3c20.9-21,41.8-42.1,62.6-63.2
		c11.7-11.8,23.4-23.8,35-35.7c0.9-0.9,1.6-1.9,3-3.5c-2.3-0.1-3.9-0.3-5.5-0.3c-18.5,0-37-0.1-55.5,0.1c-3.2,0-5.9-0.5-8.2-2.7
		c-0.6-0.6-1.4-0.9-2-1.5c-3.3-3.3-7.2-4.5-11.8-4c-2.9,0.3-5.4-0.4-7.8-2.3c-41.6-31.4-83.3-62.7-125-94c-0.5-0.4-1-0.8-2.1-1.9
		c1.8-0.2,3-0.5,4.1-0.5c45.5,0,91-0.1,136.5,0c42.3,0.1,84.6,0.4,127,0.5c74.7,0.1,149.3,0,224,0c97,0,194,0.2,291,0.2
		c3.5,0,6.5,0.4,8.7,3.5c2.6,3.4,6,5.2,10.4,4.4c6.2-1.2,10.4,1.7,14.7,6.1c16.9,17.3,34.2,34.2,51.3,51.2
		c12.7,12.6,25.3,25.1,38,37.6c1.1,1.1,2.2,2.4,4,4.4H1304.3z"/>
	<path fill="none" d="M1605.4,1130.3c6.1-39.6,25.9-70.6,57.8-94c0.3,0.2,0.7,0.3,1,0.5c-0.4,1.6-0.8,3.1-1.2,4.7
		c-9.4,32.1-20,63.9-31.8,95.2c-5,13.2-10.3,26.4-15.3,39.6c-1.2,3.1-2.9,5.3-6,6.9c-6.7,3.5-10.6,7.2-13.3,12
		c3.9,0.9,7.3-2.2,11.4-1.3c-0.8,4.2-2.6,7.9-4.6,11.4c-0.7,1.2-2.8,1.6-4.3,2.3c-11.4,5.1-18.8,13.5-21.4,25.8
		c-1.3,6.2-0.7,12.3,1.8,18.1c1.2,2.7,1.3,5-0.3,7.5c-1.4,2.2-2.4,4.7-4,7.6c-1-1.8-1.7-3.1-2.3-4.4c-3.4-7.2-6.6-14.6-10.3-21.7
		c-1.7-3.3-1.2-5.3,1-7.9c13.2-15.1,21.8-32.7,25.4-52.4c4.8-26,3.8-51.5-8-75.7c-11-22.6-27-40.6-50.5-50.4
		c-24.9-10.4-49.5-8.4-73.5,3.4c-9.6,4.7-18.2,11.1-25.4,19.2c-0.9,1-1.8,1.9-2.8,2.9c-0.2,0.2-0.6,0.2-1.4,0.4
		c0.3-1.2,0.3-2.4,0.9-3.2c3.4-5.3,6.7-10.7,10.5-15.7c3-4,3.4-3.8,0.9-7.7c-10.9-17.7-25.7-30.8-45.1-38.7
		c-16.1-6.6-32.8-8.4-50-7.4c-1.3,0.1-2.6,0-4.3,0c0.4-0.9,0.5-1.5,0.9-2c13.3-15.2,17.9-33.5,18.6-53.1c0.4-9.9-1.5-19.6-4.4-29
		c-1-3.4-0.4-5.5,2.1-7.9c5.2-5.1,10.1-10.6,15.6-16.3c17.6,15.7,38.1,23.7,61.8,21.7c23.5-2,42.2-13.1,58.2-31.4
		c0,1.9,0.1,2.9,0,3.9c-1.1,12.6,0.7,24.6,7.8,35.4c12.9,19.6,37.3,18.6,50.2,9c6.5-4.8,10.3-11.2,11.4-19.2
		c1.9-14.2-7.8-26.6-22-28.3c-6-0.7-10.1-0.3-13.9,1.5c1.6,0.7,3.1,1.1,4.2,1.8c2.2,1.5,4.6,2.9,6.1,4.9c3.8,5.1,3.1,12.5-1,16.6
		c-4.6,4.5-12.1,5.1-17.5,1.2c-3.9-2.8-6.3-6.8-7.9-11.3c-3.3-9.5-3.6-19.3-2.2-29.1c0.9-6.4,2.5-12.7,3.8-19.1
		c0.3-1.4,0.6-2.8,0-4.6c-1,1-2.1,1.9-3.1,2.9c-10.2,10-21.2,18.8-35.2,22.9c-12.5,3.6-25.2,5.1-37.9,1.3
		c-12.4-3.8-22.8-10.8-31.3-21.1c4.1-6.4,8-12.6,12.2-19.2c1.3,1.1,2.4,1.8,3.3,2.7c10.7,11,23.9,13.1,38.3,10.6
		c8.3-1.5,15.8-5.2,22.6-10.1c11.1-8.1,19.8-18.2,26-30.5c5-10,9.7-20.1,12-31.1c2.5-11.6,3.5-23.4,2.1-35.3c-0.7-5.9-1-12-2.5-17.8
		c-3.8-15.1-10.5-28.8-22.5-39.3c-6.3-5.6-13.5-9.8-22-11c-1-0.1-1.9-0.5-3.4-1c0.9-4.9,1.8-9.7,2.7-14.5c5.1-1.2,9.5,0,13.8,1.1
		c15.7,4,27.9,13.2,37.8,25.7c12.3,15.4,18.8,33.3,21.8,52.5c2.3,14.3,2.7,28.6-1.3,42.6c-3.6,12.7-9.5,24.1-19,33.5
		c-0.6,0.6-1.2,1.2-1.7,1.8c-0.2,0.2-0.2,0.6-0.5,1.3c2.2,1.7,4.7,3.3,6.9,5.3c3.6,3.4,7.2,6.9,10.3,10.8c4.2,5.2,5,11.6,4.3,18
		c-0.6,5.1-3.7,8.8-7.8,11.8c-1.4,1-2.9,2-4.3,3c0.1,0.3,0.2,0.7,0.3,1c3-0.3,6.1-0.5,9.1-1c14.6-2.6,25.8-12.8,28.1-26.3
		c1.7-10.2-1.5-19.5-6.9-28c-2.9-4.6-6.6-8.7-10.2-13.4c2.3-2.6,4.7-5.4,7.3-8.2c18-19.9,27.5-43.3,29.7-70
		c1.8-20.5-0.6-40.3-9.3-59c-9.6-20.6-23.5-37.5-43.7-48.6c-14.5-8-30.1-11.4-46.7-9.8c-1.7,0.2-3.3,0.2-5,0.2
		c-0.6,0-1.3-0.2-2.3-0.4c0.3-2.5,0.5-4.9,0.8-7.7c-2.6,0.4-3.1,2.3-3.8,3.7c-2.4,5.6-7,7.6-13,8.4c-1.1-5.8,0.7-11.2,2.4-16.5
		c0.3-0.9,2.5-1.5,3.8-1.8c11.7-2.7,23.5-2.7,35.3-1.3c22.6,2.7,41.3,13.4,57.6,28.7c18.3,17.2,29.5,38.4,35.1,62.7
		c0.5,2.1,1.1,4.1,1.9,7c3-10.6,5.3-20.4,8.5-29.9c3.2-9.7,8-18.7,13.7-27.1c5.6-8.3,11.7-16.2,19.2-23c7.5-6.8,15.4-13.2,23.3-19.9
		c-1.2-1-2.8-0.1-4.2,0.3c-17.5,4.1-33.3,11.6-47,23.4c-4.9,4.2-9.5,8.9-14.2,13.3c-1.2,1.1-2.3,2.3-4.1,4c-1.4-3.1-2.6-5.6-3.7-8.2
		c-8.1-17.7-20.1-32.1-36.1-43.2c-9.3-6.4-19.7-10.5-30.1-14.5c-1.2-0.5-2.5-1-4.1-1.6c0.9-1.6,1.6-3,2.4-4.5
		c6.5-12.6,1.2-28.1-11.5-33.2c-1.7-0.7-3.6-0.9-6.6-1.5c1.2,1.8,1.6,2.5,2,3.1c6.3,8.8,3.8,19.8-6.2,24.2
		c-9.8,4.4-20.2,5.3-31.1,3.1c-0.7-10.3-1.4-20.5-2-30.7c6.9,0.4,9.7,6.6,8,18.4c1-0.4,2-0.5,2.6-1c7.7-5.7,10.1-16.4,6.1-25.2
		c-2.9-6.2-6.9-11.3-13.6-15.8c2,0.2,3,0.3,4,0.3c1.2,0.1,2.3,0.2,3.5,0.4c13,2.1,25.9,4.3,39,6.2c18.6,2.7,37.3,5.1,55.9,7.7
		c5.3,0.7,10.6,1.4,15.9,1.9c2,0.2,2.9,1.1,3.4,2.9c1,3.5,2.4,6.9,3.3,10.5c1.4,5.8,1,11.3-3.3,15.9c-3.6,3.9-7.9,4.7-12.2,2.3
		c-4.6-2.6-7.2-7.4-5.4-12.2c1.3-3.4,4-6.3,6.1-9.6c-0.5-0.1-1.5-0.5-2.5-0.5c-9.7,0-17.8,6-20.6,15.2c-1.8,6.1-2.1,12.1,0.4,18.1
		c2.8,6.8,7.3,12,14.6,14c16.6,4.6,30.6-1.7,36.2-17c2.6-7.2,3.5-14.5,2.6-22.1c-0.1-1.1-0.2-2.2,0.3-3.7c0.7,0.7,1.5,1.4,2,2.3
		c3.3,6.7,5.2,13.7,4.6,21.2c-0.3,3.5,1,5.4,3.9,7.3c9.2,5.9,19.4,8.8,30.1,9.8c11.9,1.2,23.6,0.4,35.1-3.4
		c8.5-2.8,16-7.5,22.4-13.7c1-1,2.2-1.9,4.1-3.4c0.3,2.5,0.7,4.2,0.8,5.9c0.5,15.1,1,30.3,1.5,45.4c0.1,4.7,0.2,9.3,0.5,14
		c0.2,3-0.9,5-3.3,6.8c-6.6,5-12,11-15.6,18.6c-4.8,10.2-6.2,20.7-3.2,31.6c2.5,8.8,7.9,15.1,16.5,18c4.3,1.5,4.1,2.4,4,5.7
		c-0.4,8.8-0.8,17.6-1.3,26.6c-1.2,0.2-2,0.6-2.7,0.4c-18.1-2.6-31.6-11.9-38.2-29c-10.4-26.6-5.9-51.1,13.4-72.3
		c6.1-6.7,13.7-11.6,21.9-15.6c1.1-0.6,2.2-1.2,3.4-2.1c-7.5-0.7-14.4-2.4-20.2-7.5c-5.8-5.2-7.9-11.7-6.2-19.7
		c-9.6,5.8-11.5,21.1-4.9,35.9c-0.4,0.4-0.7,1.1-1.2,1.4c-8,4.7-14.3,11.4-20.5,18.2c-11.1,12.1-18.2,26.5-22.5,42.4
		c-4.8,18-3.6,36-0.4,54c0.3,1.9,0.6,3.8,1,6.1c-18.5-1-34,3.7-46.4,19c1.8-0.2,2.7-0.1,3.5-0.3c10.3-3.4,20.6-3.2,31-0.4
		c12.6,3.4,23.8,9.4,33,18.8c10,10.2,22.1,16.5,36.2,18.7c2.8,0.4,5.6,0.4,8.5,0.6c1.6,0.1,3.2,0.3,5.2,0.5
		c-0.7,6.8-1.4,13-2.1,19.3c-0.2,2.2-1.8,2.6-3.6,2.4c-3.5-0.3-7-0.5-10.4-1.1c-8.5-1.5-16.9-0.3-25.3,0.8c-3,0.4-4.8,1.6-5.9,4.4
		c-2.4,6-5.9,11.2-10.7,15.5c-0.7,0.6-1.5,1.2-3,1.3c0.5-1.3,0.9-2.6,1.4-3.8c6.8-15.8,6.8-31.3-1.5-46.7
		c-6.2-11.6-16.3-18-28.8-20.2c-5.9-1-12.4-0.6-18.3,0.5c-19.5,3.5-36.3,27-22.5,51.1c2.2,3.8,5.2,6.6,9.8,8.9
		c-0.3-1.4-0.6-2.3-0.7-3.3c-0.8-3.9-2-7.8-2.2-11.7c-0.3-7,4.7-13.5,11.2-15.5c8.8-2.7,17.4,3.1,19,12.7c1.1,6.5,0.1,12.6-2.7,18.5
		c-3.6,7.8-8.3,14.7-14,21.2c-9.7,11-18.6,22.7-23.8,36.7c-6.1,16.2-6.9,32.5-0.5,48.8c0.4,0.9,0.8,1.8,1.6,3.3
		c0.6-1.1,1.2-1.7,1.3-2.3c5.5-28,22-48.4,44.6-64.6c15.3-11,32.5-17.5,51.1-20.3c8.7-1.3,17.5-2,26.3-3c0.8-0.1,1.6,0.2,3,0.5
		c-0.6,4.6-1.2,8.9-1.9,13.6c-1.8,0.2-3.2,0.5-4.7,0.5c-28.2,0.9-53.3,10.2-74.8,28.3c-14,11.8-23,27-27.3,44.9
		c-3.1,13-1.8,25.7,2.8,38.2c1.9,5.3,1.6,10.5-1.4,15.4c-2.8,4.7-8.4,6.6-12.9,4.6c-5.5-2.5-8.3-8.2-5.9-13.6
		c1.3-2.9,3.7-5.3,5.8-8.2c-0.5-0.2-1.3-0.7-2.1-0.7c-7.6-0.2-18.1,4.4-21,15.3c-2.8,10.2-1.2,19.1,6.4,26.7
		c8.5,8.5,24.1,9.3,34.7,2c5.8-4,9-9.8,11-16.2c2-6.6,2.8-13.4,1.6-20.3c-0.2-1,0-2.1,0-4.4c1.3,1.9,2.1,2.7,2.6,3.6
		c3.3,6.5,5.2,13.4,4.5,20.7c-0.4,3.9,1.2,6.1,4.4,8c10.1,6.1,21.1,9,32.7,9.6c3.3,0.2,6.5,0.3,10.5,0.5c-1.6,5.8-2.8,11-4.5,15.9
		c-0.4,1.2-2.3,2.3-3.7,2.8c-3.9,1.4-8,2.3-11.9,3.7c-18.5,6.9-34,18.1-47.1,32.7c-1,1.1-1.6,2.5-2.4,3.8c-0.5-0.2-1.1-0.4-1.6-0.6
		c-1-2-2.2-3.9-3.1-5.9c-8-18.6-20.3-33.5-36.9-45c-9.4-6.5-20-10.7-30.6-14.6c-1.1-0.4-2.1-0.9-3.6-1.5c6.3-10.1,7.6-20.1,0.5-30
		c-3.6-5-8.4-8.3-15.6-8.8c1,1.7,1.5,2.6,2.1,3.6c5.9,9.2,2,20.6-8.5,24.4c-10.8,3.9-21.9,3.9-33,1.8c-6-1.1-11.4-3.8-15.6-8.4
		c-4.1-4.5-5.1-11.3-2.5-16.3c2.7-5.1,10-8.7,15.7-7.8c7.1,1.1,11.7,5.1,12.6,11.6c0.4,2.7-0.3,5.5-0.5,8.8c0.9-0.3,1.9-0.4,2.5-0.9
		c7.4-5.6,10.1-16.3,6.3-24.8c-6.3-14-17.7-20.4-32.5-21c-14.5-0.6-26.9,4.9-36.5,15.6c-8.5,9.5-11,21-8.9,33.6
		c3,17.4,13.7,28.1,29.7,33.9c7,2.5,14.3,4.2,22.2,6.5c-6.3,5.2-13.9,8.9-17.7,16.3c0.2,0.3,0.4,0.6,0.7,1c1.8-0.8,3.5-1.5,5.3-2.3
		c14.6-6.8,29.9-10.1,46-9.9c26.6,0.5,49,10.8,68.5,28.6c17,15.5,27.7,34.7,34.6,56.4c0.9,3,1.4,6.2,2.2,9.2
		c0.3,1.4,0.8,2.8,1.2,4.2C1604.6,1130.2,1605,1130.3,1605.4,1130.3z M1366.2,992.5c14.6,0.7,27.6,4.6,39.4,12.5
		c0.3-0.8,0.6-1.2,0.5-1.4c-0.2-0.8-0.6-1.5-0.9-2.3c-2.7-5.9-7.2-10.4-12.1-14.5c-2.9-2.4-4.1-5-3.1-8.7c0.2-0.6,0.2-1.3,0.3-2
		c2-15.9,0.1-31.2-6.1-46c-2.5-6-5.7-11.7-10-16.6c-0.6-0.6-1.3-1.1-2.5-2.1C1380.8,939.4,1379.2,965.9,1366.2,992.5z"/>
	<path fill="#FFFFFF" d="M988.5,1231.6H602.7c1.8-2.4,3.1-4.1,4.5-5.7c28.1-34.2,58.3-66.3,91.7-95.3c23-19.9,47.3-37.9,74.2-52.2
		c19.2-10.2,39.2-18.2,60.8-21.7c38-6.2,70.8,4.1,98.5,30.7c17,16.3,29.1,35.8,38.2,57.4C982.2,1172.5,987.1,1201.4,988.5,1231.6z"
		/>
	<path fill="none" d="M437.1,788.8c-6,4.7-9.8,11-12.2,17.8c-2.3,6.7-3.5,13.7-5.3,21.1c-1.7-0.9-3.1-1.6-4.5-2.4
		c-6.8-3.9-13.7-7.7-21.5-9.1c-3.9-0.7-5.6-2.8-6.1-6.6c-0.7-5.9-1.8-11.8-2.8-18.1c5.2-0.6,9.8-1,14.4-1.6c13-2,25.2-6.1,36-13.9
		c4.7-3.5,7.7-7.7,8.6-13.9c2.7-18.3,11.2-33.7,25.4-45.7c0.6-0.5,1.2-0.9,2.3-0.9c-1.4,2.4-2.7,4.8-4.1,7.1
		c-8.4,13.9-13.3,29.1-15.7,45c-2.7,18.5-3.3,37.3-0.5,55.8c4.3,28.3,15.6,53.8,36.2,74.2c31.3,30.9,76.4,29.9,106.6,5.8
		c4.1-3.3,7.9-7.2,11.8-10.8c0.8-0.7,1.6-1.5,3.3-3.1c-0.2,3.2-0.3,5.2-0.5,7.3c-0.8,12.2,1.9,23.5,9.1,33.5c13,18.3,39,17,51.4,5.4
		c7.9-7.4,10.4-16.4,8.6-26.8c-0.8-4.9-3.5-9-7.3-12.3c-8.3-7.2-17.8-7.8-28.2-4.9c1.3,0.5,2.6,1,3.9,1.6c5.4,2.3,8.7,6.3,8.9,12.2
		c0.2,5.2-2,9.5-6.9,11.8c-5.3,2.5-10.4,2-15-1.8c-4.3-3.5-6.5-8.4-7.9-13.6c-2.8-10.2-2.5-20.5-0.7-30.7c0.9-4.9,2.2-9.7,3.3-14.6
		c0.3-1.3,0.5-2.5,1-5c-1.8,1.4-2.8,2-3.7,2.8c-4.2,3.8-8.2,7.9-12.7,11.3c-18,13.6-38,18.8-60.2,13.6c-10.2-2.4-19.1-7.9-26.5-15.3
		c-18.4-18.5-27.9-40.7-27.6-66.9c0.2-12.7,2.8-24.9,9.1-36c7.5-13.1,18.4-21.8,33.7-24c17.9-2.6,31.9,4.6,42.9,18.1
		c10.8,13.2,13,28.1,7.6,44.2c-1.7,5-4.4,9.4-8.2,13c-5.9,5.8-12.9,7.4-20.7,4.7c-6.1-2.1-9.8-7.4-9.9-13.7
		c-0.2-9.5,8.6-15.3,17.3-11.4c1.5,0.7,2.9,1.6,5,2.7c-0.4-1.7-0.5-2.8-0.9-3.8c-5.6-12.6-20.7-17.5-33.5-10.9
		c-6.3,3.3-10.7,8.3-13.5,14.8c-5.8,13.9-4.2,36.8,12.4,49.9c6.4,5.1,13.8,7.8,22.1,8.2c14.6,0.7,27-4.5,38.3-13.3
		c15.5-12,24.1-28.5,31-46.3c6.7-17.4,7.2-35.4,5.5-53.6c-0.1-0.8-0.1-1.7,0-2.5c0-0.3,0.3-0.6,0.6-1.1c0.7,0.2,1.5,0.2,2.2,0.5
		c5.5,2.7,11.1,5.3,16.5,8.2c5.6,3,8.5,7.8,8.6,14.2c0.3,20.1-5.6,38.1-18.2,53.7c-1.9,2.4-4.2,4.5-6.6,7c2.9,2.2,5.4,4,7.9,5.9
		c4.6,3.4,8.4,7.6,11.2,12.6c6.5,11.6,3.6,22.7-7.8,29.5c-0.5,0.3-1,0.7-1.7,1.2c6,1.7,15.4-0.7,23.6-5.5
		c7.6-4.5,11.6-11.5,14.7-20.5c1.7,4.2,3,7.4,4.4,10.6c1.9,4.4,3.8,8.9,6,13.2c1.4,2.8,1.4,5.2,0,8c-5.7,11.2-8.9,23-8.5,35.6
		c0.3,8.2,2.2,16.1,6.6,23.6c1.3-4.5,2.3-9.1,3.9-13.4c1.6-4.5,3.5-9,5.6-13.3c2.2-4.3,4.9-8.3,7.8-13.2c3.3,4.6,6,8.4,8.7,12.3
		c1.4,1.9-0.1,3.5-1,5c-3.9,6.7-6.4,13.8-8.2,21.4c-2.9,12.6-1.7,24.8,2.6,36.8c2.2,6.1,2.1,11.8-1.6,17.1
		c-4.6,6.6-14.1,5.9-17.8-1.2c-2.2-4.2-1.3-9.7,2.3-13.4c1.1-1.1,2.4-2.1,4.5-3.9c-2.3-0.2-3.7-0.4-5.1-0.3
		c-11.1,0.7-18.9,8.1-20.4,19.1c-1.4,10.2,1.1,19.1,9.8,25.1c11.7,8.1,31,6.1,39.5-8.2c5.3-8.9,5.9-18.6,5.2-28.5
		c-0.1-1.1-0.1-2.2,0.5-3.6c0.6,0.8,1.5,1.6,1.9,2.5c3.4,6.8,5.4,14,4.8,21.7c-0.3,3.6,1.2,5.4,4,7.2c10,6.2,21,9.5,32.7,9.7
		c8.1,0.1,16.4-0.2,24.4-1.5c10.7-1.8,20.2-6.5,28.7-14.2c9.4,4.1,18.2,9.3,27.2,15c-2.6,3.8-4.9,7-9.8,6.9
		c-13.6-0.5-26.9,1.5-40.3,4.8c-0.2-0.9-0.5-1.6-0.5-2.4c-0.1-0.8,0.1-1.6-0.8-2.9c-1,1.3-2.3,2.6-3.1,4c-1.2,2.2-3,3.5-5.3,4.2
		c-6.9,2.1-13.7,4.3-20.6,6.2c-18.2,5-34,14.2-47.8,27c-4,3.7-8.3,7.1-13.7,9.7c-0.7-1.5-1.5-2.7-2-4c-9-20.2-22.7-36.5-41.9-47.6
		c-7.9-4.6-16.6-7.7-25-11.4c-1.2-0.5-2.4-1-4-1.7c0.9-1.7,1.6-3.1,2.4-4.5c5.7-11,2.2-24.8-8.1-31.4c-2.7-1.7-5.5-3-9.4-2.8
		c0.5,1,0.7,1.8,1.1,2.3c7,9.2,3.6,21.1-7.3,25.2c-3.3,1.2-6.7,2.3-10.1,2.7c-10.7,1.2-21.3,1.4-31.3-3.5c-4.3-2.1-8-4.9-10-9.4
		c-2.3-4.9-2.1-9.8,1.2-14.2c3.5-4.6,8.4-6.7,14-6.1c9.9,0.9,14.7,8,12.6,18c-0.2,0.7-0.1,1.5-0.2,3.3c5.4-3.4,8.6-7.3,10-12.7
		c2.3-9-1.2-16.4-6.7-23c-6.2-7.4-14.7-11-24.1-11.8c-13.6-1.2-25.7,3-35.8,12.2c-9.6,8.7-14.1,19.7-12.8,32.7
		c1.8,19.6,12.8,32,30.9,38.4c5.6,2,11.5,3.1,17.3,4.7c1.4,0.4,2.8,0.8,4.9,1.3c-7.1,5.1-14.3,9-18.7,17.2c1.8-0.4,2.9-0.4,3.8-0.9
		c11.8-5.8,24.2-9.5,37.3-10.5c20.9-1.7,40.8,1.9,59,12.8c13.2,7.9,24.6,17.7,34,29.8c1.2,1.6,2.3,3.2,3.8,5.4
		c-3.8,2.8-7.3,5.4-11.4,8.5c-1.5-1.9-2.7-3.5-4-5.2c-12.1-15.5-27.1-27.2-46.3-32.5c-27.2-7.5-52.5-2.6-75.6,13.3
		c-5.6,3.8-10.2,9-15.3,13.5c-0.8,0.7-1.6,1.5-2.8,2c2.3-8.9,8.1-15.6,14.2-22.7c-22.8-38.7-57.7-52.7-101.4-49.6
		c0.5-1.2,0.7-2,1.2-2.5c11.2-13.1,16-28.5,17.7-45.3c2.2-22.2-3.4-42.3-15.5-60.7c-11.9-18.2-28.9-29.6-49.6-35.7
		c-3.5-1-7-2-10.6-2.9c-1.6-0.4-2.8-1.1-3.1-2.8c-0.7-3.8-1.4-7.5-2.2-11.9c11,0.2,20.9,3,30.6,6.9c9.7,3.8,18.7,9,27.2,15
		c-3.8-8.2-8-16.3-11.4-24.6c-3.4-8.5-5.2-17.5-5.7-26.8C434.4,806.9,434.8,797.9,437.1,788.8z M487.4,912
		c9.4,27.5,6.9,54.2-5.6,80.2c0.9,0.3,1.3,0.5,1.8,0.5c12.9,0.6,24.8,4.4,35.8,11.3c0.6,0.3,1.4,0.3,2.8,0.6c-1.2-2.3-2-4-2.9-5.5
		c-2.9-5.2-7-9.3-11.5-13c-2.2-1.7-3-3.6-2.7-6.4c2.3-16.9,1.3-33.5-5.6-49.4C496.6,923.5,493.1,917.1,487.4,912z"/>
	<path fill="none" d="M1525.6,1371.5c-5.4-5.8-10.5-11.3-15.6-16.8c-7.6-8.2-15.2-16.4-22.9-24.4c-2-2.1-3.2-4.5-3.9-7.3
		c-5.7-22.3-12.2-44.2-19.6-66c-4.2-12.4-7.3-25.2-11.5-37.7c-12.7-38.3-31.6-73.3-57.3-104.5c-22.7-27.5-50.2-49-83-63.3
		c-2.9-1.3-5.1-2.7-5.7-6.1c-0.3-1.9-1.3-3.8-2.2-5.5c-0.9-1.8-1.9-3.4-3.5-6.1c3.4,1.4,6,2.4,8.5,3.5c38.4,17,72.8,40.2,103.6,68.8
		c14.9,13.8,29.5,28,42.8,43.4c20.9,24.2,37.8,51.1,52.5,79.4c15.9,30.7,28.7,62.6,39.8,95.3c1.5,4.6,1.2,8.1-1.3,12.1
		c-6.1,10.1-11.8,20.5-17.7,30.7C1527.7,1368.3,1526.7,1369.7,1525.6,1371.5z"/>
	<path fill="none" d="M389.6,604.3c-7.6-1.1-14.3-3.1-20-8c-6-5.1-8-11.6-6.2-19.9c-4.1,1.8-5.1,4.6-6.1,7.6
		c-1-14.3-2.1-28.5-3.1-42.8c-0.2-3-0.6-6-0.7-8.9c-0.1-1.4,0-2.8,1.8-3c2.1-0.2,2.5,1.3,2.5,2.9c0,10,0,20,0.1,30
		c0,2,0.2,3.9,0.3,5.8c7.6,0.3,18.4-5,28.5-13.6c8.3-7.2,13.7-16.2,16.5-26.9c10.7-0.8,21.1-1.7,32.3-2.5c-0.3,2.9-0.4,5.3-0.9,7.6
		c-3.6,17.7-13.1,31.8-26.6,43.5c-2.9,2.5-5.9,4.8-9.3,7.6c2.2,0.7,3.6-0.2,5-0.6c11.1-3.2,22.3-5.3,34-4.9
		c19.6,0.5,38,5.1,53.8,17.3c18.5,14.3,28.8,33.2,30.2,56.8c1.4,24.4-6.5,45.5-22.2,63.9c-0.3,0.3-0.8,0.5-1.9,1.3
		c0.4-1.6,0.6-2.6,0.9-3.5c8.3-21.1,10.2-42.5,0.7-63.7c-11.7-26.2-31.9-40.8-61-42c-16.3-0.7-31.5,3.1-44.9,12.6
		c-13.3,9.3-21.2,22-21.9,38.5c-0.5,10.4,2.1,19.9,10.5,26.9c7,5.8,15,6.5,23,3.2c8.3-3.4,12.4-10.5,13.9-20.3
		c-1.7,1.2-2.6,1.8-3.5,2.4c-5.6,4.4-12.5,4.9-17.6,1.5c-5.4-3.6-8-11.2-6-17.7c2.4-8,10.4-14.4,19.2-15.4
		c13.9-1.5,24.2,5.2,29,18.4c5.3,14.5,1.3,38.7-14.7,52.3c-8.9,7.6-18.9,12.8-30.8,12.5c-5.7-0.1-11.4-2-17.1-3.1
		c-3.3-0.7-4.4-3.1-4.8-6.1c-1.7-12.7-3.5-25.4-5.1-38.1c-2-15.3-3.8-30.7-5.8-46c-0.4-3.1,0.4-5.4,2.6-7.6
		c6.5-6.6,13.9-11.9,22.2-16C387.3,605.5,388.4,604.9,389.6,604.3z"/>
	<path fill="none" d="M497.5,1159.7c2.1-7.4,4.4-13.7,5.7-20.2c3.6-17.4,2.5-34.6-5.8-50.6c-10.6-20.4-26.7-33.8-49.9-37.5
		c-3.3-0.5-4.9-1.7-5.8-5c-1.8-7.3-4-14.4-6-21.6c-0.3-0.9-0.4-1.9-0.6-3.3c1.5-0.3,2.7-0.7,3.9-0.6c32.2,0.6,57.7,13.5,73.8,42.1
		c7.2,12.8,9.6,26.8,8.6,41.5c-0.7,10.6-2.7,20.8-7.1,30.4c-3.8,8.2-8.6,15.8-14.4,22.7C499.4,1158.2,498.7,1158.6,497.5,1159.7z"/>
	<path fill="none" d="M456.7,564c0.4-0.7,0.7-1.5,1.3-2.1c8.8-10.1,13.3-22.2,15.9-35.1c0.2-1.1,0.3-2.4,0.9-3.4
		c0.5-0.9,1.6-1.9,2.5-2c4.4-0.5,8.9-0.7,14-1.1c-0.7,10.6-4.6,19.8-9.6,29c1.2,0.5,2.1,1.1,2.9,1.2c12.8,0.7,24.5,4.5,35.3,11.4
		c0.4,0.3,0.9,0.3,2,0.6c-0.4-1.4-0.5-2.4-1-3.4c-3-6.1-7.5-11-12.7-15.2c-2.5-2-3.3-4.1-2.7-7.3c0.7-3.9,0.7-8,0.8-11.9
		c0.1-3.7-0.1-3.7-3.9-5c2.2-0.4,4.5-0.8,6.8-1.2c2.4-0.4,4,0.3,5.3,2.6c3.6,6.4,7.5,12.6,11.1,19c1,1.8,1.7,4,2.1,6.1
		c2.3,12.5,9.6,21.6,20.4,27.6c8.1,4.5,13.5,11.8,20.7,17.4c-2.7,3.3-5.2,6.3-7.7,9.3c0.2,0.3,0.4,0.6,0.7,0.9c1-0.2,2.1-0.4,3-0.8
		c1.7-0.7,3.4-1.4,5-2.3c3.3-1.8,6-1.7,9,0.9c3.7,3.1,7.9,5.4,12.5,8.4c-6.1,2.5-12.1,4.5-17.5,7.3c-5.7,3-11.3,6.4-16.5,10.3
		c-5,3.8-9.2,8.5-14.3,13.3c0.6-5.4,3.5-9.1,6-12.8c2.5-3.7,5.5-7,8.6-10.9c-9.8-18-23.9-31.6-42.6-40.4c-18.4-8.7-37.9-10.8-58-9.1
		C456.8,564.9,456.7,564.5,456.7,564z"/>
	<path fill="none" d="M1447,1110.1c9.9-5.2,19.3-7.5,29.3-6.9c15.6,0.9,28.8,7.5,40.2,18.1c16.2,15.2,24.8,34.3,29.4,55.6
		c2.2,10.5,3.2,21,2.5,31.7c-0.1,1.1-0.4,2.1-0.8,4.1c-1.3-1.9-2.2-3-3-4.1c-7.2-10.2-14.3-20.5-21.5-30.6c-2-2.8-3.5-5.5-4.3-8.9
		c-3.7-14.3-10.1-27.2-20.9-37.5c-9.2-8.8-20-13.6-33-12.8c-3.2,0.2-5.8-0.3-8.4-2.3C1453.8,1114.4,1450.8,1112.6,1447,1110.1z"/>
	<path fill="none" d="M579,1193c-0.6,0.8-1.2,1.8-1.9,2.7c-5.6,7.2-11.3,14.4-16.9,21.6c-1.3,1.7-2.6,2.5-5,2.3
		c-9-0.9-16.7,2.3-22.9,8.9c-2.1,2.3-4.2,3.4-7.3,3.2c-3.7-0.2-7.3-0.1-11-0.1c-1.9,0-3.1-0.8-3.9-2.5c-2.1-4.7-4.3-9.4-6.3-14.1
		c-0.5-1.1-0.6-2.7-0.2-3.8c7.6-20.9,26.9-35.2,50-32.2c8.8,1.1,16.4,5.4,23.2,10.9c0.6,0.5,1.2,1.2,1.7,1.8
		C578.8,1192.1,578.8,1192.4,579,1193z"/>
	<path fill="none" d="M1395.3,761.9c0-1.9-0.1-3.3,0-4.7c1-21.4,2-42.9,2.8-64.3c0.1-2.8,1.4-4.6,3.2-6.5c8.7-9,17.4-17.9,25.9-27
		c3.6-3.8,6.6-8.2,10-12.4C1441.3,669.3,1415.8,739.3,1395.3,761.9z"/>
	<path fill="none" d="M663.6,1447.3c-9,7.8-17.2,14.8-25.8,22.2c-23.7-35-45.4-70.6-66-107.8c4.4,4.1,8.4,7.5,12,11.2
		c7.9,8.1,15.7,16.3,23.5,24.4c14.8,15.3,29.7,30.5,44.4,45.9c2.5,2.6,4.9,4.3,8.6,3.8C661,1446.9,661.6,1447.1,663.6,1447.3z"/>
	<path fill="none" d="M1310.4,1021.5c1.3-0.3,2.2-0.7,3.1-0.7c19.3-0.7,37.9,1.6,54.8,11.8c19.2,11.6,31.5,28.3,36.3,50.3
		c0.1,0.6,0.3,1.3,0.3,2c0,0.3-0.2,0.6-0.6,1.5c-1.7-1.1-3.3-2-4.7-3.2c-18.9-15.9-39.3-29.7-61.2-41.1c-6.6-3.5-13.3-6.9-20-10.2
		C1312.4,1028.9,1312.3,1028.9,1310.4,1021.5z"/>
	<path fill="none" d="M1459.8,795.2c-1.9-8.4-7-12.7-13.1-16.5c3.5-11,6.9-22.1,10.5-33.3c3.4,0.8,5.7,3.1,7.7,5.3
		c6.9,7.8,12.4,16.5,13.6,27.2c1.3,12.5-1.3,23.8-9.5,33.6c-5.6,6.7-16,8.7-23.7,4.7c-5.5-2.9-10.6-10.9-6.9-18.1
		c3.3-6.5,10.1-9.1,16.7-5.8C1456.3,792.9,1457.5,793.8,1459.8,795.2z"/>
	<path fill="none" d="M642.3,493c-0.5-0.1-1,0-1.3-0.3c-9.1-7.2-19.8-10.7-30.8-13.3c-4.7-1.1-9.3-2.5-13.8-4.2
		c-11.3-4.3-19.8-12.1-26.4-22c-6.6-9.9-11.1-20.7-14.4-32.9c4.6,1.5,8.5,3,12.6,4c4.2,1.1,8.4,1.7,13.3,2.6
		c0.6,2.4,1.5,5.2,2.2,8.1c2.3,10.2,7.9,17.8,17.1,22.8c6.9,3.7,13.6,7.7,20.4,11.6c9.3,5.4,15.9,13.5,21.3,22.7
		C642.5,492.2,642.3,492.6,642.3,493z"/>
	<path fill="none" d="M1088.7,1762c0,5.3,0,10.5,0,16.2c-3.7,0-6.9,0-10.5,0c0-16.4,0-32.7,0-48.9c3.4-1.1,31.8-1.5,39.1-0.5
		c1.1,3.5,1.4,23.5,0.3,30.1c-3.4,0-7,0-11.9,0c1.9,2.1,2.9,3.3,4,4.5c1.9,1.9,3.6,3.9,5.7,5.6c3,2.5,3.4,5.4,2.2,9.5
		c-3,0-6.2,0.3-9.2-0.1c-1.6-0.2-3.2-1.6-4.4-2.8c-3.8-3.7-7.4-7.6-11.2-11.4c-0.9-0.9-1.9-1.7-2.9-2.5
		C1089.5,1761.7,1089.1,1761.9,1088.7,1762z M1106.9,1739.4c-6.3,0-12-0.5-17.7,0.3c0,2.9,0,5.3,0,7.7c6.1,0,11.8,0,17.7,0
		C1106.9,1744.8,1106.9,1742.5,1106.9,1739.4z"/>
	<path fill="none" d="M1070.2,1777.8c-4.4,1.1-35.6,1-39.7-0.1c0-16.2,0-32.4,0-49c13.3,0,26.4,0,39.4,0
		C1070.9,1732.4,1071.2,1772.5,1070.2,1777.8z M1041.6,1766.9c5.7,1.2,13.8,1,17.5-0.3c0-8.8,0-17.7,0-27c-6-0.2-11.7-0.4-17.5,0.1
		C1041.6,1749.1,1041.6,1757.9,1041.6,1766.9z"/>
	<path fill="none" d="M1696.9,900.7c-4.4,20.9-8.7,41.5-13.2,62.7c-7.4-0.4-13.6-2.2-18.1-7.7c-8.1-9.9-9.1-21.2-4.3-32.4
		c6.1-14.3,18.4-20.9,33.2-23.1C1695.1,900,1695.6,900.3,1696.9,900.7z"/>
	<path fill="none" d="M639,1129.2c-5.1,4.9-10,9.6-15.2,14.6c-1.1-1.4-2.1-2.4-3-3.5c-5.4-7.6-12.2-13.6-20.7-17.7
		c-10.1-4.9-20.6-5.1-31.2-2.2c-11.7,3.2-21.5,9.6-29.2,19.1c-0.8,1-1.8,1.7-3.4,2.2c0.4-1,0.6-2.1,1.1-3
		c4.6-9.4,10.8-17.7,18.9-24.2c13.2-10.6,28.3-13.5,44.7-10C615.5,1107.6,630.2,1117.2,639,1129.2z"/>
	<path fill="none" d="M1184.8,1739.7c0,2.8,0,5.2,0,8.3c9.7,0,19.1,0,28.7,0c0,10.4,0,20.1,0,29.8c-4.5,1.1-35.8,1.1-40,0
		c0-3,0-6.1,0-9.9c9.6-0.1,19-0.2,28.7-0.3c0-2.9,0-5.4,0-8.4c-9.6,0-19,0-28.7,0c0-10.4,0-20.1,0-29.8c3.9-1.1,35.2-1.2,40-0.1
		c0,3,0,6.1,0,9.8C1204.1,1740,1194.7,1738.8,1184.8,1739.7z"/>
	<path fill="none" d="M935.3,1778.5c0-4,0-7.1,0-10.8c9.7-0.1,19-0.2,28.6-0.3c0-2.9,0-5.2,0-8.3c-9.5-0.5-18.9,0.1-28.6-0.3
		c0-10.2,0-20.1,0-30.2c13.1,0,26,0,38.9,0c1.2,3.6,1.2,4.4,0.5,10.3c-9.2,1-18.7-0.1-28.4,0.7c0,2.7,0,5.1,0,8.2
		c9.4,0,18.8,0,28.5,0c0,10.4,0,20.2,0,30.6C961.7,1778.7,948.7,1778.5,935.3,1778.5z"/>
	<path fill="none" d="M873.4,1767.8c0,3.8,0,6.9,0,9.9c-4.2,1.2-35.6,1.2-40,0.1c0-16.2,0-32.4,0-49c13.3,0,26.4,0,39.8,0
		c0,3.3,0,6.5,0,10.5c-9.4,0-18.8,0-28.5,0c0,3.3,0,5.8,0,8.7c6.4,0,12.3,0,18.6,0c0,3.8,0,7.2,0,11.1c-6.1,0-12,0-18.3,0
		c0,2.9,0,5.3,0,8.4C854.4,1767.9,863.6,1767.3,873.4,1767.8z"/>
	<path fill="none" d="M982.9,1778.1c0-16.5,0-32.7,0-49.7c13.3-0.2,26.3-0.1,39.7-0.1c0,10.4,0,20.2,0,30.6c-9.6,0-19,0-29.1,0
		c0,6.6,0,12.6,0,19.1C989.7,1778.1,986.5,1778.1,982.9,1778.1z M1011.6,1747.6c0-2.9,0-5.2,0-8.1c-6.1-0.3-11.9-0.4-18.3,0.1
		c0.2,3,0.3,5.5,0.4,8C1000,1747.6,1005.6,1747.6,1011.6,1747.6z"/>
	<path fill="none" d="M407,906.8c1.2,0.6,2.2,1,3.1,1.5c15.4,10,23.8,24.4,25.6,42.5c1.4,13.1-0.6,25.9-5.6,38.2
		c-0.6,1.4-1.3,2.6-2.1,4.1C425.1,989,407.8,917.7,407,906.8z"/>
	<path fill="none" d="M1426.9,744.4c-10.2,35.1-25.5,67.4-46.5,97c1-4.2,1.8-8.5,3-12.6c4.7-16.5,8.4-33.2,10.1-50.3
		c0.2-1.8,1.1-3.9,2.4-5.2C1406,763.7,1416.3,754.3,1426.9,744.4z"/>
	<path fill="none" d="M630.2,679.3c-1.1,0.1-2.2,0.3-3.3,0.4c-4.5,0.5-8.9,0.8-13.3,1.6c-5.1,0.9-9.6,1-14.8-1.5
		c-9.4-4.7-19.7-4.6-29.7-1.7c-8.2,2.4-15.8,6.2-22.3,11.9c-1.9,1.6-3.7,3.3-6.6,2.7c5.5-13.5,22.3-29.3,41-31.3
		c19.3-2.1,35.5,3.8,49.5,16.5C630.5,678.4,630.3,678.8,630.2,679.3z"/>
	<path fill="none" d="M671.5,412.5c-0.8-0.4-1.5-0.6-1.9-1c-8.8-8-18.4-14.8-28.6-20.9c-14.7-8.8-19.4-22.4-19.3-39.4
		c2,1.2,3.5,2.1,4.9,3.1c11.1,7.7,21.3,16.5,30.4,26.5c7.7,8.4,12.8,18.2,14.4,29.6C671.6,410.9,671.5,411.5,671.5,412.5z"/>
	<path fill="none" d="M1166,1739.4c-5,0-9.5,0-14.3,0c-0.8,13.1,0,25.7-0.5,38.7c-3.5,0-6.6,0-10.6,0c0-12.7,0-25.4,0-38.6
		c-5.1,0-9.6,0-14.1,0c-1.2-3.9-1.1-7.2-0.2-10.8c13.1,0,26,0,39.4,0c0.1,1.7,0.2,3.3,0.3,4.8C1166,1735.1,1166,1736.7,1166,1739.4z
		"/>
	<path fill="none" d="M999.1,1844.1c5.8,0,11.6-0.1,17.3,0.1c1.1,0,2.3,0.5,3.1,1.1c6.3,5.3,13.2,9.4,20.6,13
		c0.2,0.1,0.4,0.5,0.9,1.2c-3.9,2.4-7.7,4.9-12.1,7.6c-10.3-6.8-20.2-14.4-30.2-21.9C998.8,1844.8,998.9,1844.5,999.1,1844.1z"/>
	<path fill="none" d="M1320.1,955.8c2.1,12.7-3.6,34.1-11.1,42.9C1307.2,990.5,1313.5,965.8,1320.1,955.8z"/>
	<path fill="none" d="M913.8,1749.2c0,3.2,0,5.8,0,9.1c-6.2,0.5-12.4,0.3-18.9,0.1c0-3.2,0-6.1,0-9.2
		C901.2,1749.2,907.2,1749.2,913.8,1749.2z"/>
	<path fill="none" d="M1466.1,1463c-1.9-4.6-3.4-8.4-5.4-13.1c4.7,0.4,8.7,0.8,13.5,1.2C1471.9,1455.4,1469.3,1458.9,1466.1,1463z"
		/>
	<path fill="none" d="M668.6,800.6c1.4-0.9,2.8-1.9,4.2-2.8c0.7-0.4,1.3-0.9,2.5-1.8c1.2,5.4,2.3,10.3,3.4,15
		c-0.3,0.3-0.3,0.5-0.5,0.5c-0.1,0-0.4,0-0.5-0.1C675,808.1,672.3,804.9,668.6,800.6z"/>
	<path fill="none" d="M1721.2,650.3c0,6.4,0,11.7,0,17.5C1716.8,664,1716.7,657.1,1721.2,650.3z"/>
	<path fill="none" d="M1033.7,1844.2c3.2,0,6.5,0,10.1,0c1.2,2.3,2.5,4.7,3.7,7.1c-0.2,0.3-0.5,0.5-0.7,0.8c-4.5-2.2-9-4.5-13.4-6.7
		C1033.4,1845,1033.5,1844.6,1033.7,1844.2z"/>
	<path fill="none" d="M1064.2,1845.1c-2.3,1.4-4.5,2.9-7.3,4.6c-1.2-1.7-2.2-3.2-3.9-5.6c2.7,0,4.5,0,6.2,0c1.6,0,3.2,0,4.7,0
		C1064,1844.4,1064.1,1844.7,1064.2,1845.1z"/>
	<path fill="none" d="M358.5,596.9c0-0.6,0-1.2,0-1.8c0.1,0,0.1,0,0.2,0c0,0.6,0,1.2,0,1.8C358.6,596.9,358.5,596.9,358.5,596.9z"/>
	<g id="XMLID_1_">
		<g>
			<path fill="#2AACE3" d="M1057.6,632.7c-21.2,5-42.8,6.3-65.2,7.3c1.2,1.2,1.8,2,2.6,2.7c17.9,16,24.9,36.4,24.3,60
				c-0.1,2.4-1,4.3-2.7,6.2c-12.1,13-25.7,24.1-40.8,33.5c-3.3,2-6.3,2.7-10.3,1.9c-27.6-6-55.4-11.3-82.6-19.3
				c-26.6-7.9-51.8-19.2-75-34.6c-1.3-0.9-2.5-1.8-3.8-2.7c0.2-0.3,0.4-0.7,0.5-1c7.8,3.2,15.5,6.3,23.6,9.6
				c17.8-28.5,40.2-51.7,71.6-65.3c-18.7-4.8-37.2-9.8-55.3-16.3c-18-6.6-35.5-14.3-52.5-23.1c-17.1-8.9-33.4-19.1-48.4-31.3
				c49.6,21.7,100.2,40.3,153,52.6C949.6,625.1,1003.3,630.7,1057.6,632.7z M912.8,646c0.4-3.4-1.2-5.3-4.5-4.9
				c-2.9,0.4-5.9,1.1-8.6,2.4c-16.7,7.7-31.1,18.5-42,33.4c-0.7,1-1.3,2.2-2.3,3.9c5.4,0.3,10,0.9,14.8,0.5
				c19.7-1.7,32.8-12.2,41.1-29.6C912.1,649.9,912.6,647.9,912.8,646z"/>
		</g>
		<g>
		</g>
	</g>
	<g id="XMLID_2_">
		<g>
			<path fill="#2AACE3" d="M1170.4,746.2c1.2,1.7,2.3,3.6,3.7,5.7c-11.7,10.4-21.4,22.1-29.3,35.5c-1-19.2-4.7-37.6-12.8-55
				c-4-8.6-9.1-16.7-15-24.1c-0.8-1-1.8-1.8-2.7-2.7c-0.4,0.2-0.8,0.4-1.2,0.6c15.3,31.9,23.7,65.4,23.7,101.6
				c-34.3-16.5-69.7-25.8-108-26.5c2.8-3.7,5-6.6,7.3-9.4c21.8-26.7,46.6-50.3,74.4-70.6c6.8-4.9,6.7-4.9,13.8-0.2
				C1142.5,713.2,1157.8,728.3,1170.4,746.2z"/>
			<path fill="#2AACE3" d="M1121.1,821.1c-12.9,3.2-25.5,2-38-1.2c-19.5-5-36.4-15-51.8-27.9
				C1063.3,795.3,1093.1,805.1,1121.1,821.1z"/>
		</g>
		<g>
		</g>
	</g>
	<g id="XMLID_3_">
		<g>
			<path fill="#2AACE3" d="M1247.2,579.8c43.2-17.7,84-37.5,125.3-56.5c-46,44.2-146.5,94.3-235.8,99.8c9.5-4.7,19.6-7.9,29.4-11.7
				c10.3-3.9,20.6-7.7,30.8-11.6c10.1-3.8,20.1-7.8,30.4-11.8c-4.9-29.5,2-55.8,20.7-79C1245.4,532.2,1244.7,555.5,1247.2,579.8z"/>
		</g>
		<g>
		</g>
	</g>
	<g id="XMLID_4_">
		<g>
			<path fill="#2AACE3" d="M1363.8,623.7c0.3,0.4,0.6,0.7,0.9,1c-3.3,3.8-6.4,7.8-9.8,11.5c-18.8,19.9-41,34.9-65.9,45.9
				c-3.3,1.5-5.1,3.3-5.9,7c-3,14-8.2,27.1-15.9,39.1c-0.7,1.1-1.5,2.2-2.3,3.3c-0.2,0.2-0.6,0.2-1,0.4c0.7-13.1,1.4-26.1,2.1-39
				c0-0.5-0.2-0.9-0.5-1.8c-17.6,5.3-35.5,8.8-54,8.9c-1.5,0-3-0.2-5-0.3c1.8-2.6,4.4-2.9,6.5-3.8c15.4-6.3,30.9-12.3,46.2-18.8
				c33.8-14.3,66.1-31.4,97.7-49.9C1359.2,626.1,1361.6,625,1363.8,623.7z"/>
		</g>
		<g>
		</g>
	</g>
	<path fill="none" d="M1366.2,992.5c13-26.6,14.6-53.1,5.4-81.1c1.2,1,2,1.5,2.5,2.1c4.3,5,7.4,10.6,10,16.6
		c6.2,14.8,8.1,30.1,6.1,46c-0.1,0.7-0.1,1.3-0.3,2c-1,3.6,0.2,6.2,3.1,8.7c4.8,4.1,9.4,8.5,12.1,14.5c0.3,0.8,0.7,1.5,0.9,2.3
		c0.1,0.2-0.2,0.6-0.5,1.4C1393.8,997.1,1380.8,993.2,1366.2,992.5z"/>
	<path fill="none" d="M487.4,912c5.7,5.1,9.2,11.5,12.1,18.2c6.9,15.9,7.9,32.5,5.6,49.4c-0.4,2.9,0.5,4.7,2.7,6.4
		c4.6,3.7,8.6,7.8,11.5,13c0.9,1.6,1.7,3.2,2.9,5.5c-1.5-0.3-2.3-0.2-2.8-0.6c-10.9-6.9-22.9-10.6-35.8-11.3c-0.5,0-0.9-0.3-1.8-0.5
		C494.4,966.2,496.8,939.5,487.4,912z"/>
	<path fill="#2AACE3" d="M1106.9,1739.4c0,3.1,0,5.4,0,8.1c-5.9,0-11.6,0-17.7,0c0-2.5,0-4.9,0-7.7
		C1094.9,1738.9,1100.6,1739.5,1106.9,1739.4z"/>
	<path fill="#2AACE3" d="M1041.6,1766.9c0-9,0-17.8,0-27.2c5.8-0.6,11.5-0.3,17.5-0.1c0,9.3,0,18.2,0,27
		C1055.4,1767.9,1047.3,1768.1,1041.6,1766.9z"/>
	<path fill="#2AACE3" d="M1011.6,1747.6c-6.1,0-11.6,0-17.9,0c-0.1-2.5-0.3-5-0.4-8c6.4-0.5,12.2-0.4,18.3-0.1
		C1011.6,1742.4,1011.6,1744.7,1011.6,1747.6z"/>
	<path fill="none" d="M855.4,680.8c1-1.7,1.5-2.9,2.3-3.9c10.9-15,25.3-25.7,42-33.4c2.7-1.2,5.7-2,8.6-2.4c3.3-0.4,5,1.5,4.6,4.9
		c-0.2,2-0.7,4-1.6,5.7c-8.2,17.4-21.4,27.9-41.1,29.6C865.4,681.7,860.8,681.1,855.4,680.8z"/>
	<path fill="none" d="M1113,706.3c15.3,31.9,23.7,65.4,23.7,101.6c-34.3-16.4-69.7-25.8-108-26.6c2.9-3.7,5-6.6,7.3-9.4
		c21.8-26.7,46.6-50.3,74.4-70.6c6.8-4.9,6.7-4.9,13.8-0.2c18.3,12.1,33.6,27.2,46.2,45.1c1.2,1.7,2.3,3.6,3.7,5.7
		c-11.7,10.4-21.4,22.1-29.3,35.5c-1-19.2-4.7-37.6-12.8-55c-4-8.6-9.1-16.7-15-24.1c-0.8-1-1.8-1.8-2.7-2.7
		C1113.8,705.9,1113.4,706.1,1113,706.3z"/>
	<path fill="none" d="M1121.1,821.1c-12.9,3.1-25.5,2.1-38-1.2c-19.5-5-36.4-15-51.8-27.9C1063.3,795.3,1093.1,805.1,1121.1,821.1z"
		/>
</g>
</svg>
