<?xml version="1.0" encoding="utf-8"?>
<!-- Generator: Adobe Illustrator 18.1.1, SVG Export Plug-In . SVG Version: 6.00 Build 0)  -->
<svg version="1.1" xmlns="http://www.w3.org/2000/svg" xmlns:xlink="http://www.w3.org/1999/xlink" x="0px" y="0px"
	 viewBox="0 0 2000 2000" enable-background="new 0 0 2000 2000" xml:space="preserve">
<g id="Layer_2" display="none">
	<rect x="1" y="1" display="inline" width="2000" height="2000"/>
</g>
<g id="Layer_1">
	<g>
		<path fill="#2AABE2" d="M295,513c-0.5-13-1-25.9-1.4-38.9c-0.1-3.8,0.1-3.9,3.8-3.6c2.5,0.2,4.8,0.7,6.7-1.8
			c0.5-0.6,2.2-0.4,3.3-0.3c18.1,0.8,36.3,1,54.4,0.9c18.2-0.1,36.3-0.3,54.5-0.5c23-0.2,45.8-3,68.4-7.1c1-0.2,1.9-0.5,3.2-0.9
			c-3.4-8.1-6.7-16-10.2-24.3c2.1,0.4,3.1,1.4,4.2,2.2c10.1,6.7,20.3,13.4,30.3,20.3c2.5,1.7,4.9,2.4,7.9,2
			c8.4-1.2,16.8-2.1,25.2-3.2c0.6-1.4-0.5-2.2-1.1-3.1c-9.2-13.6-15.8-28.4-21.3-43.9c-8.5-24-17.2-47.9-25.7-71.9
			c-0.5-1.5-1.6-2.9-1-5.4c21.8,18.9,43.4,37.5,65.6,56.7c2.3-20.3,8.3-38.7,18.7-56.4c-16-4.3-31.7-8.5-47.1-12.6
			c-0.4-0.8-0.2-1.3,0.2-1.5c16.5-11.2,32.6-23.1,49.7-33.5c9-5.5,18.5-9.8,28.5-13.1c2.5-0.8,4.3-2.1,5.5-4.5
			c1.8-3.5,3.9-6.8,6.5-10.1c0,3.4,0,6.8,0,10.8c22.5-5.8,44.8-8.2,67.8-4.2c-1.3-4.2-2.5-7.8-3.5-11.4c-4.4-15.2-7.7-30.6-9.4-46.4
			c-0.6-5.7-0.7-5.7-6.6-6.2c-22.9-2-45.7-4.1-68.5-6.1c-0.4-1.8,1.1-2,2-2.5c21.8-13.1,43.2-27,65.4-39.5c2.5-1.4,2.9-3,2.6-5.6
			c-1.2-13.2-2.3-26.5-3.4-39.7c1.7-0.3,1.9,1.2,2.4,2.1c6.2,9.7,12.3,19.4,18.4,29.1c2.4,3.8,2.4,3.8,6.6,2.4
			c16.3-5.7,33.1-9,50.3-9.9c19.1-1,37.9,1.2,56.3,6.3c1.8,0.5,3.5,1,5.1,1.4c0.8-0.6,0.7-1.2,0.6-1.9c-1.8-10.8-1.8-21.5,0.8-32.2
			c0.6-2.4-0.4-3.2-2.5-3.9c-26.9-8.7-53.8-17.4-80.7-26.1c-5.1-1.6-10.1-3.3-15.2-4.9c-0.9-0.3-2-0.4-2.6-1.8
			c4.7,0.3,9.3,0.5,13.8,0.8c29,2.1,58.1,4.1,87.1,6.2c2,0.1,4,0.4,6,0.6c0.8,0.1,2.1,0.3,2.4-0.1c2-3.3,4.3-1.3,6.4-0.4
			c2.7,1.1,5.4,1.6,8.2,1.8c23.4,1.7,46.8,3,70.1,5.2c42.8,4.2,83.5,16.1,122.2,35c23.4,11.4,45.4,25.2,65.5,41.9
			c1.9,1.6,3.8,2.2,6.3,2.3c25.2,0.4,49.5,5.2,72.6,15.7c1.4,0.6,2.8,2.2,4.5,0.6c-0.3,0.1-0.6,0.2-0.8,0.4c0,0,0,0.2,0,0.3
			c0.3-0.2,0.5-0.4,0.8-0.6c-1.5-0.6-1.9-2.2-2.6-3.4c-7.5-13.3-15-26.6-22.5-39.9c-0.4-0.7-0.6-1.5-0.9-2.3
			c0.3-0.3,0.5-0.5,0.8-0.8c16.8,13.1,33.7,26.1,50.5,39.3c16.7,13.2,33.9,25.9,50,39.8c0.5,0.4,0.9,0.9,1.9,0.6
			c0-1.7-1.1-3-1.8-4.4c-16-32.2-32-64.4-48-96.6c-0.6-1.2-1.1-2.4-1.7-3.6c0.5-0.5,0.9-1,1.4-1.4c28.8,32.6,57.5,65.1,86.2,97.7
			c11.1,12.6,22.6,24.9,33,38.1c11.9,15,22.2,31.2,31,48.3c0.7,1.4,1.1,3.1,3.2,4.4c-0.3-8.5-0.5-16.5-0.8-24.9
			c2.2,1.6,2.7,3.4,3.6,4.9c15.4,27.2,31,54.3,46.2,81.7c12.2,22.1,21.2,45.5,27.6,69.9c0.3,1.3,0.8,2.6,1,3.9
			c0.3,1.5,1.1,2.6,2.6,2.5c1.8,0,1.3-1.7,1.4-2.7c2.3-15.8,4.6-31.6,7-47.4c0.1-0.9-0.3-2,1.4-2.7c2.3,12.3,4.6,24.5,7.1,37.9
			c1.9-5.1,1.9-9.5,2.9-13.9c1.6,3.6,1.2,7.1,1.5,10.5c0.4,6.3,0.8,12.6,1,18.9c0.1,2.1,0.9,2.8,2.9,3.1c15.4,2.5,30.8,5.4,46.3,7.8
			c19.6,3.1,39.1,6,58.8,8.7c23.2,3.2,46.6,5.9,69.9,8.3c26.8,2.8,53.6,5.2,80.5,7c17.3,1.1,34.5,2.1,51.8,3.1
			c5.2,0.3,5.3,0.3,5.7,5.2c2,23,4.1,46,5.5,69.1c2.3,36.9,3,73.9,2.5,110.8c-0.3,23.8-1.2,47.6-2.7,71.3c-1.7,26.6-4,53.1-6.9,79.5
			c-4.5,40.6-10.6,80.9-18.4,120.9c-9.8,51-22.4,101.4-37.4,151.1c-21.4,70.6-48,139.3-79.9,205.8c-20.8,43.2-43.6,85.3-68.5,126.3
			c-2.8,4.6-2.8,4.6,1,8.6c12.4,13.2,24.9,26.4,37.3,39.6c1,1,2.1,2,2.8,4c-3.9-0.3-7.3-0.4-10.7-0.7c-18.4-1.6-36.8-3.1-55.2-4.8
			c-3.4-0.3-5.4,0.6-7.3,3.6c-15.4,23.5-31.7,46.5-48.6,69c-2.5,3.4-2.5,3.4,0,6.6c15.2,19.4,30.3,38.9,45.5,58.3c3.1,4,3,3.4,0.1,7
			c-35.7,44.8-71.4,89.6-107.2,134.4c-12.5,15.6-24.9,31.2-37.3,46.9c-1.8,2.3-3.9,4-6.4,5.4c-33.2,17.9-66.4,35.8-99.6,53.9
			c-2.7,1.5-5.4,2.2-8.5,2.2c-34.5-0.1-69,0-103.5-0.1c-3.2,0-5.7,0.8-8.2,2.6c-39.1,28.1-79.5,54.1-121.2,78.3
			c-3.9,2.3-7.3,5.2-10.9,7.9c-2,1.5-3.4,1.8-5.7,0.2c-39.2-27.4-77.6-55.8-114.7-86.1c-2.5-2-4.9-2.9-8.1-2.9
			c-33,0.1-66,0.1-99,0.1c-2.5,0-4.9-0.2-7.3-1.2c-34.6-14.6-69.2-29.3-103.9-43.8c-3.3-1.4-5.5-3.3-7.5-6.2
			c-22-32.3-44.1-64.6-66.2-96.9c-29.3-42.9-58.6-85.7-87.9-128.6c-0.6-0.8-1.1-1.7-1.6-2.6c0.5-1.5,1.9-2.2,3-3.2
			c20.1-17.3,40.1-34.5,60.2-51.8c3.7-3.1,3.7-3.2,0.8-7.4c-24.3-36-47.1-73-68.2-111c-21.7-39.1-41.4-79.2-59.9-120
			c-16.1-35.6-30.1-72.1-44.1-108.6c-11.7-30.6-23.1-61.3-33.4-92.4c-10.9-32.9-20.6-66.1-29.7-99.5c-0.1-0.3,0-0.7-0.1-1
			c1.2-1,0.6-1.6-0.5-2c-3.6-12.5-6.9-25.2-9.6-37.9c1.2-1.1,0.7-1.7-0.6-2c-0.4-2-0.9-4-1.3-6c1.2-1,0.7-1.6-0.5-2
			c-0.7-2.3-1.5-4.5-1.5-6.9c1.2-1.1,0.7-1.7-0.6-2c-0.1-0.7-0.2-1.3-0.3-2c1.2-1,0.7-1.6-0.5-2c-0.5-0.6-0.5-1.3-0.4-2
			c1.2-0.9,0.7-1.5-0.4-2c-0.6-0.9-0.8-1.9-0.7-2.9c1.2-1,0.8-1.7-0.5-2.1c-0.4-0.6-0.5-1.3-0.4-2c1.2-1.4,1-2.4-0.7-3
			c-0.1-0.7-0.2-1.3-0.3-2c1.2-1,0.7-1.6-0.5-2c-0.1-0.7-0.3-1.3-0.4-2c1.2-1.3,1-2.4-0.7-3c-0.1-0.7-0.2-1.3-0.4-2
			c1.2-1.4,1.1-2.4-0.7-3c-0.1-0.7-0.2-1.3-0.3-2c0.7-3.1,0.1-5.9-1.8-8c-0.1-0.7-0.2-1.3-0.3-2c1.1-0.9,0.9-2,0.7-3.2
			c-2.5-12.8-4.8-25.7-7.1-38.5c-2.4-13.7-4.7-27.4-6.6-41.1c-1.8-13.4-3.9-26.8-5.3-40.3c-1.3-12-2.7-24-3.9-36
			c-0.4-4-0.6-7.9-1.1-11.9c-0.8-6.1-1.7-12.1-1.8-18.3c0-1.8,0.1-3.7-0.2-5.5c-1.2-6.4-1.3-12.9-1.6-19.3
			c-0.4-8.5-1.8-16.9-1.2-25.4c0-0.5,0-1-0.1-1.5c-1.5-8.7-1.8-17.4-2.9-26.1c-0.7-5.5-0.3-11-1.1-16.4c-1.5-9.5-1.7-19.1-2.5-28.7
			c-0.6-6.9-1.8-13.8-1.3-20.8c0.1-1.3,0.2-2.8-1.6-3.2c-0.1-5.3-0.1-10.7-0.2-16C296,514.3,295.9,513.6,295,513z M1405.1,672.2
			c0.7-0.1,0.9-0.6,0.9-1.2l0,0c3.5-3.8,5.6-8.5,8.4-12.8c19.1-29.8,29.4-62.3,31.2-97.6c0.2-4.2,0-8.3,0-12.5
			c-0.3-0.1-0.7-0.1-1-0.2c-4.3,11.6-10.4,22.2-16.9,32.6c-6.8,8.8-14,17.4-22,25.1c-3.6,3.5-7.1,7.3-11.9,11
			c1.4-5.9,3.5-10.4,4.3-15.4c1.1-0.9,1.2-2.4,1.6-3.6c13.6-41.3,17.8-83.5,12.6-126.7c-3.5-29.2-11.4-57.1-23.4-83.8
			c-0.5-1.2-0.5-3-2.5-3.4c-1,17.3-4.3,33.9-9.2,50.2c-6.9,22.5-18.5,42.8-29.8,63.2c0.5-7.4,2.4-14.4,3-21.7
			c3.1-13.2,4.5-26.5,5.3-40c0.9-17.2,0-34.2-2.4-51.3c-5.1-35.6-17.1-68.7-35.7-99.4c-0.6-1-1-2.3-2.3-2.9c-0.4,1.1,0.1,2,0.3,3
			c4.7,17.6,7.7,35.4,8.5,53.6c0.4,9.5,0,19,0,28.5c-1.9,17-4.1,33.9-6.7,51.1c-1.7-1.1-1.2-2.4-1.4-3.4c-1.1-6.2-1.2-12.5-3-18.6
			c0.5-3.2-0.6-6.3-1-9.4c-2.7-22.6-8.4-44.4-17-65.5c-12.3-29.9-29.9-56.4-52.7-79.3c-3-3-5.7-6.4-10-8.8
			c-0.3,9.8-4.2,17.6-10.3,25.3c-8.6-12.8-18-24.3-29.5-34c-11.7-9.8-24.5-17.6-38.6-23.6c-12.5-5.4-35.9-10.8-43.1-9.9
			c0.2,1.1,1.3,1.5,2,2.1c32,24.3,54.9,55.4,68.3,93.3c1.2,3.4,1.8,7.1,3.7,10.2c0.5,4.3,2.4,8.3,3.5,12.4c1.2,4.4,3.3,8.6,3.8,13.4
			c-1.9-0.1-2.3-1.6-3-2.6c-4.4-6.4-8.7-13-13.2-19.4c-6.6-9.6-12.9-19.4-20.5-28.2c-0.2-0.8-0.6-1.6-1.5-1.9l0,0
			c-0.2-1.1-0.7-1.9-1.9-2.2l0,0c0.1-1.5-1.2-2.3-1.9-3.3c-9.4-12.1-19.2-23.8-29.1-35.5c-15.6-18.5-32.1-36-51.1-51.1
			c-36.7-29.1-78.2-48.3-123.4-59.8c-5.2-1.3-10.5-2.9-16.1-3.2c0.5,1.8,2,2.1,3,2.8c6.3,4.1,12.4,8.4,18.2,13.1
			c6.9,5.5,13,11.9,19.1,18.1c4.8,6,9.7,11.9,14.1,18.1c12.7,17.8,20.6,37.9,28,58.3c0.2,0.4,0,0.9,0,1.7c-2-0.5-3.1-2-4.3-3.2
			c-5.2-4.9-10.4-9.8-15.7-14.7c-44.4-41.1-94.8-73.1-150.5-96.6c-1.3-0.5-2.5-1.6-4.1-1.1c-3.8,13.2-0.3,29.7,9.2,40.2
			c4.6,5.1,9.8,9.5,15.2,13.6c9.7,7.5,19.8,14.7,28.7,23.2c19.8,18.9,31.6,42.2,37.5,68.6c2.9,13,4.5,26.2,6.8,39.3
			c0.3,1.6,0.8,3.3-0.2,4.8l0.1,0c-5-10.3-10-20.7-15.1-30.9c-19.5-39.2-48.8-69-86.8-90.5c-22.2-12.5-46.2-19.8-71.7-20.7
			c-23.6-0.9-46.3,3.8-67.9,13.6c-1.1,0.5-2.4,0.8-3.1,2c0.9,1.1,2.2,1,3.3,1.2c9,1.9,17.7,4.7,26,8.6c12.9,5.9,22.9,15.2,31.5,26.3
			c7,9.1,15.8,16.1,25.8,21.8c9.8,5.5,20.5,8.6,31.3,11.3c6.7,1.7,13.4,3.5,20.2,5.2c0,0.2-0.1,0.5-0.1,0.7
			c-4.7,0.5-9.4,1.1-14.1,1.6c-4.5,0.3-8.9,0.4-13.4,0.9c-9.7,1-19.2,0.6-28.8-1c-23.9-4-44.2-15-61.2-32.1
			c-0.7-0.7-1.1-2.1-2.8-1.7c0.1,2.8,0.7,5.6,1.4,8.3c7.6,37.3,23.5,70.8,46.7,101c-2,1.5-3.6,2.7-5.2,3.9c-3.5,2.5-3.5,2.5-6.1-0.9
			c-0.4-0.5-0.8-1.1-1.2-1.6c-20.2-25.9-47.1-37.8-79.6-37.2c-13.4,0.3-26.4,3-39.2,6.9c-9.1,2.8-17.8,6.5-26,11.3
			c0.4,0.4,0.6,0.7,0.9,0.9c0.4,0.3,0.9,0.5,1.3,0.6c27.8,9.6,51.3,25.8,71.9,46.6c20.9,21.1,29.7,46.1,25.2,75.5
			c-2.3,14.7-7.9,28-15.6,40.9c-1.9-1.4-2.5-3.4-3.3-5.1c-10.5-21.8-25.5-39.6-45.7-53.1c-18.5-12.5-29.8-30.1-35.3-51.5
			c-0.3-1.1-0.2-2.4-1.3-3.1c-0.2,0.2-0.6,0.4-0.7,0.6c-8.5,17.8-12.7,36-6.1,55.5c6.1,18,17.8,31.6,33.8,41.2
			c8.6,5.2,16.1,11.2,21.9,19.3c12.8,18.1,19.8,38.3,21.2,60.5c0.5,7.6,0.7,15.1,1,23.2c-1.8-0.9-2.1-2.3-2.7-3.4
			c-3.6-6.6-6.7-13.4-10.8-19.7c-6.3-9.5-15.3-14.6-26.7-15.2c-4.7-0.3-9.3-0.1-13.9,0.6c-9.3,1.4-18.5,2.1-27.9,1.5
			c-14.3-1-27.7-5.4-40.6-11.5c-1.2-0.6-2.3-1.9-4-1.3c0.1,0.4,0.1,0.8,0.2,1c0.7,1.3,1.5,2.6,2.2,3.9
			c16.8,28.1,39.6,50.4,66.9,68.3c2,1.3,4.1,2.1,6.4,2.6c14.7,3.7,24.1,12.8,27.7,27.7c0.8,3.4,1.4,6.8,2.3,10.2
			c4.3,17.4,9.7,34.3,18.8,49.8c3.1,5.2,6.7,9.9,11.4,13.8c6,4.9,12.6,5.7,19.7,3.2c3-1.1,5.7-2.7,8.5-4.3c6.2-3.5,12-7.7,18.6-10.6
			c0.2,0.2,0.4,0.5,0.6,0.7c-6.2,8.7-12.4,17.4-19.5,25.5c-0.8,0.6-1.6,1.1-2.4,1.7c-6.5,4.8-13.6,7.5-21.8,7.4
			c-6.2-0.1-12.2-1.4-18.2-2.6c-5.5-1.1-11-2.2-16.7-2.1c1.2,0.9,2.4,1.6,3.7,2.2c5.2,2.5,10.5,5.1,15.7,7.6
			c9.3,4.4,16.3,11.3,21.3,20.4c4.2,7.7,7,15.8,9.3,24.2c3.7,13.2,6.3,26.6,9.1,39.9c6.2,29.7,17.7,57.1,35.3,81.9
			c0.7,1,1.2,2.2,2.8,2.8c0.9-4.3,2-8.3,2-12.5c0.6-2.2,1.3-4.4,1.7-6.6c1.7-8.7,3.1-17.4,4.9-26c4.1-19.8,4.8-39.6,1.5-59.6
			c-0.6-3.9-1.3-7.9-1.9-11.8c-0.1-0.6,0-1.4,0.8-1.6c0.9-0.3,1.2,0.4,1.5,0.9c0.2,0.4,0.4,0.9,0.5,1.4
			c6.4,16.2,10.3,33.1,10.5,50.6c0.2,18.9-3,37.5-5.2,56.1c-1.3,11.4-2.9,22.8-4.2,34.2c-1.2,11.1,1.1,21.2,9.5,29.3
			c4.1,4,9,6.8,14.1,9.4c28.5,14.3,58.3,25.3,89.3,32.9c18.4,4.5,37,8.3,54.9,14.8c5.8,2.1,11.5,4.3,17.2,6.6
			c0.7,0.3,1.7,0.6,1.3,1.7c-0.4,1-1.4,0.8-2.2,0.6c-3.8-0.7-7.5-1.6-11.3-2.3c-9.3-1.7-18.6-3.9-28.1-4.5c-2.9-1.1-5.9-1.1-9.1-0.8
			c1.3,1.7,2.8,2.9,4.3,4.1c23.2,18.5,40.1,41.6,50.5,69.3c1.7,4.6,4.3,7.7,8.4,10.5c32.4,22.2,53.6,52.2,62.1,90.7
			c1.1,5.1,1.9,10.4,2.9,15.6c1.1-0.5,1.3-1.4,1.5-2.2c6.1-16.5,7.9-33.6,5.9-51.1c-0.3-2.8-0.8-5.6-1.2-8.4c-0.2-1.5,0.4-2.2,1.9-2
			c2.3,0.3,4.6,0.6,6.9,0.8c11.7,2.2,23.5,4.3,35.4,7.4c-1.5-12.2-2.9-23.8-4.4-35.5c1.9,0.3,2.2,1.8,3,2.8
			c5.4,7.6,10.7,15.2,16.2,22.8c9.4,13,21.6,22.5,36.8,28c1.2,0.4,2.3,1.4,3.7,0.5c0.2-8.8,2.1-19.1,4.6-24
			c7.2,6.7,13,14.7,21.8,20.8c-1.4-4.6-2.7-8.5-3.6-12.5c-3.2-14.1-0.8-26.8,10.1-37.1c4-3.8,8.7-6.7,13.8-8.9
			c11.2-5,23.1-7.2,35.2-9c4.9-0.7,9.9-0.7,15.6-2.3c-4.6-2.3-8.2-4.2-12.4-6.3c2.4-0.9,4.1-1,5.9-1.1c7-0.5,13.9-0.9,20.9-1.6
			c16.5-1.6,32.1,1.2,47.1,8.2c4.1,2,8,4.4,12.7,7c-2.3-9.8-4.8-18.7-9-27.1c-2.4-5.5-4.8-10.9-7.1-16.4c-0.4-1-1.6-2-0.7-3.2
			c1.2-1.5,0.3-2.8-0.2-4.2c-3.1-10.1-4.7-20.4-4.9-30.9c-0.2-18.6,3.6-36.3,12.4-52.8c0.5-1,2-2,0.8-3.4c-1.1,0.1-1.8,0.8-2.6,1.4
			c-7.7,5.7-15.5,11.5-23.2,17.3c-10.5,7.8-21,15.7-31.6,23.5c-1.5,1.1-2.8,3.1-5.2,1.8c0.5-1.9,2.2-2.9,3.4-4.2
			c21.4-21.7,44.4-41.6,67.1-62c11-9.9,22-19.8,32.7-30c11.8-11.3,20.3-25.1,26.7-40c12.9-30,20.4-61.5,24.1-93.9
			c1.9-17,3.8-34,5.6-51.1c1.9-18.9,3.6-37.7,5.5-56.6c1.1-11.2,2.4-22.5,3.7-33.7c0.1-1-0.3-2.5,1.6-2.5c1,1.1,0.9,2.4,0.9,3.7
			c0.2,9.1,0.5,18.3,0.6,27.4c0.1,10,0.1,20,0.2,30c-0.2,1-0.5,2.1,0.4,3.1c1.3-1.2,2.3-2.4,2.5-4.2l0,0c1-0.3,1.2-1,1.2-2l-0.1,0.1
			c1.3-0.6,1.9-1.7,1.9-3.1l0,0.1C1405.1,673.8,1405.3,673,1405.1,672.2L1405.1,672.2z M1400.1,756L1400.1,756
			c1.3-0.6,1.9-1.6,1.9-3l0,0c0.9-0.3,1.3-1.1,1.7-1.7c5-7.9,9.5-16,13.5-24.4c9.5-20,15.9-40.9,19.4-62.7
			c1.1-6.6,2.1-13.3,2.3-20.2c-1.4,0.4-1.7,1.4-2.2,2.2c-4,6.4-8.7,12.2-13.9,17.6c-3.1,3.2-6,6.6-9.1,9.9
			c-4.7,4.9-9.5,9.7-14.2,14.6c-1.2,1.3-1.6,2.8-1.6,4.5c-0.1,19.4-1.4,38.8-2.2,58.1c-1.1,1.6-0.6,3.3-0.6,5c0,1-0.1,2-0.1,3.1
			c-0.3,0.6-0.4,1.3-0.2,2c0.1,0.9-0.4,1.8,0.7,2.6c1-1.4,2.3-2.6,2.5-4.5l0,0.1C1399.4,758.5,1399.9,757.4,1400.1,756z M678,809.9
			L678,809.9c0.4-4.5-1.2-8.7-2.1-13c0.2-0.8-0.1-1.4-0.7-1.9c-0.9-7.4-2.8-14.6-4.7-21.8c-1.6-6-3-12.2-6.4-17.6
			c-1.8-6.5-6.2-10.5-12.2-13.2c-4.9-2.2-9.7-4.9-14.8-6.8c-1.6-0.8-3.2-1.6-4.9-2.3c-15-6.2-30.6-10.8-46.3-15
			c-9.5-3.4-19.1-6.5-28.9-8.8c-7.5-3-15.2-5.3-23.1-7.3c-4.4-1.5-8.9-3.1-13.9-4.9c5.2-2,10.3-1.6,14.9-3.2c1.7-0.2,3.4,0,5-0.7
			c1.4,0.2,2.7-0.3,3.9-0.7c0.7,0,1.3,0.1,2,0c14.5-2.3,29.1-4.6,43.6-7.2c4.8-0.9,9.9-0.7,14.5-2.7c9-0.7,17.9-2.8,26.9-3.2
			c5.8,0,5.8,0,3.6-5.2c-6.7-15.3-11.3-31.2-15.5-47.3c-2.8-10.9-0.1-9.5-13.1-13.3c-5-2.3-10-4.6-15-7c-5.2-3.5-10.5-6.9-15.7-10.4
			c-2.3-1.9-4.7-3.9-7-5.8c-5-4.7-9.9-9.4-14.9-14.1c-0.2-0.6-0.5-0.9-1.1-0.9l0,0c-0.1-1.2-1-2-1.8-2.9
			c-4.6-5.2-8.7-10.8-12.8-16.4c-3.4-4.6-6.4-9.6-10.5-13.7c-4.7-8-9.4-15.9-14.1-23.9c-0.9-1.8-2.3-0.9-3.5-0.5
			c-0.9,0.1-1.8,0.2-2.7,0.3c-5.4-0.1-10.7,0.6-16,1.5c-3.6,0.3-7.3,0.6-10.9,0.9c-4.2-0.5-8.2,0.6-12.3,1
			c-8.2,0.7-16.5,0.7-24.7,2.1c-2.7-0.3-5.3,0.6-7.9,0.8c-10.7,0.8-21.3,1.6-32,2.5c-9,0.3-18.1,0.7-27.1,1
			c-6-0.1-12.1-0.4-18.1,0.3c-5.4-0.5-5.6-0.4-5.3,4.6c0.3,5.6,0.7,11.3,1.1,16.9c1.2,16.6,2.3,33.2,4.3,49.7
			c-0.2,5,0.8,9.9,1.4,14.8c0.4,3.4-0.3,7,1.5,10.2c0.1,2,0,4,0.2,6c2.6,23.3,5.5,46.6,8.8,69.8c0.9,6.1,1.2,12.2,3.1,18.2
			c-0.7,2.9,0.5,5.6,0.9,8.3c1.4,9.6,2.6,19.3,4.6,28.8c1.5,11.8,3.3,23.5,5.6,35.1c0.9,8,2.4,15.9,4,23.7
			c1.3,10.5,3.5,20.8,5.6,31.1c0.6,4.8,1.2,9.6,2.8,14.2c2.4,15.8,5.9,31.3,9.4,46.9c3.6,18.4,8,36.6,12.5,54.7
			c2.7,10.8,5.1,21.6,8.4,32.2c1.9,9.6,4.9,18.8,7.6,28.2c2.7,9.6,4.9,19.4,8.5,28.7c0.7,4.9,2.5,9.6,4,14.3
			c2.9,9.3,5.4,18.7,9,27.8c2.8,9.5,5.7,19,9.5,28.1c0.4,2.8,1.3,5.4,2.6,7.9c1.4,4.1,2.5,8.2,4.1,12.2c2.4,6,3.8,12.3,7.1,17.9
			c2.4,7.4,5.8,14.5,8.7,21.7c0.4,1.1,0.8,2.2,1.9,2.8c0.7,4.5,2.8,8.5,5,12.4c1.9,5.6,4.2,11.1,7.3,16.1c1.8,6.5,5.3,12.3,8,18.5
			c0.7,1.8,2.3,1.6,3.8,1.3c5.3,0.3,10.6,0.4,15.9-0.1c6,0.6,12,0.1,18,0.3c1.7,0,2.8-0.6,3.7-2c2.1-3.4,5-6.3,6.8-9.8
			c7-9,14.1-17.9,21.1-26.9c0.3-0.4,0.4-0.9,0.6-1.4c3-1.7,4.6-4.8,6.7-7.3c11.9-14.1,24.6-27.5,37.4-40.7
			c5.3-4.7,10.5-9.6,15.3-14.8c1.3-1,2.7-2,3.9-3.1c9.1-8.4,18.5-16.2,28-24.1c5.2-4.3,11-8,15.8-12.9c4.5-2.5,8.6-5.5,12.3-9
			c5.2-2.8,10-6.3,14.7-10c3.4-2.4,6.7-4.7,10.1-7.1c0.8-0.1,1.7,0.1,2.1-0.9c0.6-0.4,1.2-0.7,1.8-1.1c1.8-0.1,3-1.3,4.4-2.1
			c13.9-8.5,27.9-16.7,42.6-23.6c2.1-1,4.6-1.2,6.1-3.2l0,0c1.2,0.1,2.3-0.1,3.1-1c1.7-0.5,3.5-0.9,5.2-1.6
			c11.2-4.5,22.8-7.3,34.7-8.7c13.4-1.6,26.8-2.1,40.2-0.1c1,0.2,2.2,0.6,3.2-0.1c-0.1-1.2-1-1.5-1.6-2
			c-8.8-6.2-17.8-12.2-27.5-17.1c-3.4-1.7-6.6-3.9-10.4-4.7c-8.9-4.6-18.2-7.8-27.9-10.2c-1.6-1-3.4-1.3-5.1-1.8
			c-7.8-2.4-15.6-4.5-23.3-7.2c-10.8-3.8-20.7-9-28.4-17.7c-1.7-2-3.5-4-5.2-6c-4.6-8.2-8.2-16.7-9.5-26.1
			c-0.5-3.6-0.5-7.2-0.4-10.8c0-1.7-0.1-3.2-1.3-4.6c-1.6-1.8-3.1-3.8-4.6-5.7c-2.7-3.9-5.5-7.9-8.2-11.8c-2.5-4-4.9-8.1-7.4-12.1
			c-2.2-3.6-3.7-7.7-6.5-10.9c-0.2-0.8-0.3-1.7-0.7-2.4c-4.4-8.6-8.1-17.5-11.5-26.6c-1.4-4.8-3-9.5-4.4-14.3
			c-1.5-5.2-2.2-10.7-4.4-15.8C679.1,811.8,679.4,810.6,678,809.9z M1308.1,999.9c0,3.7-0.3,7.5-0.1,11.2c0.2,3.4,0.3,6.8,2,9.9
			c0.6,4.3,1.4,8.3,6.1,10.5c30.5,14.1,59.1,31.3,84.6,53.3c1.2,1,2.3,2.5,4.3,2.2c0.5,0.4,1,0.9,1.6,1.2
			c14.2,6.9,27.9,14.7,41.3,23c3.9,2.8,7.8,5.6,12,8c0.5,0.5,0.9,1,1.4,1.3c18.4,12.7,34.6,28,49.8,44.3c2.6,2.8,4.6,6.1,7.8,8.4
			c6.3,8.4,12.5,16.9,18.8,25.3c3.1,4.8,6.2,9.7,9.4,14.5c4.6,8.1,9.1,16.2,13.7,24.3c4.7,10.1,9.5,20.2,14.5,31c2-5,4.8-8.7,6-13.2
			c5.3-8.7,9-18.2,13.2-27.4c3.1-6.8,6.6-13.4,8.7-20.7c2.6-4,4.1-8.5,5.7-13c2.2-4.1,4.2-8.4,5.3-13c0.4-0.7,0.8-1.4,1.1-2.2
			c18.4-44.8,34.4-90.5,48.1-137c0.5-1.6,0.7-3.2,0.8-4.9l-0.1,0c0.5-0.2,0.9-0.4,0.9-1c0.4-1.4,1.2-2.7,1-4.2
			c2.4-5.8,4-11.8,5.1-17.9c0.3-0.9,0.7-1.8,1-2.8c4.3-16,8.4-32,11.9-48.2c3.5-13.5,6.5-27.2,9.1-40.9c1.4-7.3,3.3-14.6,3.9-22.1
			c1.2-3.6,1.7-7.3,2-11c1-2.3,1.2-4.8,1.6-7.2c1.1-7.6,3-15.1,3.5-22.8c0.7-4.7,2.6-9.2,2.2-14c0.2-0.6,0.6-1.2,0.6-1.8
			c1.3-10.1,2.6-20.2,3.9-30.2c0.9-7.3,2.2-14.5,2.2-21.9c1.7-9.3,2.5-18.6,2.9-28c1.6-13.3,2.5-26.6,3.2-39.9c0.9-7,1.1-14,1.2-21
			c0.7-1.3,0.8-2.6,0.4-4c0-1.7,0-3.4,0.1-5.2c0.3-8.3,0.6-16.6,0.9-24.9c0.3-5.7,0.6-11.4,0.3-17.1c0-10.4,0.4-20.7-0.2-31.1
			c0.6-1.8,0.4-3.6,0.4-5.5c-0.3-11.3-0.6-22.6-0.9-34c-0.2-10.2-0.7-20.3-1.5-30.4c-0.2-3.1-0.4-6.2-0.5-9.3
			c-0.2-3.3-0.3-6.6-0.6-9.8c-0.2-2.6-1.5-3.5-3.6-3.6c-3.9-0.2-7.9-0.3-11.8-0.4c-8.3-0.8-16.6-1.8-25-1.9
			c-9.8-1.7-19.8-1.9-29.6-3c-8.9-1-17.8-1.9-26.7-2.7c-8.2-0.8-16.5-1.5-24.7-2.2c-1.2-1.1-2.8-0.9-4.2-1.1
			c-23.4-2.6-46.8-6.2-70.1-9.4c-15.3-2.1-30.5-4.8-45.8-7.2c-1.8-0.4-3.5-0.8-5.3-1.1c-3.5-0.5-3.9-0.1-3.4,3.2
			c1.2,7.2,2.6,14.3,3.9,21.5c0.9,10.3,1.6,20.7,2,31c0,2-0.1,4-0.1,6c-0.2,0.6-0.5,1.3-0.5,1.9c0,10.5-1.8,20.8-3.2,31.2
			c-1.2,5.6-3.5,11.1-2.4,17c0,4.3,0,8.5,0,12.8c4.1-4.6,7.2-9.3,9.6-14.6c3.1-2.7,3.8-7.1,7.5-10.1c-0.4,3.3-1.5,6-1.1,8.8
			c-0.6,0.6-0.7,1.4-0.9,2.2c-2,10.7-4,21.4-5.9,32.1c-1.1,6.5-3,12.9-3.3,19.5c-1.7,5.3-2.7,10.6-3,16.1c-0.7,0.6-0.7,1.5-0.8,2.3
			c-1.5,8.2-3.1,16.3-4.6,24.5c-2,10.8-4.1,21.5-6.1,32.3c-0.9,3.2-1.7,6.4-2.6,9.7c-3.5,11.1-7,22.2-10.5,33.3
			c-2.3,4.9-4.5,9.9-6,15.1c-0.1,0.2-0.2,0.4-0.3,0.7c-0.6,0.2-0.8,0.7-0.7,1.3c-0.6,1.7-2.3,2.9-2.2,4.9c-1.6,3.1-3.2,6.1-4.7,9.2
			c-4.6,9.8-10.3,19.2-15.3,28.8c-4.4,6.5-8.8,13-12.5,20c-1.2,0.7-1.9,1.9-2.6,2.9c-5.9,8.6-12.3,17-18.8,25.2
			c-3.1,3.9-6.9,7.2-9.1,11.7c-6.9,6.2-12.7,13.4-19.2,20c-9.2,8.5-18.5,16.9-27,26.1c-3,2.6-5.4,5.6-6.9,9.2l0,0.3l0.3,0.1
			c-1,0.4-1.6,1.2-2,2.1C1312.1,970.2,1308.3,984.6,1308.1,999.9z M1379,845c1.7-0.4,2.1-2,2.9-3.1c17.7-26.2,31.6-54.2,41.6-84.2
			c1.7-5,3.5-9.9,4.1-15.3c-6.5,7.4-13.6,14.1-20.6,20.9c-3.4,3.1-6.7,6.3-10.3,9.3c-2.4,2-3.4,4.2-3.6,7.3
			c-0.6,7.8-1.8,15.5-3.5,23.1c-1.8,8.4-3.9,16.8-5.9,25.1C1381.9,833.6,1379.7,839.1,1379,845c-0.5-0.1-0.8,0.3-0.8,0.8
			c0,0.2,0.3,0.3,0.4,0.5C1378.7,845.8,1378.9,845.4,1379,845z M643.4,495.5c0.4,0.3,0.7,1.2,1.3,0.7c0.5-0.4,0.1-1.1-0.5-1.4
			c-4.9-10.5-12.1-19.1-22-25.2c-6.8-4.2-13.8-8.1-20.8-11.9c-9.3-5-14.9-12.5-17.3-22.7c-0.5-1.9-0.9-3.9-1.3-5.9
			c-0.4-2.3-1.5-3.3-4-3.4c-5.7-0.3-11.2-1.6-16.5-3.6c-2.4-0.9-4.8-1.9-7.2-2.8c-0.6,0.9-0.3,1.6-0.1,2.2
			c2.6,8.5,5.6,16.7,9.8,24.5c9.2,17.4,22.8,29.2,42.5,33.4C620.4,482.3,633,486.6,643.4,495.5z M571.9,1362.1
			c0.6-0.3,0.4-0.7,0.1-1.1c-0.1-0.1-0.6-0.1-0.6,0c-0.1,0.5,0.1,0.9,0.6,1c0.1,1.4,1,2.4,1.6,3.6c15.7,28.4,32.5,56.1,50.1,83.3
			c4.5,6.9,9.1,13.8,13.9,21.1c8.8-7.6,17.3-14.9,26-22.3c-1.7-1.1-3-0.8-4.3-0.7c-2.9,0.3-4.9-0.7-6.9-3
			c-3.3-3.9-7.1-7.5-10.7-11.2c-22.4-23.2-44.9-46.4-67.4-69.5C573.9,1362.7,573.4,1361,571.9,1362.1z M1430,1168L1430,1168
			c-0.1,1.2,0.7,2.1,1.2,3.2c8,16.1,14.9,32.7,20.7,49.7c4.1,12,7,24.3,11,36.3c7.4,22.3,14.1,44.7,19.9,67.4
			c0.6,2.4,1.7,4.2,3.4,5.9c5.9,6.1,11.5,12.5,17.4,18.5c6.1,6.3,11.8,13.1,18.3,19c1,1.5,1.9,3.1,3.9,3.8
			c7.4-12.3,14.4-24.8,21.5-37.2c1.8-3.1,1.8-5.6,0.8-8.9c-11.2-33.5-24.3-66.2-40.6-97.5c-13.5-26.1-29-50.9-47.8-73.6
			c-16.8-20.3-35.8-38.4-55.5-56c-30-26.7-63.5-47.7-100.4-63.6c-1-0.5-2.1-1.4-3.6-0.6c2.6,3.8,4.8,7.5,5.8,11.7
			c0.6,2.7,2.1,4.1,4.6,5.2c8.3,3.5,16.2,7.6,24,12.2c33.3,19.8,59.4,46.9,80.2,79.3c4.8,7.6,9.3,15.4,13.9,23.1
			C1428.9,1166.9,1429.1,1167.7,1430,1168z M1037,1232c2.5,0,5,0.1,7.5,0.1c114,0,228,0,341.9,0c1.2,0,2.3,0.1,3.5,0
			c2.5-0.3,4.5,0.6,6.2,2.5c3.5,4,7.2,7.9,10.8,11.7c14,14.8,27.9,29.5,41.9,44.2c1.1,1.1,1.9,2.7,3.8,3c0.8-1.4,0.4-2.7,0.1-3.9
			c-1.5-6.8-3-13.6-4.5-20.4c-7.9-35.5-20-69.3-37.7-101.1c-14.4-26-32.1-49.3-54.7-68.8c-12.1-10.3-25.1-19.1-39-26.7
			c-2-1.1-4-2.2-6.9-2.3c6.6,20.6,7.7,41.4,8,62.4c-4-4.2-7.6-8.5-11.1-12.8c-3.7-4.7-7.6-9.2-12-13.4c-3.5-3.3-7.4-5.4-12.4-5.5
			c-4-0.1-7.9-1.1-11.8-1.5c-7.8-0.6-15.4-2.4-23.3-2.4c-8.5,0-16.9-0.3-25.4,0.9c-10.5,1.4-21.1,2.4-31.4,5.2
			c-5.9,1.6-11.8,3.5-17,7c-8.3,5.6-11.5,13.4-9.3,22.9c3.7,16,11.8,29.3,26.4,37.8c13.6,8,27.5,15.7,41.1,23.7
			c6.4,3.8,13.3,6.8,19.2,11.5l0.1-0.1c-1.9,0.3-3.6-0.4-5.4-0.9c-8.9-2.7-17.9-5.2-26.7-8.1c-20.3-6.7-41.6-10.9-60.5-21.7
			c-2.1-1.2-4.4-1.7-6.9-0.6c1.6,2.3,4.6,2.2,6.3,5.3c-2.3-0.7-3.8-1.2-5.4-1.6c-5.9-1.7-11.6-4.3-17.7-5.2
			c-8.8-1.2-17.2-3.6-25.3-7.2c-3.8-1.7-7.2-4.1-11.2-5.3c-7.3-2.2-14.5-4.8-21.9-6.8c-8.8-2.4-17.7-4.5-26.6-6.6
			c-4.2-1-4.9-0.3-4.9,4.2c0,6.8-0.9,13.6-1.8,20.3c-1,7.3-3.5,14.2-5,21.3c-0.3,0.4-0.8,0.7-0.9,1.1c-4.4,11.9-10.3,22.9-17.9,33.1
			c-1,1.4-2.2,2.7-2.4,4.7C1023.7,1232,1030.4,1232,1037,1232z M810.7,1400.2c0.5,1.9-1.1,2.6-2.1,3.6
			c-11.9,12.1-23.8,24.3-35.7,36.4c-20.5,20.7-41,41.5-61.5,62.1c-18.4,18.6-36.9,37.1-55.3,55.6c-10,10-19.9,20.1-29.8,30.2
			c-2.8,2.8-2.8,2.9,0.1,5.8c12.5,12.4,25.1,24.9,37.6,37.3c18.8,18.7,37.6,37.4,56.3,56c0.5,0.5,1,0.9,1.4,1.4
			c0.9,1.1,2.1,1.5,3.5,1.5c3.7-0.2,7.3,0.3,11-0.3c2.3,0.6,3.6,2.4,5,4c2.7,3.4,6.1,4.3,10.4,4.3c138.4-0.1,276.9-0.1,415.3-0.1
			c1.3,0,2.7-0.1,4,0c2.3,0.2,4-0.6,5.7-2.3c6.8-6.9,13.7-13.6,20.6-20.4c20.1-19.9,40.3-39.8,60.4-59.7c5.1-5,10.1-10.2,15.2-15.2
			c1.6-1.6,2.1-2.8,0.4-4.6c-0.9-0.9-1.7-2.1-2.5-3.1c-14.9-18.1-29.8-36.3-44.7-54.4c-16.4-19.9-32.8-39.8-49.1-59.8
			c-1.8-2.2-3.6-3.1-6.3-2.9c-4,0.2-8,0-12,0c-1.2-1.6-2.6-3-3.7-4.7c-1.6-2.5-3.7-3.3-6.7-3.3c-60.9,0.1-121.9,0.1-182.8,0.1
			c-1.2,0-2.6-0.6-3.8,0.8c0.6,0.9,1.1,1.7,1.7,2.5c8.3,10.8,16.6,21.7,24.9,32.5c8.7,11.4,17.4,22.7,26.1,34.1
			c1.2,1.5,2.1,3.4,4.6,3.2c4.1-0.3,8.3,0.4,12.4-0.4c2.4,0.5,3.3,2.7,4.5,4.4c1.9,3,4.2,4,7.8,3.9c12.4-0.2,24.9-0.1,37.4-0.1
			c3.6,0,7.3-0.4,10.9,0.3c0.5,1.2,1,2.5,1.6,3.6c6,11.1,12,22.2,18,33.4c0.8,1.5,2,3,2.2,5.5c-2.3,0-4.3,0-6.2,0
			c-87.8,0-175.6,0-263.3,0c-2,0-4-0.4-5.9,0.4c-1.3-0.3-2.6-0.5-3.7-1.3c-6.2-4.7-12.5-9.4-19.1-14.3c1.7-1.9,3.2-3.7,4.8-5.4
			c8.7-9.2,17.4-18.4,26-27.6c23.1-24.7,46.1-49.3,69.2-74c19.9-21.2,39.9-42.4,59.7-63.7c2.5-2.6,4.8-3.9,8.5-3.9
			c57.8,0.1,115.6,0.1,173.3,0.1c1.7,0,3.3,0.1,5,0.2c0.8,1.1,1.5,2.2,2.4,3.2c49.5,58.7,99,117.4,148.4,176.1
			c2.4,2.9,5.2,5.6,7.2,9.2c-33.9,32.9-67.7,65.8-102.3,99.4c10.5,0,19.9,0,29.3,0c-0.8,3.6-5.1,4.4-6.4,8.1c13.2,0,26.1,0,38.9,0
			c31,0,62,0,93,0c2.7,0,4.6-0.6,6.5-2.7c5.3-6,10.9-11.7,16.4-17.5c23.3-24.7,46.6-49.4,70-74.1c2.6-2.7,2.6-2.7,0.3-5.6
			c-23.1-28.2-46.2-56.4-69.3-84.7c-29.4-36-58.9-71.9-88.3-107.9c-1-1.2-2.4-2.2-2.7-4.5c65.9,0,131.4,0,198,0
			c-1.8-1.9-2.9-3.1-4-4.2c-12.7-12.5-25.2-25.2-38-37.7c-16.8-16.4-33.4-33.1-50-49.7c-2.5-2.5-4.6-5.9-7.6-7.1
			c-3.2-1.3-7.2-0.4-10.9-0.5c-1.2,0-2.3-0.1-3.5-0.1c-1.5-1.5-3.2-2.9-4.6-4.5c-2.2-2.7-4.9-3.4-8.3-3.4c-92.8,0-185.6,0-278.5-0.2
			c-121.6-0.2-243.3,0.4-364.9-0.3c-45-0.3-90-0.1-135,0c-1.4,0-2.9-0.5-4.3,0.5c0.7,1.6,2.1,2.2,3.3,3
			c40.5,30.4,81,60.8,121.4,91.4c4.7,3.6,9.3,4.6,14.8,3.5c4.1,0.8,6.8,4.1,10,6.3c1.8,1.3,3.6,2.1,5.9,2.1
			C769.5,1400.3,790.1,1400.3,810.7,1400.2z M602.2,1231.8c129.6,0,258.1,0,386.7,0c-0.6-7-1.1-13.6-1.7-20.3
			c-2.3-23.7-7.9-46.5-17.2-68.4c-9.7-22.9-23.2-43.1-41.8-59.6c-23.9-21.1-51.8-30.8-83.7-28.1c-17.4,1.4-34,6.2-50.1,12.9
			c-28.7,12-54.3,29-78.5,48.2c-35.8,28.5-67.7,61.1-97.4,95.8C613.2,1218.5,608,1224.8,602.2,1231.8z M1089,1761.3
			c5.1,4.2,9,8,12.4,12.2c3.3,4.2,7,6.4,12.4,5.5c1.5-0.3,3.9,0.9,4.5-1c0.7-2.3,1.1-4.9-0.9-7c-0.9-0.9-1.9-1.9-2.8-2.8
			c-2.5-2.5-5-5.1-7.5-7.6c2.9-0.9,5.4-0.9,7.8-0.9c3.7-0.1,3.8-0.1,3.8-4c0-7.8,0-15.7,0-23.5c0-3.4-0.1-3.5-3.7-3.5
			c-11,0-22,0-33,0c-4,0-4.1,0.1-4.1,4.1c0,12.8-0.1,25.7,0,38.5c0.1,9.1-1.8,7.5,7.9,7.8c2.8,0.1,3.4-1.1,3.3-3.5
			C1088.9,1771.1,1089,1766.8,1089,1761.3z M1193.2,1778.9c5.8,0,11.7-0.1,17.5,0c2.3,0,3.4-0.6,3.2-3.1c-0.2-2.8,0-5.7,0-8.5
			c0-5.5-0.1-11,0-16.5c0-2.1-0.5-3.2-2.8-3c-1.2,0.1-2.3,0-3.5,0c-6.7,0-13.3-0.1-20,0c-2.1,0-3.2-0.6-3-2.8c0-0.3,0-0.7,0-1
			c-0.1-4.2-0.1-4.2,3.9-4.2c5.8,0,11.7,0,17.5,0c8.3,0,8.2,0,7.8-8.5c-0.1-2.2-0.8-2.9-2.9-2.9c-11.7,0.1-23.3,0.1-35,0
			c-2.4,0-3.2,0.8-3.1,3.2c0.1,8.2,0.1,16.3,0,24.5c-0.1,2.7,1,3.4,3.5,3.4c7.2-0.1,14.3-0.1,21.5,0c4.4,0,4.4,0.1,4.3,4.5
			c-0.1,3.5-0.1,3.6-3.7,3.7c-6,0.1-12-0.1-18,0c-8.7,0.2-7.4-1.8-7.6,8.2c-0.1,2.5,1,3.1,3.3,3.1
			C1181.9,1778.9,1187.6,1778.9,1193.2,1778.9z M955.2,1728.5c-5.5,0-11,0-16.5,0c-3.8,0-3.9,0.1-3.9,3.8c0,7.5,0,15,0,22.5
			c0,4.7,0,4.7,4.5,4.7c7.2,0,14.3,0,21.5,0c3.2,0,3.2,0.2,3.2,4.1c0,3.8-0.1,4-3.3,4c-6.2,0.1-12.3-0.1-18.5,0
			c-8.7,0.2-7.2-1.7-7.4,7.8c-0.1,2.5,0.5,3.6,3.3,3.5c11.3-0.1,22.6-0.1,34,0c2.5,0,3.6-0.6,3.6-3.3c-0.1-8.2-0.1-16.3,0-24.5
			c0-2.7-1-3.4-3.5-3.3c-7,0.2-14,0.1-21,0c-5.1,0-4.9,0-4.9-4.9c0-2.4,0.7-3.2,3.1-3.2c6.2,0.1,12.3,0.1,18.5,0
			c8.8-0.2,7.6,1.9,7.8-7.9c0.1-2.6-0.8-3.5-3.4-3.4C966.5,1728.6,960.8,1728.5,955.2,1728.5z M1030,1753.5c0,7.2,0,14.3,0,21.5
			c0,3.9,0.1,4,3.7,4c11.1,0,22.3,0,33.4,0c3.6,0,3.7-0.1,3.7-3.5c0-14.5,0-28.9,0.1-43.4c0-2.5-0.6-3.6-3.3-3.6
			c-11.5,0.1-22.9,0.1-34.4,0c-2.7,0-3.4,1-3.3,3.5C1030.1,1739.2,1030,1746.3,1030,1753.5z M833,1753.8c0,7.3,0.1,14.6,0,22
			c0,2.3,0.6,3.3,3.1,3.3c11.6-0.1,23.3-0.1,34.9,0c2.1,0,3-0.7,2.9-2.9c-0.2-10.3,1.2-8.2-7.9-8.4c-6-0.1-12-0.1-18,0
			c-2.4,0-3.4-0.8-3.2-3.2c0.1-0.7,0.1-1.3,0-2c-0.2-2.1,0.6-3.1,2.8-3c2.7,0.1,5.3,0.1,8,0c9.8-0.2,8,1.8,8.3-8.4
			c0.1-2.3-0.7-3.3-3.1-3.2c-4,0.2-8,0.1-12,0c-4.4,0-4.4-0.1-4.3-4.5c0.1-3.5,0.1-3.5,3.6-3.6c6,0,12,0.1,18,0
			c8.9-0.2,7.4,1.7,7.7-8.1c0.1-2.8-1.1-3.3-3.5-3.3c-11.3,0.1-22.6,0-33.9,0.1c-3.4,0-3.4,0.1-3.5,3.7
			C832.9,1739.5,833,1746.6,833,1753.8z M982.3,1753.6c0,5.8-0.1,11.7,0,17.5c0.2,9.1-1.9,7.7,8.4,7.9c2.6,0.1,3-1.2,3-3.4
			c-0.1-4.2-0.1-8.3,0-12.5c0-3.5,0.1-3.5,3.7-3.6c7.3-0.1,14.7,0,22,0c3.7,0,3.8-0.1,3.8-3.9c0-7.8,0-15.7,0-23.5
			c0-3.5-0.1-3.6-3.6-3.6c-11.2,0-22.3,0-33.5,0c-3.7,0-3.7,0.1-3.7,4C982.3,1739.6,982.3,1746.6,982.3,1753.6z M671.7,412.8
			c-1.2-12.5-6.4-22.8-14.5-31.8c-9.2-10.1-19.5-19-30.8-26.8c-1.3-0.9-2.5-2.1-4.3-2.2c-1.6,15.2,4.7,29.1,17.1,37.3
			c10.5,7,21.2,13.7,30.5,22.4C670.2,412.2,670.9,412.4,671.7,412.8z M1146.1,1728.5c-4.3,0-8.7-0.1-13,0c-9,0.2-7.6-1.6-7.7,8
			c0,0.3,0,0.7,0,1c-0.1,1.7,0.8,2.3,2.5,2.3c2.5,0,5,0,7.5,0c5.3,0,4.9-0.5,4.9,4.7c0,9-0.1,18,0,27c0.1,8.4-1.4,7.2,7.4,7.3
			c3.8,0,3.9-0.1,3.9-3.8c0-9.5,0-19,0-28.5c0-6.7,0-6.7,6.5-6.7c8.3,0,8.2,0,8-8.2c-0.1-2.4-0.7-3.2-3.1-3.2
			C1157.4,1728.6,1151.7,1728.5,1146.1,1728.5z M1041.8,1859.5c-1.6-1.7-3.4-2.2-5-3c-5.4-2.6-10.5-5.8-15-9.7c-2.5-2.1-5-3-8.1-2.8
			c-2.8,0.2-5.6,0-8.5,0c-2.4,0-4.7,0-7.1,0c9.5,8.1,19.1,15.1,28.7,22.2c1.5,1.1,2.7,0.8,4.1-0.1
			C1034.3,1864,1037.9,1861.9,1041.8,1859.5z M1002.4,1223.8c3.1-21.6,1.7-31.4-1.3-44.8c-4.5-20.4-12.4-37.9-18.4-40.8
			C993.3,1166.2,1001.7,1194.1,1002.4,1223.8z M904.2,1758.9C904.2,1758.9,904.2,1758.9,904.2,1758.9c1,0,2,0,3,0
			c7.6,0,7.6-0.1,7-7.8c-0.1-1.8-0.8-2.3-2.4-2.3c-3.5,0.1-7,0-10.5,0c-7.6,0-7.8,0.3-7,7.7c0.2,1.7,0.8,2.3,2.5,2.3
			C899.2,1758.9,901.7,1758.9,904.2,1758.9z M1434.2,1467.6c0.3-0.2,0.7-0.4,1-0.6c-2.3-6.5-5.1-12.7-8.2-18.9
			c-0.4-0.8-1.1-1.1-2-1.2c-2.2-0.1-4.3-0.3-7.3-0.5C1423.6,1454,1428.9,1460.8,1434.2,1467.6z M1474.9,1451
			c-5.3,0.3-9.4-1.3-14.1-0.6c1.4,4.5,3,8.8,5.5,13C1469.4,1459.4,1472.1,1455.7,1474.9,1451z M1033.2,1844.1
			c-0.1,0.3-0.2,0.7-0.2,1c4.5,2.7,9,5.6,14.2,6.9c-1-6.9-4.9-9.1-11.1-8C1035.1,1844.2,1034.1,1844.1,1033.2,1844.1z
			 M1053.5,1844.2c2.6,6.6,2.6,6.6,7.8,3.2c1.3-0.8,2.9-1.4,3.9-3.2C1061.1,1844.2,1057.5,1844.2,1053.5,1844.2z M982.8,1136
			c-0.1-0.1-0.1-0.3-0.2-0.3c-0.1,0-0.3,0.1-0.3,0.2c-0.1,0.4,0.1,0.6,0.4,0.5C982.7,1136.3,982.7,1136.1,982.8,1136z M1252.3,212.3
			l0.2,0.2l0.1-0.3L1252.3,212.3z"/>
		<path fill="none" d="M1288.3,1059.8c4.2,8.4,6.7,17.2,9,27.1c-4.7-2.6-8.6-5-12.7-7c-15-7.1-30.6-9.8-47.1-8.2
			c-7,0.7-13.9,1.1-20.9,1.6c-1.8,0.1-3.6,0.3-5.9,1.1c4.2,2.1,7.9,4,12.4,6.3c-5.6,1.5-10.7,1.6-15.6,2.3c-12,1.8-24,4-35.2,9
			c-5.1,2.3-9.7,5.1-13.8,8.9c-10.8,10.3-13.3,23-10.1,37.1c0.9,4,2.3,7.9,3.6,12.5c-8.7-6.1-14.5-14.2-21.8-20.8
			c-2.5,4.9-4.4,15.2-4.6,24c-1.4,0.9-2.5-0.1-3.7-0.5c-15.2-5.5-27.3-15-36.8-28c-5.5-7.6-10.8-15.2-16.2-22.8
			c-0.7-1-1.1-2.5-3-2.8c1.4,11.7,2.9,23.3,4.4,35.5c-11.9-3.1-23.7-5.2-35.4-7.4c-1.6-12.7-5.5-24.7-11.4-35.9
			c-7.5-14.2-18.3-25.7-30.5-35.9c-11.4-9.5-23.3-18.3-36-25.9c-9-5.4-18-10.8-27.5-15.2c-9.6-4.5-19.2-9.2-28.7-13.7
			c9.5,0.6,18.7,2.8,28.1,4.5c3.8,0.7,7.5,1.5,11.3,2.3c0.8,0.2,1.8,0.4,2.2-0.6c0.4-1.1-0.6-1.5-1.3-1.7
			c-5.7-2.2-11.5-4.5-17.2-6.6c-17.9-6.5-36.5-10.3-54.9-14.8c-31-7.5-60.8-18.5-89.3-32.9c-5.1-2.6-10-5.4-14.1-9.4
			c-8.4-8.1-10.7-18.2-9.5-29.3c1.2-11.4,2.8-22.8,4.2-34.2c2.2-18.7,5.4-37.3,5.2-56.1c-0.2-17.5-4.1-34.3-10.5-50.6
			c-0.2-0.5-0.3-1-0.5-1.4c-0.3-0.6-0.6-1.2-1.5-0.9c-0.8,0.3-0.9,1-0.8,1.6c0.6,3.9,1.2,7.9,1.9,11.8c3.2,20,2.5,39.8-1.5,59.6
			c-1.8,8.6-3.2,17.3-4.9,26c-0.4,2.2-1.1,4.4-1.7,6.6c-1.6-3.3-1.5-7-2.2-10.5c-5.4-27.3-11-54.6-17.5-81.7
			c-6.3-26.3-13-52.5-20.3-78.6c7.1-8,13.3-16.7,19.5-25.5c0.3-0.4,1.1-0.8,0.7-1.3c-0.4-0.5-1.1-0.2-1.3,0.6
			c-6.6,2.9-12.4,7.1-18.6,10.6c-2.8,1.6-5.5,3.2-8.5,4.3c-7.1,2.5-13.7,1.7-19.7-3.2c-4.7-3.9-8.3-8.6-11.4-13.8
			c-9.1-15.5-14.6-32.4-18.8-49.8c-0.8-3.4-1.4-6.8-2.3-10.2c-3.6-14.9-13-24-27.7-27.7c-2.3-0.6-4.4-1.3-6.4-2.6
			c-27.3-17.9-50.1-40.2-66.9-68.3c-0.8-1.3-1.5-2.6-2.2-3.9c-0.1-0.3-0.1-0.6-0.2-1c1.7-0.7,2.8,0.7,4,1.3
			c12.9,6.1,26.3,10.5,40.6,11.5c9.3,0.6,18.6-0.1,27.9-1.5c4.6-0.7,9.3-0.8,13.9-0.6c11.4,0.6,20.4,5.6,26.7,15.2
			c4.1,6.3,7.2,13.1,10.8,19.7c0.6,1.1,0.9,2.4,2.7,3.4c-0.4-8-0.6-15.6-1-23.2c-1.3-22.1-8.4-42.3-21.2-60.5
			c-5.7-8.1-13.3-14.2-21.9-19.3c-16-9.6-27.7-23.2-33.8-41.2c-6.6-19.5-2.5-37.7,6.1-55.5c0.1-0.3,0.5-0.4,0.7-0.6
			c1.2,0.7,1.1,2,1.3,3.1c5.6,21.4,16.8,39.1,35.3,51.5c20.2,13.6,35.2,31.4,45.7,53.1c0.8,1.7,1.4,3.7,3.3,5.1
			c7.7-12.9,13.3-26.2,15.6-40.9c4.5-29.5-4.3-54.5-25.2-75.5c-20.6-20.8-44-37-71.9-46.6c-0.5-0.2-0.9-0.4-1.3-0.6
			c-0.3-0.2-0.4-0.5-0.9-0.9c8.3-4.8,16.9-8.6,26-11.3c12.8-3.9,25.9-6.6,39.2-6.9c32.5-0.6,59.4,11.3,79.6,37.2
			c0.4,0.5,0.8,1.1,1.2,1.6c2.6,3.4,2.6,3.4,6.1,0.9c1.6-1.2,3.2-2.4,5.2-3.9c-23.2-30.2-39.1-63.7-46.7-101
			c1.3,0.3,1.8,1.4,2.3,2.4c4.2,8.3,10.1,15.1,17.2,21c9.8,8,21.1,12.6,33.6,13.5c7.9,0.6,15.9,0.7,23.8-0.9
			c9.8-1.9,19.3-4.7,27.7-10.5c4.7-0.5,9.4-1.1,14.1-1.6c0-0.2,0.1-0.5,0.1-0.7c-6.7-1.7-13.4-3.5-20.2-5.2
			c-10.8-2.7-21.5-5.8-31.3-11.3c-10-5.6-18.8-12.7-25.8-21.8c-8.6-11.1-18.6-20.4-31.5-26.3c-8.3-3.8-17-6.7-26-8.6
			c-1.1-0.2-2.3-0.2-3.3-1.2c0.7-1.2,2-1.5,3.1-2c21.6-9.8,44.3-14.5,67.9-13.6c25.5,0.9,49.5,8.2,71.7,20.7
			c38,21.4,67.3,51.2,86.8,90.5c5.1,10.3,10,20.6,15.1,30.9c0,0,0.1-0.1,0.1-0.1l-0.2,0.1c1-1.6,0.5-3.3,0.2-4.8
			c-2.4-13.1-3.9-26.3-6.8-39.3c-5.9-26.5-17.7-49.7-37.5-68.6c-8.9-8.5-19-15.7-28.7-23.2c-5.4-4.2-10.6-8.5-15.2-13.6
			c-9.6-10.5-13-27-9.2-40.2c1.6-0.5,2.8,0.6,4.1,1.1c55.7,23.5,106.1,55.5,150.5,96.6c5.3,4.9,10.4,9.8,15.7,14.7
			c1.3,1.2,2.3,2.7,4.3,3.2c0-0.7,0.1-1.2,0-1.7c-7.4-20.4-15.3-40.5-28-58.3c-4.4-6.3-9.3-12.1-14.1-18.1c0.6-0.8,1.3-0.9,2.2-0.5
			c2.4,1.1,4.9,2.1,7.3,3.2c21,10.1,41.5,21.1,62.1,32.1c7.9,4.2,15.9,8.4,22.8,14.3c2.9,2.5,6,4.7,9,7.1
			c12.3,9.8,24.7,19.6,36.9,29.6c12.6,10.3,25,20.9,37,31.8c1.2,1.1,2.3,1.9,4,1.5l0,0c-0.3,1.5,0.5,2.1,1.9,2.2c0,0,0,0,0,0
			c-0.1,1.1,0.4,1.7,1.5,1.9c7.6,8.8,13.9,18.7,20.5,28.2c4.4,6.4,8.8,13,13.2,19.4c0.7,1,1.1,2.5,3,2.6c-0.5-4.7-2.6-8.9-3.8-13.4
			c-1.1-4.2-2.9-8.1-3.5-12.4c0.8-4-1.9-7.8-0.4-12c1.6-0.1,3,0.5,4.3,1c5.2,2.2,10.4,4.3,15.6,6.7c21.2,10,40.5,22.8,57.8,38.6
			c13.7,12.5,25.8,26.3,36.2,41.6c5.2,7.7,9.7,15.9,14.7,23.7c1.8,6.1,1.9,12.4,3,18.6c0.2,1-0.3,2.3,1.4,3.4
			c2.5-17.2,4.8-34.2,6.7-51.1c0.7,0.6,0.8,1.4,1,2.2c3.4,14.5,6.9,29,10.3,43.5c5,20.9,10,41.9,15,62.8c-0.6,7.3-2.5,14.3-3,21.7
			c11.3-20.4,22.9-40.7,29.8-63.2c1.9,1,2,3,2.5,4.7c3.5,13.1,6.9,26.3,9.8,39.6c3.5,16.2,5.9,32.6,7.4,49.1
			c1.3,13.8,2,27.8,2.2,41.7c0.2,10.8-1.6,21.5-0.9,32.3c-0.8,4.9-2.9,9.5-4.3,15.4c4.9-3.7,8.3-7.4,11.9-11
			c8-7.8,15.1-16.4,22-25.2c0.6,6,0,11.9-0.5,17.9c-0.6,6.6-1.5,13.2-2.7,19.7c-3.2,16.8-9,32.6-16.8,47.8c-0.8,1.6-2,3.1-1.6,5.1
			c0,0,0,0,0,0c-0.7,0.1-0.9,0.5-0.9,1.2c0,0,0.1-0.1,0.1-0.1c-1.1,0.2-1.3,1-1.2,2c0,0,0-0.1,0-0.1c-1.6,0.5-2.2,1.5-1.9,3.1
			c0,0,0.1-0.1,0.1-0.1c-1.1,0.2-1.3,1-1.2,2c0,0,0,0,0,0c-1,0.3-1.9,0.7-2.9,1c-0.1-10,0-20-0.2-30c-0.1-9.1-0.4-18.3-0.6-27.4
			c0-1.3,0.1-2.6-0.9-3.7c-1.9,0-1.5,1.6-1.6,2.5c-1.3,11.2-2.6,22.5-3.7,33.7c-1.9,18.9-3.6,37.7-5.5,56.6
			c-1.7,17-3.6,34.1-5.6,51.1c-3.6,32.4-11.1,63.9-24.1,93.9c-6.4,14.9-14.9,28.7-26.7,40c-10.7,10.2-21.7,20.1-32.7,30
			c-22.7,20.3-45.7,40.2-67.1,62c-1.3,1.3-2.9,2.3-3.4,4.2c-7.3,5.2-15,9.9-23,14c-17.2,8.8-35.3,15.3-54,20.1
			c-4.2,1.1-8.5,2.3-12.7,3.5c0.7,1.8,2,2.3,3,3.1c9.1,6.5,18.8,11.8,28.9,16.6c21,9.9,43.3,14.6,66.3,15.8c7.3,0.4,14.6,0,21.9-0.8
			c5.1-0.5,10.2-1,15.3-1.9C1277.2,1062.1,1282.7,1061,1288.3,1059.8z M1364.4,625.2c-1.8-1.4-3,0.4-4.4,0.9
			c-3.4,1.5-6.2,4.3-10.1,4.8c0.8-1.1,1.5-2.1,2-3.4c5.3-15.5,7.1-31.3,4.6-47.5c-1.9-11.9-5.6-23.2-10.8-34
			c1.6-1.9,3.9-3.1,5.9-4.6c7.3-5.5,14.5-11,20.9-17.6c-41.5,18.9-82.5,38.9-125.5,56.4c-2.4-24.3-1.8-47.6,1.5-70.8
			c-1.7,0-1.9,1.1-2.5,1.8c-16.2,21.9-23,46.2-18.8,73.3c0.5,2.9-0.1,4.4-2.9,5c-0.5,0.1-0.9,0.3-1.4,0.5
			c-27.6,11.1-55.7,21-83.5,31.7c-1,0.4-2.4,0.2-2.6,1.9c9.8-0.6,19.5-2.2,29.2-3.4c6,14.2,13.9,27.3,23.3,39.6
			c7,10.2,15.4,19.1,24,27.9c3,3,6,5.1,10.4,4.2c-5.3,3.1-11.4,4.3-16.7,7.7c20.2,1.2,39.7-2.8,59.4-8.5c0.2,14.2-1.3,27.5-2.2,40.9
			c9.5-12.7,15.4-27,18.8-42.2c0.9-4.1,2.6-6.1,6.4-7.8c29.5-13.2,55.2-31.4,75.2-57c-0.1-0.3-0.1-0.5-0.2-0.8
			c-0.1,0.1-0.3,0.2-0.3,0.3C1363.8,625,1364,625.2,1364.4,625.2z M790.1,591.1c-0.4,6.7,0.9,13.2,1.8,19.8
			c3.6,26.1,12.2,50.5,24.7,73.7c2.9,5.4,6.7,8.9,12.3,10.6c-0.9,2-2.2,0.8-3.3,0.4c-5.6-2.2-11.1-4.6-16.6-6.8
			c-1-0.4-1.9-1.3-3-0.4c0.2,0.4,0.3,0.8,0.5,0.9c1.8,1.2,3.5,2.5,5.4,3.6c23.3,14.6,48.2,25.6,74.6,33c26.3,7.4,53,12.8,79.7,18.5
			c3.4,0.7,6,0.3,8.9-1.5c15.6-9.6,29.5-21,42-34.4c1.5-1.6,2.1-3.3,2.2-5.3c0.1-3.2,0.2-6.3,0.2-9.5c3.2-3.5,5.4-7.6,7.6-11.7
			c7.7-14.4,13-29.5,14.8-45.7c5.1-0.9,10.2-1.9,15.3-2.8c0-0.3,0-0.7,0-1c-54.1-1.6-107.7-7.1-160.4-19.3
			c-52.8-12.2-103.4-30.9-153.3-53.3c0.8,1.8,1.8,2.4,2.7,3c5.7,4.3,11.6,8.4,17.6,12.3C772.3,580.8,781.3,585.8,790.1,591.1z
			 M1149.8,838.6c0.6-4.5,1.1-8.1,1.5-11.8c0.4-3.6,1.3-6.6,4.2-9.1c2.1-1.8,3.6-4.3,5.3-6.6c7.1-10.1,11.6-21.5,13-33.7
			c1-8.4,3.7-15.2,9.9-20.8c2.8-2.5,2.6-2.8,0.5-6.2c-15.7-25.8-36.7-46.3-62.6-61.9c-3.4-2-5.8-2.1-9.2,0.3
			c-38.4,27-71.3,59.4-98.8,97.4c-0.7,1-1.9,1.9-1.7,3.7c1.3,0.1,2.6,0.2,3.8,0.3c1.5,0.1,3,0.3,4.5,0.3c2.8,0.1,4.7,1.3,6.5,3.6
			c12.3,16.5,27.9,28.9,47.2,36.4c20.2,7.9,40.7,9.6,61.3,1.3c2-0.8,3.4-0.5,5,0.6C1143.2,834.4,1146.2,836.2,1149.8,838.6z
			 M804.9,687.7c0.1-0.4-0.1-0.6-0.5-0.6c-0.3,0-0.5,0-0.8,0.1c0.2,0.2,0.3,0.5,0.5,0.6C804.3,687.9,804.6,687.7,804.9,687.7z
			 M1192.8,323.8c0.1-0.4,0-0.7-0.4-0.8c-0.1,0-0.4,0.2-0.3,0.3c0.1,0.3,0.3,0.6,0.4,0.8C1192.6,324.1,1192.7,323.9,1192.8,323.8z"
			/>
		<path fill="none" d="M1161.7,1402.2c-1.7-0.1-3.3-0.2-5-0.2c-57.8,0-115.6,0-173.3-0.1c-3.7,0-6,1.2-8.5,3.9
			c-19.8,21.3-39.8,42.5-59.7,63.7c-23.1,24.6-46.1,49.3-69.2,74c-8.6,9.2-17.4,18.4-26,27.6c-1.6,1.7-3,3.4-4.8,5.4
			c6.6,4.9,12.8,9.6,19.1,14.3c1.1,0.8,2.4,1,3.7,1.3c2.8,4.7,6.8,7.1,12.5,7.1c92.9-0.1,185.9-0.1,278.8-0.1c1,0,2,0.1,3,0
			c2.7-0.2,3.1-0.9,1.9-3.5c-1.3-2.5-2.8-4.9-4.1-7.4c-6.6-12.1-13.2-24.3-19.7-36.4c-1-1.8-2.1-2.8-4.3-2.7
			c-4.8,0.2-9.7,0.2-14.5,0.2c-3.6-0.7-7.3-0.3-10.9-0.3c-12.5-0.1-24.9-0.2-37.4,0.1c-3.6,0.1-5.9-1-7.8-3.9
			c-1.1-1.7-2-3.9-4.5-4.4c0.2-1.5-0.8-2.5-1.6-3.5c-6.2-8-12.4-16.1-18.6-24.1c-7.3-9.5-14.6-18.9-21.8-28.5c-1.8-2.4-4-4.7-4.9-8
			c2.1-0.9,4.2-0.5,6.1-0.5c53.8,0,107.7,0,161.5,0c2.2,0,4.3-0.1,6.5-0.1c4,0,8,0.2,12,0c2.7-0.1,4.5,0.7,6.3,2.9
			c16.3,20,32.7,39.9,49.1,59.8c14.9,18.1,29.8,36.3,44.7,54.4c0.8,1,1.6,2.1,2.5,3.1c1.7,1.7,1.2,3-0.4,4.6
			c-5.1,5-10.1,10.1-15.2,15.2c-20.1,19.9-40.2,39.8-60.4,59.7c-6.9,6.8-13.8,13.5-20.6,20.4c-1.7,1.7-3.4,2.5-5.7,2.3
			c-1.3-0.1-2.7,0-4,0c-138.4,0-276.9,0-415.3,0.1c-4.3,0-7.6-0.9-10.4-4.3c-1.3-1.6-2.7-3.5-5-4c-0.1-1.5-1.2-2.3-2.1-3.3
			c-5.1-5-10.4-9.8-15.5-14.9c-23.5-23.1-46.8-46.5-70.1-69.8c-2.9-2.9-2.9-3,0-5.9c20.2-20.5,40.6-40.9,60.8-61.4
			c38.4-39.1,77.3-77.7,115.6-116.8c4.7-4.8,9.4-9.4,14.1-14.2c0.7-0.8,2-1.4,1.4-3.3c-9.8,0-19.7,0-29.6,0c-20.6,0-41.2,0-61.8,0.1
			c-2.3,0-4.1-0.8-5.9-2.1c-3.2-2.3-5.8-5.5-10-6.3c-0.7-2.5-3-3.4-4.8-4.7c-11.2-8.5-22.6-16.9-33.9-25.4
			c-24-18.1-48.1-36.1-72.1-54.3c-2.3-1.7-5.1-3-7-6.4c2.3,0,4.1,0,5.8,0c41.1,0.5,82.2,0.3,123.4,0.6
			c121.8,0.7,243.6,0.3,365.3,0.3c91.3,0,182.6,0,273.9,0c1.8,0,3.7,0,5.5-0.1c1.2,0,2.3,0.1,3.5,0.1c3.7,0.1,7.7-0.8,10.9,0.5
			c3,1.2,5.1,4.6,7.6,7.1c16.7,16.6,33.2,33.3,50,49.7c12.8,12.4,25.3,25.2,38,37.7c1.1,1.1,2.2,2.3,4,4.2c-66.6,0-132.1,0-198,0
			c0.3,2.4,1.8,3.4,2.7,4.5c29.4,36,58.8,71.9,88.3,107.9c23.1,28.2,46.2,56.4,69.3,84.7c2.3,2.8,2.3,2.9-0.3,5.6
			c-23.3,24.7-46.6,49.4-70,74.1c-5.5,5.8-11.1,11.5-16.4,17.5c-1.9,2.1-3.8,2.7-6.5,2.7c-31-0.1-62,0-93,0c-12.8,0-25.6,0-38.9,0
			c1.3-3.6,5.7-4.5,6.4-8.1c3.2-2.7,6.5-5.2,9.4-8c12.2-11.8,23.9-24.1,36.5-35.5c5.5-5,10.7-10.5,16-15.8
			c4.3-4.2,8.4-8.5,12.9-12.5c6.6-5.8,12.6-12.3,19-18.4c1.2-1.1,1.3-2.1,0.1-3.4c-6.1-7-12.1-14.1-18.1-21.2
			c-7.7-9.1-15.5-18.2-23.2-27.4c-8.3-9.9-16.7-19.8-25-29.8c-6.6-7.9-13.3-15.8-19.9-23.6c-7.3-8.6-14.5-17.3-21.8-25.9
			c-8.4-9.9-16.9-19.7-25.2-29.6c-9.6-11.4-19.2-22.9-28.7-34.4c-1.4-1.6-2.9-2.6-5.1-2.5
			C1169.7,1402.2,1165.7,1402.1,1161.7,1402.2z"/>
		<path fill="none" d="M602.2,1231.8c5.9-7,11-13.3,16.3-19.5c29.7-34.7,61.6-67.3,97.4-95.8c24.2-19.2,49.8-36.2,78.5-48.2
			c16.1-6.7,32.7-11.5,50.1-12.9c31.9-2.7,59.8,7,83.7,28.1c18.6,16.5,32.1,36.7,41.8,59.6c9.4,21.9,14.9,44.8,17.2,68.4
			c0.6,6.6,1.1,13.2,1.7,20.3C860.2,1231.8,731.7,1231.8,602.2,1231.8z"/>
		<path fill="none" d="M1038,1193c1.6-7.1,4-14.1,5-21.3c1-6.7,1.8-13.5,1.8-20.3c0-4.5,0.7-5.2,4.9-4.2c8.9,2.1,17.8,4.1,26.6,6.6
			c7.4,2,14.6,4.6,21.9,6.8c4.1,1.2,7.4,3.7,11.2,5.3c8.1,3.6,16.5,6,25.3,7.2c6.1,0.8,11.8,3.4,17.7,5.2c1.5,0.5,3.1,0.9,5.4,1.6
			c-1.7-3-4.7-3-6.3-5.3c2.5-1.1,4.8-0.6,6.9,0.6c18.9,10.8,40.1,15,60.5,21.7c8.8,2.9,17.8,5.4,26.7,8.1c1.8,0.5,3.5,1.2,5.4,0.9
			c0,0.1,0.1,0.3,0.1,0.4c0,0.1,0.2,0.1,0.2,0.1c-0.1-0.1-0.3-0.3-0.4-0.4c-5.9-4.7-12.8-7.7-19.2-11.5c-13.6-8-27.4-15.7-41.1-23.7
			c-14.6-8.5-22.6-21.8-26.4-37.8c-2.2-9.5,1-17.3,9.3-22.9c5.2-3.5,11-5.4,17-7c10.3-2.8,20.9-3.8,31.4-5.2
			c8.5-1.1,16.9-0.8,25.4-0.9c7.8,0,15.5,1.7,23.3,2.4c4,0.3,7.9,1.4,11.8,1.5c5,0.1,8.9,2.2,12.4,5.5c4.3,4.1,8.2,8.7,12,13.4
			c3.5,4.4,7.1,8.7,11.1,12.8c-0.3-21-1.5-41.8-8-62.4c2.9,0.2,4.9,1.2,6.9,2.3c13.9,7.6,27,16.4,39,26.7
			c22.6,19.4,40.3,42.8,54.7,68.8c17.7,31.8,29.8,65.6,37.7,101.1c1.5,6.8,3,13.6,4.5,20.4c0.3,1.3,0.7,2.6-0.1,3.9
			c-1.9-0.2-2.7-1.8-3.8-3c-14-14.7-28-29.5-41.9-44.2c-3.7-3.9-7.3-7.8-10.8-11.7c-1.7-1.9-3.6-2.8-6.2-2.5c-1.2,0.1-2.3,0-3.5,0
			c-114,0-228,0-341.9,0c-2.5,0-5-0.1-7.5-0.1c-0.2-7.8,1.5-15.5,1-23.4c-0.2-3,0-5.9,0.7-8.9
			C1039.2,1197.6,1039.7,1195.1,1038,1193z"/>
		<path fill="#2AABE2" d="M1428.9,1166c-4.6-7.7-9.1-15.5-13.9-23.1c-20.8-32.4-46.9-59.5-80.2-79.3c-7.7-4.6-15.7-8.8-24-12.2
			c-2.5-1.1-4-2.5-4.6-5.2c-1-4.3-3.3-8-5.8-11.7c1.5-0.8,2.6,0.2,3.6,0.6c36.8,15.9,70.4,36.8,100.4,63.6
			c19.6,17.5,38.7,35.7,55.5,56c18.8,22.7,34.2,47.5,47.8,73.6c16.3,31.4,29.4,64,40.6,97.5c1.1,3.2,1,5.8-0.8,8.9
			c-7.1,12.4-14.1,24.9-21.5,37.2c-2-0.7-2.9-2.3-3.9-3.8c-0.1-1-0.2-2-0.4-2.9c-2.4-9.5-4.8-19-7.3-28.5
			c-7.6-28-17.2-55.2-29.3-81.6c-13.8-30.2-30.6-58.7-51.6-84.5c-0.9-1.2-1.5-2.6-3.4-2.6l0,0
			C1430.2,1167,1429.8,1166.4,1428.9,1166z"/>
		<path fill="none" d="M1313,396.1c-5-7.8-9.5-16-14.7-23.7c-10.4-15.4-22.6-29.2-36.2-41.6c-17.3-15.8-36.6-28.6-57.8-38.6
			c-5.1-2.4-10.3-4.5-15.6-6.7c-1.3-0.6-2.7-1.2-4.3-1c-1.4,4.2,1.2,8,0.4,12c-2-3.1-2.5-6.8-3.7-10.2c-13.5-37.9-36.3-69-68.3-93.3
			c-0.8-0.6-1.8-0.9-2-2.1c7.1-0.9,30.5,4.6,43.1,9.9c14.1,6,26.9,13.8,38.6,23.6c11.5,9.7,20.9,21.2,29.5,34
			c6.1-7.7,10-15.5,10.3-25.3c4.3,2.4,7,5.8,10,8.8c22.8,23,40.4,49.4,52.7,79.3c8.7,21,14.3,42.9,17,65.5
			C1312.4,389.8,1313.5,392.9,1313,396.1z"/>
		<path fill="none" d="M1288.3,1059.8c-5.5,1.1-11,2.3-16.6,3.4c-5,1-10.1,1.4-15.3,1.9c-7.3,0.7-14.6,1.1-21.9,0.8
			c-23.1-1.1-45.3-5.9-66.3-15.8c-10.1-4.7-19.9-10-28.9-16.6c-1-0.7-2.3-1.2-3-3.1c4.3-1.2,8.5-2.4,12.7-3.5
			c18.7-4.9,36.8-11.3,54-20.1c8-4.1,15.6-8.8,23-14c2.4,1.3,3.7-0.8,5.2-1.9c10.6-7.8,21.1-15.7,31.6-23.5
			c7.7-5.8,15.5-11.5,23.2-17.3c0.8-0.6,1.5-1.4,2.6-1.4c1.2,1.5-0.3,2.5-0.8,3.4c-8.8,16.5-12.6,34.2-12.4,52.8
			c0.1,10.5,1.8,20.8,4.9,30.9c0.4,1.4,1.4,2.7,0.2,4.2c-0.9,1.2,0.2,2.2,0.7,3.2C1283.5,1048.9,1285.9,1054.3,1288.3,1059.8z"/>
		<path fill="#2AABE2" d="M1389.1,1301.9c-1.8,0-3.7,0.1-5.5,0.1c-91.3,0-182.6,0-273.9,0c-121.8,0-243.6,0.4-365.3-0.3
			c-41.1-0.2-82.2-0.1-123.4-0.6c-1.8,0-3.5,0-5.8,0c1.9,3.4,4.7,4.7,7,6.4c24,18.2,48,36.2,72.1,54.3c11.3,8.5,22.6,16.9,33.9,25.4
			c1.8,1.3,4.2,2.2,4.8,4.7c-5.5,1.1-10.1,0-14.8-3.5c-40.3-30.6-80.9-60.9-121.4-91.4c-1.2-0.9-2.6-1.5-3.3-3
			c1.4-1,2.9-0.5,4.3-0.5c45,0,90-0.3,135,0c121.6,0.8,243.3,0.1,364.9,0.3c92.8,0.1,185.6,0.2,278.5,0.2c3.4,0,6.1,0.6,8.3,3.4
			C1385.9,1299,1387.6,1300.4,1389.1,1301.9z"/>
		<path fill="#2AABE2" d="M810.7,1400.2c9.9,0,19.8,0,29.6,0c0.6,2-0.7,2.6-1.4,3.3c-4.7,4.8-9.4,9.4-14.1,14.2
			c-38.4,39.1-77.2,77.7-115.6,116.8c-20.2,20.5-40.6,40.9-60.8,61.4c-2.9,2.9-2.9,3,0,5.9c23.3,23.3,46.6,46.7,70.1,69.8
			c5.1,5,10.4,9.8,15.5,14.9c0.9,0.9,2,1.8,2.1,3.3c-3.6,0.6-7.3,0.1-11,0.3c-1.4,0.1-2.6-0.4-3.5-1.5c-0.4-0.5-0.9-0.9-1.4-1.4
			c-18.8-18.7-37.5-37.4-56.3-56c-12.5-12.4-25.1-24.9-37.6-37.3c-2.9-2.9-2.9-2.9-0.1-5.8c9.9-10.1,19.9-20.2,29.8-30.2
			c18.4-18.6,36.9-37.1,55.3-55.6c20.5-20.7,41-41.4,61.5-62.1c11.9-12.1,23.8-24.2,35.7-36.4
			C809.5,1402.8,811.2,1402.1,810.7,1400.2z"/>
		<path fill="none" d="M901,1001c9.6,4.6,19.1,9.3,28.7,13.7c9.5,4.4,18.5,9.8,27.5,15.2c12.7,7.7,24.6,16.4,36,25.9
			c12.2,10.2,23,21.8,30.5,35.9c5.9,11.2,9.8,23.2,11.4,35.9c-2.3-0.3-4.6-0.6-6.9-0.8c-1.5-0.2-2.1,0.6-1.9,2
			c0.4,2.8,0.9,5.6,1.2,8.4c2,17.5,0.3,34.5-5.9,51.1c-0.3,0.7-0.4,1.6-1.5,2.2c-1-5.3-1.7-10.5-2.9-15.6
			c-8.5-38.6-29.7-68.5-62.1-90.7c-4-2.8-6.6-5.9-8.4-10.5c-10.4-27.7-27.3-50.8-50.5-69.3c-1.5-1.2-3-2.5-4.3-4.1
			C895.1,999.9,898.1,999.9,901,1001z"/>
		<path fill="#2AABE2" d="M1161.7,1402.2c4,0,8,0,12-0.2c2.3-0.1,3.8,0.8,5.1,2.5c9.6,11.5,19.1,23,28.7,34.4
			c8.4,9.9,16.9,19.7,25.2,29.6c7.3,8.6,14.5,17.3,21.8,25.9c6.6,7.9,13.3,15.8,19.9,23.6c8.3,9.9,16.6,19.9,25,29.8
			c7.7,9.1,15.4,18.3,23.2,27.4c6,7.1,12,14.2,18.1,21.2c1.1,1.3,1,2.3-0.1,3.4c-6.4,6.1-12.3,12.6-19,18.4
			c-4.5,3.9-8.7,8.3-12.9,12.5c-5.3,5.3-10.5,10.8-16,15.8c-12.5,11.5-24.3,23.7-36.5,35.5c-3,2.9-6.3,5.4-9.4,8
			c-9.4,0-18.9,0-29.3,0c34.6-33.6,68.4-66.5,102.3-99.4c-2-3.6-4.8-6.3-7.2-9.2c-49.5-58.7-99-117.4-148.4-176.1
			C1163.3,1404.3,1162.5,1403.2,1161.7,1402.2z"/>
		<path fill="none" d="M706,704.1c7.3,26.1,14,52.3,20.3,78.6c6.5,27.1,12,54.4,17.5,81.7c0.7,3.5,0.6,7.2,2.2,10.5
			c0.1,4.2-1.1,8.2-2,12.5c-1.6-0.6-2.1-1.8-2.8-2.8c-17.6-24.8-29.1-52.2-35.3-81.9c-2.8-13.4-5.4-26.8-9.1-39.9
			c-2.3-8.3-5.1-16.5-9.3-24.2c-4.9-9.1-11.9-15.9-21.3-20.4c-5.3-2.5-10.5-5-15.7-7.6c-1.3-0.6-2.6-1.3-3.7-2.2
			c5.7-0.1,11.2,1,16.7,2.1c6,1.2,12,2.5,18.2,2.6c8.2,0.1,15.3-2.6,21.8-7.4C704.4,705.2,705.2,704.7,706,704.1z"/>
		<path fill="none" d="M1152.1,267.9c-1.7,0.5-2.8-0.4-4-1.5c-12.1-10.9-24.5-21.5-37-31.8c-12.2-10-24.6-19.8-36.9-29.6
			c-3-2.4-6.1-4.6-9-7.1c-6.9-5.9-14.9-10.1-22.8-14.3c-20.6-10.9-41.1-22-62.1-32.1c-2.4-1.2-4.9-2.1-7.3-3.2
			c-0.9-0.4-1.6-0.2-2.2,0.5c-6.2-6.3-12.3-12.6-19.1-18.1c-5.8-4.7-11.9-9.1-18.2-13.1c-1.1-0.7-2.5-1-3-2.8
			c5.6,0.3,10.9,1.9,16.1,3.2c45.2,11.5,86.7,30.8,123.4,59.8c19,15,35.5,32.6,51.1,51.1c9.9,11.7,19.7,23.4,29.1,35.5
			C1150.9,265.6,1152.2,266.4,1152.1,267.9z"/>
		<path fill="none" d="M1430,1168c1.8,0,2.4,1.4,3.4,2.6c21,25.9,37.8,54.3,51.6,84.5c12.1,26.3,21.7,53.6,29.3,81.6
			c2.6,9.5,4.9,19,7.3,28.5c0.2,1,0.3,2,0.4,2.9c-6.5-5.9-12.2-12.7-18.3-19c-5.9-6.1-11.6-12.4-17.4-18.5c-1.7-1.7-2.8-3.6-3.4-5.9
			c-5.7-22.7-12.5-45.2-19.9-67.4c-4-12-6.9-24.3-11-36.3c-5.8-17-12.7-33.6-20.7-49.7C1430.7,1170.2,1429.9,1169.2,1430,1168z"/>
		<path fill="none" d="M1398.1,601.3c-0.7-10.8,1.1-21.5,0.9-32.3c-0.3-13.9-1-27.9-2.2-41.7c-1.5-16.5-3.9-32.8-7.4-49.1
			c-2.9-13.3-6.3-26.4-9.8-39.6c-0.4-1.7-0.6-3.7-2.5-4.7c4.9-16.3,8.2-32.9,9.2-50.2c2,0.5,2,2.3,2.5,3.4
			c12,26.8,20,54.7,23.4,83.8c5.1,43.2,1,85.4-12.6,126.7C1399.3,598.9,1399.2,600.4,1398.1,601.3z"/>
		<path fill="none" d="M1350.4,475.4c-5-20.9-10-41.9-15-62.8c-3.5-14.5-6.9-29-10.3-43.5c-0.2-0.8-0.3-1.6-1-2.2
			c0-9.5,0.4-19,0-28.5c-0.8-18.2-3.8-36.1-8.5-53.6c-0.3-1-0.8-1.9-0.3-3c1.3,0.5,1.7,1.8,2.3,2.9c18.6,30.7,30.6,63.8,35.7,99.4
			c2.4,17,3.3,34.1,2.4,51.3C1354.9,448.9,1353.4,462.3,1350.4,475.4z"/>
		<path fill="#2AABE2" d="M1091.7,1549.2c4.8-0.1,9.7-0.1,14.5-0.2c2.1-0.1,3.3,0.9,4.3,2.7c6.5,12.2,13.1,24.3,19.7,36.4
			c1.3,2.5,2.8,4.9,4.1,7.4c1.3,2.5,0.8,3.3-1.9,3.5c-1,0.1-2,0-3,0c-92.9,0-185.9,0-278.8,0.1c-5.7,0-9.7-2.4-12.5-7.1
			c1.9-0.8,4-0.4,5.9-0.4c87.8,0,175.6,0,263.3,0c1.9,0,3.9,0,6.2,0c-0.2-2.5-1.3-3.9-2.2-5.5c-6-11.1-12-22.3-18-33.4
			C1092.7,1551.7,1092.2,1550.4,1091.7,1549.2z"/>
		<path fill="#2AABE2" d="M1158.3,1475.8c-2.2,0-4.3,0.1-6.5,0.1c-53.8,0-107.7,0-161.5,0c-1.9,0-3.9-0.3-6.1,0.5
			c0.9,3.3,3.1,5.6,4.9,8c7.2,9.6,14.6,19,21.8,28.5c6.2,8,12.4,16.1,18.6,24.1c0.8,1.1,1.7,2,1.6,3.5c-4.1,0.7-8.3,0-12.4,0.4
			c-2.5,0.2-3.4-1.6-4.6-3.2c-8.7-11.4-17.4-22.7-26.1-34.1c-8.3-10.8-16.6-21.7-24.9-32.5c-0.6-0.8-1.1-1.6-1.7-2.5
			c1.1-1.3,2.6-0.8,3.8-0.8c60.9,0,121.9,0,182.8-0.1c3,0,5.1,0.8,6.7,3.3C1155.7,1472.8,1157,1474.3,1158.3,1475.8z"/>
		<path fill="none" d="M571.9,1362.1c1.5-1,2,0.6,2.6,1.2c22.5,23.1,44.9,46.3,67.4,69.5c3.6,3.7,7.3,7.3,10.7,11.2
			c1.9,2.3,4,3.3,6.9,3c1.2-0.1,2.6-0.4,4.3,0.7c-8.7,7.4-17.1,14.7-26,22.3c-4.8-7.3-9.4-14.1-13.9-21.1
			c-17.6-27.2-34.4-54.9-50.1-83.3c-0.6-1.1-1.5-2.2-1.6-3.6L571.9,1362.1z"/>
		<path fill="none" d="M643.4,495.6c-10.5-8.9-23-13.2-36.1-16c-19.7-4.2-33.2-15.9-42.5-33.4c-4.1-7.8-7.2-16.1-9.8-24.5
			c-0.2-0.6-0.5-1.3,0.1-2.2c2.3,0.9,4.8,1.8,7.2,2.8c5.3,2.1,10.8,3.3,16.5,3.6c2.5,0.1,3.6,1.2,4,3.4c0.4,2,0.8,3.9,1.3,5.9
			c2.4,10.1,8,17.7,17.3,22.7c7,3.8,14,7.7,20.8,11.9c9.9,6.1,17.1,14.7,22,25.2C643.9,495.1,643.7,495.3,643.4,495.6z"/>
		<path fill="none" d="M1089,1761.3c0,5.5-0.1,9.8,0,14.1c0.1,2.4-0.5,3.6-3.3,3.5c-9.7-0.3-7.8,1.3-7.9-7.8
			c-0.1-12.8,0-25.7,0-38.5c0-4.1,0.1-4.1,4.1-4.1c11,0,22,0,33,0c3.6,0,3.7,0.1,3.7,3.5c0.1,7.8,0,15.7,0,23.5c0,3.9-0.1,3.9-3.8,4
			c-2.4,0-4.9,0-7.8,0.9c2.5,2.5,5,5.1,7.5,7.6c0.9,0.9,1.9,1.9,2.8,2.8c2.1,2.1,1.7,4.8,0.9,7c-0.6,1.9-2.9,0.7-4.5,1
			c-5.3,1-9-1.3-12.4-5.5C1098,1769.3,1094,1765.5,1089,1761.3z M1098,1747.9c2.1,0,4.3-0.1,6.4,0c1.9,0.1,2.7-0.8,2.6-2.7
			c-0.1-0.8-0.1-1.7,0-2.5c0.2-2.1-0.6-3-2.8-2.9c-4.3,0.1-8.6,0-12.9,0.1c-1,0-1.9,0.1-2.2,1.4c-1.3,4.7,0.1,6.6,4.9,6.7
			C1095.3,1747.9,1096.6,1747.9,1098,1747.9z"/>
		<path fill="none" d="M1193.2,1778.9c-5.7,0-11.3-0.1-17,0c-2.3,0-3.3-0.6-3.3-3.1c0.2-10-1.2-8,7.6-8.2c6-0.1,12,0,18,0
			c3.6,0,3.6-0.1,3.7-3.7c0.1-4.4,0.1-4.4-4.3-4.5c-7.2,0-14.3-0.1-21.5,0c-2.5,0-3.5-0.7-3.5-3.4c0.2-8.2,0.1-16.3,0-24.5
			c0-2.4,0.7-3.2,3.1-3.2c11.7,0.1,23.3,0.1,35,0c2.1,0,2.8,0.8,2.9,2.9c0.4,8.5,0.4,8.5-7.8,8.5c-5.8,0-11.7,0-17.5,0
			c-4,0-4,0.1-3.9,4.2c0,0.3,0,0.7,0,1c-0.2,2.2,0.9,2.8,3,2.8c6.7-0.1,13.3,0,20,0c1.2,0,2.3,0.1,3.5,0c2.3-0.2,2.8,0.9,2.8,3
			c-0.1,5.5,0,11,0,16.5c0,2.8-0.1,5.7,0,8.5c0.1,2.5-0.9,3.1-3.2,3.1C1204.9,1778.9,1199.1,1778.9,1193.2,1778.9z"/>
		<path fill="none" d="M955.2,1728.5c5.7,0,11.3,0.1,17,0c2.6-0.1,3.5,0.8,3.4,3.4c-0.2,9.9,1,7.8-7.8,7.9c-6.2,0.1-12.3,0.1-18.5,0
			c-2.4,0-3.1,0.8-3.1,3.2c0,4.9-0.1,4.9,4.9,4.9c7,0,14,0.1,21,0c2.5-0.1,3.6,0.6,3.5,3.3c-0.1,8.2-0.1,16.3,0,24.5
			c0,2.7-1,3.3-3.6,3.3c-11.3-0.1-22.6-0.1-34,0c-2.8,0-3.4-1.1-3.3-3.5c0.3-9.5-1.2-7.6,7.4-7.8c6.2-0.1,12.3,0,18.5,0
			c3.2,0,3.3-0.2,3.3-4c0-3.9,0-4-3.2-4.1c-7.2-0.1-14.3,0-21.5,0c-4.5,0-4.5,0-4.5-4.7c0-7.5,0-15,0-22.5c0-3.7,0.1-3.8,3.9-3.8
			C944.2,1728.5,949.7,1728.5,955.2,1728.5z"/>
		<path fill="none" d="M1030,1753.5c0-7.2,0.1-14.3-0.1-21.5c-0.1-2.5,0.6-3.6,3.3-3.5c11.5,0.1,22.9,0.1,34.4,0
			c2.7,0,3.3,1.1,3.3,3.6c-0.1,14.5,0,28.9-0.1,43.4c0,3.4-0.1,3.5-3.7,3.5c-11.1,0-22.3,0-33.4,0c-3.7,0-3.7-0.1-3.7-4
			C1030,1767.8,1030,1760.6,1030,1753.5z M1041.7,1753.6c0,3.8,0,7.6,0,11.4c0,1.9,0.8,2.7,2.7,2.6c4-0.1,8-0.1,11.9,0
			c2.1,0,2.9-0.8,2.9-2.9c-0.1-7.5-0.1-14.9,0-22.4c0-2-0.9-2.6-2.7-2.5c-4,0.1-8,0.1-11.9,0c-2.1-0.1-3,0.6-2.9,2.8
			C1041.8,1746.3,1041.7,1750,1041.7,1753.6z"/>
		<path fill="none" d="M833,1753.8c0-7.2,0-14.3,0-21.5c0-3.6,0.1-3.7,3.5-3.7c11.3-0.1,22.6,0,33.9-0.1c2.4,0,3.6,0.5,3.5,3.3
			c-0.3,9.8,1.2,7.9-7.7,8.1c-6,0.1-12,0-18,0c-3.6,0-3.6,0.1-3.6,3.6c-0.1,4.4-0.1,4.4,4.3,4.5c4,0,8,0.1,12,0
			c2.4-0.1,3.2,0.9,3.1,3.2c-0.3,10.2,1.5,8.2-8.3,8.4c-2.7,0.1-5.3,0.1-8,0c-2.2-0.1-3,0.9-2.8,3c0.1,0.7,0.1,1.3,0,2
			c-0.2,2.4,0.8,3.2,3.2,3.2c6-0.1,12-0.1,18,0c9.1,0.2,7.7-2,7.9,8.4c0,2.2-0.8,2.9-2.9,2.9c-11.6-0.1-23.3-0.1-34.9,0
			c-2.5,0-3.1-1-3.1-3.3C833,1768.4,833,1761.1,833,1753.8z"/>
		<path fill="none" d="M982.3,1753.6c0-7,0-14,0-21c0-3.9,0.1-4,3.7-4c11.2,0,22.3,0,33.5,0c3.5,0,3.6,0.1,3.6,3.6
			c0,7.8,0,15.7,0,23.5c0,3.8-0.1,3.9-3.8,3.9c-7.3,0-14.7,0-22,0c-3.6,0-3.6,0.1-3.7,3.6c-0.1,4.2-0.1,8.3,0,12.5
			c0,2.2-0.4,3.4-3,3.4c-10.3-0.2-8.2,1.2-8.4-7.9C982.2,1765.2,982.3,1759.4,982.3,1753.6z M1002.7,1739.9
			C1002.7,1739.9,1002.7,1739.9,1002.7,1739.9c-2.3,0-4.6,0-6.9,0c-1.4,0-2.2,0.6-2.1,2c0,1,0.1,2,0,3c-0.2,2.4,0.9,3.2,3.2,3.1
			c3.6-0.1,7.3,0,10.9,0c3.9,0,3.9-0.1,3.9-3.8c0.1-4.1,0.1-4.1-4-4.2C1006,1739.9,1004.4,1739.9,1002.7,1739.9z"/>
		<path fill="none" d="M815.1,251.5c-8.3,5.8-17.9,8.6-27.7,10.5c-7.9,1.6-15.9,1.5-23.8,0.9c-12.5-1-23.9-5.5-33.6-13.5
			c-7.1-5.8-13-12.7-17.2-21c-0.5-1-1.1-2.1-2.3-2.4c-0.8-2.7-1.4-5.5-1.4-8.3c1.7-0.5,2.1,1,2.8,1.7c17.1,17.1,37.3,28.2,61.2,32.1
			c9.6,1.6,19.1,2,28.8,1C806.1,251.9,810.6,251.8,815.1,251.5z"/>
		<path fill="none" d="M1395.8,751c0.8-19.4,2.1-38.7,2.2-58.1c0-1.8,0.3-3.3,1.6-4.5c4.7-4.9,9.5-9.7,14.2-14.6
			c0.4,0.5,0.9,1,1,1.6c2,10.9,1.8,21.9,0.7,32.8c-1.5,14.5-6.2,28.1-12.7,41.1c-0.6,1.2-1.2,2.4-0.8,3.8l0,0
			c-2.1,0.1-2.2,1.5-2,3.1c0,0,0,0,0,0c-1.6,0.4-2.2,1.5-2,3.1c0,0,0-0.1,0-0.1c-0.8,0.5-1.6,0.9-2.4,1.4c0.1-0.6,0-1-0.5-1.4
			c0-1,0.1-2,0.1-3.1C1396.6,754.4,1396.1,752.7,1395.8,751z"/>
		<path fill="none" d="M1402,753c-0.3-1.4,0.2-2.6,0.8-3.8c6.6-13,11.3-26.7,12.7-41.1c1.1-10.9,1.3-21.9-0.7-32.8
			c-0.1-0.6-0.7-1.1-1-1.6c3-3.3,5.9-6.7,9.1-9.9c5.3-5.4,9.9-11.2,13.9-17.6c0.5-0.8,0.8-1.8,2.2-2.2c-0.2,6.9-1.2,13.6-2.3,20.2
			c-3.5,21.8-9.9,42.7-19.4,62.7c-4,8.4-8.6,16.5-13.5,24.4C1403.2,752,1402.9,752.8,1402,753z"/>
		<path fill="none" d="M1406,671c-0.4-2,0.8-3.5,1.6-5.1c7.9-15.1,13.6-31,16.8-47.8c1.2-6.5,2.2-13.1,2.7-19.7
			c0.5-6,1.1-11.9,0.5-17.9c6.5-10.4,12.6-21,16.9-32.6c0.3,0.1,0.7,0.1,1,0.2c0,4.2,0.2,8.3,0,12.5c-1.8,35.3-12.1,67.8-31.2,97.6
			C1411.6,662.5,1409.5,667.2,1406,671z"/>
		<path fill="none" d="M1146.1,1728.5c5.7,0,11.3,0.1,17,0c2.4-0.1,3.1,0.8,3.1,3.2c0.2,8.2,0.3,8.2-8,8.2c-6.5,0-6.5,0-6.5,6.7
			c0,9.5,0,19,0,28.5c0,3.8-0.1,3.9-3.9,3.8c-8.8-0.1-7.4,1.1-7.4-7.3c-0.1-9,0-18,0-27c0-5.3,0.3-4.7-4.9-4.7c-2.5,0-5,0-7.5,0
			c-1.6,0-2.5-0.6-2.5-2.3c0-0.3,0-0.7,0-1c0.1-9.7-1.2-7.9,7.7-8C1137.4,1728.5,1141.7,1728.5,1146.1,1728.5z"/>
		<path fill="none" d="M1407,763.2c7-6.8,14.1-13.6,20.6-20.9c-0.6,5.4-2.4,10.4-4.1,15.3c-10,30-23.9,58-41.6,84.2
			c-0.8,1.2-1.3,2.7-2.9,3.1l0.1,0.1c0.6-5.9,2.8-11.4,4.6-17.1c1.9-0.9,2.3-2.8,2.9-4.4c4.6-11.6,9.4-23.1,13.1-35
			C1402.3,780.1,1405.3,771.9,1407,763.2z"/>
		<path fill="#2AABE2" d="M1041.8,1859.5c-3.9,2.4-7.5,4.5-11,6.7c-1.4,0.9-2.6,1.2-4.1,0.1c-9.6-7.1-19.3-14.1-28.7-22.2
			c2.4,0,4.7,0,7.1,0c2.8,0,5.7,0.1,8.5,0c3.2-0.2,5.7,0.7,8.1,2.8c4.5,3.9,9.7,7,15,9.7C1038.4,1857.4,1040.2,1857.9,1041.8,1859.5
			z"/>
		<path fill="none" d="M1038,1193c1.7,2.1,1.2,4.6,0.7,6.7c-0.7,3-0.9,5.9-0.7,8.9c0.5,7.8-1.2,15.6-1,23.4c-6.6,0-13.3,0-20.2,0
			c0.2-2,1.4-3.4,2.4-4.7c7.6-10.2,13.5-21.2,17.9-33.1C1037.3,1193.7,1037.7,1193.4,1038,1193z"/>
		<path fill="#27A4D7" d="M1407,763.2c-1.7,8.7-4.7,16.9-7.3,25.3c-3.7,11.9-8.4,23.4-13.1,35c-0.7,1.6-1,3.6-2.9,4.4
			c2-8.4,4.2-16.7,5.9-25.1c1.6-7.6,2.9-15.3,3.5-23.1c0.2-3,1.2-5.3,3.6-7.3C1400.2,769.5,1403.6,766.3,1407,763.2z"/>
		<path fill="#2AABE2" d="M1002.4,1223.8c-0.7-29.7-9-57.6-19.7-85.7c5.9,2.9,13.9,20.4,18.4,40.8
			C1004,1192.4,1005.5,1202.2,1002.4,1223.8z"/>
		<path fill="#1074BA" d="M644.1,494.9c0.6,0.3,1,0.9,0.5,1.4c-0.6,0.5-0.9-0.3-1.3-0.7C643.7,495.3,643.9,495.1,644.1,494.9z"/>
		<path fill="#2AABE2" d="M1019.4,693.8c-0.1,3.2-0.2,6.3-0.2,9.5c0,2.1-0.7,3.7-2.2,5.3c-12.4,13.4-26.4,24.8-42,34.4
			c-2.9,1.8-5.6,2.2-8.9,1.5c-26.7-5.7-53.4-11.1-79.7-18.5c-26.4-7.4-51.3-18.5-74.6-33c-1.8-1.1-3.6-2.4-5.4-3.6
			c-0.2-0.2-0.3-0.6-0.5-0.9c1.2-0.9,2.1,0,3,0.4c5.5,2.3,11.1,4.6,16.6,6.8c1.1,0.4,2.4,1.6,3.3-0.4c0.4-0.5,0.9-1,1.2-1.6
			c8.4-13.7,18.6-26,30.5-36.8c11.8-10.7,24.9-19.4,39.9-25.3c-1.2-1-2.5-1.3-3.8-1.5c-27.2-6-53.6-14.6-79.1-25.8
			c-9.3-4.1-18.2-8.8-27.4-13.1c-8.8-5.3-17.9-10.3-26.5-15.9c-6-3.9-11.9-8-17.6-12.3c-0.9-0.7-1.9-1.2-2.7-3
			c49.9,22.5,100.5,41.1,153.3,53.3c52.8,12.2,106.4,17.7,160.4,19.3c0,0.3,0,0.7,0,1c-5.1,0.9-10.2,1.9-15.3,2.8
			c-16.3,2-32.6,3.6-49.1,3.7c0.3,1.7,1.5,2.1,2.3,2.8c9.3,8.2,16,18.2,20.1,29.9C1017.5,679.6,1018.5,686.7,1019.4,693.8z
			 M855.3,680.8c5.7,0.7,10.6,1.1,15.6,0.6c17.9-1.8,30.5-11.1,39-26.6c1.2-2.2,2.2-4.5,2.7-6.9c1.1-5.3-0.8-7.3-6-6.3
			c-2.8,0.5-5.5,1.5-8,2.7c-11.7,5.5-22.2,12.7-31.3,21.8C862.9,670.3,858.9,675,855.3,680.8z"/>
		<path fill="none" d="M1223.5,692c-4.4,0.9-7.5-1.1-10.4-4.1c-8.6-8.8-17-17.7-24-27.9c1.5-1.5,0.8-3.5,0.8-5.2
			c-0.1-14.9,4.4-28.2,13.6-39.9c0.7-0.9,1.5-1.8,1.4-3c6.8-2.1,13.6-4.2,20.4-6.3c11.7-3.7,23.1-8.4,34.6-12.6
			c3.7,1.3,7.4,2.5,11.1,3.9c8.8,3.3,16.7,8.2,23.1,15c9.3,9.9,14.7,21.9,15.8,35.6c0.2,1.9,0.5,3.6,2.3,4.7
			c-0.2,0.2-0.4,0.6-0.7,0.7c-16.4,8.4-32.9,16.5-49.8,23.7C1249.1,682,1236.5,687.6,1223.5,692z"/>
		<path fill="#2AABE2" d="M1149.8,838.6c-3.6-2.4-6.6-4.2-9.4-6.2c-1.6-1.1-3-1.4-5-0.6c-20.6,8.3-41.1,6.6-61.3-1.3
			c-19.3-7.5-34.9-19.9-47.2-36.4c-1.8-2.4-3.7-3.6-6.5-3.6c-1.5,0-3-0.2-4.5-0.3c-1.3-0.1-2.6-0.2-3.8-0.3
			c-0.3-1.8,0.9-2.6,1.7-3.7c27.5-38,60.4-70.4,98.8-97.4c3.4-2.4,5.8-2.3,9.2-0.3c25.9,15.6,46.9,36.1,62.6,61.9
			c2.1,3.4,2.3,3.7-0.5,6.2c-6.2,5.6-9,12.5-9.9,20.8c-1.4,12.2-5.9,23.5-13,33.7c-1.6,2.3-3.2,4.8-5.3,6.6
			c-2.9,2.5-3.9,5.6-4.2,9.1C1150.9,830.4,1150.4,834,1149.8,838.6z M1113.9,699.2c-0.8,0.5-1.7,1-2.5,1.6
			c-15.7,11.3-30.4,23.8-44.2,37.3c-13.1,12.8-25.4,26.3-36.6,40.8c-0.6,0.8-1.9,1.6-1.1,3c37.6,0.8,73.1,10.2,107.1,26.5
			c0.5-28.5-5-63.3-23.5-101.7c2.4,0.5,3.4,2.5,4.7,4.2c15.3,20,23.3,42.8,25.3,67.8c0.3,3.7,0.5,7.3,0.8,11c1.5-1.2,2.3-2.4,3-3.7
			c6.8-11.6,15.1-21.9,25-31c3-2.7,3.4-2,0.7-6c-13.7-20.5-31.1-37.2-52-50.4C1117.4,696.4,1117.4,696.5,1113.9,699.2z
			 M1030.3,791.5c1.5,2.4,2.9,3.3,4.2,4.2c4.2,3,8.3,6.1,12.7,8.8c16.7,10.6,34.7,17.6,54.6,18.8c6.7,0.4,13.3,0.2,20.9-1.8
			C1093.6,805.2,1063.5,795.5,1030.3,791.5z"/>
		<path fill="none" d="M1312.3,652.2c-1.7-1.1-2.1-2.8-2.3-4.7c-1.1-13.7-6.5-25.6-15.8-35.6c-6.4-6.8-14.3-11.7-23.1-15
			c-3.7-1.4-7.4-2.6-11.1-3.9c1.3-0.6,2.6-1.4,4-1.9c19.5-8.4,38.5-17.8,56.6-28.9c8.5-5.2,16.7-10.7,25.1-16
			c5.2,10.8,9,22.1,10.8,34c2.5,16.2,0.7,32-4.6,47.5c-0.4,1.3-1.2,2.4-2,3.4c-1,0.8-1.9,1.8-3.1,2.4
			C1335.5,639.8,1324.2,646.5,1312.3,652.2z"/>
		<path fill="none" d="M790.1,591.1c9.2,4.2,18.1,9,27.4,13.1c25.5,11.2,51.9,19.8,79.1,25.8c1.3,0.3,2.6,0.5,3.8,1.5
			c-15,5.9-28.1,14.5-39.9,25.3c-11.9,10.8-22,23.1-30.5,36.8c-0.3,0.6-0.8,1.1-1.2,1.6c-5.6-1.8-9.4-5.3-12.3-10.6
			c-12.5-23.2-21.1-47.6-24.7-73.7C791,604.3,789.8,597.8,790.1,591.1z"/>
		<path fill="#2AABE2" d="M1345.7,546.1c-8.4,5.4-16.7,10.8-25.1,16c-18.1,11.1-37.1,20.6-56.6,28.9c-1.4,0.6-2.7,1.3-4,1.9
			c-11.5,4.2-22.9,8.9-34.6,12.6c-6.8,2.1-13.6,4.2-20.4,6.3c-13,3-26,6.1-39.2,8.5c-9.7,1.2-19.4,2.8-29.2,3.4
			c0.2-1.7,1.6-1.6,2.6-1.9c27.8-10.7,55.9-20.6,83.5-31.7c0.5-0.2,0.9-0.4,1.4-0.5c2.8-0.6,3.4-2.1,2.9-5
			c-4.2-27.1,2.7-51.4,18.8-73.3c0.5-0.7,0.8-1.9,2.5-1.8c-3.3,23.3-3.9,46.6-1.5,70.8c43-17.5,84-37.6,125.5-56.4
			c-6.4,6.6-13.6,12.2-20.9,17.6C1349.6,543,1347.3,544.1,1345.7,546.1z"/>
		<path fill="#2AABE2" d="M1312.3,652.2c11.9-5.7,23.2-12.4,34.6-18.8c1.1-0.6,2-1.6,3.1-2.4c3.9-0.6,6.7-3.4,10.1-4.8
			c1.4-0.6,2.5-2.4,4.4-0.9l-0.1,0c-20.1,25.6-45.8,43.8-75.2,57c-3.7,1.7-5.4,3.8-6.4,7.8c-3.4,15.2-9.2,29.5-18.8,42.2
			c0.9-13.4,2.4-26.8,2.2-40.9c-19.7,5.7-39.2,9.7-59.4,8.5c5.3-3.4,11.4-4.6,16.7-7.7c13-4.5,25.6-10,38.3-15.4
			c16.9-7.2,33.5-15.4,49.8-23.7C1311.9,652.7,1312.1,652.4,1312.3,652.2z"/>
		<path fill="none" d="M1019.4,693.8c-0.8-7.1-1.9-14.2-4.3-21c-4.1-11.7-10.8-21.7-20.1-29.9c-0.8-0.7-2-1.2-2.3-2.8
			c16.5-0.2,32.8-1.7,49.1-3.7c-1.9,16.3-7.2,31.4-14.8,45.7C1024.8,686.2,1022.5,690.3,1019.4,693.8z"/>
		<path fill="none" d="M1165.9,620.4c13.2-2.4,26.1-5.5,39.2-8.5c0,1.3-0.7,2.1-1.4,3c-9.3,11.7-13.8,25-13.6,39.9
			c0,1.7,0.7,3.7-0.8,5.2C1179.8,647.7,1171.9,634.6,1165.9,620.4z"/>
		<path fill="none" d="M855.3,680.8c3.6-5.9,7.6-10.5,11.9-14.8c9.1-9.1,19.7-16.3,31.3-21.8c2.6-1.2,5.2-2.2,8-2.7
			c5.2-0.9,7.1,1.1,6,6.3c-0.5,2.5-1.5,4.7-2.7,6.9c-8.4,15.6-21.1,24.8-39,26.6C865.9,682,861,681.6,855.3,680.8z"/>
		<path fill="none" d="M1113.1,706.6c18.4,38.4,24,73.3,23.5,101.7c-34-16.3-69.5-25.7-107.1-26.5c-0.8-1.4,0.4-2.1,1.1-3
			c11.2-14.5,23.5-28.1,36.6-40.8c13.9-13.5,28.6-25.9,44.2-37.3c0.8-0.6,1.7-1,2.5-1.6C1114.5,701.7,1112.9,704.1,1113.1,706.6z"/>
		<path fill="none" d="M1113.1,706.6c-0.2-2.5,1.4-4.9,0.8-7.4c3.5-2.7,3.5-2.8,6.8-0.7c20.8,13.2,38.3,29.9,52,50.4
			c2.6,4,2.2,3.3-0.7,6c-9.9,9-18.3,19.4-25,31c-0.7,1.3-1.5,2.5-3,3.7c-0.3-3.7-0.5-7.3-0.8-11c-1.9-25-9.9-47.8-25.3-67.8
			C1116.6,709.1,1115.5,707.1,1113.1,706.6z"/>
		<path fill="none" d="M1030.3,791.5c33.1,4,63.2,13.8,92.4,30c-7.6,2.1-14.3,2.3-20.9,1.8c-19.9-1.2-37.9-8.3-54.6-18.8
			c-4.3-2.8-8.5-5.9-12.7-8.8C1033.2,794.8,1031.9,793.9,1030.3,791.5z"/>
	</g>
	<rect x="1041.7" y="1742.7" fill="#00AEEF" width="17.6" height="22.1"/>
	<rect x="1089" y="1741.3" fill="#00AEEF" width="15.3" height="6.7"/>
	<rect x="995.8" y="1739.9" fill="#00AEEF" width="17.2" height="11.1"/>
</g>
</svg>
