<?xml version="1.0" encoding="utf-8"?>
<!-- Generator: Adobe Illustrator 18.1.1, SVG Export Plug-In . SVG Version: 6.00 Build 0)  -->
<svg version="1.1" id="Layer_1" xmlns="http://www.w3.org/2000/svg" xmlns:xlink="http://www.w3.org/1999/xlink" x="0px" y="0px"
	 viewBox="0 0 2000 2000" enable-background="new 0 0 2000 2000" xml:space="preserve">
<g>
	<g id="XMLID_5_">
		<g>
		</g>
		<g>
		</g>
	</g>
	<path fill="#2AACE3" d="M1565.1,1414.4c14.8,15.7,29.3,31.2,43.8,46.7c-0.2,0.3-0.3,0.6-0.5,1c-2.2-0.1-4.5-0.1-6.7-0.3
		c-19.7-1.7-39.5-3.3-59.2-5.1c-2.9-0.3-4.5,0.6-6.2,2.9c-16.8,24-33.8,47.9-50.7,71.9c-0.2,0.3-0.3,0.6-0.8,1.4
		c16.7,21.4,33.5,43.1,50.5,64.8c-1.1,1.5-2.1,2.9-3.1,4.2c-35.6,44.7-71.2,89.4-106.9,134c-12.5,15.6-24.9,31.3-37.4,46.9
		c-1.5,1.9-3.5,3.6-5.6,4.7c-33.8,18.4-67.6,36.6-101.5,54.8c-2.1,1.1-4.7,1.5-7.1,1.6c-34.2,0.1-68.3,0.1-102.5,0
		c-3.8,0-7,0.9-10.1,3.2c-38,27.3-77.3,52.6-117.8,76.3c-5.6,3.3-10.7,7.2-16.3,10.9c-0.7-0.4-1.5-0.6-2.1-1.1
		c-39.2-27.4-77.7-55.7-114.7-86c-2.7-2.2-5.4-3.3-9-3.2c-32.5,0.1-65,0-97.5,0.1c-3.6,0-6.8-0.7-10.1-2.1
		c-34-14.4-68-28.7-102.1-43c-3.2-1.3-5.5-3.3-7.5-6.2c-36.4-53.4-72.9-106.8-109.3-160.1c-14.8-21.7-29.7-43.4-44.6-65.1
		c-0.6-0.9-1.2-2-2-3.2c22.2-19.1,44.4-38.2,67-57.6c-1.2-1.9-2.3-3.7-3.5-5.5c-23.8-35.4-46.2-71.7-66.9-109
		c-21.9-39.4-42.1-79.8-60.4-121.1c-29.8-67.2-55.7-135.9-78.9-205.5c-22.6-68-40.4-137.4-54.4-207.7
		c-6.8-34.3-13.1-68.7-17.6-103.4c-4.4-33.5-8.2-67.1-11.4-100.8c-2.5-26.5-3.9-53.1-5.2-79.7c-1.1-22.4-1.4-44.9-2.1-67.4
		c-0.3-9.6-0.7-19.3-1.1-28.9c-0.1-2.3,0-4.6,0-7.4c1.5,0,2.8,0,4.1,0c1.3,0,3.2,0.6,3.9-0.1c3.3-3.3,7.1-1.7,10.8-1.6
		c10.5,0.2,21,0.5,31.5,0.5c20.3,0,40.7,0.1,61-0.2c26.2-0.3,52.2-2.1,78-7c1.6-0.3,3.2-0.8,5.2-1.2c-3.4-8-6.7-15.8-10.4-24.6
		c2.1,1.2,3.2,1.7,4.3,2.4c10.3,6.8,20.5,13.7,30.8,20.5c1.8,1.2,3.6,2.3,6,1.9c8.4-1.1,16.8-2.1,25.3-3.2c0.5-0.1,0.9-0.3,1.8-0.7
		c-0.6-1-1-2-1.6-2.9c-10.6-15.6-17.4-32.9-23.6-50.5c-7.7-21.8-15.6-43.6-23.4-65.4c-0.5-1.3-0.8-2.7-0.5-4.6
		c21.5,18.6,43,37.1,65.3,56.3c2.4-20.4,8.4-38.9,18.7-56.5c-16.1-4.3-31.7-8.5-48.2-12.9c2.3-1.7,3.8-2.9,5.4-3.9
		c14.8-10,29.4-20.1,44.4-29.8c9.2-6,19.3-10.5,29.8-13.9c2.6-0.8,4.3-2.2,5.5-4.6c1.7-3.3,3.7-6.5,5.6-9.7c0.3,0.1,0.6,0.2,1,0.3
		c0,3.2,0,6.5,0,10.2c22.3-5.8,44.4-8,67.5-4.3c-2-7.1-4-13.9-5.7-20.7c-1.7-6.9-3.3-13.9-4.6-21c-1.3-7-2.1-14.1-3.3-21.9
		c-24.7-2.3-49.4-4.5-75.1-6.9c1.4-1.2,1.8-1.7,2.3-2c20.3-12.4,40.5-25.1,61.1-37c5.8-3.4,8.2-6.4,7.1-13.4
		c-1.7-11.3-2-22.8-3-34.9c3.3,2.4,4.4,5.7,6.2,8.4c2,2.9,3.8,5.9,5.6,8.9c1.9,3,3.7,5.9,5.6,8.9c1.9,2.9,3.7,5.9,5.8,9.1
		c38.4-14,76.9-15.2,116.6-3.4c-1.8-12.6-1.9-24.8,1.1-37.2C777.5,90.8,744,79.9,710.5,69c0-0.3,0-0.5,0.1-0.8c1.6,0,3.3-0.1,4.9,0
		c27.9,2,55.8,4,83.7,6c5.8,0.4,11.6,0.9,17.4,1.3c0.8,0.1,2.1,0.3,2.4,0c2.3-3.2,4.6-0.9,7-0.3c2.9,0.7,5.8,1.5,8.7,1.7
		c23.7,1.8,47.5,3,71.2,5.4c36.7,3.7,71.9,13.4,105.7,28.1c28.8,12.6,55.7,28.5,80,48.6c1.6,1.3,3.2,2.1,5.4,2.1
		c26.1,0.4,51.2,5.3,75,16.5c0.4,0.2,0.9,0.2,1.4,0.3c0.2-0.2,0.3-0.2,0.4-0.4c0.1-0.1,0.2-0.3,0.1-0.4
		c-8.6-15.4-17.2-30.8-25.4-46.5c8.9,6.1,17.3,12.9,25.8,19.5c8.8,6.9,17.6,13.8,26.4,20.6c8.7,6.8,17.4,13.5,26,20.3
		c8.6,6.8,17,13.6,26.1,20.1c-17.9-36.1-35.8-72.3-53.8-108.4c0.2-0.2,0.4-0.4,0.6-0.5c0.9,0.8,1.8,1.5,2.6,2.4
		c36.9,41.8,73.8,83.7,110.7,125.6c15.8,18,28.9,37.8,39.8,59.1c0.6,1.3,1.4,2.5,2.6,4.6c0-8.9,0-16.7,0-25.5
		c1.2,1.7,1.8,2.5,2.4,3.4c16.2,28.5,32.6,57,48.4,85.7c11.6,21.1,19.9,43.6,26.1,66.8c0.4,1.6,0.6,3.3,1.3,4.8
		c0.5,0.9,1.7,1.5,3.3,2.9c2.7-18.3,5.2-35.5,7.8-52.7c0.3,0,0.7-0.1,1-0.1c2.7,11.7,4.3,23.6,7.1,36.2c2.3-4.2,1.7-8.3,3.2-11.9
		c1.8,10,1.3,20.1,2.6,30.8c103.9,18.9,208.7,30.5,314.8,35.7c17.5,164.8,8.8,327.8-26.1,489.4
		C1712,1121.4,1651.7,1273.1,1565.1,1414.4z M1288.4,949.2c-1.7,1.1-2.6,1.7-3.4,2.4c-11.4,8.4-22.7,16.9-34.1,25.3
		c-6.7,5-13.3,10-20.1,14.9c-1.3,0.9-2.6,2.8-5,0.8c0.8-1.1,1.5-2.2,2.4-3.1c6.6-6.6,13.1-13.3,20-19.6
		c23.4-21.3,46.7-42.7,70.5-63.5c18.3-16.1,31.9-35.2,40.5-57.9c10.6-27.8,17.5-56.6,20.7-86.2c1.9-17.2,3.9-34.4,5.6-51.6
		c1.9-18.7,3.6-37.5,5.5-56.2c1-10.4,2.2-20.9,3.4-31.3c0.2-1.7,0.7-3.3,1-5c0.5,0,0.9,0,1.4,0c0.3,2,0.8,4,0.8,6
		c0.2,17.2,0.4,34.3,0.6,51.5c0,1.6,0.2,3.2,0.3,5.9c28.2-39.9,47.5-81.5,45.8-130.6c-5.6,12.6-12.3,24.6-21.2,35.3
		c-8.8,10.6-17.8,21-29,29.5c7.1-25.2,14.8-50.1,17.7-76.2c2.9-26.3,2.6-52.5-1.5-78.6c-4.1-25.9-11.5-50.7-22.8-74.4
		c-0.6,1-0.8,2-1,2.9c-0.6,4.8-1.1,9.6-1.8,14.4c-2.7,18.6-8.6,36.3-16.4,53.2c-6.1,13.1-13,25.9-19.6,38.8
		c-0.3,0.6-0.5,1.2-0.8,1.8c-0.4-0.3-0.8-0.5-1.2-0.8c0.2-1.6,0.5-3.2,0.7-4.8c2.3-16.1,5.4-32.2,6.8-48.4
		c1.8-21.4,1.1-42.9-2.4-64.2c-4.4-26.3-12.4-51.4-24.2-75.3c-3.2-6.5-6.9-12.8-10.4-19.2c-0.7,0.7-0.7,1.2-0.6,1.6
		c2,10.1,4.3,20.2,6,30.3c1.2,7.2,1.6,14.6,2,21.9c0.4,7,0.9,14,0.2,20.9c-1.9,18.7-4.5,37.4-6.9,56c-0.1,0.8-0.6,1.6-1.2,3.3
		c-0.5-1.6-0.7-2.2-0.8-2.8c-2.1-13.5-4-27-6.2-40.5c-4.4-27.5-13.3-53.5-26.5-78.1c-11-20.5-25-38.9-41.3-55.6
		c-2.6-2.6-5.5-5-9-8.2c-1.3,10-4.7,17.8-11.4,25c-12.5-19.5-27.9-35.3-47-47.1c-19.1-11.8-39.9-18.9-63.2-21.1
		c1.6,1.3,2.6,2.1,3.6,2.9c29,22.5,50.5,50.6,63.8,84.8c4.1,10.5,6.9,21.5,10.3,32.3c1.3,4.2,2.6,8.5,4,12.7c-0.3,0.2-0.6,0.3-1,0.5
		c-1.1-1.6-2.3-3.1-3.4-4.7c-8.8-12.8-17.1-25.9-26.5-38.2c-13.9-18.1-28.4-35.7-43-53.3c-18.6-22.4-39.1-42.8-63-59.6
		c-29.3-20.6-61.3-35.5-95.5-45.8c-9.3-2.8-18.8-4.9-28.2-7.3c-0.2,0.3-0.3,0.6-0.5,0.9c42.2,26.2,66.8,65.1,81,111.7
		c-50.6-50.3-108.3-89.7-174.4-116.7c-0.4,0.9-0.6,1.3-0.7,1.8c-3.5,17.6,1.7,32.4,15.1,44c8.6,7.4,17.7,14.2,26.6,21.1
		c24.9,19.3,41.3,44.2,48.3,74.9c3.4,15.1,5.6,30.4,8.3,45.7c0.1,0.8,0,1.6,0,2.5c-1.4-1.2-2.1-2.4-2.8-3.7c-4.4-9-8.6-18-13-27
		c-17.8-36.1-44.3-64.2-78.2-85.5c-22.8-14.3-47.5-23.2-74.5-25.2c-26.3-2-51.4,3-75.2,14.1c-0.4,0.2-0.7,0.7-1.2,1.3
		c1.8,0.4,3.4,0.8,5,1.2c13.6,3.2,26.4,8,37.8,16.3c7.1,5.1,12.6,11.8,18.1,18.6c9.2,11.3,20.6,19.7,34,25.5
		c10.5,4.5,21.6,6.6,32.5,9.6c3.6,1,7.2,2,10.9,3c-0.7,0.9-1.3,1-1.8,1.1c-8.1,0.8-16.2,1.7-24.3,2.5c-33.3,3.3-62.5-6.2-87.4-28.6
		c-2.1-1.9-4.1-3.8-6.2-5.7c6.1,40.3,22.5,76,47.3,108.5c-3,2.2-5.8,4.3-8.8,6.5c-1.5-1.9-2.7-3.4-4-5c-17.9-23.1-41.5-35.6-70.6-37
		c-24.9-1.2-48.6,4.7-70.8,16.1c-1.1,0.6-2.1,1.3-3.4,2.1c0.9,0.4,1.3,0.7,1.8,0.8c28.6,9.9,52.8,26.6,73.7,48.2
		c14.5,15,23.5,32.6,24.9,53.7c1.3,19.5-3.6,37.6-12.8,54.7c-1.2,2.3-2.5,4.5-3.8,6.7c-0.8-0.4-1.2-0.5-1.3-0.7
		c-1-1.7-2-3.5-2.9-5.3c-10.3-21.1-24.9-38.5-44.4-51.6c-18.7-12.5-30.2-30.1-36-51.7c-0.3-1-0.8-1.9-1.5-3.9
		c-1.9,4.6-3.6,8.2-4.9,12c-4,11.3-6,23-3.9,34.9c4.2,22.7,17.4,39.2,36.7,51.1c5.6,3.4,10.9,7,15.4,11.8
		c12.6,13.7,19.9,30.2,24.4,48c3.4,13.4,3,27.1,3.8,40.7c0,0.6-0.3,1.3-0.7,2.7c-1-1.7-1.7-2.7-2.2-3.7c-3-5.6-5.9-11.2-8.9-16.7
		c-5.3-9.6-13.1-16.2-24.1-17.6c-6.3-0.8-13-0.4-19.4,0.2c-10.6,1.1-21.2,2.1-31.9,0.7c-12.5-1.6-24.3-5.6-35.6-11.1
		c-1.1-0.5-2.3-0.8-4.2-1.5c1.3,2.3,2.1,3.8,2.9,5.2c16.3,27.2,38.3,49,64.5,66.6c3.1,2.1,6.3,3.4,9.9,4.4
		c13.6,3.8,22.6,12.3,26.2,26.2c0.5,2.1,1.1,4.2,1.5,6.3c2.5,12.6,6.4,24.8,11.1,36.8c4,10.1,8.7,19.8,16.1,28
		c8.2,9.2,16.8,10.8,27.7,5.2c1.6-0.8,3.2-1.8,4.8-2.7c5.6-3.3,11.2-6.6,16.8-9.9c0.9-0.5,1.9-0.8,2.9-1.2
		c-6.1,9.2-12.7,17.8-19.5,26.1c-1.8,2.1-4.1,3.9-6.4,5.4c-8.5,5.5-17.8,6-27.4,4.3c-8-1.3-16-3-23.9-4.5c0.5,1,1.2,1.4,1.9,1.7
		c6.4,3.2,12.8,6.3,19.2,9.6c5.9,3,10.6,7.5,14.4,12.9c4.4,6.2,7.4,13,9.9,20.1c5.5,15.9,8.6,32.5,12,48.9
		c6,28.7,16.7,55.4,33.3,79.6c1.1,1.6,2.3,3.1,3.8,5.2c0.4-1.4,0.7-2.1,0.9-2.9c2.1-10.4,4.5-20.8,6.3-31.3c2-11,4-22,5-33.1
		c1.4-15.5-0.2-30.9-3.1-46.2c-0.3-1.4-1.2-2.9,0.8-3.8c0.4,0.2,0.8,0.2,0.9,0.5c0.4,0.7,0.8,1.4,1.1,2.2
		c6.3,16.3,10.6,33.1,10.3,50.6c-0.2,13.4-1.8,26.9-3.2,40.3c-1.8,16.6-4.1,33-6,49.6c-1.9,15.9,4.1,28,18.2,35.8
		c1.9,1.1,3.8,2.1,5.7,3.1c32.7,16.5,67.1,28.2,102.9,36c18.4,4,36.4,9.4,53.9,16.3c2,0.8,4,1.9,5.9,2.8c-0.1,0.4-0.2,0.8-0.3,1.3
		c-1.2,0-2.4,0.2-3.5,0c-10.6-1.9-21.3-4-31.9-5.8c-4.6-0.8-9.2-1.4-14.2-1c0.4,0.6,0.4,0.8,0.5,0.9c1.3,1.1,2.6,2.1,3.9,3.1
		c22.7,18.3,39.3,41.1,49.6,68.3c1.8,4.8,4.5,8,8.7,10.9c30.9,21.2,51.5,49.7,60.9,86.1c1.5,6,2.5,12.2,3.9,19
		c4.5-11.7,6.9-23,7-34.7c0-7.6-1-15.2-1.6-22.9c-0.1-1.7,0-3.4,0-5.8c15,3,29.3,5.8,44.2,8.7c-1.4-12-2.8-23.3-4.1-34.7
		c2,1,3,2.2,4,3.5c5,7.1,10,14.2,15,21.2c9.1,12.8,20.9,22.3,35.6,28c1.6,0.6,3.2,1.1,5,1.7c0-8.8,2.2-20.2,4.8-24.6
		c7.1,6.6,12.7,14.6,21.4,20.5c-1.3-4.4-2.6-8-3.5-11.7c-4.5-18.7,2.1-34.1,18.7-43.7c1.6-0.9,3.2-1.7,4.9-2.5
		c8.7-4.1,17.9-6.3,27.2-7.8c7.5-1.2,15-2.2,23.5-3.4c-4.4-2.4-8.1-4.3-11.8-6.3c1.2-1,2.1-1.2,3-1.3c7.6-0.6,15.3-1.2,22.9-1.8
		c18-1.5,35.2,1.5,51.2,10c2.8,1.5,5.5,3,8.9,4.9c-2.1-9.7-4.8-18.3-8.8-26.6c-2.6-5.6-5.3-11.1-7.8-16.7c-0.4-0.9-1-2.1-0.6-2.8
		c1-2.1,0-3.9-0.5-5.8c-6.7-24-5.9-47.7,3-71C1283.9,958.7,1286.1,954.4,1288.4,949.2z M1503.1,1401.1c-1.8-2-2.9-3.2-4-4.4
		c-12.7-12.6-25.3-25.1-38-37.6c-17.1-17-34.4-33.9-51.3-51.2c-4.3-4.3-8.5-7.2-14.7-6.1c-4.4,0.8-7.9-0.9-10.4-4.4
		c-2.3-3-5.2-3.5-8.7-3.5c-97,0-194-0.1-291-0.2c-74.7,0-149.3,0.1-224,0c-42.3,0-84.6-0.4-127-0.5c-45.5-0.1-91,0-136.5,0
		c-1.2,0-2.3,0.2-4.1,0.5c1.2,1,1.6,1.5,2.1,1.9c41.7,31.3,83.4,62.6,125,94c2.5,1.9,5,2.6,7.8,2.3c4.6-0.5,8.5,0.7,11.8,4
		c0.6,0.6,1.4,1,2,1.5c2.3,2.2,5,2.8,8.2,2.7c18.5-0.1,37-0.1,55.5,0c1.6,0,3.2,0.2,5.4,0.3c-1.3,1.6-2.1,2.6-3,3.5
		c-11.7,11.9-23.3,23.8-35,35.7c-20.8,21.1-41.7,42.2-62.6,63.2c-18.3,18.5-36.7,36.9-55,55.3c-9.7,9.8-19.4,19.7-29.1,29.5
		c-0.9,0.9-1.8,1.9-2.8,3.1c1.2,1.3,2.3,2.6,3.4,3.7c6.9,6.8,13.8,13.5,20.7,20.3c23,22.9,46.2,45.7,69,68.9
		c4.4,4.5,8.8,7.3,15.1,6.2c3.8-0.6,6.8,0.7,9.1,3.8c2.6,3.5,6,4.4,10.4,4.4c138.7-0.1,277.3-0.1,416-0.1c1.2,0,2.3-0.1,3.5,0
		c2.2,0.2,3.8-0.6,5.3-2.2c3.9-3.9,7.9-7.6,11.8-11.5c27.7-27.5,55.4-54.9,83-82.4c1.2-1.2,2.2-2.4,3.6-3.9
		c-1.2-1.6-2.3-3.1-3.4-4.4c-30.5-37.1-61-74.1-91.2-111.3c-4.1-5-8.2-7.8-14.6-6.7c-4.9,0.8-8.8-0.6-11.3-5.2
		c-1.2-2.1-3.1-2.6-5.5-2.6c-4.5,0.1-9,0-13.5,0c-55.8,0-111.7,0-167.5,0c-1.8,0-3.9-0.6-5.8,0.8c0.9,1.2,1.5,2.1,2.2,3.1
		c15.5,20.2,31.2,40.3,46.3,60.9c4.4,6.1,9.1,9.2,16.5,7.9c4.1-0.7,7.1,0.8,9.1,4.4c1.7,3.2,4.4,3.8,7.9,3.8c14.5-0.2,29,0,43.5-0.1
		c3.1,0,4.8,1,6.2,3.7c6.1,11.6,12.4,23.2,18.7,34.8c0.6,1.1,1,2.3,1.9,4.3c-2.7,0-4.8,0-6.9,0c-86.8,0-173.7-0.1-260.5,0.2
		c-7.8,0-14.2-1.5-20-6.8c-3.4-3.1-7.3-5.7-11.2-8.6c1.6-1.9,2.8-3.4,4.1-4.9c25.4-27.1,50.8-54.2,76.2-81.3
		c26.7-28.4,53.4-56.8,80-85.3c2-2.2,4.1-2.9,7-2.9c58.2,0.1,116.3,0.1,174.5,0c3.3,0,5.5,1.1,7.6,3.6
		c50.8,60.4,101.7,120.8,152.6,181.2c0.9,1.1,1.8,2.3,2.8,3.7c-11.6,11.2-23,22.2-34.3,33.2c-11.2,10.9-22.5,21.7-33.7,32.8
		c-11.1,11-22.7,21.6-34.4,33.8c10.4,0,19.4,0,29.3,0c-2.6,2.8-4.6,5-7.3,7.9c2.9,0,4.7,0,6.5,0c32.8,0,65.7,0,98.5,0
		c9.3,0,18.7-0.1,28,0c2.3,0,4-0.7,5.6-2.5c6.8-7.5,13.9-14.8,20.9-22.2c18.8-19.8,37.5-39.7,56.3-59.5c4-4.2,7.9-8.5,12.1-13
		c-54.3-66.4-108.5-132.6-163.4-199.7C1371.1,1401.1,1436.6,1401.1,1503.1,1401.1z M1605.4,1130.3c-0.4,0-0.8-0.1-1.2-0.1
		c-0.4-1.4-0.9-2.8-1.2-4.2c-0.7-3.1-1.2-6.2-2.2-9.2c-6.8-21.7-17.6-40.9-34.6-56.4c-19.5-17.8-41.9-28.1-68.5-28.6
		c-16.1-0.3-31.4,3.1-46,9.9c-1.7,0.8-3.5,1.5-5.3,2.3c-0.2-0.3-0.4-0.6-0.7-1c3.7-7.4,11.3-11.1,17.7-16.3
		c-7.8-2.3-15.2-3.9-22.2-6.5c-16-5.8-26.7-16.6-29.7-33.9c-2.2-12.6,0.4-24.1,8.9-33.6c9.6-10.7,21.9-16.2,36.5-15.6
		c14.8,0.6,26.2,7,32.5,21c3.8,8.5,1.2,19.2-6.3,24.8c-0.7,0.5-1.6,0.6-2.5,0.9c0.2-3.2,0.9-6.1,0.5-8.8
		c-0.9-6.6-5.5-10.6-12.6-11.6c-5.7-0.9-13,2.8-15.7,7.8c-2.6,4.9-1.6,11.7,2.5,16.3c4.2,4.6,9.6,7.3,15.6,8.4
		c11.1,2.1,22.2,2,33-1.8c10.4-3.7,14.4-15.2,8.5-24.4c-0.6-0.9-1.1-1.9-2.1-3.6c7.2,0.5,12,3.8,15.6,8.8c7.1,9.9,5.8,19.9-0.5,30
		c1.5,0.6,2.5,1.1,3.6,1.5c10.6,3.9,21.2,8.1,30.6,14.6c16.6,11.4,29,26.4,36.9,45c0.9,2,2,3.9,3.1,5.9c0.5,0.2,1.1,0.4,1.6,0.6
		c0.8-1.3,1.4-2.7,2.4-3.8c13.1-14.7,28.6-25.9,47.1-32.7c3.9-1.4,8-2.3,11.9-3.7c1.4-0.5,3.3-1.5,3.7-2.8c1.7-5,2.9-10.1,4.5-15.9
		c-4-0.2-7.2-0.3-10.5-0.5c-11.7-0.6-22.6-3.5-32.7-9.6c-3.2-1.9-4.8-4.1-4.4-8c0.7-7.3-1.2-14.2-4.5-20.7c-0.5-0.9-1.2-1.8-2.6-3.6
		c0,2.3-0.2,3.4,0,4.4c1.2,6.9,0.4,13.7-1.6,20.3c-2,6.5-5.2,12.2-11,16.2c-10.6,7.3-26.2,6.4-34.7-2c-7.6-7.6-9.1-16.5-6.4-26.7
		c2.9-10.9,13.4-15.4,21-15.3c0.8,0,1.6,0.6,2.1,0.7c-2.1,2.9-4.5,5.3-5.8,8.2c-2.3,5.4,0.4,11.1,5.9,13.6c4.5,2,10.1,0.1,12.9-4.6
		c3-4.9,3.3-10.1,1.4-15.4c-4.6-12.5-5.9-25.2-2.8-38.2c4.3-17.9,13.4-33.2,27.3-44.9c21.5-18.1,46.6-27.4,74.8-28.3
		c1.4,0,2.9-0.3,4.7-0.5c0.6-4.7,1.2-9,1.9-13.6c-1.5-0.2-2.3-0.5-3-0.5c-8.8,0.9-17.6,1.7-26.3,3c-18.6,2.8-35.7,9.3-51.1,20.3
		c-22.6,16.2-39.1,36.6-44.6,64.6c-0.1,0.7-0.7,1.2-1.3,2.3c-0.7-1.5-1.2-2.4-1.6-3.3c-6.4-16.3-5.6-32.6,0.5-48.8
		c5.2-14,14.1-25.6,23.8-36.7c5.7-6.4,10.4-13.4,14-21.2c2.7-5.9,3.7-12,2.7-18.5c-1.6-9.6-10.2-15.4-19-12.7
		c-6.5,2-11.5,8.5-11.2,15.5c0.2,3.9,1.4,7.8,2.2,11.7c0.2,1,0.4,2,0.7,3.3c-4.6-2.3-7.6-5.1-9.8-8.9c-13.8-24.1,3-47.7,22.5-51.1
		c6-1.1,12.4-1.5,18.3-0.5c12.5,2.2,22.6,8.6,28.8,20.2c8.3,15.3,8.2,30.9,1.5,46.7c-0.5,1.3-1,2.6-1.4,3.8c1.5-0.2,2.3-0.7,3-1.3
		c4.8-4.3,8.3-9.6,10.7-15.5c1.1-2.8,2.9-4.1,5.9-4.4c8.4-1.1,16.8-2.3,25.3-0.8c3.4,0.6,6.9,0.8,10.4,1.1c1.8,0.2,3.4-0.2,3.6-2.4
		c0.7-6.3,1.3-12.5,2.1-19.3c-2-0.2-3.6-0.4-5.2-0.5c-2.8-0.2-5.7-0.1-8.5-0.6c-14.1-2.2-26.2-8.6-36.2-18.7
		c-9.3-9.4-20.4-15.4-33-18.8c-10.4-2.8-20.7-3.1-31,0.4c-0.8,0.3-1.7,0.2-3.5,0.3c12.3-15.3,27.9-19.9,46.4-19
		c-0.4-2.3-0.7-4.2-1-6.1c-3.2-18-4.4-36,0.4-54c4.3-15.9,11.3-30.3,22.5-42.4c6.2-6.7,12.5-13.5,20.5-18.2c0.5-0.3,0.8-1,1.2-1.4
		c-6.5-14.9-4.7-30.1,4.9-35.9c-1.8,8.1,0.3,14.5,6.2,19.7c5.7,5.1,12.7,6.8,20.2,7.5c-1.1,1-2.2,1.6-3.4,2.1
		c-8.1,4-15.8,8.9-21.9,15.6c-19.4,21.3-23.8,45.7-13.4,72.3c6.7,17.1,20.1,26.4,38.2,29c0.7,0.1,1.5-0.2,2.7-0.4
		c0.4-9,0.9-17.8,1.3-26.6c0.1-3.3,0.2-4.2-4-5.7c-8.6-3-14-9.2-16.5-18c-3.1-11-1.6-21.5,3.2-31.6c3.5-7.6,9-13.6,15.6-18.6
		c2.4-1.8,3.5-3.8,3.3-6.8c-0.3-4.6-0.4-9.3-0.5-14c-0.5-15.1-0.9-30.3-1.5-45.4c-0.1-1.7-0.4-3.4-0.8-5.9c-1.9,1.6-3,2.4-4.1,3.4
		c-6.5,6.2-13.9,10.9-22.4,13.7c-11.4,3.8-23.2,4.6-35.1,3.4c-10.7-1-20.9-3.9-30.1-9.8c-2.9-1.8-4.2-3.8-3.9-7.3
		c0.6-7.5-1.2-14.6-4.6-21.2c-0.4-0.9-1.3-1.5-2-2.3c-0.6,1.5-0.5,2.6-0.3,3.7c0.9,7.6,0,15-2.6,22.1c-5.6,15.3-19.6,21.6-36.2,17
		c-7.3-2-11.8-7.2-14.6-14c-2.5-6-2.2-12-0.4-18.1c2.8-9.2,10.9-15.2,20.6-15.2c1,0,2,0.4,2.5,0.5c-2.2,3.3-4.8,6.2-6.1,9.6
		c-1.8,4.7,0.8,9.6,5.4,12.2c4.2,2.3,8.5,1.6,12.2-2.3c4.3-4.6,4.7-10.1,3.3-15.9c-0.9-3.5-2.3-7-3.3-10.5c-0.5-1.9-1.5-2.7-3.4-2.9
		c-5.3-0.5-10.6-1.2-15.9-1.9c-18.6-2.5-37.3-5-55.9-7.7c-13-1.9-26-4.1-39-6.2c-1.2-0.2-2.3-0.3-3.5-0.4c-1-0.1-2-0.2-4-0.3
		c6.7,4.5,10.7,9.6,13.6,15.8c4,8.8,1.6,19.5-6.1,25.2c-0.7,0.5-1.6,0.6-2.6,1c1.7-11.8-1.1-18-8-18.4c0.7,10.2,1.4,20.4,2,30.7
		c11,2.2,21.3,1.3,31.1-3.1c10-4.4,12.5-15.4,6.2-24.2c-0.5-0.6-0.9-1.3-2-3.1c3,0.7,4.9,0.8,6.6,1.5c12.6,5.1,18,20.5,11.5,33.2
		c-0.7,1.4-1.5,2.8-2.4,4.5c1.7,0.7,2.9,1.1,4.1,1.6c10.4,4,20.8,8.1,30.1,14.5c16,11.1,28,25.4,36.1,43.2c1.1,2.5,2.3,5,3.7,8.2
		c1.8-1.7,2.9-2.9,4.1-4c4.7-4.5,9.3-9.1,14.2-13.3c13.7-11.7,29.5-19.3,47-23.4c1.4-0.3,3-1.3,4.2-0.3
		c-7.9,6.7-15.8,13.1-23.3,19.9c-7.4,6.7-13.6,14.6-19.2,23c-5.7,8.5-10.5,17.5-13.7,27.1c-3.2,9.5-5.5,19.3-8.5,29.9
		c-0.8-2.9-1.4-5-1.9-7c-5.6-24.3-16.8-45.5-35.1-62.7c-16.3-15.3-35-26-57.6-28.7c-11.8-1.4-23.6-1.5-35.3,1.3
		c-1.4,0.3-3.5,0.9-3.8,1.8c-1.7,5.3-3.5,10.6-2.4,16.5c6-0.8,10.6-2.8,13-8.4c0.6-1.5,1.2-3.4,3.8-3.7c-0.3,2.7-0.6,5.1-0.8,7.7
		c1,0.2,1.6,0.4,2.3,0.4c1.7,0,3.3-0.1,5-0.2c16.6-1.7,32.2,1.8,46.7,9.8c20.2,11.1,34.1,28,43.7,48.6c8.7,18.8,11.1,38.5,9.3,59
		c-2.3,26.6-11.7,50.1-29.7,70c-2.5,2.8-5,5.6-7.3,8.2c3.6,4.7,7.3,8.9,10.2,13.4c5.5,8.5,8.6,17.8,6.9,28
		c-2.3,13.5-13.5,23.7-28.1,26.3c-3,0.5-6.1,0.7-9.1,1c-0.1-0.3-0.2-0.7-0.3-1c1.4-1,2.9-2,4.3-3c4-3,7.2-6.6,7.8-11.8
		c0.7-6.5-0.1-12.8-4.3-18c-3.1-3.9-6.7-7.4-10.3-10.8c-2.1-2-4.6-3.6-6.9-5.3c0.3-0.7,0.3-1.1,0.5-1.3c0.5-0.6,1.1-1.2,1.7-1.8
		c9.5-9.4,15.4-20.9,19-33.5c4-14,3.6-28.4,1.3-42.6c-3.1-19.2-9.6-37.1-21.8-52.5c-9.9-12.4-22.1-21.7-37.8-25.7
		c-4.3-1.1-8.7-2.3-13.8-1.1c-0.9,4.7-1.8,9.6-2.7,14.5c1.5,0.4,2.4,0.8,3.4,1c8.6,1.2,15.7,5.4,22,11
		c11.9,10.5,18.6,24.2,22.5,39.3c1.5,5.8,1.7,11.8,2.5,17.8c1.4,11.9,0.4,23.6-2.1,35.3c-2.3,11-7,21.1-12,31.1
		c-6.1,12.3-14.9,22.5-26,30.5c-6.8,4.9-14.3,8.7-22.6,10.1c-14.4,2.5-27.6,0.4-38.3-10.6c-0.9-0.9-2-1.6-3.3-2.7
		c-4.2,6.6-8.1,12.8-12.2,19.2c8.5,10.3,18.8,17.4,31.3,21.1c12.7,3.8,25.4,2.4,37.9-1.3c14.1-4.1,25.1-12.8,35.2-22.9
		c1-1,2.1-1.9,3.1-2.9c0.6,1.9,0.3,3.2,0,4.6c-1.3,6.4-3,12.7-3.8,19.1c-1.3,9.8-1.1,19.6,2.2,29.1c1.6,4.5,4,8.5,7.9,11.3
		c5.4,3.9,12.9,3.3,17.5-1.2c4.1-4.1,4.8-11.5,1-16.6c-1.5-2-4-3.4-6.1-4.9c-1.2-0.8-2.6-1.2-4.2-1.8c3.9-1.8,8-2.2,13.9-1.5
		c14.2,1.7,23.9,14.1,22,28.3c-1.1,8-4.9,14.4-11.4,19.2c-13,9.6-37.4,10.6-50.2-9c-7.1-10.8-8.9-22.8-7.8-35.4c0.1-1,0-2,0-3.9
		c-16,18.2-34.7,29.4-58.2,31.4c-23.7,2-44.1-5.9-61.8-21.7c-5.4,5.8-10.3,11.2-15.6,16.3c-2.5,2.4-3.1,4.6-2.1,7.9
		c2.9,9.4,4.8,19.1,4.4,29c-0.7,19.6-5.3,37.9-18.6,53.1c-0.4,0.4-0.5,1.1-0.9,2c1.7,0,3,0.1,4.3,0c17.2-1,33.9,0.8,50,7.4
		c19.4,7.9,34.2,21,45.1,38.7c2.4,3.9,2.1,3.8-0.9,7.7c-3.8,5-7.1,10.4-10.5,15.7c-0.5,0.8-0.5,2-0.9,3.2c0.8-0.2,1.2-0.2,1.4-0.4
		c1-0.9,1.9-1.9,2.8-2.9c7.2-8.1,15.7-14.4,25.4-19.2c24-11.8,48.6-13.8,73.5-3.4c23.6,9.9,39.5,27.9,50.5,50.4
		c11.9,24.2,12.8,49.7,8,75.7c-3.7,19.8-12.2,37.3-25.4,52.4c-2.3,2.6-2.8,4.7-1,7.9c3.7,7.1,6.9,14.4,10.3,21.7
		c0.6,1.3,1.3,2.5,2.3,4.4c1.5-3,2.6-5.4,4-7.6c1.6-2.5,1.4-4.8,0.3-7.5c-2.5-5.8-3.1-11.9-1.8-18.1c2.6-12.3,10-20.8,21.4-25.8
		c1.5-0.7,3.6-1.1,4.3-2.3c2-3.5,3.8-7.2,4.6-11.4c-4.1-0.9-7.4,2.2-11.4,1.3c2.7-4.8,6.5-8.6,13.3-12c3.1-1.6,4.8-3.7,6-6.9
		c5-13.2,10.3-26.3,15.3-39.6c11.8-31.3,22.4-63,31.8-95.2c0.5-1.5,0.8-3.1,1.2-4.7c-0.3-0.2-0.7-0.3-1-0.5
		C1631.3,1059.7,1611.5,1090.7,1605.4,1130.3z M602.7,1231.6c129.2,0,257.4,0,385.8,0c-1.3-30.1-6.3-59.1-17.9-86.8
		c-9.1-21.6-21.2-41.1-38.2-57.4c-27.7-26.6-60.5-36.9-98.5-30.7c-21.6,3.5-41.6,11.5-60.8,21.7c-26.9,14.3-51.2,32.3-74.2,52.2
		c-33.4,29-63.6,61.1-91.7,95.3C605.8,1227.5,604.5,1229.2,602.7,1231.6z M437.1,788.8c-2.3,9-2.7,18.1-2.3,27.2
		c0.4,9.2,2.2,18.2,5.7,26.8c3.4,8.4,7.6,16.4,11.4,24.6c-8.5-6-17.5-11.1-27.2-15c-9.7-3.8-19.7-6.6-30.6-6.9
		c0.8,4.4,1.5,8.2,2.2,11.9c0.3,1.8,1.5,2.4,3.1,2.8c3.5,0.9,7.1,1.8,10.6,2.9c20.7,6.1,37.7,17.5,49.6,35.7
		c12,18.4,17.7,38.5,15.5,60.7c-1.7,16.8-6.5,32.3-17.7,45.3c-0.5,0.5-0.6,1.3-1.2,2.5c43.8-3.1,78.6,10.9,101.4,49.6
		c-6.1,7.1-11.9,13.8-14.2,22.7c1.2-0.5,2-1.2,2.8-2c5.1-4.5,9.7-9.7,15.3-13.5c23.1-15.9,48.5-20.8,75.6-13.3
		c19.1,5.3,34.1,17,46.3,32.5c1.3,1.6,2.6,3.3,4,5.2c4.1-3,7.6-5.6,11.4-8.5c-1.5-2.2-2.6-3.8-3.8-5.4c-9.4-12.1-20.9-21.9-34-29.8
		c-18.3-10.9-38.1-14.6-59-12.8c-13.1,1.1-25.5,4.7-37.3,10.5c-0.9,0.4-2,0.5-3.8,0.9c4.4-8.2,11.6-12.2,18.7-17.2
		c-2.1-0.6-3.5-1-4.9-1.3c-5.8-1.5-11.7-2.7-17.3-4.7c-18.1-6.4-29.1-18.8-30.9-38.4c-1.2-13,3.3-24,12.8-32.7
		c10.1-9.2,22.2-13.4,35.8-12.2c9.4,0.8,17.8,4.4,24.1,11.8c5.6,6.6,9,14,6.7,23c-1.4,5.4-4.6,9.3-10,12.7c0.1-1.8,0.1-2.6,0.2-3.3
		c2.1-10-2.7-17.1-12.6-18c-5.6-0.5-10.5,1.6-14,6.1c-3.3,4.4-3.5,9.2-1.2,14.2c2.1,4.5,5.7,7.3,10,9.4c10,4.9,20.7,4.7,31.3,3.5
		c3.4-0.4,6.9-1.4,10.1-2.7c10.9-4.1,14.2-16,7.3-25.2c-0.4-0.6-0.6-1.3-1.1-2.3c3.8-0.2,6.7,1.1,9.4,2.8
		c10.3,6.5,13.8,20.3,8.1,31.4c-0.7,1.4-1.5,2.8-2.4,4.5c1.6,0.7,2.9,1.1,4,1.7c8.3,3.8,17.1,6.8,25,11.4
		c19.2,11.1,32.9,27.3,41.9,47.6c0.6,1.3,1.3,2.6,2,4c5.4-2.6,9.7-6,13.7-9.7c13.8-12.8,29.6-22,47.8-27c6.9-1.9,13.7-4.1,20.6-6.2
		c2.3-0.7,4.1-1.9,5.3-4.2c0.8-1.5,2.1-2.7,3.1-4c0.9,1.3,0.7,2.1,0.8,2.9c0.1,0.7,0.3,1.5,0.5,2.4c13.5-3.3,26.8-5.2,40.3-4.8
		c4.9,0.2,7.2-3.1,9.8-6.9c-9-5.6-17.8-10.9-27.2-15c-8.5,7.7-18,12.5-28.7,14.2c-8,1.3-16.2,1.6-24.4,1.5
		c-11.7-0.2-22.6-3.5-32.7-9.7c-2.8-1.7-4.3-3.6-4-7.2c0.6-7.6-1.5-14.9-4.8-21.7c-0.5-0.9-1.3-1.7-1.9-2.5
		c-0.6,1.4-0.6,2.5-0.5,3.6c0.7,10,0.1,19.7-5.2,28.5c-8.5,14.3-27.8,16.4-39.5,8.2c-8.7-6-11.2-14.9-9.8-25.1
		c1.5-11,9.3-18.4,20.4-19.1c1.4-0.1,2.8,0.2,5.1,0.3c-2.1,1.8-3.4,2.8-4.5,3.9c-3.6,3.7-4.5,9.1-2.3,13.4
		c3.7,7.1,13.2,7.8,17.8,1.2c3.8-5.3,3.8-11.1,1.6-17.1c-4.3-12-5.5-24.2-2.6-36.8c1.8-7.5,4.3-14.7,8.2-21.4c0.9-1.5,2.3-3.1,1-5
		c-2.7-3.9-5.5-7.7-8.7-12.3c-2.9,4.9-5.6,8.9-7.8,13.2c-2.2,4.3-4,8.8-5.6,13.3c-1.6,4.4-2.6,9-3.9,13.4
		c-4.4-7.5-6.3-15.4-6.6-23.6c-0.4-12.6,2.8-24.4,8.5-35.6c1.4-2.8,1.5-5.2,0-8c-2.2-4.3-4.1-8.7-6-13.2c-1.4-3.2-2.6-6.4-4.4-10.6
		c-3.1,9-7.1,16.1-14.7,20.5c-8.2,4.8-17.6,7.2-23.6,5.5c0.7-0.5,1.2-0.8,1.7-1.2c11.4-6.9,14.3-17.9,7.8-29.5
		c-2.8-5-6.6-9.2-11.2-12.6c-2.5-1.9-5-3.7-7.9-5.9c2.3-2.5,4.6-4.6,6.6-7c12.6-15.7,18.5-33.6,18.2-53.7c-0.1-6.4-3-11.2-8.6-14.2
		c-5.4-2.9-11-5.5-16.5-8.2c-0.7-0.3-1.5-0.4-2.2-0.5c-0.3,0.5-0.6,0.8-0.6,1.1c-0.1,0.8-0.1,1.7,0,2.5c1.8,18.2,1.2,36.2-5.5,53.6
		c-6.9,17.8-15.5,34.3-31,46.3c-11.3,8.8-23.7,14-38.3,13.3c-8.3-0.4-15.7-3.1-22.1-8.2c-16.6-13.2-18.2-36-12.4-49.9
		c2.8-6.6,7.1-11.5,13.5-14.8c12.8-6.6,27.8-1.7,33.5,10.9c0.4,1,0.5,2.1,0.9,3.8c-2.1-1.2-3.5-2-5-2.7c-8.6-4-17.5,1.9-17.3,11.4
		c0.2,6.3,3.8,11.5,9.9,13.7c7.8,2.7,14.8,1.1,20.7-4.7c3.7-3.7,6.5-8,8.2-13c5.4-16.1,3.2-31-7.6-44.2
		c-11-13.5-24.9-20.7-42.9-18.1c-15.3,2.2-26.3,10.9-33.7,24c-6.3,11.1-8.9,23.3-9.1,36c-0.3,26.2,9.2,48.5,27.6,66.9
		c7.4,7.4,16.3,12.9,26.5,15.3c22.2,5.2,42.3,0.1,60.2-13.6c4.5-3.4,8.5-7.5,12.7-11.3c0.9-0.8,1.9-1.4,3.7-2.8
		c-0.5,2.4-0.8,3.7-1,5c-1.1,4.9-2.4,9.7-3.3,14.6c-1.8,10.3-2.1,20.5,0.7,30.7c1.4,5.2,3.6,10.1,7.9,13.6c4.6,3.7,9.7,4.3,15,1.8
		c4.9-2.3,7.1-6.5,6.9-11.8c-0.2-5.9-3.5-9.9-8.9-12.2c-1.3-0.6-2.6-1.1-3.9-1.6c10.3-2.9,19.9-2.3,28.2,4.9
		c3.8,3.3,6.4,7.3,7.3,12.3c1.8,10.4-0.7,19.5-8.6,26.8c-12.4,11.5-38.4,12.8-51.4-5.4c-7.2-10.1-9.8-21.3-9.1-33.5
		c0.1-2.1,0.3-4.2,0.5-7.3c-1.7,1.6-2.5,2.4-3.3,3.1c-3.9,3.6-7.6,7.5-11.8,10.8c-30.2,24.1-75.3,25.1-106.6-5.8
		c-20.6-20.4-32-45.9-36.2-74.2c-2.8-18.5-2.3-37.3,0.5-55.8c2.4-15.9,7.3-31.1,15.7-45c1.4-2.4,2.7-4.8,4.1-7.1
		c-1.1,0-1.7,0.4-2.3,0.9c-14.2,12.1-22.6,27.4-25.4,45.7c-0.9,6.2-3.9,10.4-8.6,13.9c-10.7,7.9-23,11.9-36,13.9
		c-4.6,0.7-9.2,1.1-14.4,1.6c1,6.3,2.1,12.2,2.8,18.1c0.5,3.8,2.2,5.9,6.1,6.6c7.8,1.4,14.7,5.2,21.5,9.1c1.4,0.8,2.9,1.5,4.5,2.4
		c1.8-7.4,3-14.4,5.3-21.1C427.3,799.8,431.1,793.6,437.1,788.8z M1525.6,1371.5c1.2-1.8,2.1-3.2,2.9-4.6
		c5.9-10.2,11.6-20.6,17.7-30.7c2.4-4,2.8-7.5,1.3-12.1c-11.1-32.7-23.9-64.6-39.8-95.3c-14.7-28.3-31.6-55.2-52.5-79.4
		c-13.3-15.4-27.9-29.5-42.8-43.4c-30.8-28.5-65.1-51.7-103.6-68.8c-2.5-1.1-5-2.1-8.5-3.5c1.5,2.7,2.6,4.3,3.5,6.1
		c0.9,1.8,1.9,3.6,2.2,5.5c0.6,3.5,2.8,4.9,5.7,6.1c32.8,14.4,60.3,35.8,83,63.3c25.7,31.2,44.6,66.2,57.3,104.5
		c4.1,12.5,7.3,25.3,11.5,37.7c7.3,21.8,13.9,43.7,19.6,66c0.7,2.8,1.9,5.2,3.9,7.3c7.7,8.1,15.3,16.3,22.9,24.4
		C1515.1,1360.2,1520.2,1365.7,1525.6,1371.5z M389.6,604.3c-1.2,0.6-2.3,1.2-3.5,1.7c-8.3,4.1-15.7,9.4-22.2,16
		c-2.2,2.2-3,4.5-2.6,7.6c2,15.3,3.8,30.7,5.8,46c1.6,12.7,3.5,25.4,5.1,38.1c0.4,3.1,1.6,5.5,4.8,6.1c5.7,1.1,11.4,3,17.1,3.1
		c11.9,0.2,21.8-5,30.8-12.5c16-13.6,20.1-37.8,14.7-52.3c-4.9-13.2-15.1-19.8-29-18.4c-8.8,0.9-16.9,7.4-19.2,15.4
		c-1.9,6.6,0.6,14.1,6,17.7c5.2,3.5,12,2.9,17.6-1.5c0.8-0.7,1.8-1.2,3.5-2.4c-1.5,9.8-5.6,16.8-13.9,20.3c-8,3.3-16.1,2.6-23-3.2
		c-8.4-7-11-16.5-10.5-26.9c0.7-16.5,8.7-29.2,21.9-38.5c13.4-9.4,28.6-13.2,44.9-12.6c29.1,1.2,49.3,15.8,61,42
		c9.4,21.1,7.6,42.5-0.7,63.7c-0.4,0.9-0.5,1.9-0.9,3.5c1.1-0.7,1.6-0.9,1.9-1.3c15.8-18.4,23.7-39.5,22.2-63.9
		c-1.4-23.6-11.6-42.4-30.2-56.8c-15.8-12.2-34.1-16.8-53.8-17.3c-11.6-0.3-22.9,1.7-34,4.9c-1.4,0.4-2.8,1.3-5,0.6
		c3.4-2.8,6.4-5.2,9.3-7.6c13.5-11.6,23-25.8,26.6-43.5c0.5-2.3,0.6-4.8,0.9-7.6c-11.2,0.9-21.6,1.7-32.3,2.5
		c-2.8,10.8-8.2,19.8-16.5,26.9c-10,8.6-20.8,13.9-28.5,13.6c-0.1-1.9-0.3-3.8-0.3-5.8c0-10,0-20-0.1-30c0-1.6-0.5-3.1-2.5-2.9
		c-1.8,0.2-1.9,1.6-1.8,3c0.2,3,0.5,6,0.7,8.9c1,14.3,2.1,28.5,3.1,42.8c1-3.1,2-5.9,6.1-7.6c-1.8,8.3,0.3,14.8,6.2,19.9
		C375.3,601.2,382,603.2,389.6,604.3z M497.5,1159.7c1.2-1,1.9-1.5,2.4-2.1c5.9-6.9,10.7-14.5,14.4-22.7c4.4-9.7,6.4-19.8,7.1-30.4
		c1-14.7-1.4-28.7-8.6-41.5c-16.1-28.7-41.5-41.5-73.8-42.1c-1.2,0-2.5,0.4-3.9,0.6c0.3,1.4,0.4,2.4,0.6,3.3c2,7.2,4.2,14.4,6,21.6
		c0.8,3.3,2.5,4.4,5.8,5c23.2,3.7,39.3,17.1,49.9,37.5c8.3,16,9.4,33.2,5.8,50.6C501.9,1146,499.6,1152.3,497.5,1159.7z M456.7,564
		c0.1,0.4,0.1,0.9,0.2,1.3c20.1-1.6,39.6,0.4,58,9.1c18.7,8.9,32.8,22.4,42.6,40.4c-3,3.8-6.1,7.2-8.6,10.9c-2.5,3.7-5.4,7.4-6,12.8
		c5.1-4.8,9.3-9.5,14.3-13.3c5.1-3.9,10.7-7.4,16.5-10.3c5.5-2.8,11.4-4.8,17.5-7.3c-4.6-3-8.8-5.3-12.5-8.4c-3.1-2.6-5.8-2.7-9-0.9
		c-1.6,0.9-3.3,1.6-5,2.3c-1,0.4-2,0.5-3,0.8c-0.2-0.3-0.4-0.6-0.7-0.9c2.5-3,4.9-6,7.7-9.3c-7.3-5.7-12.7-12.9-20.7-17.4
		c-10.8-6-18.1-15-20.4-27.6c-0.4-2.1-1.1-4.3-2.1-6.1c-3.6-6.4-7.5-12.6-11.1-19c-1.3-2.3-3-3-5.3-2.6c-2.3,0.4-4.6,0.8-6.8,1.2
		c3.8,1.3,3.9,1.3,3.9,5c-0.1,4-0.1,8-0.8,11.9c-0.6,3.2,0.1,5.3,2.7,7.3c5.2,4.2,9.8,9.1,12.7,15.2c0.5,0.9,0.6,2,1,3.4
		c-1-0.3-1.6-0.3-2-0.6c-10.8-6.9-22.5-10.6-35.3-11.4c-0.9-0.1-1.7-0.7-2.9-1.2c5-9.2,8.9-18.4,9.6-29c-5.1,0.4-9.5,0.6-14,1.1
		c-0.9,0.1-1.9,1.1-2.5,2c-0.6,1-0.6,2.2-0.9,3.4c-2.6,12.9-7.1,25-15.9,35.1C457.4,562.5,457.1,563.3,456.7,564z M1447,1110.1
		c3.8,2.5,6.8,4.3,9.5,6.5c2.5,2,5.2,2.5,8.4,2.3c12.9-0.8,23.8,4,33,12.8c10.8,10.3,17.1,23.2,20.9,37.5c0.9,3.3,2.4,6.1,4.3,8.9
		c7.3,10.1,14.4,20.4,21.5,30.6c0.8,1.2,1.7,2.3,3,4.1c0.4-1.9,0.7-3,0.8-4.1c0.7-10.7-0.2-21.3-2.5-31.7
		c-4.6-21.3-13.2-40.5-29.4-55.6c-11.3-10.6-24.5-17.1-40.2-18.1C1466.3,1102.6,1456.9,1104.8,1447,1110.1z M579,1193
		c-0.2-0.6-0.2-0.9-0.4-1.2c-0.5-0.6-1.1-1.3-1.7-1.8c-6.9-5.5-14.5-9.7-23.2-10.9c-23.1-3-42.4,11.3-50,32.2
		c-0.4,1.1-0.3,2.7,0.2,3.8c2,4.8,4.3,9.4,6.3,14.1c0.8,1.8,2,2.5,3.9,2.5c3.7,0,7.3-0.2,11,0.1c3.1,0.2,5.2-1,7.3-3.2
		c6.1-6.6,13.8-9.7,22.9-8.9c2.4,0.2,3.7-0.6,5-2.3c5.6-7.3,11.3-14.4,16.9-21.6C577.8,1194.8,578.4,1193.8,579,1193z M1395.3,761.9
		c20.5-22.6,45.9-92.6,41.9-114.8c-3.4,4.2-6.4,8.6-10,12.4c-8.5,9.1-17.3,18-25.9,27c-1.8,1.8-3,3.6-3.2,6.5
		c-0.8,21.4-1.9,42.9-2.8,64.3C1395.3,758.6,1395.3,760,1395.3,761.9z M663.6,1447.3c-1.9-0.2-2.6-0.4-3.2-0.3
		c-3.7,0.6-6.1-1.1-8.6-3.8c-14.7-15.4-29.6-30.6-44.4-45.9c-7.9-8.1-15.6-16.4-23.5-24.4c-3.7-3.7-7.6-7.1-12-11.2
		c20.6,37.1,42.3,72.7,66,107.8C646.4,1462.1,654.5,1455.1,663.6,1447.3z M1310.4,1021.5c1.9,7.4,1.9,7.3,8,10.3
		c6.7,3.3,13.4,6.7,20,10.2c21.9,11.5,42.3,25.2,61.2,41.1c1.4,1.2,3.1,2.1,4.7,3.2c0.4-0.9,0.6-1.2,0.6-1.5c0-0.7-0.1-1.3-0.3-2
		c-4.8-22-17.1-38.6-36.3-50.3c-16.9-10.2-35.5-12.6-54.8-11.8C1312.6,1020.9,1311.7,1021.2,1310.4,1021.5z M1459.8,795.2
		c-2.3-1.4-3.5-2.3-4.8-2.9c-6.6-3.3-13.4-0.7-16.7,5.8c-3.7,7.3,1.4,15.3,6.9,18.1c7.7,4,18.1,2,23.7-4.7
		c8.2-9.8,10.9-21.1,9.5-33.6c-1.2-10.7-6.7-19.4-13.6-27.2c-2-2.2-4.3-4.5-7.7-5.3c-3.5,11.3-7,22.3-10.5,33.3
		C1452.8,782.5,1457.9,786.8,1459.8,795.2z M642.3,493c0-0.5,0.2-0.8,0-1c-5.3-9.2-11.9-17.2-21.3-22.7c-6.8-3.9-13.5-7.8-20.4-11.6
		c-9.2-5-14.8-12.6-17.1-22.8c-0.7-2.9-1.5-5.7-2.2-8.1c-4.8-0.9-9.1-1.6-13.3-2.6c-4.1-1-8-2.5-12.6-4c3.2,12.2,7.8,23,14.4,32.9
		c6.6,10,15.1,17.7,26.4,22c4.5,1.7,9.1,3.1,13.8,4.2c11.1,2.7,21.7,6.2,30.8,13.3C641.3,493,641.8,493,642.3,493z M1088.7,1762
		c0.4-0.1,0.7-0.3,1.1-0.4c1,0.8,2,1.6,2.9,2.5c3.7,3.8,7.4,7.7,11.2,11.4c1.3,1.2,2.8,2.6,4.4,2.8c3,0.5,6.2,0.1,9.2,0.1
		c1.3-4.1,0.8-7-2.2-9.5c-2-1.7-3.8-3.7-5.7-5.6c-1.1-1.1-2.1-2.3-4-4.5c4.9,0,8.4,0,11.9,0c1.1-6.6,0.8-26.6-0.3-30.1
		c-7.3-1-35.7-0.6-39.1,0.5c0,16.2,0,32.5,0,48.9c3.6,0,6.8,0,10.5,0C1088.7,1772.5,1088.7,1767.3,1088.7,1762z M1070.2,1777.8
		c1-5.3,0.8-45.4-0.3-49.1c-13,0-26.1,0-39.4,0c0,16.6,0,32.8,0,49C1034.5,1778.8,1065.7,1778.9,1070.2,1777.8z M1696.9,900.7
		c-1.3-0.3-1.8-0.6-2.3-0.5c-14.9,2.2-27.1,8.8-33.2,23.1c-4.8,11.3-3.8,22.6,4.3,32.4c4.5,5.5,10.7,7.3,18.1,7.7
		C1688.2,942.2,1692.6,921.6,1696.9,900.7z M639,1129.2c-8.8-12-23.5-21.6-37.9-24.7c-16.4-3.6-31.5-0.6-44.7,10
		c-8.2,6.5-14.3,14.8-18.9,24.2c-0.5,1-0.7,2-1.1,3c1.6-0.5,2.6-1.2,3.4-2.2c7.7-9.5,17.5-15.9,29.2-19.1
		c10.6-2.9,21.1-2.7,31.2,2.2c8.4,4.1,15.2,10.1,20.7,17.7c0.8,1.2,1.8,2.2,3,3.5C629,1138.8,633.9,1134.1,639,1129.2z
		 M1184.8,1739.7c9.9-0.9,19.4,0.4,28.7-0.8c0-3.7,0-6.8,0-9.8c-4.8-1.1-36-1-40,0.1c0,9.7,0,19.4,0,29.8c9.6,0,19,0,28.7,0
		c0,3.1,0,5.5,0,8.4c-9.7,0.1-19.1,0.2-28.7,0.3c0,3.8,0,6.9,0,9.9c4.2,1.1,35.5,1.2,40,0c0-9.7,0-19.4,0-29.8c-9.6,0-19,0-28.7,0
		C1184.8,1744.9,1184.8,1742.5,1184.8,1739.7z M935.3,1778.5c13.4-0.1,26.5,0.2,39.6-0.2c0-10.4,0-20.1,0-30.6c-9.7,0-19.1,0-28.5,0
		c0-3.1,0-5.5,0-8.2c9.7-0.8,19.2,0.3,28.4-0.7c0.7-6,0.7-6.7-0.5-10.3c-12.9,0-25.8,0-38.9,0c0,10.2,0,20.1,0,30.2
		c9.7,0.4,19.1-0.2,28.6,0.3c0,3,0,5.3,0,8.3c-9.6,0.1-19,0.2-28.6,0.3C935.3,1771.4,935.3,1774.5,935.3,1778.5z M873.4,1767.8
		c-9.8-0.5-19.1,0.2-28.3-0.4c0-3.1,0-5.5,0-8.4c6.3,0,12.2,0,18.3,0c0-3.9,0-7.3,0-11.1c-6.3,0-12.3,0-18.6,0c0-2.9,0-5.5,0-8.7
		c9.7,0,19.1,0,28.5,0c0-4,0-7.2,0-10.5c-13.5,0-26.5,0-39.8,0c0,16.6,0,32.8,0,49c4.4,1.1,35.8,1.1,40-0.1
		C873.4,1774.6,873.4,1771.6,873.4,1767.8z M982.9,1778.1c3.5,0,6.7,0,10.6,0c0-6.5,0-12.6,0-19.1c10.1,0,19.5,0,29.1,0
		c0-10.4,0-20.2,0-30.6c-13.4,0-26.4-0.1-39.7,0.1C982.9,1745.4,982.9,1761.6,982.9,1778.1z M407,906.8
		c0.7,10.9,18.1,82.1,21.1,86.2c0.7-1.4,1.5-2.7,2.1-4.1c5-12.3,7-25,5.6-38.2c-1.9-18.1-10.2-32.5-25.6-42.5
		C409.3,907.8,408.2,907.4,407,906.8z M1426.9,744.4c-10.6,9.8-20.8,19.3-30.9,28.9c-1.3,1.2-2.3,3.4-2.4,5.2
		c-1.7,17.1-5.4,33.8-10.1,50.3c-1.2,4.2-2,8.4-3,12.6C1401.4,811.8,1416.6,779.6,1426.9,744.4z M630.2,679.3
		c0.1-0.5,0.3-0.9,0.4-1.4c-14-12.7-30.2-18.6-49.5-16.5c-18.6,2.1-35.4,17.8-41,31.3c2.9,0.6,4.7-1.1,6.6-2.7
		c6.5-5.7,14-9.5,22.3-11.9c10.1-2.9,20.3-3,29.7,1.7c5.1,2.6,9.6,2.4,14.8,1.5c4.4-0.7,8.9-1.1,13.3-1.6
		C628,679.6,629.1,679.5,630.2,679.3z M671.5,412.5c0-0.9,0.1-1.6,0-2.2c-1.7-11.4-6.7-21.2-14.4-29.6c-9.1-10-19.3-18.8-30.4-26.5
		c-1.4-1-2.9-1.8-4.9-3.1c0,17.1,4.6,30.6,19.3,39.4c10.1,6.1,19.8,12.9,28.6,20.9C670.1,411.9,670.7,412.1,671.5,412.5z
		 M1166,1739.4c0-2.6,0-4.3,0-5.9c0-1.6-0.2-3.2-0.3-4.8c-13.4,0-26.3,0-39.4,0c-0.9,3.6-1,6.9,0.2,10.8c4.5,0,8.9,0,14.1,0
		c0,13.2,0,25.9,0,38.6c3.9,0,7.1,0,10.6,0c0.6-13-0.3-25.6,0.5-38.7C1156.5,1739.4,1160.9,1739.4,1166,1739.4z M999.1,1844.1
		c-0.1,0.4-0.3,0.7-0.4,1.1c10,7.4,19.9,15.1,30.2,21.9c4.4-2.8,8.2-5.2,12.1-7.6c-0.5-0.7-0.6-1.1-0.9-1.2
		c-7.3-3.6-14.3-7.7-20.6-13c-0.8-0.7-2.1-1.1-3.1-1.1C1010.6,1844,1004.9,1844.1,999.1,1844.1z M1320.1,955.8
		c-6.6,10-12.9,34.6-11.1,42.9C1316.6,990,1322.3,968.6,1320.1,955.8z M913.8,1749.2c-6.6,0-12.6,0-18.9,0c0,3.1,0,6,0,9.2
		c6.5,0.2,12.7,0.4,18.9-0.1C913.8,1755,913.8,1752.4,913.8,1749.2z M1466.1,1463c3.2-4.1,5.8-7.6,8.2-11.9
		c-4.9-0.4-8.8-0.8-13.5-1.2C1462.7,1454.6,1464.2,1458.4,1466.1,1463z M668.6,800.6c3.7,4.3,6.4,7.5,9.2,10.8
		c0.1,0.1,0.3,0.2,0.5,0.1c0.1,0,0.2-0.2,0.5-0.5c-1.1-4.8-2.2-9.7-3.4-15c-1.3,0.9-1.9,1.4-2.5,1.8
		C671.4,798.7,670,799.6,668.6,800.6z M1721.2,650.3c-4.5,6.8-4.4,13.8,0,17.5C1721.2,662,1721.2,656.6,1721.2,650.3z
		 M1033.7,1844.2c-0.1,0.4-0.2,0.8-0.4,1.2c4.5,2.2,9,4.5,13.4,6.7c0.2-0.3,0.5-0.5,0.7-0.8c-1.3-2.4-2.5-4.8-3.7-7.1
		C1040.1,1844.2,1036.9,1844.2,1033.7,1844.2z M1064.2,1845.1c-0.1-0.3-0.2-0.7-0.3-1c-1.6,0-3.2,0-4.7,0c-1.7,0-3.5,0-6.2,0
		c1.7,2.4,2.7,3.9,3.9,5.6C1059.7,1847.9,1062,1846.5,1064.2,1845.1z M358.5,596.9c0.1,0,0.1,0,0.2,0c0-0.6,0-1.2,0-1.8
		c-0.1,0-0.1,0-0.2,0C358.5,595.7,358.5,596.3,358.5,596.9z"/>
	<path fill="none" d="M1288.4,949.2c-2.3,5.2-4.4,9.5-6.1,14c-8.9,23.3-9.7,47-3,71c0.5,1.9,1.5,3.6,0.5,5.8
		c-0.3,0.7,0.2,1.9,0.6,2.8c2.6,5.6,5.2,11.2,7.8,16.7c3.9,8.3,6.7,16.9,8.8,26.6c-3.4-1.9-6.1-3.4-8.9-4.9
		c-16.1-8.5-33.2-11.5-51.2-10c-7.6,0.6-15.3,1.2-22.9,1.8c-0.9,0.1-1.8,0.2-3,1.3c3.7,2,7.3,3.9,11.8,6.3c-8.5,1.2-16,2.1-23.5,3.4
		c-9.4,1.5-18.6,3.8-27.2,7.8c-1.7,0.8-3.3,1.6-4.9,2.5c-16.6,9.7-23.2,25-18.7,43.7c0.9,3.7,2.2,7.3,3.5,11.7
		c-8.7-5.9-14.3-13.9-21.4-20.5c-2.6,4.4-4.8,15.8-4.8,24.6c-1.8-0.6-3.4-1-5-1.7c-14.7-5.7-26.5-15.2-35.6-28c-5-7-10-14.1-15-21.2
		c-0.9-1.3-2-2.5-4-3.5c1.3,11.4,2.7,22.7,4.1,34.7c-14.9-2.9-29.2-5.7-44.2-8.7c0,2.3-0.1,4.1,0,5.8c0.5,7.6,1.6,15.2,1.6,22.9
		c-0.1,11.7-2.5,23.1-7,34.7c-1.4-6.8-2.3-13-3.9-19c-9.4-36.4-30-64.9-60.9-86.1c-4.2-2.9-6.9-6.1-8.7-10.9
		c-10.3-27.2-26.9-50-49.6-68.3c-1.3-1-2.6-2.1-3.9-3.1c-0.1-0.1-0.2-0.3-0.5-0.9c5-0.4,9.6,0.2,14.2,1c10.7,1.8,21.3,3.9,31.9,5.8
		c1.1,0.2,2.3,0,3.5,0c0.1-0.4,0.2-0.8,0.3-1.3c-2-1-3.9-2-5.9-2.8c-17.5-6.9-35.5-12.3-53.9-16.3c-35.8-7.8-70.1-19.5-102.9-36
		c-1.9-1-3.8-2-5.7-3.1c-14.1-7.9-20-19.9-18.2-35.8c1.9-16.5,4.3-33,6-49.6c1.4-13.4,3-26.8,3.2-40.3c0.3-17.5-3.9-34.3-10.3-50.6
		c-0.3-0.8-0.7-1.5-1.1-2.2c-0.1-0.2-0.6-0.3-0.9-0.5c-2,0.9-1.1,2.5-0.8,3.8c2.8,15.3,4.5,30.7,3.1,46.2c-1,11.1-3.1,22.1-5,33.1
		c-1.9,10.5-4.2,20.9-6.3,31.3c-0.2,0.8-0.4,1.5-0.9,2.9c-1.5-2-2.7-3.6-3.8-5.2c-16.6-24.3-27.3-50.9-33.3-79.6
		c-3.4-16.4-6.5-33-12-48.9c-2.4-7.1-5.5-13.9-9.9-20.1c-3.8-5.4-8.5-9.8-14.4-12.9c-6.4-3.3-12.8-6.4-19.2-9.6
		c-0.7-0.4-1.4-0.7-1.9-1.7c8,1.5,15.9,3.2,23.9,4.5c9.6,1.6,19,1.2,27.4-4.3c2.3-1.5,4.7-3.3,6.4-5.4c6.8-8.4,13.5-16.9,19.5-26.1
		c-1,0.4-2,0.7-2.9,1.2c-5.6,3.3-11.2,6.6-16.8,9.9c-1.6,0.9-3.1,1.9-4.8,2.7c-10.9,5.6-19.5,3.9-27.7-5.2
		c-7.3-8.2-12.1-17.9-16.1-28c-4.7-11.9-8.6-24.1-11.1-36.8c-0.4-2.1-1-4.2-1.5-6.3c-3.6-13.9-12.6-22.4-26.2-26.2
		c-3.6-1-6.8-2.4-9.9-4.4c-26.2-17.6-48.2-39.3-64.5-66.6c-0.9-1.4-1.6-2.9-2.9-5.2c1.9,0.7,3.1,1,4.2,1.5
		c11.3,5.5,23.1,9.4,35.6,11.1c10.7,1.4,21.2,0.4,31.9-0.7c6.4-0.7,13-1.1,19.4-0.2c11,1.5,18.8,8,24.1,17.6c3,5.5,6,11.2,8.9,16.7
		c0.5,1,1.2,2,2.2,3.7c0.4-1.4,0.7-2,0.7-2.7c-0.8-13.6-0.4-27.3-3.8-40.7c-4.5-17.9-11.8-34.3-24.4-48c-4.4-4.8-9.8-8.4-15.4-11.8
		c-19.3-11.9-32.6-28.3-36.7-51.1c-2.2-11.9-0.2-23.6,3.9-34.9c1.3-3.7,3-7.3,4.9-12c0.8,2,1.3,2.9,1.5,3.9
		c5.7,21.6,17.3,39.2,36,51.7c19.6,13.1,34.2,30.5,44.4,51.6c0.9,1.8,1.9,3.5,2.9,5.3c0.1,0.2,0.6,0.3,1.3,0.7
		c1.2-2.2,2.5-4.4,3.8-6.7c9.2-17.1,14.1-35.2,12.8-54.7c-1.4-21.1-10.4-38.6-24.9-53.7c-20.9-21.7-45.1-38.4-73.7-48.2
		c-0.5-0.2-0.9-0.4-1.8-0.8c1.3-0.8,2.3-1.6,3.4-2.1c22.2-11.4,45.8-17.3,70.8-16.1c29.1,1.4,52.7,13.9,70.6,37c1.2,1.6,2.5,3.1,4,5
		c3-2.2,5.8-4.3,8.8-6.5c-24.8-32.4-41.2-68.1-47.3-108.5c2.1,1.9,4.1,3.8,6.2,5.7c24.9,22.4,54.1,31.9,87.4,28.6
		c8.1-0.8,16.2-1.7,24.3-2.5c0.6-0.1,1.2-0.2,1.8-1.1c-3.6-1-7.2-2-10.9-3c-10.9-2.9-22-5.1-32.5-9.6c-13.4-5.8-24.8-14.2-34-25.5
		c-5.5-6.7-11-13.4-18.1-18.6c-11.4-8.3-24.2-13.1-37.8-16.3c-1.6-0.4-3.2-0.8-5-1.2c0.5-0.6,0.8-1.1,1.2-1.3
		c23.9-11.1,49-16.1,75.2-14.1c26.9,2,51.7,11,74.5,25.2c34,21.3,60.5,49.4,78.2,85.5c4.4,9,8.7,18,13,27c0.6,1.3,1.4,2.6,2.8,3.7
		c0-0.8,0.1-1.7,0-2.5c-2.7-15.2-4.8-30.6-8.3-45.7c-7-30.7-23.4-55.6-48.3-74.9c-8.9-6.9-18.1-13.7-26.6-21.1
		c-13.4-11.6-18.6-26.4-15.1-44c0.1-0.5,0.3-0.9,0.7-1.8c66.1,27.1,123.9,66.5,174.4,116.7c-14.2-46.6-38.8-85.5-81-111.7
		c0.2-0.3,0.3-0.6,0.5-0.9c9.4,2.4,18.9,4.5,28.2,7.3c34.2,10.3,66.2,25.2,95.5,45.8c23.9,16.8,44.4,37.2,63,59.6
		c14.6,17.5,29.1,35.2,43,53.3c9.4,12.3,17.7,25.4,26.5,38.2c1.1,1.6,2.3,3.1,3.4,4.7c0.3-0.2,0.6-0.3,1-0.5
		c-1.3-4.2-2.6-8.5-4-12.7c-3.4-10.8-6.2-21.8-10.3-32.3c-13.4-34.1-34.9-62.3-63.8-84.8c-1-0.8-2-1.6-3.6-2.9
		c23.3,2.2,44.1,9.2,63.2,21.1c19.1,11.8,34.5,27.6,47,47.1c6.7-7.2,10.1-15,11.4-25c3.5,3.2,6.4,5.5,9,8.2
		c16.3,16.7,30.2,35,41.3,55.6c13.2,24.6,22.1,50.6,26.5,78.1c2.2,13.5,4.1,27,6.2,40.5c0.1,0.6,0.3,1.2,0.8,2.8
		c0.6-1.7,1.1-2.5,1.2-3.3c2.4-18.7,4.9-37.3,6.9-56c0.7-6.9,0.2-14-0.2-20.9c-0.4-7.3-0.8-14.7-2-21.9c-1.6-10.2-3.9-20.2-6-30.3
		c-0.1-0.4-0.1-0.9,0.6-1.6c3.5,6.4,7.1,12.7,10.4,19.2c11.8,23.9,19.9,49,24.2,75.3c3.5,21.3,4.2,42.8,2.4,64.2
		c-1.3,16.2-4.4,32.3-6.8,48.4c-0.2,1.6-0.5,3.2-0.7,4.8c0.4,0.3,0.8,0.5,1.2,0.8c0.3-0.6,0.5-1.3,0.8-1.8
		c6.5-12.9,13.5-25.7,19.6-38.8c7.8-17,13.7-34.6,16.4-53.2c0.7-4.8,1.2-9.6,1.8-14.4c0.1-1,0.4-1.9,1-2.9
		c11.4,23.7,18.7,48.6,22.8,74.4c4.1,26.1,4.4,52.3,1.5,78.6c-2.9,26.1-10.6,51-17.7,76.2c11.2-8.5,20.1-18.9,29-29.5
		c8.9-10.7,15.5-22.7,21.2-35.3c1.7,49.1-17.6,90.7-45.8,130.6c-0.2-2.7-0.3-4.3-0.3-5.9c-0.2-17.2-0.3-34.3-0.6-51.5
		c0-2-0.5-4-0.8-6c-0.5,0-0.9,0-1.4,0c-0.4,1.7-0.9,3.3-1,5c-1.2,10.4-2.3,20.8-3.4,31.3c-1.9,18.7-3.6,37.5-5.5,56.2
		c-1.8,17.2-3.8,34.4-5.6,51.6c-3.2,29.6-10.1,58.4-20.7,86.2c-8.6,22.7-22.2,41.8-40.5,57.9c-23.8,20.9-47.1,42.2-70.5,63.5
		c-6.9,6.3-13.4,13-20,19.6c-0.9,0.9-1.6,2-2.4,3.1c2.4,2,3.7,0.2,5-0.8c6.7-4.9,13.4-9.9,20.1-14.9c11.4-8.5,22.7-16.9,34.1-25.3
		C1285.8,950.9,1286.7,950.3,1288.4,949.2z M1057.5,632.7c-54.3-2.1-108-7.6-160.9-19.9c-52.8-12.2-103.4-30.9-153-52.6
		c15.1,12.2,31.3,22.4,48.4,31.3c17,8.8,34.5,16.6,52.5,23.1c18,6.6,36.6,11.5,55.3,16.3c-31.4,13.6-53.8,36.7-71.6,65.2
		c-8-3.3-15.8-6.4-23.6-9.6c-0.2,0.3-0.4,0.7-0.6,1c1.3,0.9,2.5,1.8,3.8,2.7c23.2,15.3,48.4,26.7,75,34.6
		c27.1,8,54.9,13.4,82.6,19.3c4,0.9,7,0.2,10.3-1.9c15.1-9.4,28.7-20.5,40.8-33.5c1.7-1.8,2.6-3.7,2.7-6.2
		c0.6-23.5-6.5-43.9-24.3-60c-0.8-0.7-1.5-1.5-2.6-2.7C1014.7,639,1036.4,637.7,1057.5,632.7z M1011.3,789.7
		c2.6,0.2,4.3,0.4,5.9,0.4c4.7-0.2,7.9,1.5,10.8,5.4c13.5,17.6,30.8,30.2,52.1,37c18.5,6,36.9,6.7,55.2-0.9c2.3-0.9,3.8-0.2,5.5,0.9
		c2.8,1.8,5.7,3.6,9.1,5.7c0.8-5.5,1.3-10.1,2.1-14.7c0.2-1.4,0.8-3,1.7-3.9c13.3-14,19.5-31.1,21.4-50c0.3-2.6,1.1-4.8,2.9-6.7
		c2.8-3.1,5.5-6.2,8.2-9.3c-0.2-0.7-0.3-1.2-0.5-1.6c-16.2-27.4-38.2-48.9-65.6-65.1c-3-1.8-4.9-0.6-7.1,1
		c-38.6,26.9-71.7,59.5-99.3,97.6C1012.9,786.7,1012.4,787.9,1011.3,789.7z M1247.2,579.8c-2.5-24.3-1.7-47.6,0.8-70.8
		c-18.7,23.2-25.6,49.5-20.7,79c-10.3,4-20.3,8-30.4,11.8c-10.2,3.9-20.6,7.7-30.8,11.6c-9.9,3.8-20,6.9-29.5,11.7
		c89.3-5.4,189.9-55.6,235.8-99.7C1331.2,542.3,1290.3,562.1,1247.2,579.8z M1263.9,732c0.4-0.2,0.8-0.2,1-0.4
		c0.8-1.1,1.5-2.2,2.3-3.3c7.7-12.1,12.9-25.2,15.9-39.1c0.8-3.7,2.6-5.6,5.9-7.1c25-11,47.2-26,65.9-45.9c3.4-3.7,6.6-7.6,9.8-11.5
		c-0.3-0.3-0.6-0.7-0.9-1c-2.3,1.2-4.6,2.4-6.8,3.7c-31.6,18.5-64,35.6-97.7,49.9c-15.3,6.5-30.8,12.5-46.2,18.8
		c-2.1,0.9-4.7,1.2-6.5,3.8c2,0.1,3.5,0.3,5,0.3c18.4-0.2,36.3-3.6,54-8.9c0.2,0.8,0.5,1.3,0.5,1.8
		C1265.3,706,1264.6,718.9,1263.9,732z"/>
	<path fill="none" d="M1503.1,1401.1c-66.5,0-132,0-198.9,0c55,67.2,109.1,133.3,163.4,199.7c-4.2,4.5-8.1,8.8-12.1,13
		c-18.7,19.9-37.5,39.7-56.3,59.5c-7,7.4-14,14.7-20.9,22.2c-1.6,1.8-3.3,2.5-5.6,2.5c-9.3-0.1-18.7,0-28,0c-32.8,0-65.7,0-98.5,0
		c-1.8,0-3.6,0-6.5,0c2.7-2.9,4.7-5,7.3-7.9c-9.9,0-19,0-29.3,0c11.7-12.2,23.2-22.8,34.4-33.8c11.1-11,22.4-21.9,33.7-32.8
		c11.3-11,22.7-22,34.3-33.2c-1.1-1.4-1.9-2.6-2.8-3.7c-50.9-60.4-101.8-120.8-152.6-181.2c-2.1-2.5-4.3-3.6-7.6-3.6
		c-58.2,0.1-116.3,0.1-174.5,0c-2.9,0-4.9,0.7-7,2.9c-26.6,28.5-53.3,56.9-80,85.3c-25.4,27.1-50.8,54.2-76.2,81.3
		c-1.3,1.4-2.5,3-4.1,4.9c3.9,3,7.8,5.5,11.2,8.6c5.7,5.3,12.2,6.8,20,6.8c86.8-0.2,173.7-0.2,260.5-0.2c2.1,0,4.2,0,6.9,0
		c-0.8-2-1.3-3.2-1.9-4.3c-6.2-11.6-12.6-23.1-18.7-34.8c-1.4-2.7-3.1-3.7-6.2-3.7c-14.5,0.1-29,0-43.5,0.1c-3.5,0-6.2-0.6-7.9-3.8
		c-2-3.7-5-5.2-9.1-4.4c-7.4,1.3-12.1-1.9-16.5-7.9c-15.1-20.5-30.8-40.6-46.3-60.9c-0.7-0.9-1.4-1.9-2.2-3.1c1.9-1.3,4-0.8,5.8-0.8
		c55.8,0,111.7,0,167.5,0c4.5,0,9,0.1,13.5,0c2.4-0.1,4.3,0.4,5.5,2.6c2.5,4.5,6.5,6,11.3,5.2c6.4-1.1,10.6,1.7,14.6,6.7
		c30.2,37.2,60.8,74.2,91.2,111.3c1.1,1.4,2.2,2.8,3.4,4.4c-1.4,1.5-2.5,2.7-3.6,3.9c-27.7,27.5-55.3,54.9-83,82.4
		c-3.9,3.9-8,7.6-11.8,11.5c-1.5,1.5-3.1,2.4-5.3,2.2c-1.2-0.1-2.3,0-3.5,0c-138.7,0-277.3,0-416,0.1c-4.3,0-7.8-0.9-10.4-4.4
		c-2.3-3.1-5.3-4.4-9.1-3.8c-6.4,1.1-10.7-1.7-15.1-6.2c-22.8-23.1-45.9-46-69-68.9c-6.9-6.8-13.8-13.5-20.7-20.3
		c-1.2-1.1-2.2-2.4-3.4-3.7c1.1-1.2,1.9-2.2,2.8-3.1c9.7-9.8,19.4-19.7,29.1-29.5c18.3-18.4,36.7-36.8,55-55.3
		c20.9-21.1,41.8-42.1,62.6-63.2c11.7-11.9,23.4-23.8,35-35.7c0.9-0.9,1.6-1.9,3-3.5c-2.3-0.1-3.9-0.3-5.4-0.3
		c-18.5,0-37-0.1-55.5,0c-3.2,0-5.9-0.5-8.2-2.7c-0.6-0.6-1.4-0.9-2-1.5c-3.3-3.3-7.2-4.5-11.8-4c-2.9,0.3-5.4-0.4-7.8-2.3
		c-41.6-31.4-83.3-62.7-125-94c-0.5-0.4-1-0.9-2.1-1.9c1.8-0.2,3-0.5,4.1-0.5c45.5,0,91-0.1,136.5,0c42.3,0.1,84.6,0.4,127,0.5
		c74.7,0.1,149.3,0,224,0c97,0,194,0.2,291,0.2c3.5,0,6.5,0.5,8.7,3.5c2.6,3.4,6,5.2,10.4,4.4c6.2-1.2,10.4,1.7,14.7,6.1
		c16.9,17.3,34.2,34.2,51.3,51.2c12.7,12.6,25.3,25.1,38,37.6C1500.3,1397.9,1501.3,1399.1,1503.1,1401.1z"/>
	<path fill="none" d="M1605.4,1130.3c6.1-39.6,25.9-70.6,57.8-94c0.3,0.2,0.7,0.3,1,0.5c-0.4,1.6-0.8,3.1-1.2,4.7
		c-9.4,32.1-20,63.9-31.8,95.2c-5,13.2-10.3,26.4-15.3,39.6c-1.2,3.1-2.9,5.3-6,6.9c-6.7,3.5-10.6,7.2-13.3,12
		c3.9,0.9,7.3-2.2,11.4-1.3c-0.8,4.2-2.6,7.9-4.6,11.4c-0.7,1.2-2.8,1.6-4.3,2.3c-11.4,5.1-18.8,13.5-21.4,25.8
		c-1.3,6.2-0.7,12.3,1.8,18.1c1.2,2.7,1.3,5-0.3,7.5c-1.4,2.2-2.4,4.7-4,7.6c-1-1.8-1.7-3.1-2.3-4.4c-3.4-7.2-6.6-14.6-10.3-21.7
		c-1.7-3.3-1.2-5.3,1-7.9c13.2-15.1,21.8-32.7,25.4-52.4c4.8-26,3.8-51.5-8-75.7c-11-22.6-27-40.6-50.5-50.4
		c-24.9-10.4-49.5-8.4-73.5,3.4c-9.6,4.7-18.2,11.1-25.4,19.2c-0.9,1-1.8,1.9-2.8,2.9c-0.2,0.2-0.6,0.2-1.4,0.4
		c0.3-1.2,0.3-2.4,0.9-3.2c3.4-5.3,6.7-10.7,10.5-15.7c3-4,3.4-3.8,0.9-7.7c-10.9-17.7-25.7-30.8-45.1-38.7
		c-16.1-6.6-32.8-8.4-50-7.4c-1.3,0.1-2.6,0-4.3,0c0.4-0.9,0.5-1.5,0.9-2c13.3-15.2,17.9-33.5,18.6-53.1c0.4-9.9-1.5-19.6-4.4-29
		c-1-3.4-0.4-5.5,2.1-7.9c5.2-5.1,10.1-10.6,15.6-16.3c17.6,15.7,38.1,23.7,61.8,21.7c23.5-2,42.2-13.1,58.2-31.4
		c0,1.9,0.1,2.9,0,3.9c-1.1,12.6,0.7,24.6,7.8,35.4c12.9,19.6,37.3,18.6,50.2,9c6.5-4.8,10.3-11.2,11.4-19.2
		c1.9-14.2-7.8-26.6-22-28.3c-6-0.7-10.1-0.3-13.9,1.5c1.6,0.7,3.1,1.1,4.2,1.8c2.2,1.5,4.6,2.9,6.1,4.9c3.8,5.1,3.1,12.5-1,16.6
		c-4.6,4.5-12.1,5.1-17.5,1.2c-3.9-2.8-6.3-6.8-7.9-11.3c-3.3-9.5-3.6-19.3-2.2-29.1c0.9-6.4,2.5-12.7,3.8-19.1
		c0.3-1.4,0.6-2.8,0-4.6c-1,1-2.1,1.9-3.1,2.9c-10.2,10-21.2,18.8-35.2,22.9c-12.5,3.6-25.2,5.1-37.9,1.3
		c-12.4-3.8-22.8-10.8-31.3-21.1c4.1-6.4,8-12.6,12.2-19.2c1.3,1.1,2.4,1.8,3.3,2.7c10.7,11,23.9,13.1,38.3,10.6
		c8.3-1.5,15.8-5.2,22.6-10.1c11.1-8.1,19.8-18.2,26-30.5c5-10,9.7-20.1,12-31.1c2.5-11.6,3.5-23.4,2.1-35.3c-0.7-5.9-1-12-2.5-17.8
		c-3.8-15.1-10.5-28.8-22.5-39.3c-6.3-5.6-13.5-9.8-22-11c-1-0.1-1.9-0.5-3.4-1c0.9-4.9,1.8-9.7,2.7-14.5c5.1-1.2,9.5,0,13.8,1.1
		c15.7,4,27.9,13.2,37.8,25.7c12.3,15.4,18.8,33.3,21.8,52.5c2.3,14.3,2.7,28.6-1.3,42.6c-3.6,12.7-9.5,24.1-19,33.5
		c-0.6,0.6-1.2,1.2-1.7,1.8c-0.2,0.2-0.2,0.6-0.5,1.3c2.2,1.7,4.7,3.3,6.9,5.3c3.6,3.4,7.2,6.9,10.3,10.8c4.2,5.2,5,11.6,4.3,18
		c-0.6,5.1-3.7,8.8-7.8,11.8c-1.4,1-2.9,2-4.3,3c0.1,0.3,0.2,0.7,0.3,1c3-0.3,6.1-0.5,9.1-1c14.6-2.6,25.8-12.8,28.1-26.3
		c1.7-10.2-1.5-19.5-6.9-28c-2.9-4.6-6.6-8.7-10.2-13.4c2.3-2.6,4.7-5.4,7.3-8.2c18-19.9,27.5-43.3,29.7-70
		c1.8-20.5-0.6-40.3-9.3-59c-9.6-20.6-23.5-37.5-43.7-48.6c-14.5-8-30.1-11.4-46.7-9.8c-1.7,0.2-3.3,0.2-5,0.2
		c-0.6,0-1.3-0.2-2.3-0.4c0.3-2.5,0.5-4.9,0.8-7.7c-2.6,0.4-3.1,2.3-3.8,3.7c-2.4,5.6-7,7.6-13,8.4c-1.1-5.8,0.7-11.2,2.4-16.5
		c0.3-0.9,2.5-1.5,3.8-1.8c11.7-2.7,23.5-2.7,35.3-1.3c22.6,2.7,41.3,13.4,57.6,28.7c18.3,17.2,29.5,38.4,35.1,62.7
		c0.5,2.1,1.1,4.1,1.9,7c3-10.6,5.3-20.4,8.5-29.9c3.2-9.7,8-18.7,13.7-27.1c5.6-8.3,11.7-16.2,19.2-23c7.5-6.8,15.4-13.2,23.3-19.9
		c-1.2-1-2.8-0.1-4.2,0.3c-17.5,4.1-33.3,11.6-47,23.4c-4.9,4.2-9.5,8.9-14.2,13.3c-1.2,1.1-2.3,2.3-4.1,4c-1.4-3.1-2.6-5.6-3.7-8.2
		c-8.1-17.7-20.1-32.1-36.1-43.2c-9.3-6.4-19.7-10.5-30.1-14.5c-1.2-0.5-2.5-1-4.1-1.6c0.9-1.6,1.6-3,2.4-4.5
		c6.5-12.6,1.2-28.1-11.5-33.2c-1.7-0.7-3.6-0.9-6.6-1.5c1.2,1.8,1.6,2.5,2,3.1c6.3,8.8,3.8,19.8-6.2,24.2
		c-9.8,4.4-20.2,5.3-31.1,3.1c-0.7-10.3-1.4-20.5-2-30.7c6.9,0.4,9.7,6.6,8,18.4c1-0.4,2-0.5,2.6-1c7.7-5.7,10.1-16.4,6.1-25.2
		c-2.9-6.2-6.9-11.3-13.6-15.8c2,0.2,3,0.3,4,0.3c1.2,0.1,2.3,0.2,3.5,0.4c13,2.1,25.9,4.3,39,6.2c18.6,2.7,37.3,5.1,55.9,7.7
		c5.3,0.7,10.6,1.4,15.9,1.9c2,0.2,2.9,1.1,3.4,2.9c1,3.5,2.4,6.9,3.3,10.5c1.4,5.8,1,11.3-3.3,15.9c-3.6,3.9-7.9,4.7-12.2,2.3
		c-4.6-2.6-7.2-7.4-5.4-12.2c1.3-3.4,4-6.3,6.1-9.6c-0.5-0.1-1.5-0.5-2.5-0.5c-9.7,0-17.8,6-20.6,15.2c-1.8,6.1-2.1,12.1,0.4,18.1
		c2.8,6.8,7.3,12,14.6,14c16.6,4.6,30.6-1.7,36.2-17c2.6-7.2,3.5-14.5,2.6-22.1c-0.1-1.1-0.2-2.2,0.3-3.7c0.7,0.7,1.5,1.4,2,2.3
		c3.3,6.7,5.2,13.7,4.6,21.2c-0.3,3.5,1,5.4,3.9,7.3c9.2,5.9,19.4,8.8,30.1,9.8c11.9,1.2,23.6,0.4,35.1-3.4
		c8.5-2.8,16-7.5,22.4-13.7c1-1,2.2-1.9,4.1-3.4c0.3,2.5,0.7,4.2,0.8,5.9c0.5,15.1,1,30.3,1.5,45.4c0.1,4.7,0.2,9.3,0.5,14
		c0.2,3-0.9,5-3.3,6.8c-6.6,5-12,11-15.6,18.6c-4.8,10.2-6.2,20.7-3.2,31.6c2.5,8.8,7.9,15.1,16.5,18c4.3,1.5,4.1,2.4,4,5.7
		c-0.4,8.8-0.8,17.6-1.3,26.6c-1.2,0.2-2,0.6-2.7,0.4c-18.1-2.6-31.6-11.9-38.2-29c-10.4-26.6-5.9-51.1,13.4-72.3
		c6.1-6.7,13.7-11.6,21.9-15.6c1.1-0.6,2.2-1.2,3.4-2.1c-7.5-0.7-14.4-2.4-20.2-7.5c-5.8-5.2-7.9-11.7-6.2-19.7
		c-9.6,5.8-11.5,21.1-4.9,35.9c-0.4,0.4-0.7,1.1-1.2,1.4c-8,4.7-14.3,11.4-20.5,18.2c-11.1,12.1-18.2,26.5-22.5,42.4
		c-4.8,18-3.6,36-0.4,54c0.3,1.9,0.6,3.8,1,6.1c-18.5-1-34,3.7-46.4,19c1.8-0.2,2.7-0.1,3.5-0.3c10.3-3.4,20.6-3.2,31-0.4
		c12.6,3.4,23.8,9.4,33,18.8c10,10.2,22.1,16.5,36.2,18.7c2.8,0.4,5.6,0.4,8.5,0.6c1.6,0.1,3.2,0.3,5.2,0.5
		c-0.7,6.8-1.4,13-2.1,19.3c-0.2,2.2-1.8,2.6-3.6,2.4c-3.5-0.3-7-0.5-10.4-1.1c-8.5-1.5-16.9-0.3-25.3,0.8c-3,0.4-4.8,1.6-5.9,4.4
		c-2.4,6-5.9,11.2-10.7,15.5c-0.7,0.6-1.5,1.2-3,1.3c0.5-1.3,0.9-2.6,1.4-3.8c6.8-15.8,6.8-31.3-1.5-46.7
		c-6.2-11.6-16.3-18-28.8-20.2c-5.9-1-12.4-0.6-18.3,0.5c-19.5,3.5-36.3,27-22.5,51.1c2.2,3.8,5.2,6.6,9.8,8.9
		c-0.3-1.4-0.6-2.3-0.7-3.3c-0.8-3.9-2-7.8-2.2-11.7c-0.3-7,4.7-13.5,11.2-15.5c8.8-2.7,17.4,3.1,19,12.7c1.1,6.5,0.1,12.6-2.7,18.5
		c-3.6,7.8-8.3,14.7-14,21.2c-9.7,11-18.6,22.7-23.8,36.7c-6.1,16.2-6.9,32.5-0.5,48.8c0.4,0.9,0.8,1.8,1.6,3.3
		c0.6-1.1,1.2-1.7,1.3-2.3c5.5-28,22-48.4,44.6-64.6c15.3-11,32.5-17.5,51.1-20.3c8.7-1.3,17.5-2,26.3-3c0.8-0.1,1.6,0.2,3,0.5
		c-0.6,4.6-1.2,8.9-1.9,13.6c-1.8,0.2-3.2,0.5-4.7,0.5c-28.2,0.9-53.3,10.2-74.8,28.3c-14,11.8-23,27-27.3,44.9
		c-3.1,13-1.8,25.7,2.8,38.2c1.9,5.3,1.6,10.5-1.4,15.4c-2.8,4.7-8.4,6.6-12.9,4.6c-5.5-2.5-8.3-8.2-5.9-13.6
		c1.3-2.9,3.7-5.3,5.8-8.2c-0.5-0.2-1.3-0.7-2.1-0.7c-7.6-0.2-18.1,4.4-21,15.3c-2.8,10.2-1.2,19.1,6.4,26.7
		c8.5,8.5,24.1,9.3,34.7,2c5.8-4,9-9.8,11-16.2c2-6.6,2.8-13.4,1.6-20.3c-0.2-1,0-2.1,0-4.4c1.3,1.9,2.1,2.7,2.6,3.6
		c3.3,6.5,5.2,13.4,4.5,20.7c-0.4,3.9,1.2,6.1,4.4,8c10.1,6.1,21.1,9,32.7,9.6c3.3,0.2,6.5,0.3,10.5,0.5c-1.6,5.8-2.8,11-4.5,15.9
		c-0.4,1.2-2.3,2.3-3.7,2.8c-3.9,1.4-8,2.3-11.9,3.7c-18.5,6.9-34,18.1-47.1,32.7c-1,1.1-1.6,2.5-2.4,3.8c-0.5-0.2-1.1-0.4-1.6-0.6
		c-1-2-2.2-3.9-3.1-5.9c-8-18.6-20.3-33.5-36.9-45c-9.4-6.5-20-10.7-30.6-14.6c-1.1-0.4-2.1-0.9-3.6-1.5c6.3-10.1,7.6-20.1,0.5-30
		c-3.6-5-8.4-8.3-15.6-8.8c1,1.7,1.5,2.6,2.1,3.6c5.9,9.2,2,20.6-8.5,24.4c-10.8,3.9-21.9,3.9-33,1.8c-6-1.1-11.4-3.8-15.6-8.4
		c-4.1-4.5-5.1-11.3-2.5-16.3c2.7-5.1,10-8.7,15.7-7.8c7.1,1.1,11.7,5.1,12.6,11.6c0.4,2.7-0.3,5.5-0.5,8.8c0.9-0.3,1.9-0.4,2.5-0.9
		c7.4-5.6,10.1-16.3,6.3-24.8c-6.3-14-17.7-20.4-32.5-21c-14.5-0.6-26.9,4.9-36.5,15.6c-8.5,9.5-11,21-8.9,33.6
		c3,17.4,13.7,28.1,29.7,33.9c7,2.5,14.3,4.2,22.2,6.5c-6.3,5.2-13.9,8.9-17.7,16.3c0.2,0.3,0.4,0.6,0.7,1c1.8-0.8,3.5-1.5,5.3-2.3
		c14.6-6.8,29.9-10.1,46-9.9c26.6,0.5,49,10.8,68.5,28.6c17,15.5,27.7,34.7,34.6,56.4c0.9,3,1.4,6.2,2.2,9.2
		c0.3,1.4,0.8,2.8,1.2,4.2C1604.6,1130.2,1605,1130.3,1605.4,1130.3z M1366.2,992.5c14.6,0.7,27.6,4.6,39.4,12.5
		c0.3-0.8,0.6-1.2,0.5-1.4c-0.2-0.8-0.6-1.5-0.9-2.3c-2.7-5.9-7.2-10.4-12.1-14.5c-2.9-2.4-4.1-5-3.1-8.7c0.2-0.6,0.2-1.3,0.3-2
		c2-15.9,0.1-31.2-6.1-46c-2.5-6-5.7-11.7-10-16.6c-0.6-0.6-1.3-1.1-2.5-2.1C1380.8,939.4,1379.2,965.9,1366.2,992.5z"/>
	<path fill="none" d="M602.7,1231.6c1.8-2.4,3.1-4.1,4.5-5.7c28.1-34.2,58.3-66.3,91.7-95.3c23-19.9,47.3-37.9,74.2-52.2
		c19.2-10.2,39.2-18.2,60.8-21.7c38-6.2,70.8,4.1,98.5,30.7c17,16.3,29.1,35.8,38.2,57.4c11.7,27.7,16.6,56.7,17.9,86.8
		C860.1,1231.6,731.9,1231.6,602.7,1231.6z"/>
	<path fill="none" d="M437.1,788.8c-6,4.7-9.8,11-12.2,17.8c-2.3,6.7-3.5,13.7-5.3,21.1c-1.7-0.9-3.1-1.6-4.5-2.4
		c-6.8-3.9-13.7-7.7-21.5-9.1c-3.9-0.7-5.6-2.8-6.1-6.6c-0.7-5.9-1.8-11.8-2.8-18.1c5.2-0.6,9.8-1,14.4-1.6c13-2,25.2-6.1,36-13.9
		c4.7-3.5,7.7-7.7,8.6-13.9c2.7-18.3,11.2-33.7,25.4-45.7c0.6-0.5,1.2-0.9,2.3-0.9c-1.4,2.4-2.7,4.8-4.1,7.1
		c-8.4,13.9-13.3,29.1-15.7,45c-2.7,18.5-3.3,37.3-0.5,55.8c4.3,28.3,15.6,53.8,36.2,74.2c31.3,30.9,76.4,29.9,106.6,5.8
		c4.1-3.3,7.9-7.2,11.8-10.8c0.8-0.7,1.6-1.5,3.3-3.1c-0.2,3.2-0.3,5.2-0.5,7.3c-0.8,12.2,1.9,23.5,9.1,33.5c13,18.3,39,17,51.4,5.4
		c7.9-7.4,10.4-16.4,8.6-26.8c-0.8-4.9-3.5-9-7.3-12.3c-8.3-7.2-17.8-7.8-28.2-4.9c1.3,0.5,2.6,1,3.9,1.6c5.4,2.3,8.7,6.3,8.9,12.2
		c0.2,5.2-2,9.5-6.9,11.8c-5.3,2.5-10.4,2-15-1.8c-4.3-3.5-6.5-8.4-7.9-13.6c-2.8-10.2-2.5-20.5-0.7-30.7c0.9-4.9,2.2-9.7,3.3-14.6
		c0.3-1.3,0.5-2.5,1-5c-1.8,1.4-2.8,2-3.7,2.8c-4.2,3.8-8.2,7.9-12.7,11.3c-18,13.6-38,18.8-60.2,13.6c-10.2-2.4-19.1-7.9-26.5-15.3
		c-18.4-18.5-27.9-40.7-27.6-66.9c0.2-12.7,2.8-24.9,9.1-36c7.5-13.1,18.4-21.8,33.7-24c17.9-2.6,31.9,4.6,42.9,18.1
		c10.8,13.2,13,28.1,7.6,44.2c-1.7,5-4.4,9.4-8.2,13c-5.9,5.8-12.9,7.4-20.7,4.7c-6.1-2.1-9.8-7.4-9.9-13.7
		c-0.2-9.5,8.6-15.3,17.3-11.4c1.5,0.7,2.9,1.6,5,2.7c-0.4-1.7-0.5-2.8-0.9-3.8c-5.6-12.6-20.7-17.5-33.5-10.9
		c-6.3,3.3-10.7,8.3-13.5,14.8c-5.8,13.9-4.2,36.8,12.4,49.9c6.4,5.1,13.8,7.8,22.1,8.2c14.6,0.7,27-4.5,38.3-13.3
		c15.5-12,24.1-28.5,31-46.3c6.7-17.4,7.2-35.4,5.5-53.6c-0.1-0.8-0.1-1.7,0-2.5c0-0.3,0.3-0.6,0.6-1.1c0.7,0.2,1.5,0.2,2.2,0.5
		c5.5,2.7,11.1,5.3,16.5,8.2c5.6,3,8.5,7.8,8.6,14.2c0.3,20.1-5.6,38.1-18.2,53.7c-1.9,2.4-4.2,4.5-6.6,7c2.9,2.2,5.4,4,7.9,5.9
		c4.6,3.4,8.4,7.6,11.2,12.6c6.5,11.6,3.6,22.7-7.8,29.5c-0.5,0.3-1,0.7-1.7,1.2c6,1.7,15.4-0.7,23.6-5.5
		c7.6-4.5,11.6-11.5,14.7-20.5c1.7,4.2,3,7.4,4.4,10.6c1.9,4.4,3.8,8.9,6,13.2c1.4,2.8,1.4,5.2,0,8c-5.7,11.2-8.9,23-8.5,35.6
		c0.3,8.2,2.2,16.1,6.6,23.6c1.3-4.5,2.3-9.1,3.9-13.4c1.6-4.5,3.5-9,5.6-13.3c2.2-4.3,4.9-8.3,7.8-13.2c3.3,4.6,6,8.4,8.7,12.3
		c1.4,1.9-0.1,3.5-1,5c-3.9,6.7-6.4,13.8-8.2,21.4c-2.9,12.6-1.7,24.8,2.6,36.8c2.2,6.1,2.1,11.8-1.6,17.1
		c-4.6,6.6-14.1,5.9-17.8-1.2c-2.2-4.2-1.3-9.7,2.3-13.4c1.1-1.1,2.4-2.1,4.5-3.9c-2.3-0.2-3.7-0.4-5.1-0.3
		c-11.1,0.7-18.9,8.1-20.4,19.1c-1.4,10.2,1.1,19.1,9.8,25.1c11.7,8.1,31,6.1,39.5-8.2c5.3-8.9,5.9-18.6,5.2-28.5
		c-0.1-1.1-0.1-2.2,0.5-3.6c0.6,0.8,1.5,1.6,1.9,2.5c3.4,6.8,5.4,14,4.8,21.7c-0.3,3.6,1.2,5.4,4,7.2c10,6.2,21,9.5,32.7,9.7
		c8.1,0.1,16.4-0.2,24.4-1.5c10.7-1.8,20.2-6.5,28.7-14.2c9.4,4.1,18.2,9.3,27.2,15c-2.6,3.8-4.9,7-9.8,6.9
		c-13.6-0.5-26.9,1.5-40.3,4.8c-0.2-0.9-0.5-1.6-0.5-2.4c-0.1-0.8,0.1-1.6-0.8-2.9c-1,1.3-2.3,2.6-3.1,4c-1.2,2.2-3,3.5-5.3,4.2
		c-6.9,2.1-13.7,4.3-20.6,6.2c-18.2,5-34,14.2-47.8,27c-4,3.7-8.3,7.1-13.7,9.7c-0.7-1.5-1.5-2.7-2-4c-9-20.2-22.7-36.5-41.9-47.6
		c-7.9-4.6-16.6-7.7-25-11.4c-1.2-0.5-2.4-1-4-1.7c0.9-1.7,1.6-3.1,2.4-4.5c5.7-11,2.2-24.8-8.1-31.4c-2.7-1.7-5.5-3-9.4-2.8
		c0.5,1,0.7,1.8,1.1,2.3c7,9.2,3.6,21.1-7.3,25.2c-3.3,1.2-6.7,2.3-10.1,2.7c-10.7,1.2-21.3,1.4-31.3-3.5c-4.3-2.1-8-4.9-10-9.4
		c-2.3-4.9-2.1-9.8,1.2-14.2c3.5-4.6,8.4-6.7,14-6.1c9.9,0.9,14.7,8,12.6,18c-0.2,0.7-0.1,1.5-0.2,3.3c5.4-3.4,8.6-7.3,10-12.7
		c2.3-9-1.2-16.4-6.7-23c-6.2-7.4-14.7-11-24.1-11.8c-13.6-1.2-25.7,3-35.8,12.2c-9.6,8.7-14.1,19.7-12.8,32.7
		c1.8,19.6,12.8,32,30.9,38.4c5.6,2,11.5,3.1,17.3,4.7c1.4,0.4,2.8,0.8,4.9,1.3c-7.1,5.1-14.3,9-18.7,17.2c1.8-0.4,2.9-0.4,3.8-0.9
		c11.8-5.8,24.2-9.5,37.3-10.5c20.9-1.7,40.8,1.9,59,12.8c13.2,7.9,24.6,17.7,34,29.8c1.2,1.6,2.3,3.2,3.8,5.4
		c-3.8,2.8-7.3,5.4-11.4,8.5c-1.5-1.9-2.7-3.5-4-5.2c-12.1-15.5-27.1-27.2-46.3-32.5c-27.2-7.5-52.5-2.6-75.6,13.3
		c-5.6,3.8-10.2,9-15.3,13.5c-0.8,0.7-1.6,1.5-2.8,2c2.3-8.9,8.1-15.6,14.2-22.7c-22.8-38.7-57.7-52.7-101.4-49.6
		c0.5-1.2,0.7-2,1.2-2.5c11.2-13.1,16-28.5,17.7-45.3c2.2-22.2-3.4-42.3-15.5-60.7c-11.9-18.2-28.9-29.6-49.6-35.7
		c-3.5-1-7-2-10.6-2.9c-1.6-0.4-2.8-1.1-3.1-2.8c-0.7-3.8-1.4-7.5-2.2-11.9c11,0.2,20.9,3,30.6,6.9c9.7,3.8,18.7,9,27.2,15
		c-3.8-8.2-8-16.3-11.4-24.6c-3.4-8.5-5.2-17.5-5.7-26.8C434.4,806.9,434.8,797.9,437.1,788.8z M487.4,912
		c9.4,27.5,6.9,54.2-5.6,80.2c0.9,0.3,1.3,0.5,1.8,0.5c12.9,0.6,24.8,4.4,35.8,11.3c0.6,0.3,1.4,0.3,2.8,0.6c-1.2-2.3-2-4-2.9-5.5
		c-2.9-5.2-7-9.3-11.5-13c-2.2-1.7-3-3.6-2.7-6.4c2.3-16.9,1.3-33.5-5.6-49.4C496.6,923.5,493.1,917.1,487.4,912z"/>
	<path fill="none" d="M1525.6,1371.5c-5.4-5.8-10.5-11.3-15.6-16.8c-7.6-8.2-15.2-16.4-22.9-24.4c-2-2.1-3.2-4.5-3.9-7.3
		c-5.7-22.3-12.2-44.2-19.6-66c-4.2-12.4-7.3-25.2-11.5-37.7c-12.7-38.3-31.6-73.3-57.3-104.5c-22.7-27.5-50.2-49-83-63.3
		c-2.9-1.3-5.1-2.7-5.7-6.1c-0.3-1.9-1.3-3.8-2.2-5.5c-0.9-1.8-1.9-3.4-3.5-6.1c3.4,1.4,6,2.4,8.5,3.5c38.4,17,72.8,40.2,103.6,68.8
		c14.9,13.8,29.5,28,42.8,43.4c20.9,24.2,37.8,51.1,52.5,79.4c15.9,30.7,28.7,62.6,39.8,95.3c1.5,4.6,1.2,8.1-1.3,12.1
		c-6.1,10.1-11.8,20.5-17.7,30.7C1527.7,1368.3,1526.7,1369.7,1525.6,1371.5z"/>
	<path fill="none" d="M389.6,604.3c-7.6-1.1-14.3-3.1-20-8c-6-5.1-8-11.6-6.2-19.9c-4.1,1.8-5.1,4.6-6.1,7.6
		c-1-14.3-2.1-28.5-3.1-42.8c-0.2-3-0.6-6-0.7-8.9c-0.1-1.4,0-2.8,1.8-3c2.1-0.2,2.5,1.3,2.5,2.9c0,10,0,20,0.1,30
		c0,2,0.2,3.9,0.3,5.8c7.6,0.3,18.4-5,28.5-13.6c8.3-7.2,13.7-16.2,16.5-26.9c10.7-0.8,21.1-1.7,32.3-2.5c-0.3,2.9-0.4,5.3-0.9,7.6
		c-3.6,17.7-13.1,31.8-26.6,43.5c-2.9,2.5-5.9,4.8-9.3,7.6c2.2,0.7,3.6-0.2,5-0.6c11.1-3.2,22.3-5.3,34-4.9
		c19.6,0.5,38,5.1,53.8,17.3c18.5,14.3,28.8,33.2,30.2,56.8c1.4,24.4-6.5,45.5-22.2,63.9c-0.3,0.3-0.8,0.5-1.9,1.3
		c0.4-1.6,0.6-2.6,0.9-3.5c8.3-21.1,10.2-42.5,0.7-63.7c-11.7-26.2-31.9-40.8-61-42c-16.3-0.7-31.5,3.1-44.9,12.6
		c-13.3,9.3-21.2,22-21.9,38.5c-0.5,10.4,2.1,19.9,10.5,26.9c7,5.8,15,6.5,23,3.2c8.3-3.4,12.4-10.5,13.9-20.3
		c-1.7,1.2-2.6,1.8-3.5,2.4c-5.6,4.4-12.5,4.9-17.6,1.5c-5.4-3.6-8-11.2-6-17.7c2.4-8,10.4-14.4,19.2-15.4
		c13.9-1.5,24.2,5.2,29,18.4c5.3,14.5,1.3,38.7-14.7,52.3c-8.9,7.6-18.9,12.8-30.8,12.5c-5.7-0.1-11.4-2-17.1-3.1
		c-3.3-0.7-4.4-3.1-4.8-6.1c-1.7-12.7-3.5-25.4-5.1-38.1c-2-15.3-3.8-30.7-5.8-46c-0.4-3.1,0.4-5.4,2.6-7.6
		c6.5-6.6,13.9-11.9,22.2-16C387.3,605.5,388.4,604.9,389.6,604.3z"/>
	<path fill="none" d="M497.5,1159.7c2.1-7.4,4.4-13.7,5.7-20.2c3.6-17.4,2.5-34.6-5.8-50.6c-10.6-20.4-26.7-33.8-49.9-37.5
		c-3.3-0.5-4.9-1.7-5.8-5c-1.8-7.3-4-14.4-6-21.6c-0.3-0.9-0.4-1.9-0.6-3.3c1.5-0.3,2.7-0.7,3.9-0.6c32.2,0.6,57.7,13.5,73.8,42.1
		c7.2,12.8,9.6,26.8,8.6,41.5c-0.7,10.6-2.7,20.8-7.1,30.4c-3.8,8.2-8.6,15.8-14.4,22.7C499.4,1158.2,498.7,1158.6,497.5,1159.7z"/>
	<path fill="none" d="M456.7,564c0.4-0.7,0.7-1.5,1.3-2.1c8.8-10.1,13.3-22.2,15.9-35.1c0.2-1.1,0.3-2.4,0.9-3.4
		c0.5-0.9,1.6-1.9,2.5-2c4.4-0.5,8.9-0.7,14-1.1c-0.7,10.6-4.6,19.8-9.6,29c1.2,0.5,2.1,1.1,2.9,1.2c12.8,0.7,24.5,4.5,35.3,11.4
		c0.4,0.3,0.9,0.3,2,0.6c-0.4-1.4-0.5-2.4-1-3.4c-3-6.1-7.5-11-12.7-15.2c-2.5-2-3.3-4.1-2.7-7.3c0.7-3.9,0.7-8,0.8-11.9
		c0.1-3.7-0.1-3.7-3.9-5c2.2-0.4,4.5-0.8,6.8-1.2c2.4-0.4,4,0.3,5.3,2.6c3.6,6.4,7.5,12.6,11.1,19c1,1.8,1.7,4,2.1,6.1
		c2.3,12.5,9.6,21.6,20.4,27.6c8.1,4.5,13.5,11.8,20.7,17.4c-2.7,3.3-5.2,6.3-7.7,9.3c0.2,0.3,0.4,0.6,0.7,0.9c1-0.2,2.1-0.4,3-0.8
		c1.7-0.7,3.4-1.4,5-2.3c3.3-1.8,6-1.7,9,0.9c3.7,3.1,7.9,5.4,12.5,8.4c-6.1,2.5-12.1,4.5-17.5,7.3c-5.7,3-11.3,6.4-16.5,10.3
		c-5,3.8-9.2,8.5-14.3,13.3c0.6-5.4,3.5-9.1,6-12.8c2.5-3.7,5.5-7,8.6-10.9c-9.8-18-23.9-31.6-42.6-40.4c-18.4-8.7-37.9-10.8-58-9.1
		C456.8,564.9,456.7,564.5,456.7,564z"/>
	<path fill="none" d="M1447,1110.1c9.9-5.2,19.3-7.5,29.3-6.9c15.6,0.9,28.8,7.5,40.2,18.1c16.2,15.2,24.8,34.3,29.4,55.6
		c2.2,10.5,3.2,21,2.5,31.7c-0.1,1.1-0.4,2.1-0.8,4.1c-1.3-1.9-2.2-3-3-4.1c-7.2-10.2-14.3-20.5-21.5-30.6c-2-2.8-3.5-5.5-4.3-8.9
		c-3.7-14.3-10.1-27.2-20.9-37.5c-9.2-8.8-20-13.6-33-12.8c-3.2,0.2-5.8-0.3-8.4-2.3C1453.8,1114.4,1450.8,1112.6,1447,1110.1z"/>
	<path fill="none" d="M579,1193c-0.6,0.8-1.2,1.8-1.9,2.7c-5.6,7.2-11.3,14.4-16.9,21.6c-1.3,1.7-2.6,2.5-5,2.3
		c-9-0.9-16.7,2.3-22.9,8.9c-2.1,2.3-4.2,3.4-7.3,3.2c-3.7-0.2-7.3-0.1-11-0.1c-1.9,0-3.1-0.8-3.9-2.5c-2.1-4.7-4.3-9.4-6.3-14.1
		c-0.5-1.1-0.6-2.7-0.2-3.8c7.6-20.9,26.9-35.2,50-32.2c8.8,1.1,16.4,5.4,23.2,10.9c0.6,0.5,1.2,1.2,1.7,1.8
		C578.8,1192.1,578.8,1192.4,579,1193z"/>
	<path fill="none" d="M1395.3,761.9c0-1.9-0.1-3.3,0-4.7c1-21.4,2-42.9,2.8-64.3c0.1-2.8,1.4-4.6,3.2-6.5c8.7-9,17.4-17.9,25.9-27
		c3.6-3.8,6.6-8.2,10-12.4C1441.3,669.3,1415.8,739.3,1395.3,761.9z"/>
	<path fill="none" d="M663.6,1447.3c-9,7.8-17.2,14.8-25.8,22.2c-23.7-35-45.4-70.6-66-107.8c4.4,4.1,8.4,7.5,12,11.2
		c7.9,8.1,15.7,16.3,23.5,24.4c14.8,15.3,29.7,30.5,44.4,45.9c2.5,2.6,4.9,4.3,8.6,3.8C661,1446.9,661.6,1447.1,663.6,1447.3z"/>
	<path fill="none" d="M1310.4,1021.5c1.3-0.3,2.2-0.7,3.1-0.7c19.3-0.7,37.9,1.6,54.8,11.8c19.2,11.6,31.5,28.3,36.3,50.3
		c0.1,0.6,0.3,1.3,0.3,2c0,0.3-0.2,0.6-0.6,1.5c-1.7-1.1-3.3-2-4.7-3.2c-18.9-15.9-39.3-29.7-61.2-41.1c-6.6-3.5-13.3-6.9-20-10.2
		C1312.4,1028.9,1312.3,1028.9,1310.4,1021.5z"/>
	<path fill="none" d="M1459.8,795.2c-1.9-8.4-7-12.7-13.1-16.5c3.5-11,6.9-22.1,10.5-33.3c3.4,0.8,5.7,3.1,7.7,5.3
		c6.9,7.8,12.4,16.5,13.6,27.2c1.3,12.5-1.3,23.8-9.5,33.6c-5.6,6.7-16,8.7-23.7,4.7c-5.5-2.9-10.6-10.9-6.9-18.1
		c3.3-6.5,10.1-9.1,16.7-5.8C1456.3,792.9,1457.5,793.8,1459.8,795.2z"/>
	<path fill="none" d="M642.3,493c-0.5-0.1-1,0-1.3-0.3c-9.1-7.2-19.8-10.7-30.8-13.3c-4.7-1.1-9.3-2.5-13.8-4.2
		c-11.3-4.3-19.8-12.1-26.4-22c-6.6-9.9-11.1-20.7-14.4-32.9c4.6,1.5,8.5,3,12.6,4c4.2,1.1,8.4,1.7,13.3,2.6
		c0.6,2.4,1.5,5.2,2.2,8.1c2.3,10.2,7.9,17.8,17.1,22.8c6.9,3.7,13.6,7.7,20.4,11.6c9.3,5.4,15.9,13.5,21.3,22.7
		C642.5,492.2,642.3,492.6,642.3,493z"/>
	<path fill="none" d="M1088.7,1762c0,5.3,0,10.5,0,16.2c-3.7,0-6.9,0-10.5,0c0-16.4,0-32.7,0-48.9c3.4-1.1,31.8-1.5,39.1-0.5
		c1.1,3.5,1.4,23.5,0.3,30.1c-3.4,0-7,0-11.9,0c1.9,2.1,2.9,3.3,4,4.5c1.9,1.9,3.6,3.9,5.7,5.6c3,2.5,3.4,5.4,2.2,9.5
		c-3,0-6.2,0.3-9.2-0.1c-1.6-0.2-3.2-1.6-4.4-2.8c-3.8-3.7-7.4-7.6-11.2-11.4c-0.9-0.9-1.9-1.7-2.9-2.5
		C1089.5,1761.7,1089.1,1761.9,1088.7,1762z M1106.9,1739.4c-6.3,0-12-0.5-17.7,0.3c0,2.9,0,5.3,0,7.7c6.1,0,11.8,0,17.7,0
		C1106.9,1744.8,1106.9,1742.5,1106.9,1739.4z"/>
	<path fill="none" d="M1070.2,1777.8c-4.4,1.1-35.6,1-39.7-0.1c0-16.2,0-32.4,0-49c13.3,0,26.4,0,39.4,0
		C1070.9,1732.4,1071.2,1772.5,1070.2,1777.8z M1041.6,1766.9c5.7,1.2,13.8,1,17.5-0.3c0-8.8,0-17.7,0-27c-6-0.2-11.7-0.4-17.5,0.1
		C1041.6,1749.1,1041.6,1757.9,1041.6,1766.9z"/>
	<path fill="none" d="M1696.9,900.7c-4.4,20.9-8.7,41.5-13.2,62.7c-7.4-0.4-13.6-2.2-18.1-7.7c-8.1-9.9-9.1-21.2-4.3-32.4
		c6.1-14.3,18.4-20.9,33.2-23.1C1695.1,900,1695.6,900.3,1696.9,900.7z"/>
	<path fill="none" d="M639,1129.2c-5.1,4.9-10,9.6-15.2,14.6c-1.1-1.4-2.1-2.4-3-3.5c-5.4-7.6-12.2-13.6-20.7-17.7
		c-10.1-4.9-20.6-5.1-31.2-2.2c-11.7,3.2-21.5,9.6-29.2,19.1c-0.8,1-1.8,1.7-3.4,2.2c0.4-1,0.6-2.1,1.1-3
		c4.6-9.4,10.8-17.7,18.9-24.2c13.2-10.6,28.3-13.5,44.7-10C615.5,1107.6,630.2,1117.2,639,1129.2z"/>
	<path fill="none" d="M1184.8,1739.7c0,2.8,0,5.2,0,8.3c9.7,0,19.1,0,28.7,0c0,10.4,0,20.1,0,29.8c-4.5,1.1-35.8,1.1-40,0
		c0-3,0-6.1,0-9.9c9.6-0.1,19-0.2,28.7-0.3c0-2.9,0-5.4,0-8.4c-9.6,0-19,0-28.7,0c0-10.4,0-20.1,0-29.8c3.9-1.1,35.2-1.2,40-0.1
		c0,3,0,6.1,0,9.8C1204.1,1740,1194.7,1738.8,1184.8,1739.7z"/>
	<path fill="none" d="M935.3,1778.5c0-4,0-7.1,0-10.8c9.7-0.1,19-0.2,28.6-0.3c0-2.9,0-5.2,0-8.3c-9.5-0.5-18.9,0.1-28.6-0.3
		c0-10.2,0-20.1,0-30.2c13.1,0,26,0,38.9,0c1.2,3.6,1.2,4.4,0.5,10.3c-9.2,1-18.7-0.1-28.4,0.7c0,2.7,0,5.1,0,8.2
		c9.4,0,18.8,0,28.5,0c0,10.4,0,20.2,0,30.6C961.7,1778.7,948.7,1778.5,935.3,1778.5z"/>
	<path fill="none" d="M873.4,1767.8c0,3.8,0,6.9,0,9.9c-4.2,1.2-35.6,1.2-40,0.1c0-16.2,0-32.4,0-49c13.3,0,26.4,0,39.8,0
		c0,3.3,0,6.5,0,10.5c-9.4,0-18.8,0-28.5,0c0,3.3,0,5.8,0,8.7c6.4,0,12.3,0,18.6,0c0,3.8,0,7.2,0,11.1c-6.1,0-12,0-18.3,0
		c0,2.9,0,5.3,0,8.4C854.4,1767.9,863.6,1767.3,873.4,1767.8z"/>
	<path fill="none" d="M982.9,1778.1c0-16.5,0-32.7,0-49.7c13.3-0.2,26.3-0.1,39.7-0.1c0,10.4,0,20.2,0,30.6c-9.6,0-19,0-29.1,0
		c0,6.6,0,12.6,0,19.1C989.7,1778.1,986.5,1778.1,982.9,1778.1z M1011.6,1747.6c0-2.9,0-5.2,0-8.1c-6.1-0.3-11.9-0.4-18.3,0.1
		c0.2,3,0.3,5.5,0.4,8C1000,1747.6,1005.6,1747.6,1011.6,1747.6z"/>
	<path fill="none" d="M407,906.8c1.2,0.6,2.2,1,3.1,1.5c15.4,10,23.8,24.4,25.6,42.5c1.4,13.1-0.6,25.9-5.6,38.2
		c-0.6,1.4-1.3,2.6-2.1,4.1C425.1,989,407.8,917.7,407,906.8z"/>
	<path fill="none" d="M1426.9,744.4c-10.2,35.1-25.5,67.4-46.5,97c1-4.2,1.8-8.5,3-12.6c4.7-16.5,8.4-33.2,10.1-50.3
		c0.2-1.8,1.1-3.9,2.4-5.2C1406,763.7,1416.3,754.3,1426.9,744.4z"/>
	<path fill="none" d="M630.2,679.3c-1.1,0.1-2.2,0.3-3.3,0.4c-4.5,0.5-8.9,0.8-13.3,1.6c-5.1,0.9-9.6,1-14.8-1.5
		c-9.4-4.7-19.7-4.6-29.7-1.7c-8.2,2.4-15.8,6.2-22.3,11.9c-1.9,1.6-3.7,3.3-6.6,2.7c5.5-13.5,22.3-29.3,41-31.3
		c19.3-2.1,35.5,3.8,49.5,16.5C630.5,678.4,630.3,678.8,630.2,679.3z"/>
	<path fill="none" d="M671.5,412.5c-0.8-0.4-1.5-0.6-1.9-1c-8.8-8-18.4-14.8-28.6-20.9c-14.7-8.8-19.4-22.4-19.3-39.4
		c2,1.2,3.5,2.1,4.9,3.1c11.1,7.7,21.3,16.5,30.4,26.5c7.7,8.4,12.8,18.2,14.4,29.6C671.6,410.9,671.5,411.5,671.5,412.5z"/>
	<path fill="none" d="M1166,1739.4c-5,0-9.5,0-14.3,0c-0.8,13.1,0,25.7-0.5,38.7c-3.5,0-6.6,0-10.6,0c0-12.7,0-25.4,0-38.6
		c-5.1,0-9.6,0-14.1,0c-1.2-3.9-1.1-7.2-0.2-10.8c13.1,0,26,0,39.4,0c0.1,1.7,0.2,3.3,0.3,4.8C1166,1735.1,1166,1736.7,1166,1739.4z
		"/>
	<path fill="none" d="M999.1,1844.1c5.8,0,11.6-0.1,17.3,0.1c1.1,0,2.3,0.5,3.1,1.1c6.3,5.3,13.2,9.4,20.6,13
		c0.2,0.1,0.4,0.5,0.9,1.2c-3.9,2.4-7.7,4.9-12.1,7.6c-10.3-6.8-20.2-14.4-30.2-21.9C998.8,1844.8,998.9,1844.5,999.1,1844.1z"/>
	<path fill="none" d="M1320.1,955.8c2.1,12.7-3.6,34.1-11.1,42.9C1307.2,990.5,1313.5,965.8,1320.1,955.8z"/>
	<path fill="none" d="M913.8,1749.2c0,3.2,0,5.8,0,9.1c-6.2,0.5-12.4,0.3-18.9,0.1c0-3.2,0-6.1,0-9.2
		C901.2,1749.2,907.2,1749.2,913.8,1749.2z"/>
	<path fill="none" d="M1466.1,1463c-1.9-4.6-3.4-8.4-5.4-13.1c4.7,0.4,8.7,0.8,13.5,1.2C1471.9,1455.4,1469.3,1458.9,1466.1,1463z"
		/>
	<path fill="none" d="M668.6,800.6c1.4-0.9,2.8-1.9,4.2-2.8c0.7-0.4,1.3-0.9,2.5-1.8c1.2,5.4,2.3,10.3,3.4,15
		c-0.3,0.3-0.3,0.5-0.5,0.5c-0.1,0-0.4,0-0.5-0.1C675,808.1,672.3,804.9,668.6,800.6z"/>
	<path fill="none" d="M1721.2,650.3c0,6.4,0,11.7,0,17.5C1716.8,664,1716.7,657.1,1721.2,650.3z"/>
	<path fill="none" d="M1033.7,1844.2c3.2,0,6.5,0,10.1,0c1.2,2.3,2.5,4.7,3.7,7.1c-0.2,0.3-0.5,0.5-0.7,0.8c-4.5-2.2-9-4.5-13.4-6.7
		C1033.4,1845,1033.5,1844.6,1033.7,1844.2z"/>
	<path fill="none" d="M1064.2,1845.1c-2.3,1.4-4.5,2.9-7.3,4.6c-1.2-1.7-2.2-3.2-3.9-5.6c2.7,0,4.5,0,6.2,0c1.6,0,3.2,0,4.7,0
		C1064,1844.4,1064.1,1844.7,1064.2,1845.1z"/>
	<path fill="none" d="M358.5,596.9c0-0.6,0-1.2,0-1.8c0.1,0,0.1,0,0.2,0c0,0.6,0,1.2,0,1.8C358.6,596.9,358.5,596.9,358.5,596.9z"/>
	<g id="XMLID_1_">
		<g>
			<path fill="#2AACE3" d="M1057.6,632.7c-21.2,5-42.8,6.3-65.2,7.3c1.2,1.2,1.8,2,2.6,2.7c17.9,16,24.9,36.4,24.3,60
				c-0.1,2.4-1,4.3-2.7,6.2c-12.1,13-25.7,24.1-40.8,33.5c-3.3,2-6.3,2.7-10.3,1.9c-27.6-6-55.4-11.3-82.6-19.3
				c-26.6-7.9-51.8-19.2-75-34.6c-1.3-0.9-2.5-1.8-3.8-2.7c0.2-0.3,0.4-0.7,0.5-1c7.8,3.2,15.5,6.3,23.6,9.6
				c17.8-28.5,40.2-51.7,71.6-65.3c-18.7-4.8-37.2-9.8-55.3-16.3c-18-6.6-35.5-14.3-52.5-23.1c-17.1-8.9-33.4-19.1-48.4-31.3
				c49.6,21.7,100.2,40.3,153,52.6C949.6,625.1,1003.3,630.7,1057.6,632.7z M912.8,646c0.4-3.4-1.2-5.3-4.5-4.9
				c-2.9,0.4-5.9,1.1-8.6,2.4c-16.7,7.7-31.1,18.5-42,33.4c-0.7,1-1.3,2.2-2.3,3.9c5.4,0.3,10,0.9,14.8,0.5
				c19.7-1.7,32.8-12.2,41.1-29.6C912.1,649.9,912.6,647.9,912.8,646z"/>
		</g>
		<g>
		</g>
	</g>
	<g id="XMLID_2_">
		<g>
			<path fill="#2AACE3" d="M1170.4,746.2c1.2,1.7,2.3,3.6,3.7,5.7c-11.7,10.4-21.4,22.1-29.3,35.5c-1-19.2-4.7-37.6-12.8-55
				c-4-8.6-9.1-16.7-15-24.1c-0.8-1-1.8-1.8-2.7-2.7c-0.4,0.2-0.8,0.4-1.2,0.6c15.3,31.9,23.7,65.4,23.7,101.6
				c-34.3-16.5-69.7-25.8-108-26.5c2.8-3.7,5-6.6,7.3-9.4c21.8-26.7,46.6-50.3,74.4-70.6c6.8-4.9,6.7-4.9,13.8-0.2
				C1142.5,713.2,1157.8,728.3,1170.4,746.2z"/>
			<path fill="#2AACE3" d="M1121.1,821.1c-12.9,3.2-25.5,2-38-1.2c-19.5-5-36.4-15-51.8-27.9
				C1063.3,795.3,1093.1,805.1,1121.1,821.1z"/>
		</g>
		<g>
		</g>
	</g>
	<g id="XMLID_3_">
		<g>
			<path fill="#2AACE3" d="M1247.2,579.8c43.2-17.7,84-37.5,125.3-56.5c-46,44.2-146.5,94.3-235.8,99.8c9.5-4.7,19.6-7.9,29.4-11.7
				c10.3-3.9,20.6-7.7,30.8-11.6c10.1-3.8,20.1-7.8,30.4-11.8c-4.9-29.5,2-55.8,20.7-79C1245.4,532.2,1244.7,555.5,1247.2,579.8z"/>
		</g>
		<g>
		</g>
	</g>
	<g id="XMLID_4_">
		<g>
			<path fill="#2AACE3" d="M1363.8,623.7c0.3,0.4,0.6,0.7,0.9,1c-3.3,3.8-6.4,7.8-9.8,11.5c-18.8,19.9-41,34.9-65.9,45.9
				c-3.3,1.5-5.1,3.3-5.9,7c-3,14-8.2,27.1-15.9,39.1c-0.7,1.1-1.5,2.2-2.3,3.3c-0.2,0.2-0.6,0.2-1,0.4c0.7-13.1,1.4-26.1,2.1-39
				c0-0.5-0.2-0.9-0.5-1.8c-17.6,5.3-35.5,8.8-54,8.9c-1.5,0-3-0.2-5-0.3c1.8-2.6,4.4-2.9,6.5-3.8c15.4-6.3,30.9-12.3,46.2-18.8
				c33.8-14.3,66.1-31.4,97.7-49.9C1359.2,626.1,1361.6,625,1363.8,623.7z"/>
		</g>
		<g>
		</g>
	</g>
	<path fill="none" d="M1366.2,992.5c13-26.6,14.6-53.1,5.4-81.1c1.2,1,2,1.5,2.5,2.1c4.3,5,7.4,10.6,10,16.6
		c6.2,14.8,8.1,30.1,6.1,46c-0.1,0.7-0.1,1.3-0.3,2c-1,3.6,0.2,6.2,3.1,8.7c4.8,4.1,9.4,8.5,12.1,14.5c0.3,0.8,0.7,1.5,0.9,2.3
		c0.1,0.2-0.2,0.6-0.5,1.4C1393.8,997.1,1380.8,993.2,1366.2,992.5z"/>
	<path fill="none" d="M487.4,912c5.7,5.1,9.2,11.5,12.1,18.2c6.9,15.9,7.9,32.5,5.6,49.4c-0.4,2.9,0.5,4.7,2.7,6.4
		c4.6,3.7,8.6,7.8,11.5,13c0.9,1.6,1.7,3.2,2.9,5.5c-1.5-0.3-2.3-0.2-2.8-0.6c-10.9-6.9-22.9-10.6-35.8-11.3c-0.5,0-0.9-0.3-1.8-0.5
		C494.4,966.2,496.8,939.5,487.4,912z"/>
	<path fill="#2AACE3" d="M1106.9,1739.4c0,3.1,0,5.4,0,8.1c-5.9,0-11.6,0-17.7,0c0-2.5,0-4.9,0-7.7
		C1094.9,1738.9,1100.6,1739.5,1106.9,1739.4z"/>
	<path fill="#2AACE3" d="M1041.6,1766.9c0-9,0-17.8,0-27.2c5.8-0.6,11.5-0.3,17.5-0.1c0,9.3,0,18.2,0,27
		C1055.4,1767.9,1047.3,1768.1,1041.6,1766.9z"/>
	<path fill="#2AACE3" d="M1011.6,1747.6c-6.1,0-11.6,0-17.9,0c-0.1-2.5-0.3-5-0.4-8c6.4-0.5,12.2-0.4,18.3-0.1
		C1011.6,1742.4,1011.6,1744.7,1011.6,1747.6z"/>
	<path fill="none" d="M855.4,680.8c1-1.7,1.5-2.9,2.3-3.9c10.9-15,25.3-25.7,42-33.4c2.7-1.2,5.7-2,8.6-2.4c3.3-0.4,5,1.5,4.6,4.9
		c-0.2,2-0.7,4-1.6,5.7c-8.2,17.4-21.4,27.9-41.1,29.6C865.4,681.7,860.8,681.1,855.4,680.8z"/>
	<path fill="none" d="M1113,706.3c15.3,31.9,23.7,65.4,23.7,101.6c-34.3-16.4-69.7-25.8-108-26.6c2.9-3.7,5-6.6,7.3-9.4
		c21.8-26.7,46.6-50.3,74.4-70.6c6.8-4.9,6.7-4.9,13.8-0.2c18.3,12.1,33.6,27.2,46.2,45.1c1.2,1.7,2.3,3.6,3.7,5.7
		c-11.7,10.4-21.4,22.1-29.3,35.5c-1-19.2-4.7-37.6-12.8-55c-4-8.6-9.1-16.7-15-24.1c-0.8-1-1.8-1.8-2.7-2.7
		C1113.8,705.9,1113.4,706.1,1113,706.3z"/>
	<path fill="none" d="M1121.1,821.1c-12.9,3.1-25.5,2.1-38-1.2c-19.5-5-36.4-15-51.8-27.9C1063.3,795.3,1093.1,805.1,1121.1,821.1z"
		/>
</g>
</svg>
