<?xml version="1.0" encoding="utf-8"?>
<!-- Generator: Adobe Illustrator 18.1.1, SVG Export Plug-In . SVG Version: 6.00 Build 0)  -->
<svg version="1.1" id="Layer_1" xmlns="http://www.w3.org/2000/svg" xmlns:xlink="http://www.w3.org/1999/xlink" x="0px" y="0px"
	 viewBox="0 0 2000 2000" enable-background="new 0 0 2000 2000" xml:space="preserve">
<g id="Layer_7" display="none">
	<g display="inline">
		<g>
			<path d="M786.1,870.7c-52.5,17.5-100.5,47.1-154.8,59.3c-3.2,0.7-1.8,5.4,1.3,4.8c66.8-13.3,133.6-26.6,200.3-39.9
				c19.2-3.8,38.4-7.7,57.7-11.5c2.7-0.5,2.2-5.2-0.7-4.9c-22,2-43.9,4-65.9,6c-3.2,0.3-3.2,5.3,0,5c22-2,43.9-4,65.9-6
				c-0.2-1.6-0.4-3.3-0.7-4.9c-66.8,13.3-133.6,26.6-200.3,39.9c-19.2,3.8-38.4,7.7-57.7,11.5c0.4,1.6,0.9,3.2,1.3,4.8
				c54.3-12.2,102.4-41.8,154.8-59.3C790.4,874.5,789.1,869.6,786.1,870.7L786.1,870.7z"/>
		</g>
	</g>
	<g display="inline">
		<g>
			<path d="M712,1038.8c34.2-1,68-5.8,101.8-10.8c21.1-3.1,42.1-7.6,62.7-13.3c-38.5-91.4-77.1-182.8-115.6-274.2
				c-40.1,17.1-77.4,39.7-112.7,65.2c-27.4,19.7-54,40.5-80.2,61.8c-16.2,13.2-32.9,26.4-48.1,40.8c-4,3.9-7.9,7.9-11.4,12.3
				c-10.2,12.7-23.6,27.1-31.5,42.6c-0.5,0.9-0.9,1.8-1.3,2.7c-5.6,11.9-11.8,26.2-16.3,38.6c-0.8,2.3-1.5,4.6-2,7
				c-1.4,7.4-2.3,16.5-3.1,22.8c-0.9,6.4-2.6,15.3-2.9,22.9c-0.6,15.8,3.6,32,5.9,47.4c7.1,25.4,20,47.5,38.6,66.2
				c18.7,18.6,40.8,31.4,66.2,38.6c1.7,0.5,3.4,0.8,5.2,1.1c9.7,1.6,31,4.9,40.8,5.4c0.9,0.1,1.8,0.1,2.6,0.1
				c8.1,0.1,18.8-2.2,25.2-3c7.7-1,17.1-1.7,25.2-3.7c3.6-0.9,7-2.1,10.4-3.5c15.4-6.1,30.7-12.6,45.7-19.5
				c13.9-6.4,27.7-13.4,41.1-20.7c26.7-14.6,52.4-31,76.8-49.1c23.8-17.6,47.4-35.7,69.8-55c14.6-13.6,25-29.7,31-48.3
				c9.4-17.9,13.7-37.1,12.9-57.8c-1.8-13.3-3.6-26.6-5.4-39.9c-4.6-19.5-13.6-36.5-26.8-51c-6.7-11.3-15.6-20.2-26.9-26.9
				c-14.5-13.3-31.5-22.2-51-26.8c-13.3-1.8-26.6-3.6-39.9-5.4c-27.1,0.1-52.3,6.9-75.7,20.5c-15.5,8.9-29.6,20.7-42.9,32.5
				c-13.3,11.8-25.3,30-35,42.9c-7.3,9.7-13.3,20.2-18.8,31c-11.6,23.1-21.3,47-31.2,70.8c-5.5,13.1-10.5,26.3-15.1,39.7
				c-8.9,26.2-16,53.1-21.2,80.2c-5.1,26.6-9,53.5-11,80.4c-1.1,14.2-0.9,28.3,0.9,42.5c3.2,24.8,4.8,50.2,14.4,73.5
				c6.3,15.4,12.9,33.8,21.7,49c9,15.4,22,30.7,32.6,43.7c3.4,4.1,7,8.1,10.9,11.7c13.3,12.1,27.7,23.5,42.9,33
				c14.8,9.2,33.5,15.7,48.6,21.6c5.3,2.1,10.7,3.5,16.4,4.5c17,2.9,38.3,7.2,57,6.2c19.6-1,39.5-3.4,58.6-8.3
				c17.8-4.6,36.4-13.7,52.2-20.8c5.9-2.6,11.5-5.7,16.9-9.2c14.8-9.7,28.7-20.9,42.2-32.3c4.1-3.5,8.1-7.2,11.8-11.2
				c12-13,22.4-27.6,32.9-41.7c3.6-4.8,6.8-9.8,9.8-14.9c2.7-4.8,5.2-9.7,7.4-14.7c7.4-16.7,15.3-33.7,21-51.2
				c7.4-22.8,9.5-47.9,12.3-71.3c1.5-12.6,1.5-25.4,0.3-38c-2.4-25.8-5.4-52.6-12.5-77.8c-6.9-24.5-17.8-48.5-28.2-71.4
				c-5.5-12.1-11.8-23.8-18.9-35c-25.9-40.9-58.9-77.5-100.8-102.4c-15.2-9-32.3-15.1-48.6-21.3c-16.7-6.4-40.3-7.8-55.4-9.4
				c-5.5-0.6-10.7-0.5-16.2,0.1c-10.8,1.3-32,2.9-46.6,6.7s-33,13.1-43.6,17.7c-5,2.2-9.8,4.7-14.2,7.9
				c-14.5,10.3-29.6,21.1-42.5,33.7c-3.9,3.8-7.4,7.8-10.8,12c-11.6,14.3-23.1,28.8-33.6,44c-15,21.8-28.1,45.1-39.4,69
				c-16.7,35.2-32,71.7-43.6,109c-7.9,25.3-14.1,51.2-18.3,77.3c-3.1,19.1-6,38.4-7.6,57.7c-0.6,7.1-0.8,14.2-0.3,21.3
				c1.2,15.6,3.7,31.4,6.1,46.9c0.6,3.5,1.2,6.9,2.2,10.3c5,17.8,12.5,35.1,21.3,51.2c8.2,15,21.1,29.7,31.2,41.9
				c3.8,4.5,7.9,8.7,12.4,12.5c13.4,11.1,27.3,22.9,42.5,32c15.6,9.3,34.6,16.1,50.5,22.4c5.3,2.1,10.7,3.9,16.3,5.2
				c19.3,4.7,39.5,6.6,59.1,8.6c13.9,1.4,28,0.9,41.9-0.6c39.7-4.2,79.3-10,117.6-21.2c37.3-10.9,73.8-26.3,108.8-42.9
				c23.8-11.3,46.6-24.5,68.2-39.5c20.3-14.1,40.2-28.9,58.6-45.5c18.2-16.4,33.2-36.8,47.2-56.7c3.1-4.4,5.9-9,8.4-13.7
				c8.9-17.1,16.5-35,22.4-53.3c2-6,3.5-12.2,4.5-18.4c3.4-19.4,6.4-39.2,7.5-58.9c0.7-13.5-0.2-26.9-1.9-40.3
				c-2.9-22.5-4.2-47.2-11.9-69c-5.7-16.5-12.3-32.8-20.4-48.2c-8-15.4-20.5-29.6-31.3-42.2c-10.8-12.7-26.3-22.9-39.5-31.7
				c-1.7-1.1-3.5-2.1-5.4-3c-13.2-6.3-28-14.2-43-17.5c-16.5-3.6-34.8-7.4-52.2-6c-4.9,0.4-32.8,2.6-46.4,6.8
				c-1.3,0.4-2.5,0.9-3.8,1.4c-12.6,4.8-26.2,10.4-38.3,16.2c-15.5,7.5-29.5,20.7-42.1,31.1c-4.6,3.8-8.7,8.1-12.4,12.6
				c-15.6,18.9-30.3,37.8-42.1,59.1c-6.4,11.5-12.3,23.2-17.9,35.1c-16.7,35.9-32.5,73-43.2,111.3c-3.5,12.6-6.6,25.4-9,38.3
				c-1.2,6.4-2.2,12.9-3.2,19.4c-2.5,17.5-6.8,38.7-7.1,57.7c-0.2,18.3,1.7,37.4,7.5,54.7c4.6,14,10,28.3,17.7,41.1
				c17.3,28.4,31.8,40.2,58.6,59c13.9,9.8,30.6,17,47.3,20.2c42.6,8.1,51,6.6,93,0.2c5.2-0.8,10.3-2,15.3-3.9
				c17.6-6.5,35.1-13.6,51.8-22.2c21.6-11.1,40.8-27.6,59.5-42.4c28.6-22.7,50.1-52.7,72.2-81.4c33.4-43.5,62.4-91.5,84.5-141.8
				c10.2-23.3,21.1-47.2,28.6-71.7c7.7-25.5,10.7-52.8,13.4-79.1c1.4-14,1.3-28.2-0.1-42.2c-2.6-25.9-5.7-52.6-12.3-77.9
				c-3.6-13.7-8.2-27.2-13.6-40.3c-10.1-24.5-20-49-32.4-72.4c-13-24.5-27.9-47.8-43.1-70.9c-3.3-5-6.5-10.1-10.1-15
				c-10-13.7-20.5-29.5-33.1-41.7c-12.5-12-26.3-23.9-41.8-31.6c-30.6-15.3-52.9-22.6-87.8-23.2c-53-0.9-102.7,29.4-129.5,74.3
				c-18,30.2-26.4,64-27.2,99c-0.4,17,3.3,34.3,6.2,50.8c1.9,10.9,7.3,21.2,11.5,31.3c4.1,9.6,7.6,20.2,13.6,29
				c9.4,14,19.4,28.2,31.5,40.1c12.3,12.1,26.4,22.4,40.9,31.8c14.2,9.2,34.8,16.3,48.3,21.7c21.2,8.5,46.3,10.1,68.2,12.3
				c10.5,1.1,20.9,0.6,31.3-0.7c25.5-3.1,50.1-6,74.6-13c11.8-3.3,23.4-7.2,35.1-10.8c27.1-8.3,54.7-14.4,82.8-18.2
				c-13.3,1.8-26.6,3.6-39.9,5.4c17.7-2.4,35.4-3.9,53.2-4.5c-43.2-75.2-86.3-150.5-129.5-225.7c-10.6,20-19.2,41.4-27.3,62.5
				c-3.7,9.7-6.7,19.6-9.2,29.7c98.2,13.3,196.4,26.6,294.6,39.9c0-13.1-0.7-26.2-2.4-39.3c-3.3-25.4-5.4-52.1-13.7-76.7
				c-6-17.6-13.5-34.8-21.5-51.6c-2.8-5.9-6-11.6-9.7-16.9c-10.4-14.9-21.3-30.1-34-43.2c-13.1-13.5-29-24.5-44.3-35.2
				c-17.2-11-35.8-16.9-55.8-17.8c-19.9-4.5-39.9-3.6-59.8,2.7c-19.5,4.6-36.5,13.6-51,26.8c-16.3,10.6-29.2,24.6-38.6,42.1
				c-5,11.9-10.1,23.9-15.1,35.8c-7.1,26.6-7.1,53.2,0,79.8c5,11.9,10.1,23.9,15.1,35.8c13.3,22.5,31.3,40.5,53.8,53.8
				c1.6,1.1,3.1,2.2,4.6,3.4c-10.1-7.8-20.2-15.6-30.4-23.5c6.2,4.9,11.7,10.5,16.6,16.8c-7.8-10.1-15.6-20.2-23.5-30.4
				c6.3,8.2,11.3,17.1,15.3,26.5c-5-11.9-10.1-23.9-15.1-35.8c6.4,15.2,10.2,31.2,12.4,47.5c-1.8-13.3-3.6-26.6-5.4-39.9
				c1.7,13,2.4,26.1,2.4,39.3c-0.8,20.7,3.5,39.9,12.9,57.8c6,18.6,16.4,34.7,31,48.3c10.1,7.8,20.2,15.6,30.4,23.5
				c17.2,11,35.8,16.9,55.8,17.8c13.3,3.6,26.6,3.6,39.9,0c20-0.9,38.6-6.8,55.8-17.8c10.1-7.8,20.2-15.6,30.4-23.5
				c18.6-18.7,31.4-40.8,38.6-66.2c3-12.5,7-24.7,11.9-36.5c-5,11.9-10.1,23.9-15.1,35.8c2.9-6.8,6-13.4,9.4-19.8
				c13.6-23.4,20.4-48.6,20.5-75.7c-0.1-27.1-6.9-52.3-20.5-75.7c-26-44.4-77.2-76.1-129.5-74.3c-17.8,0.6-35.6,2.1-53.2,4.5
				c-30.4,4-60.7,7.7-90.5,14.8c-34.2,8.2-67,22.3-101.9,27.1c13.3-1.8,26.6-3.6,39.9-5.4c-11.7,1.5-23.5,1.7-35.3,0.2
				c13.3,1.8,26.6,3.6,39.9,5.4c-8.4-1.2-16.5-3.3-24.3-6.5c11.9,5,23.9,10.1,35.8,15.1c-6.3-2.7-12.1-6-17.6-10.2
				c10.1,7.8,20.2,15.6,30.4,23.5c-4.1-3.3-7.7-6.9-11-11c7.8,10.1,15.6,20.2,23.5,30.4c-3.4-4.5-6.2-9.3-8.5-14.5
				c5,11.9,10.1,23.9,15.1,35.8c-2.1-5.2-3.6-10.5-4.3-16.1c1.8,13.3,3.6,26.6,5.4,39.9c-0.5-4.6-0.5-9.1,0-13.6
				c-1.8,13.3-3.6,26.6-5.4,39.9c0.6-4.1,1.6-7.9,3.1-11.7c-5,11.9-10.1,23.9-15.1,35.8c0.9-2.1,2-4.1,3.1-6.1
				c-43.2,24.8-86.3,49.5-129.5,74.3c1.4,0,2.8,0.1,4.2,0.3c-13.3-1.8-26.6-3.6-39.9-5.4c2.3,0.4,4.4,1,6.6,1.9
				c-11.9-5-23.9-10.1-35.8-15.1c3,1.3,5.7,3,8.4,5c-10.1-7.8-20.2-15.6-30.4-23.5c4.6,3.7,8.6,8,12.2,12.7
				c-7.8-10.1-15.6-20.2-23.5-30.4c13.8,18.2,25.8,38.3,37.6,57.9c12.4,20.5,23.8,41.6,33.2,63.6c-5-11.9-10.1-23.9-15.1-35.8
				c10.1,23.9,17.5,48.7,21.1,74.4c-1.8-13.3-3.6-26.6-5.4-39.9c2.4,18.3,2.7,36.7,0.3,55c1.8-13.3,3.6-26.6,5.4-39.9
				c-3.1,22.4-10,43.8-18.7,64.6c5-11.9,10.1-23.9,15.1-35.8c-22.2,52.1-52.1,101.9-86.6,146.8c7.8-10.1,15.6-20.2,23.5-30.4
				c-15.1,19.5-31.7,37.9-51.2,53c10.1-7.8,20.2-15.6,30.4-23.5c-11.4,8.7-23.5,16.1-36.7,21.7c11.9-5,23.9-10.1,35.8-15.1
				c-6.9,2.9-13.8,5.2-21.2,6.2c13.3-1.8,26.6-3.6,39.9-5.4c-3.8,0.4-7.5,0.5-11.3,0.1c13.3,1.8,26.6,3.6,39.9,5.4
				c-2.7-0.4-5.2-1-7.8-2c11.9,5,23.9,10.1,35.8,15.1c-2.1-0.9-3.9-2-5.7-3.3c10.1,7.8,20.2,15.6,30.4,23.5c-1.4-1.2-2.7-2.5-3.9-4
				c7.8,10.1,15.6,20.2,23.5,30.4c-1.1-1.6-2.1-3.3-2.9-5.1c5,11.9,10.1,23.9,15.1,35.8c-1.1-2.8-1.8-5.6-2.3-8.6
				c1.8,13.3,3.6,26.6,5.4,39.9c-0.9-7.9,0.1-15.8,1.1-23.7c-1.8,13.3-3.6,26.6-5.4,39.9c5.5-40.3,16.8-79.4,32.5-116.9
				c-5,11.9-10.1,23.9-15.1,35.8c6-14.3,12.7-28.4,19.9-42.1c6.6-12.5,13.3-25,21.8-36.2c-7.8,10.1-15.6,20.2-23.5,30.4
				c5.1-6.7,10.8-12.8,17.5-17.9c-10.1,7.8-20.2,15.6-30.4,23.5c3.7-2.8,7.7-5.1,12-7c-11.9,5-23.9,10.1-35.8,15.1
				c3.4-1.3,6.8-2.3,10.4-2.8c-13.3,1.8-26.6,3.6-39.9,5.4c3.2-0.3,6.4-0.3,9.6,0.1c-13.3-1.8-26.6-3.6-39.9-5.4
				c3,0.5,5.9,1.3,8.7,2.4c-11.9-5-23.9-10.1-35.8-15.1c3,1.3,5.8,2.9,8.5,4.9c-10.1-7.8-20.2-15.6-30.4-23.5
				c3.3,2.6,6.2,5.5,8.8,8.8c-7.8-10.1-15.6-20.2-23.5-30.4c3.7,4.9,6.7,10.3,9.1,15.9c-5-11.9-10.1-23.9-15.1-35.8
				c4.8,11.4,7.3,23.3,8.9,35.5c-1.8-13.3-3.6-26.6-5.4-39.9c2.3,18,3,36.1,0.6,54.1c1.8-13.3,3.6-26.6,5.4-39.9
				c-1.6,11.5-4.5,22.6-9,33.3c5-11.9,10.1-23.9,15.1-35.8c-4.2,9.6-9.5,18.4-15.9,26.6c7.8-10.1,15.6-20.2,23.5-30.4
				c-9.7,12.3-21.3,23-33.7,32.6c10.1-7.8,20.2-15.6,30.4-23.5c-31.1,23.9-65.9,43.3-101.9,58.7c11.9-5,23.9-10.1,35.8-15.1
				c-39.1,16.5-80.2,28.1-122.2,33.9c13.3-1.8,26.6-3.6,39.9-5.4c-18.5,2.5-37.2,3.5-55.8,1.2c13.3,1.8,26.6,3.6,39.9,5.4
				c-11.1-1.5-21.9-4.2-32.2-8.5c11.9,5,23.9,10.1,35.8,15.1c-8.2-3.6-16-8-23.1-13.4c10.1,7.8,20.2,15.6,30.4,23.5
				c-5.8-4.6-11-9.7-15.6-15.5c7.8,10.1,15.6,20.2,23.5,30.4c-3.9-5.1-7.1-10.5-9.7-16.3c5,11.9,10.1,23.9,15.1,35.8
				c-2.9-6.9-4.7-14.1-5.7-21.5c1.8,13.3,3.6,26.6,5.4,39.9c-1.4-11.9-0.8-23.7,0.7-35.5c-1.8,13.3-3.6,26.6-5.4,39.9
				c6.4-47.2,20-93.8,38.4-137.6c-5,11.9-10.1,23.9-15.1,35.8c14.9-35.3,33.2-70.2,56.4-100.8c-7.8,10.1-15.6,20.2-23.5,30.4
				c6.9-8.9,14.5-17.2,23.4-24.1c-10.1,7.8-20.2,15.6-30.4,23.5c5.2-3.9,10.7-7.2,16.7-9.7c-11.9,5-23.9,10.1-35.8,15.1
				c4.7-1.9,9.5-3.2,14.4-3.9c-13.3,1.8-26.6,3.6-39.9,5.4c5.4-0.7,10.8-0.7,16.2-0.1c-13.3-1.8-26.6-3.6-39.9-5.4
				c6.3,0.9,12.4,2.6,18.3,5.1c-11.9-5-23.9-10.1-35.8-15.1c7.4,3.3,14.3,7.5,20.7,12.5c-10.1-7.8-20.2-15.6-30.4-23.5
				c10,7.8,18.7,17.1,26.4,27.1c-7.8-10.1-15.6-20.2-23.5-30.4c12.7,16.7,22.9,35.5,31.2,54.8c-5-11.9-10.1-23.9-15.1-35.8
				c8,19,13.8,38.7,16.7,59.1c-1.8-13.3-3.6-26.6-5.4-39.9c2.2,16.2,2.5,32.6,0.4,48.9c1.8-13.3,3.6-26.6,5.4-39.9
				c-2,14.4-5.8,28.4-11.3,41.9c5-11.9,10.1-23.9,15.1-35.8c-5.3,12.4-12,24-20.2,34.7c7.8-10.1,15.6-20.2,23.5-30.4
				c-6.7,8.5-14.3,16.2-22.9,23c10.1-7.8,20.2-15.6,30.4-23.5c-8.3,6.4-17.3,11.8-27,15.9c11.9-5,23.9-10.1,35.8-15.1
				c-8.6,3.5-17.4,6-26.6,7.3c13.3-1.8,26.6-3.6,39.9-5.4c-7.4,0.9-14.8,0.9-22.2,0c13.3,1.8,26.6,3.6,39.9,5.4
				c-6.7-1-13.1-2.7-19.4-5.3c11.9,5,23.9,10.1,35.8,15.1c-6.6-2.9-12.7-6.5-18.5-10.9c10.1,7.8,20.2,15.6,30.4,23.5
				c-6.5-5.1-12.2-11-17.4-17.5c7.8,10.1,15.6,20.2,23.5,30.4c-6-7.8-10.9-16.3-14.8-25.3c5,11.9,10.1,23.9,15.1,35.8
				c-4.5-10.8-7.4-22.1-9.1-33.7c1.8,13.3,3.6,26.6,5.4,39.9c-2.6-19.7-1.7-39.5,0.8-59.1c-1.8,13.3-3.6,26.6-5.4,39.9
				c6.7-49.4,20.9-97.9,40.2-143.8c-5,11.9-10.1,23.9-15.1,35.8c9.6-22.7,19.7-46.3,34.8-66c-7.8,10.1-15.6,20.2-23.5,30.4
				c4.5-5.7,9.5-10.9,15.1-15.5c-10.1,7.8-20.2,15.6-30.4,23.5c2.9-2.2,5.9-4.2,9-6c-60.6-78.5-121.2-157.1-181.8-235.6
				c-9.4,8.1-19,15.9-28.8,23.5c10.1-7.8,20.2-15.6,30.4-23.5c-42,32.3-88,60.7-136.8,81.6c11.9-5,23.9-10.1,35.8-15.1
				c-5.6,2.3-11.3,4.3-17.4,5.2c13.3-1.8,26.6-3.6,39.9-5.4c-3,0.3-5.8,0.4-8.8,0.2c13.3,1.8,26.6,3.6,39.9,5.4
				c-1.8-0.3-3.5-0.6-5.2-1.1c34.9,34.9,69.8,69.8,104.8,104.8c-0.1-0.5-0.2-1-0.2-1.5c1.8,13.3,3.6,26.6,5.4,39.9
				c-0.3-3-0.3-5.9-0.1-8.9c-1.8,13.3-3.6,26.6-5.4,39.9c0.5-3.9,1.5-7.6,3-11.3c-5,11.9-10.1,23.9-15.1,35.8
				c2.2-5.2,5.1-9.9,8.5-14.4c-7.8,10.1-15.6,20.2-23.5,30.4c11.2-14.4,25.9-25.8,39.8-37.5c14.9-12.5,30-24.9,45.4-36.8
				c-10.1,7.8-20.2,15.6-30.4,23.5c42.8-33,88.4-62.9,138.2-84.2c17.5-9.4,31.5-22.3,42.1-38.6c13.3-14.5,22.2-31.5,26.8-51
				c1.8-13.3,3.6-26.6,5.4-39.9c0.8-20.7-3.5-39.9-12.9-57.8c-3.6-12.7-10-23.7-19.3-33.1c-10.6-16.3-24.6-29.2-42.1-38.6
				c-11.9-5-23.9-10.1-35.8-15.1c-26.6-7.1-53.2-7.1-79.8,0c-22.8,6.3-45.9,11-69.3,14.3c13.3-1.8,26.6-3.6,39.9-5.4
				c-18.3,2.5-36.8,4-55.3,4.5c-20.7-0.8-39.9,3.5-57.8,12.9c-18.6,6-34.7,16.4-48.3,31c-14.6,13.6-25,29.7-31,48.3
				c-9.4,17.9-13.7,37.1-12.9,57.8c1.8,13.3,3.6,26.6,5.4,39.9c7.1,25.4,20,47.5,38.6,66.2c10.1,7.8,20.2,15.6,30.4,23.5
				C659.7,1031.9,684.9,1038.8,712,1038.8L712,1038.8z"/>
		</g>
	</g>
	<g display="inline">
		<g>
			<path d="M1296.3,576.4c-7.9-17.7-22-33.3-33.7-47.9c-12.1-15-29.6-27-44.9-37.4c-3-2-6.2-3.7-9.5-5.1
				c-14.6-6.5-29.8-13.6-45.3-18.6c-8.6-2.7-17.3-5.2-26-7.8c-16.9-5.1-33.8-10.4-50.8-15.2c-53.5-15.2-111.1-1.4-150.8,37.9
				c-21,20.8-22.8,27.3-32.3,49.8c-3.2,7.5-7.2,14.5-8.7,22.5c-7.3,37.8-8.6,63.8,0.8,101.5c4.6,19.5,13.6,36.5,26.8,51
				c10.6,16.3,24.6,29.2,42.1,38.6c17.2,11,35.8,16.9,55.8,17.8c19.9,4.5,39.9,3.6,59.8-2.7c11.9-5,23.9-10.1,35.8-15.1
				c22.5-13.3,40.5-31.3,53.8-53.8c5-11.9,10.1-23.9,15.1-35.8c7.1-26.6,7.1-53.2,0-79.8c-0.4-1.8-0.8-3.6-1.1-5.4
				c1.8,13.3,3.6,26.6,5.4,39.9c-0.6-4.3-0.6-8.5-0.2-12.8c-1.8,13.3-3.6,26.6-5.4,39.9c0.4-2.8,0.9-5.5,1.7-8.2
				c-5,11.9-10.1,23.9-15.1,35.8c0.2-0.3,0.3-0.6,0.5-0.9c-7.8,10.1-15.6,20.2-23.5,30.4c0.2-0.2,0.5-0.4,0.7-0.6
				c-22.1,12.9-44.1,25.7-66.2,38.6c0.5-0.1,1-0.2,1.4-0.2c-26.6,0-53.2,0-79.8,0c15.1,3.4,29.9,8.9,44.7,13.3
				c14.6,4.4,29.8,8,44,13.7c-11.9-5-23.9-10.1-35.8-15.1c4.6,2,8.8,4.3,12.8,7.3c-10.1-7.8-20.2-15.6-30.4-23.5
				c4.5,3.6,8.5,7.6,12,12.1c-7.8-10.1-15.6-20.2-23.5-30.4c4.1,5.5,7.5,11.3,10.3,17.6c9.4,17.5,22.3,31.5,38.6,42.1
				c14.5,13.3,31.5,22.2,51,26.8c19.9,6.3,39.9,7.1,59.8,2.7c20-0.9,38.6-6.8,55.8-17.8c10.1-7.8,20.2-15.6,30.4-23.5
				c18.6-18.7,31.4-40.8,38.6-66.2c1.8-13.3,3.6-26.6,5.4-39.9C1316.7,625,1309.8,599.8,1296.3,576.4L1296.3,576.4z"/>
		</g>
	</g>
	<g display="inline">
		<g>
			<path d="M1209,400c-15.7-5.3-31.8-9.6-48.1-12.7c-20.7-3.9-41.8-6.3-62.7-8.9c-7.9-1-15.9-1.7-23.9-2.1
				c-16.6-0.9-33.2-0.7-49.7,0.6c-21,1.7-42,4.9-62.8,8c-8.2,1.2-16.4,2.7-24.5,4.5c-18.2,4-36.1,9.5-53.5,16.3
				c-19.5,4.6-36.5,13.6-51,26.8c-16.3,10.6-29.2,24.6-38.6,42.1c-11,17.2-16.9,35.8-17.8,55.8c-4.5,19.9-3.6,39.9,2.7,59.8
				c5,11.9,10.1,23.9,15.1,35.8c13.3,22.5,31.3,40.5,53.8,53.8c11.9,5,23.9,10.1,35.8,15.1c26.6,7.1,53.2,7.1,79.8,0
				c26.5-10.4,54.2-17.5,82.4-21.3c-13.3,1.8-26.6,3.6-39.9,5.4c31.8-4.2,63.9-4.2,95.7-0.1c-13.3-1.8-26.6-3.6-39.9-5.4
				c22.9,3.1,45.5,8.4,67.4,15.8c19.9,6.3,39.9,7.1,59.8,2.7c20-0.9,38.6-6.8,55.8-17.8c17.5-9.4,31.5-22.3,42.1-38.6
				c13.3-14.5,22.2-31.5,26.8-51c1.8-13.3,3.6-26.6,5.4-39.9c-0.1-27.1-6.9-52.3-20.5-75.7c-7.8-10.1-15.6-20.2-23.5-30.4
				C1256.5,420,1234.4,407.1,1209,400L1209,400z"/>
		</g>
	</g>
	<g display="inline">
		<g>
			<path d="M1273.9,714.9c1.4-0.8,2.8-1.5,4.2-2.2c-11.9,5-23.9,10.1-35.8,15.1c2.9-1.1,5.9-1.9,9-2.3c-13.3,1.8-26.6,3.6-39.9,5.4
				c4.3-0.4,8.5-0.3,12.8,0.2c-13.3-1.8-26.6-3.6-39.9-5.4c16.3,2.2,32.2,7.9,48,12.3c17.2,4.8,34.4,9.7,51.7,14.5
				c33.7,9.5,67.5,18.9,101.1,28.5c14.7,4.2,29.2,8.7,43.3,14.6c-11.9-5-23.9-10.1-35.8-15.1c11.7,5,22.9,11,33,18.7
				c-10.1-7.8-20.2-15.6-30.4-23.5c6.4,5,12.2,10.7,17.3,17.1c-7.8-10.1-15.6-20.2-23.5-30.4c4.4,5.8,8,12,10.9,18.6
				c-5-11.9-10.1-23.9-15.1-35.8c3.5,8.4,5.8,17.2,7.1,26.2c-1.8-13.3-3.6-26.6-5.4-39.9c2.4,18.1,1.2,36.3-1.2,54.3
				c1.8-13.3,3.6-26.6,5.4-39.9c-10.6,77.7-31,154.7-57.4,228.5c-7.6,21.2-15.7,42.2-24.5,62.9c5-11.9,10.1-23.9,15.1-35.8
				c-46.3,109.3-110.1,209.5-178.1,306.4c-19.3,27.5-38.8,54.7-58.4,82c-11,17.2-16.9,35.8-17.8,55.8c-4.5,19.9-3.6,39.9,2.7,59.8
				c5,11.9,10.1,23.9,15.1,35.8c13.3,22.5,31.3,40.5,53.8,53.8c14.2,6.7,28.5,13.7,43.5,18.1c14.3,4.2,39.7,6.2,47.8,7
				c18.8,1.8,40.8-2.9,57.8-5.9c6.2-1.1,12.2-2.7,18-4.9c18.1-6.6,36.1-14.1,53.3-22.8c24.4-12.3,47.9-27.1,70.5-42.4
				c32.9-22.2,64.5-46.6,95.1-71.8c21.2-17.6,41.6-36.2,60.9-55.8c9.1-9.2,18-18.6,26.1-28.6c15.4-19,33.2-39.6,44.4-62.1
				c4.1-8.2,7.4-17,11-25.4c3.5-8.4,7.5-16.9,10.4-25.6c5.9-17.7,7.4-39.4,9.4-56.7c0.7-6.1,0.8-12,0.1-18.1
				c-1.5-13-3.2-28.5-5.6-41.3c-0.3-1.5-0.5-2.9-0.9-4.3c-3.9-15.3-11.3-30.6-18.1-44.1c-7.8-15.7-19.2-30.3-32-42.1
				c-28-25.8-43.6-32.9-78.5-46.3c-5.2-2-10.3-3.3-15.8-4.2c-18.9-3.1-38.7-6.2-58.1-6.8c-30.4-0.8-60.8-1.1-91.1-1.6
				c-70-1.2-140.1-2.4-210.1-3.6c48.2,36.7,96.4,73.4,144.6,110.1c-0.4-1-0.7-2-0.8-3c1.8,13.3,3.6,26.6,5.4,39.9c-0.1-1-0.1-2,0-3
				c-1.8,13.3-3.6,26.6-5.4,39.9c0.3-1.6,0.7-3,1.3-4.5c-5,11.9-10.1,23.9-15.1,35.8c1.2-2.5,2.7-4.8,4.4-7
				c-7.8,10.1-15.6,20.2-23.5,30.4c9.8-11.9,21.5-22.6,32.9-33c11.6-10.6,23.6-20.7,36-30.3c-10.1,7.8-20.2,15.6-30.4,23.5
				c18-13.8,36.7-27.4,57.7-36.4c-11.9,5-23.9,10.1-35.8,15.1c8.8-3.6,17.9-6.4,27.4-7.7c-13.3,1.8-26.6,3.6-39.9,5.4
				c7.5-0.9,14.9-0.9,22.4,0.1c-13.3-1.8-26.6-3.6-39.9-5.4c6.4,1,12.5,2.6,18.5,5.1c-11.9-5-23.9-10.1-35.8-15.1
				c4.5,2,8.7,4.4,12.6,7.3c-10.1-7.8-20.2-15.6-30.4-23.5c3.1,2.4,5.9,5.1,8.5,8c13.6,14.6,29.7,25,48.3,31
				c17.9,9.4,37.1,13.7,57.8,12.9c20.7,0.8,39.9-3.5,57.8-12.9c18.6-6,34.7-16.4,48.3-31c7.8-10.1,15.6-20.2,23.5-30.4
				c13.6-23.4,20.4-48.6,20.5-75.7c-1.8-13.3-3.6-26.6-5.4-39.9c-7.1-25.4-20-47.5-38.6-66.2c-6.8-7.7-15.6-13.5-23.7-19.7
				c-8-6.2-15.9-13.3-25.1-17.8c-13-6.3-27.1-11.9-40.5-17.2c-1.8-0.7-3.7-1.3-5.6-1.9c-16.2-4.8-36.8-6-51.5-7.8
				c-4-0.5-7.9-0.7-11.9-0.7c-2.2,0-4.5,0.2-6.7,0.4c-14.9,1.4-30.2,3.7-45,6c-21.4,3.4-43.9,14.9-62.6,23.2
				c-18.1,8.1-34.5,19.4-50.3,31.3c-26.1,19.6-52.2,39.5-76.1,61.8c-8.4,7.8-16.5,15.9-24.4,24.3c-10.3,10.9-19.1,23.4-28,35.4
				c-1.7,2.3-3.1,4.5-4.4,7c-2.5,6-5,11.9-7.6,17.9c-2.9,6.4-5.6,12.8-8.1,19.4c-3.6,13.4-6.1,36.4-6.1,42.9c0,1,0,2,0,3
				c1.8,13.3,3.6,26.6,5.4,39.9c0.1,1,0.4,2,0.8,3c5,11.9,10.1,23.9,15.1,35.8c9.4,17.5,22.3,31.5,38.6,42.1
				c9.4,9.3,20.4,15.7,33.1,19.3c17.9,9.4,37.1,13.7,57.8,12.9c84.3,1.4,168.6,2.9,252.9,4.3c21.5,0.4,43.7-0.7,65.1,2
				c-13.3-1.8-26.6-3.6-39.9-5.4c5.9,0.8,11.7,2.2,17.3,4.4c-11.9-5-23.9-10.1-35.8-15.1c3.6,1.6,6.9,3.4,10,5.8
				c-10.1-7.8-20.2-15.6-30.4-23.5c2.3,1.9,4.4,3.9,6.3,6.2c-7.8-10.1-15.6-20.2-23.5-30.4c2.1,2.7,3.7,5.6,5.2,8.7
				c-5-11.9-10.1-23.9-15.1-35.8c1.7,4.1,2.8,8.3,3.5,12.7c-1.8-13.3-3.6-26.6-5.4-39.9c0.8,6,0.7,12-0.1,18.1
				c1.8-13.3,3.6-26.6,5.4-39.9c-1.2,8.5-3.7,16.6-6.9,24.5c5-11.9,10.1-23.9,15.1-35.8c-5.4,12.7-12.8,24.4-21.2,35.3
				c7.8-10.1,15.6-20.2,23.5-30.4c-15.6,20-34,37.9-52.5,55.2c-19.1,17.8-39,34.7-59.6,50.6c10.1-7.8,20.2-15.6,30.4-23.5
				c-19.5,15-39.7,29.2-60.4,42.4c-20.5,13-41.6,26.3-63.9,35.9c11.9-5,23.9-10.1,35.8-15.1c-8.4,3.5-17.1,6.3-26.1,7.7
				c13.3-1.8,26.6-3.6,39.9-5.4c-5.4,0.7-10.8,0.9-16.3,0.3c13.3,1.8,26.6,3.6,39.9,5.4c-4.3-0.6-8.5-1.7-12.5-3.3
				c11.9,5,23.9,10.1,35.8,15.1c-1-0.4-2-0.9-3-1.4c17.9,68.4,35.9,136.8,53.8,205.2c48.2-67.1,96.4-134.2,139.9-204.5
				c21.9-35.3,42.6-71.3,61.4-108.4c24-47.3,45-96.3,64.1-145.7c29.6-76.8,51.3-156.7,65-237.8c3.7-21.8,6.6-43.8,9.2-65.7
				c1-9.1,1.7-18.2,1.7-27.4c0-21.7-3.7-44-7.5-65c-3.8-20.8-14.1-41.9-22.8-60.2c-1.8-3.8-3.9-7.5-6.2-11c-1.1-1.6-2.2-3.2-3.4-4.7
				c-8.6-11.5-17.2-23.4-26.6-34.3c-2.5-2.9-5.2-5.6-8-8.2c-12.1-10.9-25.6-20.6-38.7-30.2c-6.7-4.9-13.8-9-21.3-12.6
				c-18.6-9.1-37.7-17-57.1-24.1c-17.1-6.2-34.7-10.9-52.2-15.8c-21.1-5.9-42.1-11.9-63.2-17.8s-42.1-11.9-63.2-17.8
				c-10.8-3.1-21.7-6.1-32.5-9.2c-21.1-5.9-43.2-9.2-65.1-10.5c-2.1-0.1-4.3-0.2-6.4,0c-7.4,0.5-15.8,2-22.3,2.9
				c-6.3,0.8-15,1.7-22.3,3c-16.5,3-32.4,10.8-46.8,19.2c-17.5,9.4-31.5,22.3-42.1,38.6c-13.3,14.5-22.2,31.5-26.8,51
				c-6.3,19.9-7.1,39.9-2.7,59.8c0.9,20,6.8,38.6,17.8,55.8c7.8,10.1,15.6,20.2,23.5,30.4c18.7,18.6,40.8,31.4,66.2,38.6
				c13.3,1.8,26.6,3.6,39.9,5.4C1225.3,735.3,1250.5,728.5,1273.9,714.9L1273.9,714.9z"/>
		</g>
	</g>
	<g display="inline">
		<g>
			<path d="M1784.1,1706.8c11,2.4,21.7,5.6,32.1,9.9c-11.9-5-23.9-10.1-35.8-15.1c6.4,2.7,13.1,5.4,18.6,9.6
				c-10.1-7.8-20.2-15.6-30.4-23.5c1,0.8,1.9,1.8,2.7,2.9c-7.8-10.1-15.6-20.2-23.5-30.4c0.3,0.6,0.7,1.1,1,1.7
				c-5-11.9-10.1-23.9-15.1-35.8c0.5,1.1,0.9,2.3,1.1,3.6c-1.8-13.3-3.6-26.6-5.4-39.9c0.1,1.2,0.1,2.4-0.1,3.5
				c1.8-13.3,3.6-26.6,5.4-39.9c-0.2,1.2-0.6,2.3-1.2,3.4c5-11.9,10.1-23.9,15.1-35.8c-0.6,1.2-1.2,2.2-2,3.3
				c7.8-10.1,15.6-20.2,23.5-30.4c-1.8,2.2-3.7,4-5.9,5.8c10.1-7.8,20.2-15.6,30.4-23.5c-3.6,2.6-7.4,4.6-11.5,6.4
				c11.9-5,23.9-10.1,35.8-15.1c-27.6,11.6-56.9,17.3-86.4,21.3c13.3-1.8,26.6-3.6,39.9-5.4c-128.7,17.1-258.9,25.6-388.6,29.3
				c-36.8,1.1-73.7,1.6-110.5,1.8c0,100,0,200,0,300c60.7-7.8,120.9-16.8,180.3-31.4c47.1-11.6,93.5-25.9,139-42.8
				c56.7-21.1,112.7-45.1,166.7-72.5c21.6-11,42.9-22.6,63.9-34.8c9.5-5.5,19.1-11.1,28.1-17.3c14.1-9.7,27.5-20.5,40.8-31.1
				c3.9-3.1,7.7-6.4,11.2-9.9c15.2-15.1,29.6-32.4,39.2-51.6c6.8-13.6,15.3-30.8,19.1-46.9c3.3-14.1,4.6-29.4,6.1-43.7
				c0.3-2.7,0.5-5.3,0.5-8c-0.2-8.3-2.2-18.4-3.2-25.6c-1-7.3-1.6-17.2-3.7-25.1c-4.2-15.8-11.3-31-18.8-45.4
				c-0.9-1.8-2-3.4-3.1-5.1c-7.5-11.4-17.2-23.3-26-33.8c-2.6-3.1-5.4-6-8.6-8.6c-12.5-10.4-25.3-21.1-39.1-29.8
				c-3.7-2.3-7.6-4.4-11.5-6.2c-19-8.9-39.1-18.1-59.6-23.7c-8.9-2.4-18-4.1-27.2-5.4c-25.4-3.6-50.8-7.2-76.4-9.7
				c-118-11.5-235.6,1.7-352.6,17.6c-105.4,14.4-210,34.5-315.3,49.5c-13.2,1.9-26.5,3.7-39.7,5.5c13.3-1.8,26.6-3.6,39.9-5.4
				c-150.4,20.2-301.7,33.7-453.2,42.5c-21,1.2-41.9,2.3-62.9,3.4c-20.3,1-41.8,4-62,1.6c13.3,1.8,26.6,3.6,39.9,5.4
				c-3.9-0.6-7.6-1.6-11.2-3.1c11.9,5,23.9,10.1,35.8,15.1c-2-1-3.8-2-5.5-3.3c10.1,7.8,20.2,15.6,30.4,23.5
				c-1.4-1.2-2.6-2.4-3.8-3.9c7.8,10.1,15.6,20.2,23.5,30.4c-1.1-1.5-2-3-2.8-4.7c5,11.9,10.1,23.9,15.1,35.8
				c-0.9-2.3-1.6-4.4-1.9-6.8c1.8,13.3,3.6,26.6,5.4,39.9c-0.1-1.8-0.1-3.3,0.1-5.1c-1.8,13.3-3.6,26.6-5.4,39.9
				c0.2-1.1,0.5-2.2,0.9-3.2c-5,11.9-10.1,23.9-15.1,35.8c0.4-1,0.9-2,1.6-2.9c-7.8,10.1-15.6,20.2-23.5,30.4
				c0.7-0.9,1.5-1.8,2.3-2.5c-35.4,14.6-70.7,29.3-106.1,43.9c36.9,2.7,73.7,6.8,110.4,11.7c-13.3-1.8-26.6-3.6-39.9-5.4
				c113.8,15.4,226.8,37.2,339.9,56.9c113.8,19.9,227.5,39.8,341.3,59.6c31.9,5.6,63.8,11.1,95.7,16.7c16.2,2.8,32.4,5.7,48.5,8.5
				c13.7,2.4,28.2,3.7,41.2,8.7c-11.9-5-23.9-10.1-35.8-15.1c2.5,1.1,4.8,2.4,7.1,3.9c-10.1-7.8-20.2-15.6-30.4-23.5
				c2.2,1.7,4,3.5,5.7,5.7c22.1-83.6,44.1-167.1,66.2-250.7c-8.3,2.7-16.7,4.7-25.4,5.9c13.3-1.8,26.6-3.6,39.9-5.4
				c-24.5,3.2-49.2,1.2-73.6-1.5c-26.4-2.9-52.7-5.8-79.2-8.2c-53.9-5.1-108-9-162.1-11.7c-107.2-5.5-214.7-6.4-322-2.9
				c-60.9,2-121.6,5.5-182.3,10.4c-20.7-0.8-39.9,3.5-57.8,12.9c-18.6,6-34.7,16.4-48.3,31c-7.8,10.1-15.6,20.2-23.5,30.4
				c-11,17.2-16.9,35.8-17.8,55.8c-3.6,13.3-3.6,26.6,0,39.9c0.9,20,6.8,38.6,17.8,55.8c7.8,10.1,15.6,20.2,23.5,30.4
				c18.7,18.6,40.8,31.4,66.2,38.6c90.5,16.9,182.8,26,274.8,21.8c20.7,0.8,39.9-3.5,57.8-12.9c18.6-6,34.7-16.4,48.3-31
				c14.6-13.6,25-29.7,31-48.3c9.4-17.9,13.7-37.1,12.9-57.8c-1.8-13.3-3.6-26.6-5.4-39.9c-7.1-25.4-20-47.5-38.6-66.2
				c-10.1-7.8-20.2-15.6-30.4-23.5c-23.4-13.6-48.6-20.4-75.7-20.5c-60.7,2.7-121.4,0.1-181.6-7.9c13.3,1.8,26.6,3.6,39.9,5.4
				c-17.9-2.4-35.6-5.3-53.3-8.6c-13.3,98.2-26.6,196.4-39.9,294.6c111.3-9,223.1-13.2,334.8-12.5s223.4,6.4,334.6,16.9
				c30.7,2.9,61.4,6.8,92.1,9.6c14,1.3,28.1,2,42.2,1.3c19.8-1,39.8-4.2,59.3-7.4c7.3-1.2,14.5-3,21.5-5.3
				c25.4-7.1,47.5-20,66.2-38.6c18.6-18.7,31.4-40.8,38.6-66.2c7.1-26.6,7.1-53.2,0-79.8c-7.1-25.4-20-47.5-38.6-66.2
				c-5.5-7.1-14.2-12.3-20.9-17.4c-8.3-6.4-13.7-11.6-22.3-15.6c-16.7-7.8-33.9-16.1-52.1-19.5c-16.8-3.1-33.7-5.9-50.6-8.9
				c-33.3-5.8-66.6-11.6-99.9-17.5c-68.1-11.9-136.1-23.8-204.2-35.7c-135.1-23.6-270.1-48.3-405.4-70.5
				c-45.1-7.4-90.4-13.7-135.7-19.7c-33.8-4.5-67.9-8.5-102-10.7c-15-1-17.7-1.7-42.7,5.2c-11.9,5-23.9,10.1-35.8,15.1
				c-10.1,7.8-20.2,15.6-30.4,23.5c-10.2,10.6-19.7,22.3-27,35c-15.3,26.5-15.6,34.2-19,59.7c-3.6,27.1-5,34.4,2.7,65.8
				c7.5,30.2,22.9,54,43.2,76.8c21.1,23.7,49.3,37.1,78.7,47c26,8.8,54.2,8.2,81.3,6.9c17.2-0.8,34.3-1.6,51.5-2.5
				c135.3-7.1,270.5-17.8,405.1-33.6c79.6-9.3,159.2-20.1,238.4-32.6c67-10.6,133.8-22.5,200.9-32.6c16.4-2.5,32.9-4.8,49.3-7.1
				c-13.3,1.8-26.6,3.6-39.9,5.4c111.9-15,225.5-22.7,337.9-7.9c-13.3-1.8-26.6-3.6-39.9-5.4c18.2,2.5,36,6,53,13.2
				c-11.9-5-23.9-10.1-35.8-15.1c7.4,3.3,14.5,7.1,21,11.9c-10.1-7.8-20.2-15.6-30.4-23.5c4.6,3.6,8.8,7.6,12.4,12.2
				c-7.8-10.1-15.6-20.2-23.5-30.4c2.4,3.2,4.3,6.6,6,10.2c-5-11.9-10.1-23.9-15.1-35.8c1.6,3.8,2.6,7.6,3.3,11.7
				c-1.8-13.3-3.6-26.6-5.4-39.9c0.6,4.6,0.6,9.1,0,13.7c1.8-13.3,3.6-26.6,5.4-39.9c-0.8,4.6-2,8.9-3.9,13.1
				c5-11.9,10.1-23.9,15.1-35.8c-2.3,4.9-5,9.4-8.3,13.7c7.8-10.1,15.6-20.2,23.5-30.4c-6.2,7.8-13.4,14.5-21.2,20.6
				c10.1-7.8,20.2-15.6,30.4-23.5c-26.2,20-56.6,35.4-85.7,50.7c-31.1,16.3-62.8,31.3-95.1,45c11.9-5,23.9-10.1,35.8-15.1
				c-102.3,43.1-209.9,72.7-319.8,87.7c13.3-1.8,26.6-3.6,39.9-5.4c-3.4,0.5-6.9,0.9-10.3,1.4c-20.7-0.8-39.9,3.5-57.8,12.9
				c-18.6,6-34.7,16.4-48.3,31c-14.6,13.6-25,29.7-31,48.3c-9.4,17.9-13.7,37.1-12.9,57.8c1.8,13.3,3.6,26.6,5.4,39.9
				c7.1,25.4,20,47.5,38.6,66.2c29.3,26.9,65.5,44.1,106.1,43.9c98.1-0.3,196.2-4,294.1-11.1c49.2-3.6,98.3-8,147.3-13.3
				c35.7-3.8,71.3-8.1,106.8-13.4c22-3.2,44-7.7,65.1-15.2c17.4-6.2,34.8-13.4,51.3-21.4c2.2-1.1,4.3-2.3,6.4-3.7
				c5.7-3.8,13.6-10.4,16.9-13c4.9-3.8,12.3-8.9,17.6-13.8c0.8-0.7,1.5-1.4,2.2-2.2c0.4-0.5,0.9-1,1.3-1.6
				c7.8-10.1,15.6-20.2,23.5-30.4c0.5-0.8,1.1-1.6,1.6-2.4c3.6-6.3,13.9-30.6,15.9-37.5c0.2-0.8,0.5-1.7,0.8-2.6
				c1.8-13.3,3.6-26.6,5.4-39.9c0.1-0.6,0.1-1.2,0.2-1.8c0-7-2.3-18.8-2.7-21.7c-1.5-10.9-1.3-15.5-3.7-23.5
				c-1.6-5.4-12.9-32-15.6-36.7c-4-6.9-19.1-26.1-24.6-32c-0.7-0.7-1.4-1.4-2.1-2.1c-10.1-7.8-20.2-15.6-30.4-23.5
				c-0.5-0.4-1.1-0.8-1.6-1.2c-4.6-3-9.7-5.2-14.6-7.4c-22.9-10.1-45.8-20.7-70.3-26c-19.9-6.3-39.9-7.1-59.8-2.7
				c-20,0.9-38.6,6.8-55.8,17.8c-17.5,9.4-31.5,22.3-42.1,38.6c-13.3,14.5-22.2,31.5-26.8,51c-1.8,13.3-3.6,26.6-5.4,39.9
				c0.1,27.1,6.9,52.3,20.5,75.7c7.8,10.1,15.6,20.2,23.5,30.4C1736.6,1686.8,1758.7,1699.7,1784.1,1706.8L1784.1,1706.8z"/>
		</g>
	</g>
	<g display="inline">
		<g>
			<path d="M1757,1583.5c-82.1-8.2-164.4-0.1-246.4,4.9c-81.9,4.9-163.7,3.5-245.4-3.3c-46.4-3.9-92.7-9.2-138.9-15.4
				c13.3,1.8,26.6,3.6,39.9,5.4c-140-18.9-279.5-42.9-418.5-68.4c-19.8-3.6-39.5-7.3-59.3-11c-17-3.2-35.6-4.9-51.7-11.7
				c11.9,5,23.9,10.1,35.8,15.1c-3.2-1.5-6.1-3.1-8.8-5.2c10.1,7.8,20.2,15.6,30.4,23.5c-1.8-1.5-3.4-3.1-4.9-4.8
				c7.8,10.1,15.6,20.2,23.5,30.4c-1.7-2.2-3.1-4.5-4.3-7c5,11.9,10.1,23.9,15.1,35.8c-1.3-3-2.1-6-2.6-9.3
				c1.8,13.3,3.6,26.6,5.4,39.9c-0.5-4.5-0.4-8.9,0.1-13.4c-1.8,13.3-3.6,26.6-5.4,39.9c1.3-8.9,4.1-17.4,7.5-25.7
				c-5,11.9-10.1,23.9-15.1,35.8c1.4-3.3,2.8-6.5,4.4-9.7c11-17.2,16.9-35.8,17.8-55.8c4.5-19.9,3.6-39.9-2.7-59.8
				c-4.6-19.5-13.6-36.5-26.8-51c-10.6-16.3-24.6-29.2-42.1-38.6c-11.9-5-23.9-10.1-35.8-15.1c-26.6-7.1-53.2-7.1-79.8,0
				c-11.9,5-23.9,10.1-35.8,15.1c-22.5,13.3-40.5,31.3-53.8,53.8c-18.4,38.5-33.2,75.1-32.8,118.7c0,1.9,0.2,3.8,0.4,5.7
				c1.2,11,3.5,29.9,5.5,40.7c0.2,1.1,0.4,2.1,0.7,3.2c4,15.6,10.4,31,18.8,44.7c0.4,0.7,0.9,1.4,1.4,2.1c6.6,9.5,16.8,23,24.5,31.7
				c1.1,1.3,2.3,2.5,3.6,3.7c8.6,8,22.1,17.6,31.7,24.6c0.7,0.5,1.4,1,2.1,1.5c1.9,1.3,3.9,2.4,6,3.4c12.4,6,26.1,11.5,39,16.5
				c1.9,0.7,3.9,1.4,5.8,1.9c4,1.1,8,2,12.1,2.8c10.4,2.1,20.9,4,31.4,6c20.9,3.9,41.8,7.8,62.7,11.7c84.4,15.5,169,30,253.8,43.6
				c96.5,15.5,193.3,30.2,290.6,40.3c84.5,8.8,169.5,13.4,254.5,10c84.8-3.4,169.6-13.9,254.6-9.4c10.7,0.6,21.5,1.4,32.2,2.5
				c20.7,0.8,39.9-3.5,57.8-12.9c18.6-6,34.7-16.4,48.3-31c14.6-13.6,25-29.7,31-48.3c9.4-17.9,13.7-37.1,12.9-57.8
				c-1.8-13.3-3.6-26.6-5.4-39.9c-7.1-25.4-20-47.5-38.6-66.2c-10.1-7.8-20.2-15.6-30.4-23.5C1809.3,1590.4,1784,1583.5,1757,1583.5
				L1757,1583.5z"/>
		</g>
	</g>
	<g display="inline">
		<g>
			<path d="M663.9,1254.1c-5.4-10.5-10.4-21.3-15.1-32.2c5,11.9,10.1,23.9,15.1,35.8c-17.9-42.7-29.6-87.7-35.8-133.5
				c1.8,13.3,3.6,26.6,5.4,39.9c-7.7-57.7-6.7-116,1-173.6c-1.8,13.3-3.6,26.6-5.4,39.9c8.6-63.5,25.2-125.7,46.6-186
				c5.8-16.3,11.9-32.6,18.6-48.6c-5,11.9-10.1,23.9-15.1,35.8c9.6-22.6,20.7-44.7,35.7-64.2c-7.8,10.1-15.6,20.2-23.5,30.4
				c8.1-10.3,17.1-19.7,27.5-27.7c-10.1,7.8-20.2,15.6-30.4,23.5c6.2-4.7,12.8-8.7,20-11.8c-11.9,5-23.9,10.1-35.8,15.1
				c4.6-1.8,9.3-3.2,14.3-4c-13.3,1.8-26.6,3.6-39.9,5.4c4.4-0.6,8.7-0.6,13.1-0.1c-13.3-1.8-26.6-3.6-39.9-5.4
				c4.3,0.6,8.5,1.7,12.5,3.4c-11.9-5-23.9-10.1-35.8-15.1c3.1,1.4,5.9,3.1,8.5,5.1c-10.1-7.8-20.2-15.6-30.4-23.5
				c2.2,1.9,4.2,3.9,6,6.1c13.6,14.6,29.7,25,48.3,31c17.9,9.4,37.1,13.7,57.8,12.9c20.7,0.8,39.9-3.5,57.8-12.9
				c18.6-6,34.7-16.4,48.3-31c7.8-10.1,15.6-20.2,23.5-30.4c13.6-23.4,20.4-48.6,20.5-75.7c-1.8-13.3-3.6-26.6-5.4-39.9
				c-7.1-25.4-20-47.5-38.6-66.2c-1.8-2.3-3.8-4.2-6-6.1c-3.2-2.7-23.4-19.9-35.1-26.7c-13.1-7.5-27.6-12.5-41.7-17.9
				c-3-1.1-6-1.9-9.1-2.4c-15.6-2.8-36.7-7.5-54.4-5.5c-13.1,1.5-28.6,3.2-41.5,5.6c-1.6,0.3-3.2,0.6-4.8,1.1
				c-14.5,3.8-33.5,13.3-43.6,17.7c-5.6,2.5-10.9,5.3-16,8.8c-15.3,10.6-30.7,22.1-44.4,34.9c-17.6,16.4-31.9,36.7-45.7,56
				c-21.4,30-34.8,65.9-48.5,99.6c-10.3,25.3-19.5,51.1-27.8,77.2c-8.6,26.8-16.1,53.9-22.2,81.4c-8.9,39.3-14.3,79.1-19.2,119.1
				c-6.6,54-7.1,108.6-0.1,162.6c5.5,42.3,11.2,84.1,23.5,125.1c4.2,14.2,9.1,28.2,14.6,41.9c10.3,25.7,20.9,51.6,33.5,76.2
				c9.4,17.5,22.3,31.5,38.6,42.1c14.5,13.3,31.5,22.2,51,26.8c19.9,6.3,39.9,7.1,59.8,2.7c20-0.9,38.6-6.8,55.8-17.8
				c10.1-7.8,20.2-15.6,30.4-23.5c18.6-18.7,31.4-40.8,38.6-66.2c1.8-13.3,3.6-26.6,5.4-39.9
				C684.3,1302.8,677.5,1277.5,663.9,1254.1L663.9,1254.1z"/>
		</g>
	</g>
	<g display="inline">
		<g>
			<path d="M772.9,752c56.2,11.6,113.1,19.7,170.1,26c44.1,4.8,88.3,7.6,132.7,8.2c23.4,0.3,46.9-0.6,70.2,2.5
				c-13.3-1.8-26.6-3.6-39.9-5.4c11.8,1.7,23.2,4.5,34.3,9c-11.9-5-23.9-10.1-35.8-15.1c0.6,0.3,1.2,0.5,1.8,0.8
				c0-86.3,0-172.7,0-259c-6,3.2-12.2,6.1-18.5,8.8c11.9-5,23.9-10.1,35.8-15.1c-20.6,8.5-42.1,14.1-63.8,19
				c-23.2,5.2-46.4,10.2-69.6,15.2c-47.1,10.3-94.2,20.5-141.3,30.8c-24.7,5.4-49.5,11.7-74.6,15.3c13.3-1.8,26.6-3.6,39.9-5.4
				c-12.3,1.7-24.7,2.4-37.1,0.9c13.3,1.8,26.6,3.6,39.9,5.4c-7.2-1-14.1-2.8-20.9-5.5c11.9,5,23.9,10.1,35.8,15.1
				c-5.4-2.4-10.4-5.3-15.1-8.8c10.1,7.8,20.2,15.6,30.4,23.5c-5.3-4.2-9.9-8.9-14-14.1c7.8,10.1,15.6,20.2,23.5,30.4
				c-6.6-8.6-11.6-18.1-15.8-28c5,11.9,10.1,23.9,15.1,35.8c-12.5-30.5-17.9-63.5-25.7-95.4c-4-16.3-8.5-32.4-14.6-48
				c-10.5-26.5-20.9-54.7-37.9-78c-18.4-25.3-39-48.3-58.2-72.9c7.8,10.1,15.6,20.2,23.5,30.4c-5.7-7.4-11.3-15.1-15.4-23.6
				c5,11.9,10.1,23.9,15.1,35.8c-0.7-1.7-1.2-3.3-1.6-5.2c1.8,13.3,3.6,26.6,5.4,39.9c-0.2-1.2-0.2-2.3,0-3.4
				c-1.8,13.3-3.6,26.6-5.4,39.9c0.2-0.6,0.3-1.1,0.5-1.7c-5,11.9-10.1,23.9-15.1,35.8c0.3-0.8,0.8-1.6,1.3-2.3
				c-7.8,10.1-15.6,20.2-23.5,30.4c0.5-0.7,1.1-1.3,1.8-1.8c-10.1,7.8-20.2,15.6-30.4,23.5c0.7-0.5,1.5-0.9,2.3-1.3
				c-11.9,5-23.9,10.1-35.8,15.1c2.2-0.9,4.4-1.4,6.8-1.7c-13.3,1.8-26.6,3.6-39.9,5.4c16.6-1.6,34-0.1,50.7,0
				c17.3,0.1,34.5,0.2,51.8,0.3c35.3,0.2,70.6,0.4,105.9,0.7c70.6,0.4,141.2,0.9,211.8,1.3c140.8,0.9,281.6,1.8,422.4,2.7
				c39.4,0.2,78.8,0.5,118.3,0.7c38.8,0.2,77.8-0.3,116.4,4.7c-13.3-1.8-26.6-3.6-39.9-5.4c7.7,1.1,15.3,2.5,22.6,5.4
				c-11.9-5-23.9-10.1-35.8-15.1c3.5,1.5,6.7,3.2,9.8,5.5c-10.1-7.8-20.2-15.6-30.4-23.5c2.1,1.7,4,3.5,5.7,5.5
				c-7.8-10.1-15.6-20.2-23.5-30.4c0.3,0.4,0.6,0.9,1,1.3c17.9-68.4,35.9-136.8,53.8-205.2c-3,1.6-6.1,3-9.2,4.3
				c11.9-5,23.9-10.1,35.8-15.1c-22.3,9.1-46.6,13.8-69.9,19.6c-23.7,6-47.4,11.9-71.1,17.7c-47.4,11.7-94.9,23.3-142.3,35.3
				c-94.9,24-189.5,49.6-282.4,80.8c-63.9,21.5-126.3,46.3-188.4,72.8c-17.5,9.4-31.5,22.3-42.1,38.6c-13.3,14.5-22.2,31.5-26.8,51
				c-6.3,19.9-7.1,39.9-2.7,59.8c0.9,20,6.8,38.6,17.8,55.8c7.8,10.1,15.6,20.2,23.5,30.4c18.7,18.6,40.8,31.4,66.2,38.6
				c13.3,1.8,26.6,3.6,39.9,5.4c27.1-0.1,52.3-6.9,75.7-20.5c2-0.8,3.9-1.7,5.9-2.5c-11.9,5-23.9,10.1-35.8,15.1
				c90.8-38.3,184.6-69.1,279.3-96s190.3-50.1,285.9-73.7c26.8-6.6,53.6-13.3,80.4-20.1c13.3-3.4,26.6-6.7,39.8-10.2
				c6.5-1.7,13.1-3.6,19.5-5.8c8.7-3,17.1-6.9,25.5-10.4c9-3.8,18.3-7.3,27.1-11.9c17.5-9.4,31.5-22.3,42.1-38.6
				c13.3-14.5,22.2-31.5,26.8-51c1.8-13.3,3.6-26.6,5.4-39.9c-0.1-27.1-6.9-52.3-20.5-75.7c-9.3-12.4-17.8-27.1-30.1-37.2
				c-10.4-8.5-21.6-18-33-25.3c-1.8-1.2-3.7-2.1-5.7-3c-12.7-5.9-26.4-11.9-39.6-16.6c-1.8-0.7-3.7-1.2-5.5-1.7
				c-4-1.1-8.1-1.8-12.3-2.4c-32.7-4.8-64.9-8.8-97.9-9.7c-42-1.1-84.1-0.8-126.1-1.1c-84.9-0.5-169.7-1.1-254.6-1.6
				s-169.7-1.1-254.6-1.6s-169.7-1.1-254.6-1.6c-42.3-0.3-84.6-1.4-126.9-0.8c-1.7,0-3.3,0.1-5,0.3c-8.3,0.7-32.5,3.9-40.6,5.5
				c-0.7,0.1-1.4,0.2-2.1,0.4c-7.2,1.6-17.7,7-21.8,8.8c-5.7,2.4-13.6,4.9-19.6,8.5c-5,3-27.1,20.3-31.4,24.2
				c-10.2,9.3-19,20.6-25.5,32.8c-3.1,5.8-7.5,17.6-8.1,19.1c-9.7,23.1-7.3,14.3-10.7,39.5c-3.6,26.9-5.2,31,2.6,63.3
				c2,8.1,5.9,15.3,9.2,23.1c4.4,10.5,7.7,19.3,13.6,28.4c2.6,4,5.3,7.8,8.2,11.6c12.7,16.8,25.4,33.4,39.1,49.4
				c5.7,6.7,11.5,13.5,16.9,20.5c-7.8-10.1-15.6-20.2-23.5-30.4c10,13.1,18,27.2,24.4,42.4c-5-11.9-10.1-23.9-15.1-35.8
				c16.1,38.9,21.6,81,33,121.3c4.4,15.4,10.3,29.6,16.6,44.4c6,14.3,11.5,29.1,20.4,41.9c9.5,13.7,19.5,27.2,30.7,39.5
				c7.3,8,16.4,14.2,24.9,20.8c8.4,6.5,16.6,13.8,26.2,18.6c12.8,6.5,26.6,11.7,40,17c2.8,1.1,5.6,2.2,8.5,3
				c16.2,4.6,38.3,6.3,52.3,7.9c5.2,0.6,10.3,0.9,15.6,0.9c23-0.2,46.4-4.5,68.9-8.2c22.9-3.8,45.5-9.5,68.2-14.4
				c48.2-10.5,96.4-21,144.6-31.5c25.8-5.6,51.6-10.9,77.2-17.1c12.3-3,24.5-6.3,36.5-10.4c17.4-6,34.2-13.7,51.1-20.9
				c6.3-2.7,12.4-5.6,18.5-8.8c46.1-24.5,74.3-78.3,74.3-129.5c-0.1-27.1-6.9-52.3-20.5-75.7c-13.3-22.5-31.3-40.5-53.8-53.8
				c-18.8-8.2-38-17.9-58.3-22.5c-3.9-0.9-7.7-1.6-11.6-2.2c-16.8-2.6-33.8-5.1-50.7-6.6c-17.1-1.6-34.3-1.2-51.4-1.3
				c-37.4-0.2-74.7-2-111.9-5.2c-21.2-1.9-42.3-4.2-63.3-7c13.3,1.8,26.6,3.6,39.9,5.4c-32.7-4.4-65.2-9.9-97.5-16.6
				c-19.9-6.3-39.9-7.1-59.8-2.7c-20,0.9-38.6,6.8-55.8,17.8c-17.5,9.4-31.5,22.3-42.1,38.6c-13.3,14.5-22.2,31.5-26.8,51
				c-1.8,13.3-3.6,26.6-5.4,39.9c0.1,27.1,6.9,52.3,20.5,75.7c7.8,10.1,15.6,20.2,23.5,30.4C725.5,732,747.5,744.9,772.9,752
				L772.9,752z"/>
		</g>
	</g>
	<g display="inline">
		<g>
			<path d="M516.4,342.9c-21.3,6.8-42.5,15.5-62,26.6c-18.9,10.7-35.8,25.3-52.8,38.5c-16.1,12.6-31,26.8-45.1,41.7
				c-22.8,24.2-43.2,50.8-62.7,77.6c-11.3,15.4-21.5,31.6-31.7,47.7c-11.4,18-22.9,36-36,52.9c7.8-10.1,15.6-20.2,23.5-30.4
				c-12,15.4-25.3,29.6-40.7,41.6c10.1-7.8,20.2-15.6,30.4-23.5c-3.2,2.4-6.3,4.7-9.9,6.4c11.9-5,23.9-10.1,35.8-15.1
				c-1.7,0.7-3.4,1.3-5.3,1.6c13.3-1.8,26.6-3.6,39.9-5.4c-1.3,0.1-2.5,0.1-3.8,0c13.3,1.8,26.6,3.6,39.9,5.4
				c-0.4-0.1-0.8-0.2-1.2-0.3c11.9,5,23.9,10.1,35.8,15.1c-0.8-0.3-1.5-0.7-2.2-1.2c10.1,7.8,20.2,15.6,30.4,23.5
				c-0.8-0.6-1.5-1.3-2-2.1c7.8,10.1,15.6,20.2,23.5,30.4c-0.3-0.5-0.5-0.9-0.8-1.4c5,11.9,10.1,23.9,15.1,35.8
				c-4.1-9.9-5.4-21.7-6.9-32.2c1.8,13.3,3.6,26.6,5.4,39.9c-3.6-28-2.7-56.3-0.2-84.4c2.4-27.5,5.9-55,9.5-82.3
				c-1.8,13.3-3.6,26.6-5.4,39.9c5.9-43.6,14-87.2,31.1-127.9c-5,11.9-10.1,23.9-15.1,35.8c4.8-11.3,10-22.7,17.4-32.6
				c-7.8,10.1-15.6,20.2-23.5,30.4c2.7-3.4,5.7-6.5,9.1-9.2c-10.1,7.8-20.2,15.6-30.4,23.5c2.3-1.7,4.7-3.1,7.4-4.3
				c-11.9,5-23.9,10.1-35.8,15.1c2.5-1,5.1-1.7,7.7-2.1c-13.3,1.8-26.6,3.6-39.9,5.4c3.4-0.4,6.8-0.4,10.2,0
				c-13.3-1.8-26.6-3.6-39.9-5.4c7.7,1.1,14.8,3.7,21.9,6.6c-11.9-5-23.9-10.1-35.8-15.1c48.1,20.6,95.5,41.1,145.9,55.1
				c19.2,5.3,38.6,9.9,58.1,13.6c9.8,1.9,19.6,3.6,29.4,5.1c7.6,1.1,15.1,2,22.2,5c-11.9-5-23.9-10.1-35.8-15.1
				c2.2,1,4.3,2.2,6.3,3.6c-10.1-7.8-20.2-15.6-30.4-23.5c1.2,1,2.2,2,3.1,3.2c-7.8-10.1-15.6-20.2-23.5-30.4
				c0.6,0.9,1.1,1.8,1.6,2.9c-5-11.9-10.1-23.9-15.1-35.8c0.4,1.1,0.6,2.1,0.8,3.3c-1.8-13.3-3.6-26.6-5.4-39.9
				c0.1,0.9,0.1,1.9,0,2.8c1.8-13.3,3.6-26.6,5.4-39.9c-0.3,1.7-0.7,3.2-1.3,4.8c5-11.9,10.1-23.9,15.1-35.8
				c-6.4,14.8-16.3,28.5-26,41.2c7.8-10.1,15.6-20.2,23.5-30.4c-20,25.9-43.7,48.9-68,70.7c-24.8,22.3-50.7,43.2-76.7,64
				c-50.3,40.1-101.4,79.8-145.8,126.6c-10.5,11.1-20.6,22.5-30.2,34.3c-17,21-33.9,42.4-49,64.9c-8.4,12.5-16.1,25.5-22.9,39
				c-3.5,6.8-6.8,13.8-9.8,20.8c-7.8,18.1-16,36.4-22.7,55c-4.7,13-8.3,26.4-11,39.9c-3.8,19.3-5.9,39-8.4,58.5
				c-0.9,6.7-1.5,13.5-1.8,20.3c-0.7,13.7-0.4,27.5,1,41.2c2,19.5,4.5,39,8,58.3c1.2,6.8,2.8,13.5,4.6,20.2
				c1.8,6.4,3.8,12.7,6.2,18.9c6.7,17.8,14.1,35.5,22.3,52.7c8.7,17.9,20.3,33.1,32.5,48.9c8,10.4,15.7,21.1,25,30.4
				c2.5,2.5,5.1,4.8,7.9,7c10.6,8.6,21.6,17.7,33,25.3c1.8,1.2,3.6,2.2,5.5,3.1c6.1,2.9,15.9,6.7,19.4,8.2c5,2.1,13.4,6.2,20.1,8.3
				c7.4,2.3,17.8,2.8,23.7,3.6c6.5,0.9,16.5,3,24.4,3c6.1,0,31.4-4.2,21.3-2.8c3.9-0.5,15-1.4,21.9-3.1c0.9-0.2,1.7-0.5,2.6-0.8
				c6.7-2.4,29.9-12.1,36.5-15.4c1.2-0.6,2.4-1.2,3.6-2c0.4-0.3,0.7-0.5,1.1-0.8c10.1-7.8,20.2-15.6,30.4-23.5
				c0.5-0.4,1-0.9,1.5-1.3c10.2-9.6,19.2-21.9,26.1-33.4c4-6.7,5.6-12.2,9.2-20.7c3.2-7.6,6.8-13.9,8.6-21.5
				c0.6-2.7,5.4-38,5.4-40.5c0-0.6,0-1.2,0.1-1.9c0-0.4-0.1-0.8-0.1-1.3c-1.8-13.3-3.6-26.6-5.4-39.9c-0.2-0.9-0.4-1.6-0.7-2.5
				c-4.6-19.5-13.6-36.5-26.8-51c-10.6-16.3-24.6-29.2-42.1-38.6c-17.2-11-35.8-16.9-55.8-17.8c-19.9-4.5-39.9-3.6-59.8,2.7
				c-11.9,5-23.9,10.1-35.8,15.1c-22.5,13.3-40.5,31.3-53.8,53.8c-5,11.9-10.1,23.9-15.1,35.8c-7.1,26.6-7.1,53.2,0,79.8
				c0.3,0.8,0.6,1.6,0.7,2.5c-1.8-13.3-3.6-26.6-5.4-39.9c0.1,1.3,0.2,2.4,0,3.7c1.8-13.3,3.6-26.6,5.4-39.9
				c-0.3,1.3-0.6,2.4-1.1,3.6c5-11.9,10.1-23.9,15.1-35.8c-0.6,1.2-1.2,2.2-2,3.3c7.8-10.1,15.6-20.2,23.5-30.4
				c-1.1,1.4-2.4,2.6-3.8,3.8c10.1-7.8,20.2-15.6,30.4-23.5c-1.5,1.1-3,2-4.7,2.8c11.9-5,23.9-10.1,35.8-15.1
				c-1.7,0.7-3.4,1.1-5.2,1.5c13.3-1.8,26.6-3.6,39.9-5.4c-2,0.2-3.9,0.1-5.8-0.2c13.3,1.8,26.6,3.6,39.9,5.4c-2.1-0.4-4-0.9-6-1.7
				c11.9,5,23.9,10.1,35.8,15.1c-3.5-1.5-6.6-3.4-9.6-5.6c10.1,7.8,20.2,15.6,30.4,23.5c-8.1-6.3-14.8-14.3-21.1-22.3
				c7.8,10.1,15.6,20.2,23.5,30.4c-10.1-13.2-18.4-27.7-25-43c5,11.9,10.1,23.9,15.1,35.8c-7.8-18.7-12.9-38.3-15.6-58.4
				c1.8,13.3,3.6,26.6,5.4,39.9c-3-23.4-2.8-47,0.3-70.4c-1.8,13.3-3.6,26.6-5.4,39.9c3.5-25.5,10.6-50.2,20.6-73.9
				c-5,11.9-10.1,23.9-15.1,35.8c13.4-31.4,31.4-60.4,52.2-87.4c-7.8,10.1-15.6,20.2-23.5,30.4C440,838.1,520,781.3,594.8,720
				c38.6-31.7,77.4-64.8,108.7-103.9c15-18.7,30.5-37.7,43.2-58.2c3.1-4.9,6.1-10,8.6-15.2c6.7-13.6,13.7-27.4,17.5-42
				c7.5-28.7,7.5-56.7,0.1-85.4c-1.8-7-5.5-13.6-8.2-20.1c-2.4-5.7-5.2-13.6-8.5-19.9c-6.6-12.3-16.2-23.8-26.3-33.7
				c-24-23.5-44.4-32.6-75.7-43.9c-10.1-3.6-21.3-4.2-31.8-5.9c-57.4-9.7-113.6-26.1-167.2-48.7c11.9,5,23.9,10.1,35.8,15.1
				c-5.6-2.4-11.2-4.9-16.8-7.3c-14-6.1-28.2-12.4-42.4-17.8c-3-1.2-6.1-2.2-9.3-3.1c-17.5-4.7-36.2-8-54.4-7.2
				c-7.5,0.3-17.5,2.2-23.3,3c-5.4,0.7-16,1.5-23.3,3.3c-14.5,3.9-28.5,10.9-42,17.6c-29.9,15-55.2,44.8-72.5,72.5
				c-12.1,19.3-20.6,43.7-29,64c-23.2,56-29.6,117.3-37.2,176.9c-6.3,49.6-14.1,100.5-8.6,150.5c2,18.6,4.4,37.2,7.6,55.6
				c1.1,6.3,2.2,12.9,4.2,19c8.8,28,19.9,49.5,40.5,70.6c10.1,10.4,21.7,19.9,34.6,26.7c6,2.5,11.9,5,17.9,7.6
				c6.1,3.6,12.4,6.2,19.1,7.9c13.3,1.8,26.6,3.6,39.9,5.4c0.6,0.1,1.2,0.2,1.9,0.2c15.3,0,31.3-1.5,45.8-6.5
				c16.8-5.8,33.1-11.5,47.1-22.1c13.9-10.5,28.3-20.9,41.3-32.6c7.8-7,15-14.7,21.8-22.7c23.6-27.9,44.8-57.5,64.3-88.3
				c13.5-21.3,27-42.6,42.3-62.6c-7.8,10.1-15.6,20.2-23.5,30.4c22.4-28.9,47.9-56.3,76.8-78.9c-10.1,7.8-20.2,15.6-30.4,23.5
				c11.6-8.9,24-16.8,37.5-22.5c-11.9,5-23.9,10.1-35.8,15.1c3.6-1.5,7.3-2.8,11.1-4c19.5-4.6,36.5-13.6,51-26.8
				c16.3-10.6,29.2-24.6,38.6-42.1c11-17.2,16.9-35.8,17.8-55.8c4.5-19.9,3.6-39.9-2.7-59.8c-5-11.9-10.1-23.9-15.1-35.8
				c-13.3-22.5-31.3-40.5-53.8-53.8c-11.9-5-23.9-10.1-35.8-15.1C569.6,335.7,543,335.7,516.4,342.9L516.4,342.9z"/>
		</g>
	</g>
	<g display="inline">
		<g>
			<path d="M336.1,373.5c69.2,13.4,139.8,20.8,210.2,23.9c57.5,2.5,115.1,2.5,172.7,2.7c117.6,0.4,235.2-0.3,352.8-2.2
				c63.3-1,126.9-2.9,189.9,5.5c-13.3-1.8-26.6-3.6-39.9-5.4c23.1,3.2,45.9,7.7,68.3,14.1c19.9,6.3,39.9,7.1,59.8,2.7
				c20-0.9,38.6-6.8,55.8-17.8c17.5-9.4,31.5-22.3,42.1-38.6c13.3-14.5,22.2-31.5,26.8-51c1.8-13.3,3.6-26.6,5.4-39.9
				c-0.1-27.1-6.9-52.3-20.5-75.7c-7.8-10.1-15.6-20.2-23.5-30.4c-18.7-18.6-40.8-31.4-66.2-38.6c-40.1-11.5-81.8-16.8-123.1-21.3
				c-28.3-3.1-56.7-4.2-85.1-4.5c-58.5-0.6-117,1.4-175.5,2c-119.9,1.4-239.9,1.9-359.8,0.4c-66.3-0.9-132.7-3.3-198.4-12.1
				c13.3,1.8,26.6,3.6,39.9,5.4c-17.4-2.4-34.7-5.2-51.9-8.5c-19.9-6.3-39.9-7.1-59.8-2.7c-20,0.9-38.6,6.8-55.8,17.8
				c-17.5,9.4-31.5,22.3-42.1,38.6c-13.3,14.5-22.2,31.5-26.8,51c-1.8,13.3-3.6,26.6-5.4,39.9c0.1,27.1,6.9,52.3,20.5,75.7
				c7.8,10.1,15.6,20.2,23.5,30.4C288.6,353.6,310.6,366.4,336.1,373.5L336.1,373.5z"/>
		</g>
	</g>
	<g display="inline">
		<g>
			<path d="M1488.2,312.7c1.6-0.6,2.9-1,4.5-1.2c-13.3,1.8-26.6,3.6-39.9,5.4c1.6-0.1,3.1,0,4.7,0.2c-13.3-1.8-26.6-3.6-39.9-5.4
				c2.2,0.4,4.2,1,6.3,1.8c-11.9-5-23.9-10.1-35.8-15.1c10.6,4.5,20.5,11.4,30.3,17.3c10.2,6.1,20.3,12.3,30.3,18.7
				c20,12.7,39.6,26.1,58.5,40.5c-10.1-7.8-20.2-15.6-30.4-23.5c31.7,24.5,60,52.4,84.6,84c-7.8-10.1-15.6-20.2-23.5-30.4
				c19.3,25,36.5,51.5,52.8,78.6c17.1,28.2,33.7,56.7,48.8,86c8.4,16.3,16.2,32.8,23.4,49.7c-5-11.9-10.1-23.9-15.1-35.8
				c23.9,56.9,40.1,116.8,48.3,178c-1.8-13.3-3.6-26.6-5.4-39.9c8.1,61.2,8.2,123.2,0.1,184.4c1.8-13.3,3.6-26.6,5.4-39.9
				c-2.9,21.5-6.8,42.9-11.7,64.1c-6.3,19.9-7.1,39.9-2.7,59.8c0.9,20,6.8,38.6,17.8,55.8c9.4,17.5,22.3,31.5,38.6,42.1
				c14.5,13.3,31.5,22.2,51,26.8c13.3,1.8,26.6,3.6,39.9,5.4c27.1-0.1,52.3-6.9,75.7-20.5c10.1-7.8,20.2-15.6,30.4-23.5
				c18.6-18.7,31.4-40.8,38.6-66.2c3.5-15.2,6.5-30.4,9-45.8c4.6-28.3,8.5-56.8,11.1-85.3c2.9-31.3,3.7-62.8,2.4-94.1
				c-0.7-15.5-1.8-31.1-3.5-46.5c-3.1-28.2-6.8-56.4-11.7-84.3c-5.4-30.9-12.9-61.5-22.4-91.5c-23.6-74.1-58-144-97.4-210.8
				c-16.4-27.7-33.2-55.2-52-81.3c-16.6-23-33.8-45.7-52.3-67.2c-10.3-12-21.3-23.4-32.9-34.1c-16-14.8-33.2-28.1-50.4-41.4
				c-17.5-13.5-35.1-26.8-53.5-39.1c-13.1-8.8-26.4-17.1-39.8-25.4c-13.1-8-26.2-17.2-40.2-23.5c-12.9-5.8-26-12.6-39.7-16.5
				c-0.8-0.2-1.6-0.4-2.4-0.6c-7.5-1.7-32.8-4.8-40.7-5.5c-8.4-0.7-15.4,1.3-24.6,2.5c-5.6,0.7-17.2,1-24.5,3.9
				c-19.5,4.6-36.5,13.6-51,26.8c-16.3,10.6-29.2,24.6-38.6,42.1c-11,17.2-16.9,35.8-17.8,55.8c-4.5,19.9-3.6,39.9,2.7,59.8
				c5,11.9,10.1,23.9,15.1,35.8c13.3,22.5,31.3,40.5,53.8,53.8c11.9,5,23.9,10.1,35.8,15.1C1435.1,319.9,1461.6,319.9,1488.2,312.7
				L1488.2,312.7z"/>
		</g>
	</g>
	<g display="inline">
		<g>
			<path d="M1633.6,1065.1c7.4,24.6,18.4,48.2,28.4,71.7c5.2,12.3,10.8,24.5,16.1,36.8c-5-11.9-10.1-23.9-15.1-35.8
				c24.1,57.1,42,117,50.4,178.5c-1.8-13.3-3.6-26.6-5.4-39.9c4.5,33.7,6.1,67.7,4.2,101.7c-0.8,20.7,3.5,39.9,12.9,57.8
				c6,18.6,16.4,34.7,31,48.3c13.6,14.6,29.7,25,48.3,31c17.9,9.4,37.1,13.7,57.8,12.9c13.3-1.8,26.6-3.6,39.9-5.4
				c25.4-7.1,47.5-20,66.2-38.6c7.8-10.1,15.6-20.2,23.5-30.4c13.6-23.4,20.4-48.6,20.5-75.7c1.2-21.6,1-43.3-0.5-64.8
				c-0.8-11.1-1.9-22.2-3.3-33.2c-3-23.1-5.8-46.3-9.9-69.2c-7.7-42.7-19.8-84.6-35.3-125.2c-13.2-34.8-28.9-68.6-43.4-102.9
				c5,11.9,10.1,23.9,15.1,35.8c-4.6-10.9-8.8-22-12.2-33.3c-4.6-19.5-13.6-36.5-26.8-51c-10.6-16.3-24.6-29.2-42.1-38.6
				c-17.2-11-35.8-16.9-55.8-17.8c-19.9-4.5-39.9-3.6-59.8,2.7c-11.9,5-23.9,10.1-35.8,15.1c-22.5,13.3-40.5,31.3-53.8,53.8
				c-5,11.9-10.1,23.9-15.1,35.8C1626.4,1011.9,1626.4,1038.5,1633.6,1065.1L1633.6,1065.1z"/>
		</g>
	</g>
	<g display="inline">
		<g>
			<path d="M1176.9,1660.2c-67.5,2.1-135.1-0.1-202.4-6.6c-19.2-1.9-38.3-4.1-57.4-6.6c13.3,1.8,26.6,3.6,39.9,5.4
				c-78.9-10.7-157.6-26.4-233.1-51.6c-20.8-6.9-41.3-14.6-61.5-23.1c11.9,5,23.9,10.1,35.8,15.1c-50.3-21.3-97.2-48.3-141.5-80.2
				c-41.6-29.9-81.5-62.4-125.6-88.6c-12.2-7.2-24.6-14-37.4-20c-24.5-11.5-49.6-22.4-75.4-30.7c-19.9-6.3-39.9-7.1-59.8-2.7
				c-20,0.9-38.6,6.8-55.8,17.8c-17.5,9.4-31.5,22.3-42.1,38.6c-13.3,14.5-22.2,31.5-26.8,51c-1.8,13.3-3.6,26.6-5.4,39.9
				c0.1,27.1,6.9,52.3,20.5,75.7c7.8,10.1,15.6,20.2,23.5,30.4c18.7,18.6,40.8,31.4,66.2,38.6c9.4,3,18.6,6.4,27.6,10.3
				c-11.9-5-23.9-10.1-35.8-15.1c51.6,22,96.8,56,141.5,89.3c22.6,16.8,45.2,33.7,68.9,49c25.1,16.3,51.5,30.8,78.6,43.6
				c66,31.1,134.4,56.2,205.3,73.6c74.7,18.3,151.2,29.6,227.5,38.1c66.1,7.4,132.8,10.6,199.3,9.6c8.5-0.1,17-0.3,25.4-0.6
				c20.7,0.8,39.9-3.5,57.8-12.9c18.6-6,34.7-16.4,48.3-31c14.6-13.6,25-29.7,31-48.3c9.4-17.9,13.7-37.1,12.9-57.8
				c-1.8-13.3-3.6-26.6-5.4-39.9c-7.1-25.4-20-47.5-38.6-66.2c-10.1-7.8-20.2-15.6-30.4-23.5
				C1229.2,1667.1,1204,1660.3,1176.9,1660.2L1176.9,1660.2z"/>
		</g>
	</g>
</g>
<g id="Layer_1_1_">
	
		<image display="none" overflow="visible" width="2048" height="2048" xlink:href="5B009EA8.png"  transform="matrix(0.9922 0 0 0.9922 -16 -16)">
	</image>
	<path display="none" opacity="0.33" fill="none" enable-background="new    " d="z"/>
	
		<image display="none" overflow="visible" opacity="0.19" enable-background="new    " width="880" height="920" xlink:href="5B009EA8.jpeg"  transform="matrix(1.8523 0 0 1.8342 182.0838 312.5)">
	</image>
	<g>
		<g>
			<defs>
				<rect id="SVGID_1_" x="388.8" y="513.8" width="1200.5" height="976"/>
			</defs>
			<clipPath id="SVGID_2_">
				<use xlink:href="#SVGID_1_"  overflow="visible"/>
			</clipPath>
			<g clip-path="url(#SVGID_2_)">
				<path fill="#00AEEF" d="M1201.5,514.8c13.3,0,26.7,0,40,0c5.7,1.8,11.8,1.6,17.6,2.7c53.1,8.9,99,31.8,136.9,70.2
					c3,3,5.8,4.8,10.5,3.8c50.1-10.8,97.6-28.6,142.3-53.8c2-1.1,4.3-4.1,6.5-2.2c2,1.8-0.3,4.6-1,6.7
					c-16.2,44.2-42.9,80.7-79.9,109.7c-7,5.4-14.3,10.5-22.8,16.6c48.5-5.8,93.5-18.7,137.4-37.6c-0.4,1.6-0.4,2.2-0.6,2.7
					c-1.4,2.3-2.8,4.4-4.3,6.6c-30.5,43.2-66.9,80.9-109.3,112.6c-5.1,3.8-7.1,7.7-6.8,14.1c1,37.6-0.3,75.1-5.4,112.5
					c-12,85.9-38.1,167.3-78.6,243.9c-39.4,74.3-89.7,139.9-152.3,196.2c-40.3,36.2-84.3,67.1-132.2,92.4
					c-97.9,51.7-202.6,76.1-312.8,79c-37.2,1-74.5-1-111.4-6.1c-100.2-13.4-193.1-47.1-278.9-100.7c-1.3-0.8-3-1.1-3.4-3.8
					c132.8,12.8,252.8-20.1,359-101.2c-8.2-1.5-16.5-1.9-24.4-3.3c-98-15.7-164.8-70.2-200.7-162.5c-2.2-5.4-1.1-6.6,4.8-5.7
					c25.7,4.2,51.4,4.3,77.1,0.3c7.7-1.3,15.4-2.4,23.2-4.9c-1.5-2.2-3.4-2-5.1-2.4c-52.6-12.9-96.4-40-131.1-81.6
					c-37-44.3-56.4-95.5-57.2-153.4c-0.1-7.5,0.5-7.9,7.3-4.3c28.1,14.6,58,23,89.5,26.1c3.3,0.3,6.8,1.1,10.6-0.8
					c-8.1-6.6-16.1-12.3-23.2-18.9c-56.9-52.7-84.8-117.5-82.2-195.3c1.3-38,11.7-73.3,29.4-106.8c3.3-6.1,3.8-6.2,8.1-1
					c26,31.2,54.2,59.9,85.1,86.1c51.8,43.9,108.7,79.8,170.7,107.3c76.1,33.7,155.8,53.2,238.8,58c8.2,0.5,8.2,0.4,6.7-7.6
					c-8.5-45.5-6-90.2,10.9-133.2c34.4-87.4,98.4-139.7,190.6-157.7C1187.5,516.7,1194.5,515.8,1201.5,514.8z"/>
			</g>
		</g>
	</g>
</g>
<g id="Layer_5" display="none">
	
		<image overflow="visible" opacity="0.24" enable-background="new    " width="512" height="512" xlink:href="5B009EAF.png"  transform="matrix(2.2832 0 0 2.2832 407.1227 415.5)">
	</image>
	<path display="inline" fill="#00AEEF" d="M1183.3,512.5c-0.2,16.8,0.6,95,61.6,160.5c67.5,72.5,156.4,73.4,171.1,73.3
		c0,54.9,0,109.8,0,164.7c-27.4,0.6-66.7-1.5-111.6-14.9c-55.3-16.5-95.2-42.9-119-61.6c0,116.6,0,233.1,0,349.6
		c-6,152.1-116.5,278.2-259.3,301.8c-164.9,27.3-323.9-90.2-353.9-249.7c-26.4-140.3,54.1-276.2,166.9-333.7
		c71.7-36.6,141.6-33.8,176.4-29.8c0,57.1,0,114,0,171.1c-61-19.3-127.4,4.6-161.5,57.4c-36,55.8-25.5,127.7,17,173.2
		c47.1,50.4,125.3,59.3,180.7,23.4c59.7-38.7,63.6-110.6,63.8-118c0-222.4,0-445,0-667.4C1071.4,512.5,1127.3,512.5,1183.3,512.5z"
		/>
</g>
<g id="Layer_6">
</g>
<g id="Layer_2" display="none">
	<g id="XMLID_1_" display="inline">
		<g>
			<path fill="#00AEEF" d="M1489.5,699c8.2,29.6,9.8,55.5,9.5,73.7c0,157.9,0,315.7,0,473.6c-2.2,23-13.3,107.5-85,177.2
				c-65.2,63.4-140.7,75.5-165,78.4c-173.5,0-346.9,0-520.4,0c-21.5-3.5-100.9-19.4-163.3-92c-62.3-72.6-66.1-153.7-66.3-175.5
				c1.2-160.1,2.2-320.3,3.4-480.4c1.6-21.1,10.2-104.5,79.9-173.8c68.6-68.1,150.4-76.8,171.8-78.4c158.2,0,316.3,0,474.5,0
				c23.3,0.7,118.6,6.1,192.2,80.1C1469.8,631.2,1486.4,688.1,1489.5,699z M1350.6,1358.2c63.1-61.6,57.5-142.2,56.6-152.9
				c0-151.1,0-302.1,0-453.2c-2.5-17.9-11.6-65-50.9-105.5c-58.8-60.6-137.5-57.1-149.8-56.4c-142.3,0-284.5,0-426.9,0
				c-14.4,0.3-79.1,3-132.2,54.9c-59.9,58.5-58.6,133.8-58.2,146.1c0,135.7,0,271.4,0,407.2c-1.5,11.4-10.2,85.7,43.8,148.2
				c57.3,66.3,137.8,65.1,148.4,64.7c140,0,280.1,0,420.1,0C1212.6,1412.4,1289.5,1417.8,1350.6,1358.2z"/>
		</g>
	</g>
	<g display="inline">
		<g id="XMLID_2_">
			<g>
				<path fill="#00AEEF" d="M1122.3,773.4c117.7,63.9,164.7,207.8,117.3,325.4c-55.6,138.1-226.9,204-360.5,134.6
					c-139.7-72.5-179-261.9-90.1-385C861.2,748.3,1005.4,709.9,1122.3,773.4z M1155.5,1064.3c30.7-76.4,0.2-169.8-76.2-211.3
					c-75.9-41.2-169.6-16.3-216.5,48.7c-57.8,79.9-32.2,203,58.6,250.1C1008.1,1196.7,1119.4,1153.9,1155.5,1064.3z"/>
			</g>
			<g>
				<path fill="none" stroke="#FFFFFF" stroke-miterlimit="10" d="M788.9,848.3c-88.9,123.1-49.5,312.5,90.1,385
					c133.6,69.4,304.9,3.5,360.5-134.6c47.3-117.6,0.3-261.5-117.3-325.4C1005.4,709.9,861.2,748.3,788.9,848.3z"/>
				<path fill="none" stroke="#FFFFFF" stroke-miterlimit="10" d="M862.8,901.6c-57.8,79.9-32.2,203,58.6,250.1
					c86.8,45,198,2.2,234.1-87.4c30.7-76.4,0.2-169.8-76.2-211.3C1003.4,811.7,909.8,836.7,862.8,901.6z"/>
			</g>
		</g>
	</g>
	<path display="inline" fill="#00AEEF" d="M1219.4,695.7c-20.8,28.8-11.6,73,21.1,90c31.2,16.2,71.3,0.8,84.3-31.5
		c11.1-27.5,0.1-61.1-27.4-76C1270,663.3,1236.3,672.3,1219.4,695.7z"/>
</g>
<g id="Layer_3" display="none">
	<path display="inline" fill="#00AEEF" d="M1063.5,1491.1c0-159.6,0-319.2,0-478.8c46.7-1.5,93.3-3,140-4.5
		c4.9-56.6,9.8-113.2,14.8-169.8c-51.5,0-103,0-154.5,0c0-39.4,0-78.8,0-118.3c0.2-2.4,1.3-12,9.5-19.8c7.5-7.1,16.2-8.1,18.8-8.3
		c42.1,0,84.2,0,126.3,0c0.6-59.1,1.2-118.2,1.8-177.3c-72.7,2.3-145.3,4.7-218,7c-15.8,2.7-52.2,11.1-85.5,41.3
		c-43.5,39.3-52.2,88.8-54.3,103.3c-2.4,57.2-4.8,114.3-7.3,171.5c-33,0.3-66,0.7-99,1c0.3,57.6,0.7,115.2,1,172.8
		c32.3,0.8,64.7,1.5,97,2.3c0,159.3,0,318.5,0,477.8C923.8,1491.3,993.7,1491.2,1063.5,1491.1z"/>
</g>
<g id="Layer_4" display="none">
	<g display="inline">
		<path fill="#00AEEF" d="M657.6,771.3c1.4-0.7,2.6-1.2,3.8-1.8c31.4-15.9,62.9-31.5,95.7-44.3c33.6-13.2,67.9-23.6,103.3-30.7
			c22.6-4.5,45.3-7.8,68.3-9.8c17.8-1.6,35.6-2.1,53.5-2.9c16.2-0.7,32.3,0,48.4,0.5c23.7,0.7,47.3,3,70.7,6.4
			c38.1,5.5,75.3,14.5,111.7,27c25.2,8.7,49.9,19,74,30.6c15.9,7.6,31.7,15.6,47.5,23.4c1.1,0.5,2.2,1,3.4,1.3
			c-2-3.1-5.1-5.2-7.8-7.5c-15.5-13.4-31.3-26.5-48.2-38.1c-18.8-13-38.6-24.2-59.4-33.7c-30.4-13.9-62.1-24.1-94.5-32.2
			c-4-1-4-1.2-2.3-4.8c2.4-4.9,5.1-9.8,7.3-14.8c1.4-3.2,3.5-4.1,6.7-3.7c13.8,1.5,27.5,3.4,41,6.4c39.3,8.6,76.6,22.8,112.4,41
			c24.2,12.4,47.4,26.4,69.4,42.5c1.3,1,2.3,2.2,3.2,3.5c6.5,9.8,12.2,19.9,17.6,30.3c20.3,38.6,37,78.8,51.4,119.9
			c17.1,48.7,30.2,98.5,40.8,149.1c6.3,30.4,11.5,61,15.6,91.8c2.9,21.4,5.3,42.9,7.2,64.5c1.3,14.2,2.3,28.5,3.3,42.8
			c0.2,3.3-1,5.6-3.2,7.9c-16.8,18.6-35.2,35.4-55.3,50.3c-14.4,10.6-29.4,20.3-45.1,28.9c-21,11.6-42.9,21.3-65.6,29.1
			c-30.3,10.4-61.3,18.1-93.1,22.2c-10.7,1.4-21.3,2.7-32.1,2.9c-2.5,0-4.3-0.7-5.8-2.8c-10.9-14.7-21.9-29.4-33-44
			c-2-2.6-1.3-3.6,1.5-4.6c21.4-7.6,42.2-16.7,62.3-27.3c28.9-15.2,55.9-33.3,80.8-54.3c16.8-14.2,32.6-29.5,47.2-45.9
			c0.3-0.4,0.9-0.7,0.7-1.5c-7.7,5.4-15.4,10.8-23.1,16.1c-14.2,9.7-28.9,18.5-44,26.8c-29.2,15.9-59.6,28.8-91.2,39
			c-31.5,10.1-63.6,17.5-96.3,22.2c-20.6,3-41.3,4.9-62.1,6.4c-25.1,1.7-50.2,1.5-75.2,1c-16.9-0.4-33.8-1.8-50.7-3.6
			c-32-3.3-63.5-8.9-94.6-16.9c-20.6-5.3-40.9-12-60.8-19.6c-36.3-14-70.5-31.9-102.9-53.3c-8.7-5.7-17.1-11.9-26-17.6
			c1.8,2.1,3.6,4.4,5.5,6.4c25.7,27.6,54,52.1,85.6,72.8c30.4,19.9,62.8,36,97,48.4c8,2.9,7.1,2.2,2.4,8.5
			c-10.1,13.5-20.2,26.9-30.2,40.5c-1.9,2.6-3.9,3.6-7.2,3.5c-18.5-0.7-36.7-3.2-54.8-6.6c-45.3-8.5-88.7-22.9-129.5-44.5
			c-29-15.3-55.8-33.8-80-56.1c-9.4-8.6-18.2-17.8-26.9-27c-1.7-1.8-2.6-3.7-2.4-6.2c0.8-11,1.3-21.9,2.3-32.9
			c1.3-14.8,3-29.6,4.5-44.4c1.9-18.2,4.4-36.4,7.2-54.5c6.7-44.2,15.7-87.9,26.9-131.2c12.5-48.4,28.2-95.8,47.4-142
			c12.7-30.4,26.9-60,43.8-88.3c3.6-6,8.2-10.5,13.8-14.4c26.5-18.5,54.4-34.3,83.8-47.6c31.7-14.3,64.5-25,98.5-32
			c11.2-2.3,22.6-3.9,33.9-5.3c3.1-0.4,5.1,0.4,6.5,3.5c2.1,4.9,4.8,9.7,7.2,14.5c2,4.1,2,4.1-2.3,5.1c-25,5.9-49.5,13.5-73.3,23.1
			c-41.1,16.7-78.4,39.7-112.7,67.7c-7.5,6.2-14.9,12.6-22.3,18.9C658.5,769.4,657.7,769.8,657.6,771.3z M768.7,1050.7
			c0.8,26.5,10.1,51.9,32.8,71.2c16.7,14.3,36.3,20.4,58.1,16.9c29.1-4.7,48.1-22.7,60.3-48.5c7.5-15.9,10.1-32.9,8.6-50.5
			c-2.1-24.5-11.2-45.7-29.2-62.6c-16.5-15.5-36.4-22.4-58.9-19.9c-20.5,2.3-36.9,12.6-49.8,28.4
			C775.6,1003.7,769,1024.8,768.7,1050.7z M1226.8,1051c-0.1-21.4-4.4-39-14.3-54.8c-15.7-24.8-37.5-39.8-68-39.1
			c-22.5,0.5-40.7,10.4-54.9,27.2c-17.4,20.7-24.5,44.9-22.5,71.8c1.9,25.3,11.5,47,30.3,64.2c14.3,13.1,31.3,19.9,50.7,19.5
			c19.9-0.4,37-8.2,51-22.3C1218.1,1098.3,1226.4,1074.8,1226.8,1051z"/>
	</g>
</g>
</svg>
